<?xml version="1.0" standalone="no"?><!DOCTYPE svg PUBLIC "-//W3C//DTD SVG 1.1//EN" "http://www.w3.org/Graphics/SVG/1.1/DTD/svg11.dtd"><svg class="icon" width="200px" height="200.00px" viewBox="0 0 1024 1024" version="1.1" xmlns="http://www.w3.org/2000/svg"><path fill="#1346241|-1,1346260|-1,1359060|-1,1359163|-1,1359164|-1,1359499|-1,1359500|-1,1359887|-1,1364596|-1,1364672|-1,1364673|-1,1364703|-1,1364704|-1,1365963|-1,1368346|-1,1368347|-1,1368348|-1,1368349|-1,2071393|-1,2071528|-1" d="M843.56608 579.0208h-309.26336c-10.63936 0-19.3024 8.64768-19.3024 19.5584v313.6c0 10.91584 8.66304 19.6608 19.3024 19.6608h309.37088c10.65984 0 19.37408-8.74496 19.37408-19.6608v-313.6a19.456 19.456 0 0 0-19.4816-19.5584z m-19.2768 313.69728H553.6256v-274.57536h270.66368v274.57536z m-403.5072-313.69728H111.5392c-10.66496 0-19.3792 8.64768-19.3792 19.5584v313.6c0 10.91584 8.71424 19.6608 19.3792 19.6608h309.24288c10.68544 0 19.34848-8.74496 19.34848-19.6608v-313.6c0-10.91072-8.66304-19.5584-19.34848-19.5584z m-19.328 313.69728H130.78528v-274.57536h270.6688v274.57536z m19.328-744.6784H111.5392c-10.66496 0-19.3792 8.80128-19.3792 19.6096v313.67168c0 10.81344 8.71424 19.61472 19.3792 19.61472h309.24288c10.68544 0 19.34848-8.80128 19.34848-19.61472V167.64928c0-10.80832-8.66304-19.6096-19.34848-19.6096z m-19.328 313.69216H130.78528V187.264h270.6688v274.46784z m524.74368-158.36672l-202.58816-205.4656A19.5328 19.5328 0 0 0 709.97504 92.16a19.70688 19.70688 0 0 0-13.78816 5.73952l-202.56256 205.4656c-7.51104 7.64416-7.51104 20.10112 0 27.74528l202.56256 205.41952a19.6352 19.6352 0 0 0 13.78816 5.6832c4.92032 0 9.84576-1.90464 13.63456-5.6832l202.58816-205.4144a20.04992 20.04992 0 0 0 5.64224-13.8752c0-5.17632-2.0992-10.16832-5.64224-13.8752z m-216.22272 191.62112l-175.28832-177.74592 175.28832-177.74592 175.22176 177.74592-175.22176 177.74592z"  /></svg>