<?xml version="1.0" standalone="no"?><!DOCTYPE svg PUBLIC "-//W3C//DTD SVG 1.1//EN" "http://www.w3.org/Graphics/SVG/1.1/DTD/svg11.dtd"><svg class="icon" width="200px" height="200.00px" viewBox="0 0 1024 1024" version="1.1" xmlns="http://www.w3.org/2000/svg"><path fill="#1330913|-1,1330986|-1,1331060|-1,1331061|-1,1331084|-1,1331141|-1,1331171|-1,1331172|-1,1336019|-1,1340863|-1,1340927|-1,1343938|-1,1345762|-1,1345821|-1,1345876|-1,1345893|-1,1345932|-1,1346232|-1,1346236|-1,1346237|-1" d="M616.6528 396.9792h73.3696l-92.2624-96v77.10464c-0.0128 10.42176 8.4736 18.89536 18.8928 18.89536z"  /><path fill="#1330913|-1,1330986|-1,1331060|-1,1331061|-1,1331084|-1,1331141|-1,1331171|-1,1331172|-1,1336019|-1,1340863|-1,1340927|-1,1343938|-1,1345762|-1,1345821|-1,1345876|-1,1345893|-1,1345932|-1,1346232|-1,1346236|-1,1346237|-1" d="M616.6528 417.8944c-21.952 0-39.81056-17.856-39.81056-39.81056v-97.216h-224.88064c-20.16 0-36.5568 16.3968-36.5568 36.5568V706.5856c0 20.16 16.3968 36.544 36.5568 36.544h320.07424c20.16 0 36.5568-16.3968 36.5568-36.544V417.8944H616.6528z m-176.9856 203.79648a14.4896 14.4896 0 0 1-20.49024 20.49024L376.79872 599.808a18.23744 18.23744 0 0 1 0-25.78432l42.37312-42.3808a14.49472 14.49472 0 0 1 20.50304 20.49024l-34.78528 34.78016 34.7776 34.7776z m98.91584-91.63264l-25.61024 120.47616a14.48704 14.48704 0 0 1-17.18784 11.15904 14.4896 14.4896 0 0 1-11.1616-17.1904l25.6128-120.47616a14.4896 14.4896 0 1 1 28.34688 6.03136z m107.81952 71.66976l-42.37056 42.37312a14.49472 14.49472 0 0 1-20.49536 0.00512 14.48704 14.48704 0 0 1-0.01024-20.49536l34.78272-34.7776-34.77248-34.78016a14.4896 14.4896 0 0 1 20.49024-20.49024l42.37568 42.37312 0.00512 0.00256a18.23488 18.23488 0 0 1-0.00512 25.78944z"  /><path fill="#1330913|-1,1330986|-1,1331060|-1,1331061|-1,1331084|-1,1331141|-1,1331171|-1,1331172|-1,1336019|-1,1340863|-1,1340927|-1,1343938|-1,1345762|-1,1345821|-1,1345876|-1,1345893|-1,1345932|-1,1346232|-1,1346236|-1,1346237|-1" d="M512 0C229.23008 0 0 229.23008 0 512s229.23008 512 512 512 512-229.23008 512-512S794.76992 0 512 0z m0 998.4C243.36896 998.4 25.6 780.63104 25.6 512 25.6 243.3664 243.36896 25.6 512 25.6s486.4 217.7664 486.4 486.4c0 268.63104-217.76896 486.4-486.4 486.4z"  /></svg>