<?xml version="1.0" standalone="no"?><!DOCTYPE svg PUBLIC "-//W3C//DTD SVG 1.1//EN" "http://www.w3.org/Graphics/SVG/1.1/DTD/svg11.dtd"><svg class="icon" width="200px" height="200.00px" viewBox="0 0 1024 1024" version="1.1" xmlns="http://www.w3.org/2000/svg"><path fill="#1330913|-1,1330986|-1,1331060|-1,1331061|-1,1331084|-1,1331141|-1,1331171|-1,1331172|-1,1336019|-1,1340863|-1,1340927|-1,1343938|-1,1345762|-1,1345821|-1,1345876|-1,1345893|-1,1345932|-1,1346232|-1,1346236|-1,1346237|-1" d="M722.0992 279.1936h146.7392l-184.5248-192v154.2144c-0.0256 20.8384 16.9472 37.7856 37.7856 37.7856z"  /><path fill="#1330913|-1,1330986|-1,1331060|-1,1331061|-1,1331084|-1,1331141|-1,1331171|-1,1331172|-1,1336019|-1,1340863|-1,1340927|-1,1343938|-1,1345762|-1,1345821|-1,1345876|-1,1345893|-1,1345932|-1,1346232|-1,1346236|-1,1346237|-1" d="M722.0992 321.024c-43.904 0-79.62112-35.712-79.62112-79.616V46.976H192.7168c-40.32 0-73.1136 32.7936-73.1136 73.1136V898.4064c0 40.32 32.7936 73.088 73.1136 73.088h640.1536c40.32 0 73.1136-32.7936 73.1136-73.088V321.024h-183.8848zM368.128 728.61696a28.9792 28.9792 0 0 1-40.98048 40.98048L242.38592 684.8512a36.47488 36.47488 0 0 1 0-51.56864l84.74624-84.7616a28.98944 28.98944 0 0 1 41.00608 40.98048l-69.56544 69.56032L368.128 728.61696z m197.83168-183.26528l-51.22048 240.95232a28.9792 28.9792 0 0 1-34.37568 22.31808 28.9792 28.9792 0 0 1-22.3232-34.3808l51.2256-240.95232a28.98432 28.98432 0 0 1 56.69376 12.06272z m215.63904 143.33952l-84.74112 84.74624a28.98944 28.98944 0 0 1-40.99072 0.01024 28.97408 28.97408 0 0 1-0.02048-40.99072l69.56544-69.5552-69.53984-69.56032a28.9792 28.9792 0 0 1 40.98048-40.98048l84.75136 84.74624 0.01024 0.00512a36.47488 36.47488 0 0 1-0.01536 51.57888z"  /></svg>