<?xml version="1.0" standalone="no"?><!DOCTYPE svg PUBLIC "-//W3C//DTD SVG 1.1//EN" "http://www.w3.org/Graphics/SVG/1.1/DTD/svg11.dtd"><svg class="icon" width="200px" height="200.00px" viewBox="0 0 1024 1024" version="1.1" xmlns="http://www.w3.org/2000/svg"><path fill="#1346241|-1,1346260|-1,1359060|-1,1359163|-1,1359164|-1,1359499|-1,1359500|-1,1359887|-1,1364596|-1,1364672|-1,1364673|-1,1364703|-1,1364704|-1,1365963|-1,1368346|-1,1368347|-1,1368348|-1,1368349|-1,2071393|-1,2071528|-1" d="M510.236444 74.666667h-398.222222a56.888889 56.888889 0 0 0-56.888889 56.888889v398.222222a56.888889 56.888889 0 0 0 56.888889 56.888889h398.222222a56.888889 56.888889 0 0 0 56.888889-56.888889v-398.222222a56.888889 56.888889 0 0 0-56.888889-56.888889z m-28.444444 384a42.666667 42.666667 0 0 1-42.666667 42.666666h-256a42.666667 42.666667 0 0 1-42.666666-42.666666v-256a42.666667 42.666667 0 0 1 42.666666-42.666667h256a42.666667 42.666667 0 0 1 42.666667 42.666667v256z"  /><path fill="#1346241|-1,1346260|-1,1359060|-1,1359163|-1,1359164|-1,1359499|-1,1359500|-1,1359887|-1,1364596|-1,1364672|-1,1364673|-1,1364703|-1,1364704|-1,1365963|-1,1368346|-1,1368347|-1,1368348|-1,1368349|-1,2071393|-1,2071528|-1" d="M911.985778 295.111111h-540.444445a56.888889 56.888889 0 0 0-56.888889 56.888889v540.444444a56.888889 56.888889 0 0 0 56.888889 56.888889h540.444445a56.888889 56.888889 0 0 0 56.888889-56.888889v-540.444444a56.888889 56.888889 0 0 0-56.888889-56.888889z m-28.444445 526.222222a42.666667 42.666667 0 0 1-42.666666 42.666667h-398.222223a42.666667 42.666667 0 0 1-42.666666-42.666667v-398.222222a42.666667 42.666667 0 0 1 42.666666-42.666667h398.222223a42.666667 42.666667 0 0 1 42.666666 42.666667v398.222222z"  /></svg>