<?xml version="1.0" standalone="no"?><!DOCTYPE svg PUBLIC "-//W3C//DTD SVG 1.1//EN" "http://www.w3.org/Graphics/SVG/1.1/DTD/svg11.dtd"><svg class="icon" width="200px" height="200.00px" viewBox="0 0 1024 1024" version="1.1" xmlns="http://www.w3.org/2000/svg"><path fill="#1330913|-1,1330986|-1,1331060|-1,1331061|-1,1331084|-1,1331141|-1,1331171|-1,1331172|-1,1336019|-1,1340863|-1,1340927|-1,1343938|-1,1345762|-1,1345821|-1,1345876|-1,1345893|-1,1345932|-1,1346232|-1,1346236|-1,1346237|-1" d="M668.444444 280.462222c0-88.405333-70.428444-159.573333-156.444444-159.573333s-156.444444 71.168-156.444444 159.573333v106.382222h312.888888V280.462222z m172.088889 184.604445H183.466667v438.044444h657.066666v-438.044444zM277.333333 280.462222c0-131.413333 104.817778-237.795556 234.666667-237.795555s234.666667 106.382222 234.666667 237.795555v106.382222h109.511111c34.417778 0 62.577778 28.16 62.577778 62.577778v469.333334c0 34.417778-28.16 62.577778-62.577778 62.577777H167.822222c-34.446222 0-62.577778-28.16-62.577778-62.577777V449.422222c0-34.417778 28.131556-62.577778 62.577778-62.577778h109.511111V280.462222z"  /></svg>