<svg class="icon" style="width: 1em; height: 1em;vertical-align: middle;fill: currentColor;overflow: hidden;" viewBox="0 0 1024 1024" version="1.1" xmlns="http://www.w3.org/2000/svg"><path d="M497.371429 512c-124.342857 0-219.428571-95.085714-219.428572-219.428571S380.342857 65.828571 504.685714 65.828571c117.028571 0 219.428571 102.4 219.428572 226.742858 0 124.342857-102.4 219.428571-226.742857 219.428571m292.571428-219.428571c0-160.914286-131.657143-292.571429-292.571428-292.571429s-292.571429 131.657143-292.571429 292.571429c0 102.4 58.514286 197.485714 138.971429 248.685714-175.542857 58.514286-307.2 234.057143-307.2 438.857143 0 21.942857 14.628571 36.571429 36.571428 36.571428s36.571429-14.628571 36.571429-36.571428C109.714286 760.685714 285.257143 585.142857 504.685714 585.142857c153.6 0 285.257143-131.657143 285.257143-292.571428" fill="#636D8B" /><path d="M928.914286 716.8v-36.571429c0-58.514286-51.2-109.714286-109.714286-109.714285s-109.714286 51.2-109.714286 109.714285v36.571429c-29.257143 0-51.2 21.942857-51.2 51.2V950.857143c0 29.257143 21.942857 51.2 51.2 51.2h219.428572c29.257143 0 51.2-21.942857 51.2-51.2v-182.857143c0-29.257143-21.942857-51.2-51.2-51.2z m-153.6-36.571429c0-21.942857 14.628571-43.885714 43.885714-43.885714 21.942857 0 43.885714 14.628571 43.885714 43.885714v36.571429h-80.457143v-36.571429z m138.971428 256H724.114286v-153.6H914.285714v153.6z" fill="#636D8B" /><path d="M819.2 819.2c-21.942857 0-43.885714 21.942857-43.885714 43.885714s21.942857 43.885714 43.885714 43.885715 43.885714-21.942857 43.885714-43.885715-21.942857-43.885714-43.885714-43.885714" fill="#636D8B" /></svg>