<?xml version="1.0" standalone="no"?><!DOCTYPE svg PUBLIC "-//W3C//DTD SVG 1.1//EN" "http://www.w3.org/Graphics/SVG/1.1/DTD/svg11.dtd"><svg class="icon" width="200px" height="200.00px" viewBox="0 0 1024 1024" version="1.1" xmlns="http://www.w3.org/2000/svg"><path fill="#1330913|-1,1330986|-1,1331060|-1,1331061|-1,1331084|-1,1331141|-1,1331171|-1,1331172|-1,1336019|-1,1340863|-1,1340927|-1,1343938|-1,1345762|-1,1345821|-1,1345876|-1,1345893|-1,1345932|-1,1346232|-1,1346236|-1,1346237|-1" d="M512 0C229.23008 0 0 229.23008 0 512s229.23008 512 512 512 512-229.23008 512-512S794.76992 0 512 0z m0 998.4C243.36896 998.4 25.6 780.63104 25.6 512 25.6 243.3664 243.36896 25.6 512 25.6s486.4 217.7664 486.4 486.4c0 268.63104-217.76896 486.4-486.4 486.4z"  /><path fill="#1330913|-1,1330986|-1,1331060|-1,1331061|-1,1331084|-1,1331141|-1,1331171|-1,1331172|-1,1336019|-1,1340863|-1,1340927|-1,1343938|-1,1345762|-1,1345821|-1,1345876|-1,1345893|-1,1345932|-1,1346232|-1,1346236|-1,1346237|-1" d="M291.5456 602.97984v0.00512-0.00512z m440.9088 0.00512v-0.00512 0.00512z m-220.46464 36.54912c-121.75104 0-220.44416-16.36864-220.44416-36.54912V693.248c0 20.19072 98.7008 36.55168 220.44416 36.55168 121.75872 0 220.46464-16.36352 220.46464-36.55168v-90.26304c0 20.18304-98.69824 36.54912-220.46464 36.54912z m-220.44416-163.35872z m220.44416 36.544c-121.75104 0-220.44416-16.36352-220.44416-36.53888v90.26048c0 20.18304 98.7008 36.544 220.44416 36.544 121.76384 0 220.46464-16.36352 220.46464-36.544v-90.2656c0 20.18304-98.69824 36.544-220.46464 36.544z m220.46464-36.544z m0-145.42336c-0.01024-20.18048-98.71616-36.55168-220.46464-36.55168-121.7408 0-220.4288 16.37376-220.44416 36.55168v90.26304c0 20.19072 98.7008 36.55168 220.44416 36.55168 121.76384 0 220.46464-16.36352 220.46464-36.55168V330.752z"  /></svg>