<?xml version="1.0" standalone="no"?><!DOCTYPE svg PUBLIC "-//W3C//DTD SVG 1.1//EN" "http://www.w3.org/Graphics/SVG/1.1/DTD/svg11.dtd"><svg class="icon" width="200px" height="200.00px" viewBox="0 0 1024 1024" version="1.1" xmlns="http://www.w3.org/2000/svg"><path fill="#1346241|-1,1346260|-1,1359060|-1,1359163|-1,1359164|-1,1359499|-1,1359500|-1,1359887|-1,1364596|-1,1364672|-1,1364673|-1,1364703|-1,1364704|-1,1365963|-1,1368346|-1,1368347|-1,1368348|-1,1368349|-1,2071393|-1,2071528|-1" d="M824.860444 516.579556c0.284444 5.717333 0.853333 11.377778 0.853334 17.180444 0 185.6-150.528 336.128-336.156445 336.128S153.429333 719.388444 153.429333 533.788444c0-185.628444 150.499556-336.156444 336.128-336.156444 7.424 0 14.648889 0.625778 21.930667 1.109333V108.231111c-7.310222-0.398222-14.506667-1.109333-21.930667-1.109333-235.605333 0-426.666667 191.032889-426.666666 426.666666 0 235.605333 191.061333 426.666667 426.666666 426.666667 235.633778 0 426.666667-191.061333 426.666667-426.666667 0-5.802667-0.625778-11.434667-0.853333-17.180444h-90.510223z"  /><path fill="#1346241|-1,1346260|-1,1359060|-1,1359163|-1,1359164|-1,1359499|-1,1359500|-1,1359887|-1,1364596|-1,1364672|-1,1364673|-1,1364703|-1,1364704|-1,1365963|-1,1368346|-1,1368347|-1,1368348|-1,1368349|-1,2071393|-1,2071528|-1" d="M491.776 63.544889a58.624 58.624 0 0 0-58.652444 58.652444v410.680889c0 32.455111 26.282667 58.652444 58.652444 58.652445h410.680889a58.652444 58.652444 0 0 0 58.652444-58.652445c0-259.185778-210.147556-469.333333-469.333333-469.333333z m31.715556 437.276444V154.311111c177.464889 29.895111 317.297778 169.159111 347.249777 346.538667H523.491556z"  /></svg>