<?xml version="1.0" standalone="no"?><!DOCTYPE svg PUBLIC "-//W3C//DTD SVG 1.1//EN" "http://www.w3.org/Graphics/SVG/1.1/DTD/svg11.dtd"><svg class="icon" width="200px" height="200.00px" viewBox="0 0 1024 1024" version="1.1" xmlns="http://www.w3.org/2000/svg"><path fill="#1330913|-1,1330986|-1,1331060|-1,1331061|-1,1331084|-1,1331141|-1,1331171|-1,1331172|-1,1336019|-1,1340863|-1,1340927|-1,1343938|-1,1345762|-1,1345821|-1,1345876|-1,1345893|-1,1345932|-1,1346232|-1,1346236|-1,1346237|-1" d="M616.6528 396.9792h73.3696l-92.2624-96v77.10464c-0.0128 10.42176 8.4736 18.89536 18.8928 18.89536z"  /><path fill="#1330913|-1,1330986|-1,1331060|-1,1331061|-1,1331084|-1,1331141|-1,1331171|-1,1331172|-1,1336019|-1,1340863|-1,1340927|-1,1343938|-1,1345762|-1,1345821|-1,1345876|-1,1345893|-1,1345932|-1,1346232|-1,1346236|-1,1346237|-1" d="M616.6528 417.8944c-21.952 0-39.81056-17.856-39.81056-39.81056v-97.216h-224.88064c-20.16 0-36.5568 16.3968-36.5568 36.5568V706.5856c0 20.16 16.3968 36.544 36.5568 36.544h320.07424c20.16 0 36.5568-16.3968 36.5568-36.544V417.8944H616.6528z m-15.4496 149.888h-76.8v76.8c0 7.07072-5.72928 12.8-12.8 12.8s-12.8-5.72928-12.8-12.8v-76.8h-76.8c-7.07072 0-12.8-5.72928-12.8-12.8s5.72928-12.8 12.8-12.8h76.8v-76.8c0-7.07328 5.72928-12.8 12.8-12.8s12.8 5.72672 12.8 12.8v76.8h76.8a12.8 12.8 0 1 1 0 25.6z"  /><path fill="#1330913|-1,1330986|-1,1331060|-1,1331061|-1,1331084|-1,1331141|-1,1331171|-1,1331172|-1,1336019|-1,1340863|-1,1340927|-1,1343938|-1,1345762|-1,1345821|-1,1345876|-1,1345893|-1,1345932|-1,1346232|-1,1346236|-1,1346237|-1" d="M512 0C229.23008 0 0 229.23008 0 512s229.23008 512 512 512 512-229.23008 512-512S794.76992 0 512 0z m0 998.4C243.36896 998.4 25.6 780.63104 25.6 512 25.6 243.3664 243.36896 25.6 512 25.6s486.4 217.7664 486.4 486.4c0 268.63104-217.76896 486.4-486.4 486.4z"  /></svg>