<?xml version="1.0" standalone="no"?><!DOCTYPE svg PUBLIC "-//W3C//DTD SVG 1.1//EN" "http://www.w3.org/Graphics/SVG/1.1/DTD/svg11.dtd"><svg class="icon" width="200px" height="200.00px" viewBox="0 0 1024 1024" version="1.1" xmlns="http://www.w3.org/2000/svg"><path fill="#1330913|-1,1330986|-1,1331060|-1,1331061|-1,1331084|-1,1331141|-1,1331171|-1,1331172|-1,1336019|-1,1340863|-1,1340927|-1,1343938|-1,1345762|-1,1345821|-1,1345876|-1,1345893|-1,1345932|-1,1346232|-1,1346236|-1,1346237|-1" d="M722.0992 279.1936h146.7392l-184.5248-192v154.2144c-0.0256 20.8384 16.9472 37.7856 37.7856 37.7856zM722.0992 321.024c-43.904 0-79.62112-35.712-79.62112-79.616V46.976H192.7168c-40.32 0-73.1136 32.7936-73.1136 73.1136V898.4064c0 40.32 32.7936 73.088 73.1136 73.088h640.1536c40.32 0 73.1136-32.7936 73.1136-73.088V321.024h-183.8848zM691.2 620.8h-153.6v153.6c0 14.14144-11.45856 25.6-25.6 25.6s-25.6-11.45856-25.6-25.6v-153.6H332.8c-14.14144 0-25.6-11.45856-25.6-25.6s11.45856-25.6 25.6-25.6h153.6v-153.6c0-14.14144 11.45856-25.6 25.6-25.6s25.6 11.45856 25.6 25.6v153.6h153.6c14.14144 0 25.6 11.45856 25.6 25.6s-11.45856 25.6-25.6 25.6z" /></svg>