<svg t="1628768887405" class="icon" viewBox="0 0 1024 1024" version="1.1" xmlns="http://www.w3.org/2000/svg" p-id="4162" width="200" height="200"><path d="M931.456 328.896L627.392 632.64a234.944 234.944 0 0 1-128 59.328l-82.624 6.912c-39.744 3.264-61.952 4.992-66.112 4.992a32 32 0 0 1-22.656-9.344c-10.816-10.752-10.816-10.752-4.352-88.768l6.848-82.56a235.072 235.072 0 0 1 59.392-128l304.128-303.808a97.984 97.984 0 0 1 134.784 0l102.848 102.784a95.232 95.232 0 0 1-0.192 134.72z m-44.8-89.6l-102.912-102.784a31.424 31.424 0 0 0-22.272-9.152 32 32 0 0 0-22.592 9.216L434.88 440.32a169.28 169.28 0 0 0-40.96 88.384L386.944 611.2l-2.176 26.752 26.752-2.176 82.688-6.912a169.664 169.664 0 0 0 88.384-40.96l304.064-303.744a32 32 0 0 0-0.192-45.12zM127.04 192v640a64 64 0 0 0 64 64h640a64 64 0 0 0 64-64V576h64v256a128 128 0 0 1-128 128h-640a128 128 0 0 1-128-128V192a128 128 0 0 1 128-128h256v64h-256a64 64 0 0 0-64 64z" fill="#515151" p-id="4163"></path></svg>