<svg t="1628682483615" class="icon" viewBox="0 0 1024 1024" version="1.1" xmlns="http://www.w3.org/2000/svg" p-id="30297" width="200" height="200"><path d="M551.68 500.48h-19.2c-32 35.84-71.68 66.56-120.32 90.88l14.08 25.6c16.64-8.96 33.28-19.2 48.64-29.44v21.76h136.96V588.8c14.08 10.24 29.44 20.48 46.08 28.16l14.08-25.6c-46.08-21.76-85.76-52.48-120.32-90.88z m-74.24 83.2c24.32-17.92 46.08-37.12 64-60.16 17.92 21.76 39.68 42.24 64 60.16h-128zM430.08 664.32h64c-10.24 19.2-23.04 37.12-38.4 55.04-2.56 2.56-7.68 5.12-14.08 7.68l7.68 23.04c65.28-3.84 119.04-8.96 161.28-15.36 3.84 6.4 8.96 14.08 15.36 21.76l21.76-15.36c-14.08-20.48-33.28-44.8-57.6-71.68l-20.48 12.8c10.24 11.52 19.2 23.04 26.88 32-37.12 3.84-75.52 7.68-115.2 10.24 16.64-17.92 30.72-37.12 43.52-60.16h128v-25.6H430.08v25.6z" fill="#515151" p-id="30298"></path><path d="M820.48 293.12l-125.44-140.8c-2.56-3.84-7.68-5.12-11.52-5.12h-396.8c-8.96 0-15.36 6.4-15.36 15.36V844.8c-42.24-11.52-42.24-35.84-42.24-39.68V259.84c0-8.96-6.4-15.36-15.36-15.36s-15.36 6.4-15.36 15.36v542.72c-1.28 20.48 12.8 62.72 81.92 74.24h529.92c8.96 0 15.36-6.4 15.36-15.36V302.08c-1.28-2.56-2.56-6.4-5.12-8.96zM793.6 847.36H303.36V176.64h373.76L793.6 308.48v538.88z" fill="#515151" p-id="30299"></path><path d="M382.72 320h165.12c8.96 0 15.36-6.4 15.36-15.36s-6.4-15.36-15.36-15.36H382.72c-8.96 0-15.36 6.4-15.36 15.36s7.68 15.36 15.36 15.36zM367.36 387.84c0 8.96 6.4 15.36 15.36 15.36h344.32c8.96 0 15.36-6.4 15.36-15.36s-6.4-15.36-15.36-15.36H382.72c-7.68 0-15.36 6.4-15.36 15.36z" fill="#515151" p-id="30300"></path></svg>