<svg t="1628737045718" class="icon" viewBox="0 0 1024 1024" version="1.1" xmlns="http://www.w3.org/2000/svg" p-id="1416" width="200" height="200"><path d="M840.96 948.48h-6.0928l-321.5872-133.1712-321.5872 133.1712h-6.0928c-68.4032 0-112.64-52.2752-112.64-133.12v-491.52c0-73.4208 59.6992-133.12 133.12-133.12h614.4c73.4208 0 133.12 59.6992 133.12 133.12v491.52c0 80.896-44.2368 133.12-112.64 133.12z m-327.68-199.6288l333.2096 137.984c39.5776-3.584 45.6704-45.824 45.6704-71.424v-491.52c0-39.5264-32.1536-71.68-71.68-71.68h-614.4c-39.5264 0-71.68 32.1536-71.68 71.68v491.52c0 25.6 6.0928 67.84 45.6704 71.424l333.2096-137.984zM922.88 131.84h-819.2c-16.9472 0-30.72-13.7728-30.72-30.72s13.7728-30.72 30.72-30.72h819.2c16.9472 0 30.72 13.7728 30.72 30.72s-13.7728 30.72-30.72 30.72z" fill="#515151" p-id="1417"></path><path d="M614.5024 694.7328c-4.9152 0-9.7792-1.1776-14.2848-3.5328l-86.9888-45.7216L426.2912 691.2a30.68416 30.68416 0 0 1-32.3584-2.3552 30.7712 30.7712 0 0 1-12.2368-30.0544l16.5888-96.8192-70.2976-68.608a30.83264 30.83264 0 0 1-7.7824-31.488 30.73536 30.73536 0 0 1 24.7808-20.8896l97.2288-14.1312 43.4688-88.1152c5.1712-10.496 15.872-17.1008 27.5456-17.1008s22.3744 6.656 27.5456 17.1008l43.4688 88.1152 97.2288 14.1312a30.6688 30.6688 0 0 1 24.7808 20.8896 30.6176 30.6176 0 0 1-7.7824 31.488l-70.3488 68.5568 16.5888 96.8192c1.9968 11.52-2.7648 23.1936-12.2368 30.0544a29.80352 29.80352 0 0 1-17.9712 5.9392z m-101.2224-114.688c4.9152 0 9.8304 1.1776 14.2848 3.5328l46.1824 24.2688-8.8064-51.4048c-1.6896-9.984 1.5872-20.1216 8.8576-27.1872l37.3248-36.4032-51.6096-7.4752a30.68928 30.68928 0 0 1-23.1424-16.7936l-23.0912-46.7456-23.0912 46.7456c-4.4544 9.0624-13.1072 15.36-23.1424 16.7936l-51.6096 7.4752 37.3248 36.4032a30.8736 30.8736 0 0 1 8.8576 27.1872l-8.8064 51.4048 46.1824-24.2688c4.4544-2.3552 9.3696-3.5328 14.2848-3.5328z" fill="#515151" p-id="1418"></path></svg>