<svg t="1628755959434" class="icon" viewBox="0 0 1024 1024" version="1.1" xmlns="http://www.w3.org/2000/svg" p-id="13017" width="200" height="200"><path d="M408.222897 789.115586v-35.345655h217.15862v34.886621h33.474207V388.378483h-283.68331v400.737103h33.050483z m217.15862-237.779862h-217.15862v-130.824827h217.15862v130.824827z m0 170.301793h-217.15862v-138.169379h217.15862v138.169379z" p-id="13018" fill="#515151"></path><path d="M917.645241 144.772414a70.62069 70.62069 0 0 1 70.62069 70.620689v681.489656a70.62069 70.62069 0 0 1-70.62069 70.620689H94.384552a70.62069 70.62069 0 0 1-70.62069-70.620689V215.393103a70.62069 70.62069 0 0 1 70.62069-70.620689h823.260689z m0 45.903448H94.384552a24.717241 24.717241 0 0 0-24.50538 21.362759l-0.211862 3.354482v681.489656a24.717241 24.717241 0 0 0 21.362759 24.505379l3.354483 0.211862h823.260689a24.717241 24.717241 0 0 0 24.50538-21.362759l0.211862-3.354482V215.393103a24.717241 24.717241 0 0 0-21.362759-24.505379l-3.354483-0.211862z" p-id="13019" fill="#515151"></path><path d="M312.214069 31.249655a22.951724 22.951724 0 0 1 22.704552 19.561931l0.247172 3.389793v180.824276a22.951724 22.951724 0 0 1-45.656276 3.389793l-0.247172-3.389793v-180.788965a22.951724 22.951724 0 0 1 22.951724-22.951724zM691.023448 31.249655a22.951724 22.951724 0 0 1 22.704552 19.561931l0.247172 3.389793v180.824276a22.951724 22.951724 0 0 1-45.656275 3.389793l-0.247173-3.389793v-180.788965a22.951724 22.951724 0 0 1 22.951724-22.951724z" p-id="13020" fill="#515151"></path></svg>