<svg t="1628738168975" class="icon" viewBox="0 0 1024 1024" version="1.1" xmlns="http://www.w3.org/2000/svg" p-id="7984" width="200" height="200"><path d="M820.48 930.56h-614.4c-73.4208 0-133.12-59.6992-133.12-133.12v-194.56c0-73.4208 59.6992-133.12 133.12-133.12h38.5536v61.44h-38.5536c-39.5264 0-71.68 32.1536-71.68 71.68v194.56c0 39.5264 32.1536 71.68 71.68 71.68h614.4c39.5264 0 71.68-32.1536 71.68-71.68v-194.56c0-39.5264-32.1536-71.68-71.68-71.68H683.52v-61.44h136.96c73.4208 0 133.12 59.6992 133.12 133.12v194.56c0 73.4208-59.7504 133.12-133.12 133.12z" fill="#515151" p-id="7985"></path><path d="M457.3184 709.8368c-34.0992 0-68.1984-12.9536-94.1056-38.912l-116.5312-116.5312c-51.9168-51.9168-51.9168-136.3456 0-188.2624L475.0848 137.728c51.9168-51.9168 136.3456-51.9168 188.2624 0l116.5312 116.5312c51.9168 51.9168 51.9168 136.3456 0 188.2624l-228.4032 228.4032c-25.9584 25.9072-60.0576 38.912-94.1568 38.912z m111.872-549.632c-18.3296 0-36.7104 7.0144-50.688 20.9408L290.0992 409.5488c-13.5168 13.5168-20.992 31.5392-20.992 50.688s7.4752 37.12 20.992 50.688l116.5312 116.5312c13.5168 13.5168 31.5392 20.992 50.688 20.992s37.1712-7.4752 50.688-20.992l228.4032-228.4032c27.9552-27.9552 27.9552-73.4208 0-101.376l-116.5312-116.5312a71.6032 71.6032 0 0 0-50.688-20.9408z" fill="#515151" p-id="7986"></path><path d="M779.52 730.88h-532.48c-16.9472 0-30.72-13.7728-30.72-30.72s13.7728-30.72 30.72-30.72h532.48c16.9472 0 30.72 13.7728 30.72 30.72s-13.7728 30.72-30.72 30.72zM480.0512 522.9056c-7.8848 0-15.7184-3.0208-21.7088-9.0112L386.8672 442.4192c-11.9808-11.9808-11.9808-31.4368 0-43.4688 11.9808-11.9808 31.4368-11.9808 43.4688 0l49.7664 49.7664 121.2928-121.2928a30.72 30.72 0 0 1 43.4176 0 30.72 30.72 0 0 1 0 43.4176l-143.0016 143.0016a30.336 30.336 0 0 1-21.76 9.0624z" fill="#515151" p-id="7987"></path></svg>