<svg t="1628738053578" class="icon" viewBox="0 0 1024 1024" version="1.1" xmlns="http://www.w3.org/2000/svg" p-id="6526" width="200" height="200"><path d="M512 12.190476c137.99619 0 262.972952 55.954286 353.426286 146.383238A498.249143 498.249143 0 0 1 1011.809524 512c0 137.99619-55.954286 262.972952-146.383238 353.426286A498.249143 498.249143 0 0 1 512 1011.809524a498.249143 498.249143 0 0 1-353.426286-146.383238A498.249143 498.249143 0 0 1 12.190476 512c0-137.99619 55.954286-262.972952 146.383238-353.426286A498.249143 498.249143 0 0 1 512 12.190476z m0 24.380953A473.941333 473.941333 0 0 0 175.811048 175.811048 473.941333 473.941333 0 0 0 36.571429 512c0 131.291429 53.223619 250.148571 139.239619 336.188952A473.941333 473.941333 0 0 0 512 987.428571c131.291429 0 250.148571-53.223619 336.188952-139.239619A473.941333 473.941333 0 0 0 987.428571 512c0-131.291429-53.223619-250.148571-139.239619-336.188952A473.941333 473.941333 0 0 0 512 36.571429z m280.380952 231.862857v14.628571h-48.761904v334.994286c0 18.285714-5.144381 35.035429-15.60381 47.152762-8.338286 9.654857-20.041143 16.11581-34.767238 18.041905l-5.022476 0.487619-128.341334 0.146285 66.706286 95.963429-19.334095 10.313143-71.192381-106.300953h-51.004952l-72.167619 106.300953H397.409524v-14.06781l67.413333-92.233143H340.358095a58.197333 58.197333 0 0 1-41.545143-17.310476c-9.411048-9.557333-15.896381-22.649905-17.822476-38.424381l-0.487619-5.363809-0.121905-339.724191h-48.761904v-14.628571h560.761904z m-164.327619 228.205714h-282.819047l-3.900953 0.195048a37.400381 37.400381 0 0 0-20.967619 9.435428 32.182857 32.182857 0 0 0-10.727619 23.990857c0 9.923048 3.34019 18.115048 9.898667 24.137143 5.436952 4.973714 13.507048 8.704 25.258667 9.508572H631.954286l3.535238-0.170667c8.045714-0.804571 14.701714-4.36419 19.577905-9.752381 5.266286-5.778286 8.582095-13.897143 8.582095-23.722667 0-10.361905-3.657143-18.846476-10.166857-24.795428-5.753905-5.290667-14.09219-8.850286-25.429334-8.850286z m-79.969523-94.598095H341.333333l-3.364571 0.146285a29.086476 29.086476 0 0 0-19.18781 10.093715 35.328 35.328 0 0 0-8.167619 23.405714c0 9.362286 2.779429 17.13981 7.777524 22.918095 4.900571 5.680762 12.141714 9.752381 22.332953 10.727619h207.36l3.559619-0.195047c8.094476-0.828952 14.506667-4.437333 19.163428-9.825524 4.924952-5.729524 7.996952-13.824 7.996953-23.649524s-3.072-17.92-7.996953-23.649524a28.964571 28.964571 0 0 0-22.723047-9.99619z" p-id="6527" fill="#515151"></path></svg>