<?xml version="1.0" standalone="no"?><!DOCTYPE svg PUBLIC "-//W3C//DTD SVG 1.1//EN" "http://www.w3.org/Graphics/SVG/1.1/DTD/svg11.dtd"><svg t="1589771746782" class="icon" viewBox="0 0 1024 1024" version="1.1" xmlns="http://www.w3.org/2000/svg" p-id="3229" xmlns:xlink="http://www.w3.org/1999/xlink" width="200" height="200"><defs><style type="text/css"></style></defs><path d="M568.889 739.556c0-34.134 22.755-56.89 56.889-56.89s56.889 22.756 56.889 56.89v56.888c0 62.578-51.2 113.778-113.778 113.778H170.667c-62.578 0-113.778-51.2-113.778-113.778V227.556c0-62.578 51.2-113.778 113.778-113.778h398.222c62.578 0 113.778 51.2 113.778 113.778v56.888c0 34.134-22.756 56.89-56.89 56.89s-56.888-22.756-56.888-56.89v-56.888H170.667v568.888h398.222v-56.888zM739.556 455.11V364.09c0-11.378 11.377-22.756 22.755-22.756 5.689 0 11.378 0 17.067 5.69l182.044 147.91c5.69 5.69 5.69 22.756 0 28.445l-5.689 5.689-182.044 147.91c-11.378 5.69-22.756 5.69-34.133-5.688v-102.4H455.11c-34.133 0-56.889-22.756-56.889-56.889s22.756-56.889 56.89-56.889h284.444z" p-id="3230"></path></svg>