<svg class="icon" style="width: 1em;height: 1em;vertical-align: middle;fill: currentColor;overflow: hidden;" viewBox="0 0 1024 1024" version="1.1" xmlns="http://www.w3.org/2000/svg"><path d="M626.8 373.3L512 140.6 397.2 373.3c-5.2 10.6-15.4 18-27.1 19.7l-256.7 37.3 185.8 181.1c8.5 8.3 12.4 20.2 10.4 31.9L265.7 899l229.6-120.7c5.2-2.8 11-4.1 16.8-4.1 5.8 0 11.5 1.4 16.8 4.1L758.5 899l-43.9-255.7c-2-11.7 1.9-23.6 10.4-31.9l185.8-181.1L653.9 393c-11.7-1.7-21.8-9.1-27.1-19.7z" fill="#FFEB3B" /><path d="M1022.2 394c-4.2-13-15.5-22.5-29.1-24.5L683 324.4l-138.7-281c-6.1-12.3-18.6-20.1-32.3-20.1s-26.2 7.8-32.3 20.1L341 324.4 30.8 369.5C17.3 371.5 6 381 1.8 394c-4.2 13-0.7 27.3 9.1 36.9l224.4 218.8-53 308.9c-2.3 13.5 3.2 27.2 14.3 35.2 11.1 8.1 25.8 9.1 37.9 2.7L512 850.7l277.4 145.9c5.3 2.8 11 4.1 16.7 4.1 7.5 0 14.9-2.3 21.2-6.9 11.1-8.1 16.6-21.7 14.3-35.2l-53-308.9L1013 430.9c9.9-9.6 13.5-23.9 9.2-36.9zM724.9 611.3c-8.5 8.3-12.4 20.2-10.4 31.9l43.9 255.7-229.6-120.7c-5.2-2.8-11-4.1-16.8-4.1-5.8 0-11.5 1.4-16.8 4.1L265.6 898.9l43.9-255.7c2-11.7-1.9-23.6-10.4-31.9l-185.7-181L370.1 393c11.7-1.7 21.9-9.1 27.1-19.7L512 140.6l114.8 232.6c5.2 10.6 15.4 18 27.1 19.7l256.7 37.3-185.7 181.1z" fill="#ffdf52" /></svg>