<?xml version="1.0" standalone="no"?><!DOCTYPE svg PUBLIC "-//W3C//DTD SVG 1.1//EN" "http://www.w3.org/Graphics/SVG/1.1/DTD/svg11.dtd"><svg t="1578242379359" class="icon" viewBox="0 0 1024 1024" version="1.1" xmlns="http://www.w3.org/2000/svg" p-id="2012" xmlns:xlink="http://www.w3.org/1999/xlink" width="200" height="200"><defs><style type="text/css"></style></defs><path d="M512 787.392l-212.64-212.64-96.832-96.832-9.12-9.12A127.04 127.04 0 0 1 160 383.36c0-70.624 57.408-128 128-128 32.8 0 62.432 12.704 85.12 33.088l9.76 9.76 96.544 96.512L512 427.36l32.576-32.64 96.544-96.512 9.76-9.76A126.912 126.912 0 0 1 736 255.36c70.592 0 128 57.408 128 128a127.04 127.04 0 0 1-33.408 85.472l-9.12 9.12-96.832 96.832L512 787.392zM736 191.36c-47.584 0-90.944 17.6-124.48 46.272l-0.16-0.16-2.144 2.176-19.232 19.232L512 336.832 434.016 258.88l-19.232-19.2-2.144-2.208-0.16 0.16A190.944 190.944 0 0 0 288 191.36a192 192 0 0 0-192 192c0 58.176 25.984 110.176 66.848 145.408L512 877.888l349.152-349.12A191.488 191.488 0 0 0 928 383.296a192 192 0 0 0-192-192z" fill="#c33" p-id="2013"></path></svg>