<?xml version="1.0" standalone="no"?><!DOCTYPE svg PUBLIC "-//W3C//DTD SVG 1.1//EN" "http://www.w3.org/Graphics/SVG/1.1/DTD/svg11.dtd"><svg t="1578242386458" class="icon" viewBox="0 0 1024 1024" version="1.1" xmlns="http://www.w3.org/2000/svg" p-id="2135" xmlns:xlink="http://www.w3.org/1999/xlink" width="200" height="200"><defs><style type="text/css"></style></defs><path d="M736 191.36c-47.584 0-90.944 17.6-124.48 46.272l-0.16-0.192-2.144 2.208-19.232 19.2L512 336.864l-77.984-78.016-19.232-19.2-2.144-2.208-0.16 0.192A190.944 190.944 0 0 0 288 191.328a192 192 0 0 0-192 192c0 58.208 25.984 110.208 66.848 145.408L512 877.92l349.152-349.184A191.488 191.488 0 0 0 928 383.36a192 192 0 0 0-192-192" fill="#c33" p-id="2136"></path></svg>