<svg t="1628738105416" class="icon" viewBox="0 0 1024 1024" version="1.1" xmlns="http://www.w3.org/2000/svg" p-id="6998" width="200" height="200"><path d="M482.56 951.04h-235.52c-73.4208 0-133.12-59.6992-133.12-133.12v-614.4c0-73.4208 59.6992-133.12 133.12-133.12h517.12c73.4208 0 133.12 59.6992 133.12 133.12v215.04c0 16.9472-13.7728 30.72-30.72 30.72s-30.72-13.7728-30.72-30.72v-215.04c0-39.5264-32.1536-71.68-71.68-71.68h-517.12c-39.5264 0-71.68 32.1536-71.68 71.68v614.4c0 39.5264 32.1536 71.68 71.68 71.68h235.52c16.9472 0 30.72 13.7728 30.72 30.72s-13.7728 30.72-30.72 30.72z" fill="#515151" p-id="6999"></path><path d="M318.72 797.44c-16.9472 0-30.72-13.7728-30.72-30.72V342.4256c0-55.9104 45.5168-101.4272 101.4272-101.4272h311.8592c16.9472 0 30.72 13.7728 30.72 30.72s-13.7728 30.72-30.72 30.72H389.4272c-22.0672 0-39.9872 17.92-39.9872 39.9872v424.2944c0 16.9984-13.7728 30.72-30.72 30.72zM715.008 895.488a30.72 30.72 0 0 1-21.7088-52.4288l234.8032-234.8032a27.1104 27.1104 0 0 0 7.9872-19.3024c0-7.2704-2.816-14.1312-7.9872-19.3024a27.1104 27.1104 0 0 0-19.3024-7.9872c-7.2704 0-14.1312 2.816-19.3024 7.9872l-235.776 235.776a30.72 30.72 0 0 1-43.4176 0 30.72 30.72 0 0 1 0-43.4176l235.776-235.776c34.6112-34.6112 90.88-34.6112 125.4912 0 34.6112 34.6112 34.6112 90.88 0 125.4912l-234.8032 234.8032a30.95552 30.95552 0 0 1-21.76 8.96z" fill="#515151" p-id="7000"></path><path d="M588.9024 934.5024a30.74048 30.74048 0 0 1-29.2864-39.9872l35.6352-112.64c1.4848-4.7104 4.096-8.96 7.5776-12.4416A88.2688 88.2688 0 0 1 665.6 743.424c23.7056 0 45.9776 9.216 62.7712 26.0096 16.7424 16.7424 26.0096 39.0656 26.0096 62.72s-9.216 45.9776-26.0096 62.7712c-3.84 3.84-8.704 6.6048-13.9776 7.9872l-117.6576 30.6176c-2.6624 0.6656-5.2736 0.9728-7.8336 0.9728z m62.208-125.4912l-16.1792 51.0976 54.1696-14.08c2.4576-4.1472 3.7376-8.9088 3.7376-13.824 0-7.2704-2.816-14.1312-7.9872-19.3024a27.1104 27.1104 0 0 0-19.3024-7.9872c-5.1712-0.0512-10.1888 1.3824-14.4384 4.096z" fill="#515151" p-id="7001"></path></svg>