<?xml version="1.0" standalone="no"?><!DOCTYPE svg PUBLIC "-//W3C//DTD SVG 1.1//EN" "http://www.w3.org/Graphics/SVG/1.1/DTD/svg11.dtd">
<svg t="1573113467156" class="icon" viewBox="0 0 1024 1024" version="1.1" 
  xmlns="http://www.w3.org/2000/svg" p-id="1644" 
  xmlns:xlink="http://www.w3.org/1999/xlink" width="200" height="200">
  <defs>
    <style type="text/css"></style>
  </defs>
  <path d="M857.460364 847.266909H190.370909a66.885818 66.885818 0 0 1-66.839273-66.839273v-143.546181c0-36.817455 29.975273-66.792727 66.839273-66.792728h188.974546l20.433454-125.719272A217.832727 217.832727 0 0 1 305.664 264.843636C305.617455 144.477091 403.549091 46.545455 523.915636 46.545455s218.251636 97.931636 218.251637 218.298181c0 78.289455-41.472 149.410909-107.706182 188.276364l22.295273 116.968727h200.750545c36.864 0 66.839273 29.975273 66.839273 66.792728v143.546181a66.978909 66.978909 0 0 1-66.885818 66.839273zM190.370909 639.953455l2.978909 140.520727 661.085091-2.978909v-140.567273l-226.629818 3.025455a34.816 34.816 0 0 1-34.257455-28.392728l-32.535272-171.147636a34.909091 34.909091 0 0 1 20.666181-38.632727 148.293818 148.293818 0 0 0 90.670546-136.843637c0-81.873455-66.606545-148.48-148.433455-148.48s-148.433455 66.653091-148.433454 148.48c0 55.016727 30.208 105.285818 78.941091 131.165091 13.172364 6.981818 20.433455 21.690182 18.059636 36.398546l-28.997818 178.176a34.909091 34.909091 0 0 1-34.443636 29.323636H190.370909zM930.909091 942.545455a34.909091 34.909091 0 0 0-34.909091-34.909091H151.831273a34.909091 34.909091 0 0 0 0 69.818181H896a34.909091 34.909091 0 0 0 34.909091-34.90909z" p-id="1645"></path>
</svg>