<?xml version="1.0" standalone="no"?><!DOCTYPE svg PUBLIC "-//W3C//DTD SVG 1.1//EN" "http://www.w3.org/Graphics/SVG/1.1/DTD/svg11.dtd">
<svg t="1573113390345" class="icon" viewBox="0 0 1024 1024" version="1.1" 
  xmlns="http://www.w3.org/2000/svg" p-id="1456" 
  xmlns:xlink="http://www.w3.org/1999/xlink" width="200" height="200">
  <defs>
    <style type="text/css"></style>
  </defs>
  <path d="M896 46.545455H128C83.083636 46.545455 46.545455 83.083636 46.545455 128v768c0 44.916364 36.538182 81.454545 81.454545 81.454545h768c44.916364 0 81.454545-36.538182 81.454545-81.454545V128C977.454545 83.083636 940.916364 46.545455 896 46.545455z m11.636364 849.454545a11.636364 11.636364 0 0 1-11.636364 11.636364H128a11.636364 11.636364 0 0 1-11.636364-11.636364V128a11.636364 11.636364 0 0 1 11.636364-11.636364h768a11.636364 11.636364 0 0 1 11.636364 11.636364v768zM762.181818 512a34.909091 34.909091 0 0 1-34.909091 34.909091H546.909091v180.363636a34.909091 34.909091 0 0 1-69.818182 0V546.909091H296.727273a34.909091 34.909091 0 0 1 0-69.818182h180.363636V296.727273a34.909091 34.909091 0 0 1 69.818182 0v180.363636h180.363636a34.909091 34.909091 0 0 1 34.909091 34.909091z" p-id="1457"></path>
</svg>