<?xml version="1.0" standalone="no"?><!DOCTYPE svg PUBLIC "-//W3C//DTD SVG 1.1//EN" "http://www.w3.org/Graphics/SVG/1.1/DTD/svg11.dtd">
<svg t="1573113815137" class="icon" viewBox="0 0 1024 1024" version="1.1" 
  xmlns="http://www.w3.org/2000/svg" p-id="1873" 
  xmlns:xlink="http://www.w3.org/1999/xlink" width="200" height="200">
  <defs>
    <style type="text/css"></style>
  </defs>
  <path d="M616.029091 974.708364H81.268364a34.722909 34.722909 0 0 1 0-69.445819h473.6c16.104727 26.763636 36.724364 50.269091 61.160727 69.445819zM119.621818 845.218909h408.855273a256.232727 256.232727 0 0 1-10.146909-68.282182l-395.729455 1.768728-2.978909-139.776h217.506909a34.722909 34.722909 0 0 0 34.257455-29.137455l28.858182-177.338182a34.676364 34.676364 0 0 0-17.966546-36.212363 147.688727 147.688727 0 1 1 126.650182 5.632 34.583273 34.583273 0 0 0-20.573091 38.446545l32.395636 170.356364a34.629818 34.629818 0 0 0 34.071273 28.206545h2.141091a255.441455 255.441455 0 0 1 63.720727-69.445818h-37.096727l-22.155636-116.363636a216.994909 216.994909 0 0 0 107.194182-187.345455 217.460364 217.460364 0 0 0-217.227637-217.227636 217.460364 217.460364 0 0 0-217.181091 217.227636c0 71.959273 35.328 138.333091 93.696 178.641455l-20.433454 125.114181H119.621818a66.56 66.56 0 0 0-66.466909 66.466909v142.801455c0 36.631273 29.789091 66.466909 66.466909 66.466909zM977.454545 773.864727a203.543273 203.543273 0 1 1-407.13309 0.046546A203.543273 203.543273 0 0 1 977.454545 773.864727z m-78.056727-91.834182a34.769455 34.769455 0 0 0-49.058909 2.97891l-95.325091 107.473454-62.557091-47.941818a34.722909 34.722909 0 1 0-42.216727 55.109818l88.250182 67.630546a34.350545 34.350545 0 0 0 21.038545 7.168 35.048727 35.048727 0 0 0 26.112-11.68291l116.642909-131.67709a34.769455 34.769455 0 0 0-2.885818-49.05891z" p-id="1874"></path>
</svg>