<svg class="icon" style="width: 1em; height: 1em;vertical-align: middle;fill: currentColor;overflow: hidden;" viewBox="0 0 1024 1024" version="1.1" xmlns="http://www.w3.org/2000/svg"><path d="M512 85.333333c235.648 0 426.666667 191.018667 426.666667 426.666667s-191.018667 426.666667-426.666667 426.666667S85.333333 747.648 85.333333 512 276.352 85.333333 512 85.333333z m-152.853333 233.813334a28.458667 28.458667 0 0 0-37.930667 2.069333l-2.069333 2.304a28.458667 28.458667 0 0 0 2.069333 37.930667l160.917333 160.896-160.917333 160.917333a28.437333 28.437333 0 1 0 40.234667 40.213333l160.896-160.896 160.917333 160.896 2.304 2.090667a28.458667 28.458667 0 0 0 37.909333-2.090667l2.090667-2.304a28.458667 28.458667 0 0 0-2.090667-37.909333l-160.896-160.917333 160.896-160.896a28.437333 28.437333 0 0 0-40.213333-40.234667L522.346667 482.133333l-160.896-160.917333z" /></svg>