<svg t="1628755874605" class="icon" viewBox="0 0 1024 1024" version="1.1" xmlns="http://www.w3.org/2000/svg" p-id="10086" width="200" height="200"><path d="M371.959172 792.328828c29.837241-39.017931 47.315862-88.134621 52.788966-147.809104h197.843862v91.347862c0 13.312-5.508414 20.197517-16.066207 20.197517-17.44331 0-36.722759-0.918069-57.838345-1.836137l9.18069 32.591448h59.215448c25.705931 0 39.017931-13.312 39.017931-39.476966V388.378483h-263.026758v224.008827c-0.918069 63.346759-16.066207 115.67669-46.362483 156.989793l25.246896 22.951725z m250.632828-291.945931h-195.972414v-80.331035h195.972414v80.331035z m0 113.381517h-195.972414v-82.626207h195.972414v82.626207z" p-id="10087" fill="#707070"></path><path d="M917.645241 144.772414a70.62069 70.62069 0 0 1 70.62069 70.620689v681.489656a70.62069 70.62069 0 0 1-70.62069 70.620689H94.384552a70.62069 70.62069 0 0 1-70.62069-70.620689V215.393103a70.62069 70.62069 0 0 1 70.62069-70.620689h823.260689z m0 45.903448H94.384552a24.717241 24.717241 0 0 0-24.50538 21.362759l-0.211862 3.354482v681.489656a24.717241 24.717241 0 0 0 21.362759 24.505379l3.354483 0.211862h823.260689a24.717241 24.717241 0 0 0 24.50538-21.362759l0.211862-3.354482V215.393103a24.717241 24.717241 0 0 0-21.362759-24.505379l-3.354483-0.211862z" p-id="10088" fill="#707070"></path><path d="M312.214069 31.249655a22.951724 22.951724 0 0 1 22.704552 19.561931l0.247172 3.389793v180.824276a22.951724 22.951724 0 0 1-45.656276 3.389793l-0.247172-3.389793v-180.788965a22.951724 22.951724 0 0 1 22.951724-22.951724zM691.023448 31.249655a22.951724 22.951724 0 0 1 22.704552 19.561931l0.247172 3.389793v180.824276a22.951724 22.951724 0 0 1-45.656275 3.389793l-0.247173-3.389793v-180.788965a22.951724 22.951724 0 0 1 22.951724-22.951724z" p-id="10089" fill="#707070"></path></svg>