<svg t="1628648475842" class="icon" viewBox="0 0 1024 1024" version="1.1" xmlns="http://www.w3.org/2000/svg" p-id="21611" width="200" height="200"><path d="M921.6 880.64h-819.2A51.2 51.2 0 0 1 51.2 829.44v-66.56A107.7248 107.7248 0 0 1 158.72 655.36a30.72 30.72 0 0 0 30.72-30.72V376.832A319.6928 319.6928 0 0 1 399.36 78.2336a112.0256 112.0256 0 0 1 213.6064 0A319.6928 319.6928 0 0 1 824.32 376.832v247.808a30.72 30.72 0 0 0 30.72 30.72h10.24A107.7248 107.7248 0 0 1 972.8 762.88v66.56a51.2 51.2 0 0 1-51.2 51.2zM112.64 819.2h798.72v-56.32A46.08 46.08 0 0 0 865.28 716.8h-10.24a92.16 92.16 0 0 1-92.16-92.16V376.832a257.8432 257.8432 0 0 0-184.32-245.76l-19.0464-5.7344-2.6624-20.48a50.7904 50.7904 0 0 0-100.7616 0l-2.6624 20.48-19.0464 5.7344a257.8432 257.8432 0 0 0-184.32 245.76v247.808A92.16 92.16 0 0 1 158.72 716.8 46.08 46.08 0 0 0 112.64 762.88z" fill="#515151" p-id="21612"></path><path d="M665.6 353.6896a30.72 30.72 0 0 1-25.6-13.9264A259.4816 259.4816 0 0 0 542.72 251.904a30.72 30.72 0 0 1 28.2624-54.4768 320.9216 320.9216 0 0 1 120.6272 108.7488A30.72 30.72 0 0 1 665.6 353.6896z" fill="#515151" p-id="21613"></path><path d="M512 1024a174.2848 174.2848 0 0 1-174.08-174.08h61.44a112.64 112.64 0 0 0 225.28 0h61.44a174.2848 174.2848 0 0 1-174.08 174.08z" fill="#515151" p-id="21614"></path></svg>