<svg t="1628737866882" class="icon" viewBox="0 0 1024 1024" version="1.1" xmlns="http://www.w3.org/2000/svg" p-id="5842" width="200" height="200"><path d="M872.97395833 125.984375c-9.28125-4.21875-20.25-2.109375-27 5.484375-0.84375 0.84375-72.140625 72.984375-181.40625 72.984375-31.21875 0-63.28125-5.90625-94.5-17.71875-27-10.125-55.6875-20.671875-85.21875-28.265625-32.90625-8.4375-62.859375-12.65625-91.96875-12.65625-52.734375 0-129.9375 23.625-190.6875 57.375l-6.75-24.890625c-2.953125-11.390625-13.921875-18.5625-25.3125-17.296875-11.8125 0.84375-20.671875 10.546875-21.9375 22.359375v0.421875c-0.421875 2.953125 0 5.90625 0.84375 8.859375l15.1875 55.265625c0.421875 1.265625 0.84375 2.109375 1.265625 3.375l166.21875 590.625 10.546875 43.453125c0.84375 2.109375 1.265625 4.21875 2.953125 6.328125l1.265625 1.265625c4.21875 7.171875 12.65625 11.390625 20.671875 11.390625 3.375 0 6.75-0.421875 9.703125-2.109375 10.96875-4.640625 16.875-17.296875 13.5-28.6875L378.11458333 828.828125l-33.75-123.1875c13.5-33.75 39.65625-60.328125 76.78125-79.734375 34.171875-17.296875 77.203125-27.84375 118.546875-27.84375 13.078125 0 27 1.265625 40.921875 2.953125 16.03125 2.53125 31.640625 3.375 47.25 3.375 141.75 0 226.125-91.125 229.5-94.921875 3.796875-4.21875 5.90625-9.28125 6.328125-14.765625l23.203125-344.671875c1.265625-10.125-4.640625-19.40625-13.921875-24.046875z m-240.46875 388.546875c-9.28125-8.4375-18.984375-17.71875-29.109375-27.421875-25.3125 17.296875-53.578125 22.78125-83.109375 20.671875s-56.953125-12.234375-84.796875-27c-1.6875 5.484375-3.796875 10.125-5.0625 15.1875-3.796875 16.03125-19.40625 21.09375-32.0625 10.546875-5.90625-5.0625-9.703125-10.96875-6.75-18.5625 2.953125-8.015625 7.59375-14.765625 16.875-16.453125 2.953125-0.421875 5.484375-2.109375 9.703125-3.375l-21.515625-26.15625 25.3125-22.359375c14.34375 10.96875 27.84375 22.78125 42.609375 31.640625 31.21875 18.5625 64.125 21.9375 97.03125 3.375 2.109375-1.265625 3.796875-2.53125 7.171875-4.640625L479.78645833 361.8125l-26.578125 24.890625-41.34375-37.96875c13.078125-13.5 25.734375-26.578125 38.390625-39.65625 8.859375-8.859375 17.296875-18.140625 26.578125-26.578125 2.53125-2.109375 6.75-3.796875 10.125-4.21875 6.75-0.421875 13.5 0.421875 20.25 0 4.21875-0.421875 8.015625-1.6875 11.8125-4.21875 5.0625-3.375 8.859375-8.015625 13.921875-12.234375 7.59375 6.75 14.765625 13.921875 22.78125 20.671875l-33.328125 37.125c29.109375 30.375 58.21875 60.328125 88.171875 91.125 17.296875-33.75 20.671875-67.078125 5.484375-101.25-11.8125-25.734375-31.21875-44.296875-54-60.328125-9.703125-6.75-20.671875-12.65625-30.375-20.25 7.59375 0.84375 15.1875 1.265625 22.78125 2.109375 59.90625 10.546875 104.625 54.421875 116.859375 114.328125 5.484375 27.421875-1.265625 53.578125-12.65625 78.046875-1.265625 2.953125-2.953125 5.484375-4.21875 8.859375-5.90625 11.390625-5.90625 11.390625 2.953125 20.671875 5.484375 6.328125 11.390625 12.65625 16.875 18.5625l-41.765625 43.03125z" fill="#515151" p-id="5843"></path></svg>