<?xml version="1.0" standalone="no"?><!DOCTYPE svg PUBLIC "-//W3C//DTD SVG 1.1//EN" "http://www.w3.org/Graphics/SVG/1.1/DTD/svg11.dtd"><svg t="1628581526511" class="icon" viewBox="0 0 1024 1024" version="1.1" xmlns="http://www.w3.org/2000/svg" p-id="17027" xmlns:xlink="http://www.w3.org/1999/xlink" width="200" height="200"><defs><style type="text/css"></style></defs><path d="M440.58 849.72c4.87-20.56 21.64-25.97 44.36-27.05l-30.84-40.03 40.58-34.63c61.38 61.79 153.35 81.71 234.8 50.86L578 661.45l-28.67 31.38-62.76-63.3L589.36 526.2c3.79-3.79 12.99-3.79 18.94-4.87 5.95-1.08 18.93 0 28.13 0 9.18-0.89 18.24-2.7 27.05-5.41h5.41l30.3 28.67-47.61 49.78 134.17 146.07C895.57 619.79 674.3 465.61 674.3 465.61c103.65-2.43 193.94 70.26 213.7 172.04a259.062 259.062 0 0 1-35.71 168.79l34.09 25.97c-20.02 22.18-57.35 62.22-58.43 62.22-1.08 0-20.56-22.18-30.84-31.38-4.38-3.13-9.87-4.3-15.15-3.25-84.25 39.33-181.98 37.33-264.55-5.41l-33.54 40.04c-4.88 0-48.7-23.27-43.29-44.91z m0 0" p-id="17028" fill="#515151"></path><path d="M388.1 660.91c9.74 14.61 38.96 54.1 46.53 65.46a22.79 22.79 0 0 1 0 17.86c-22.72 47.07-47.07 93.59-70.87 140.12 0 3.79-8.12 9.74-11.9 9.74a832.103 832.103 0 0 1-162.31-10.28c-50.86-10.28-56.26-24.89-56.26-72.49a352.206 352.206 0 0 1 81.15-229.93 195.277 195.277 0 0 1 152.03-65.46c57.87 1.8 145.53-2.7 155.27 0 9.74 2.71 17.86 5.41 10.28 12.45L388.1 660.91zM266.91 304.92c0 59.92 31.97 115.29 83.86 145.25 51.89 29.96 115.82 29.96 167.71 0 51.89-29.96 83.86-85.33 83.86-145.25 0-92.62-75.09-167.71-167.71-167.71-92.63 0-167.72 75.09-167.72 167.71z m0 0" p-id="17029" fill="#515151"></path></svg>