<svg t="1628738269401" class="icon" viewBox="0 0 1024 1024" version="1.1" xmlns="http://www.w3.org/2000/svg" p-id="8928" width="200" height="200"><path d="M614.5024 615.3728c-4.9152 0-9.7792-1.1776-14.2848-3.5328l-86.9376-45.7216-86.9376 45.7216a30.68416 30.68416 0 0 1-32.3584-2.3552 30.7712 30.7712 0 0 1-12.2368-30.0544l16.5888-96.8192-70.3488-68.608a30.72512 30.72512 0 0 1-7.7824-31.488 30.73536 30.73536 0 0 1 24.7808-20.8896l97.2288-14.1312 43.4688-88.1152c5.1712-10.496 15.872-17.1008 27.5456-17.1008s22.3744 6.656 27.5456 17.1008l43.4688 88.1152 97.2288 14.1312a30.6688 30.6688 0 0 1 24.7808 20.8896 30.6176 30.6176 0 0 1-7.7824 31.488l-70.3488 68.5568 16.5888 96.8192c1.9968 11.52-2.7648 23.1936-12.2368 30.0544a29.80352 29.80352 0 0 1-17.9712 5.9392z m-101.2224-114.688c4.9152 0 9.8304 1.1776 14.2848 3.5328l46.1824 24.2688-8.8064-51.4048c-1.6896-9.984 1.5872-20.1216 8.8576-27.1872l37.3248-36.4032-51.6096-7.4752a30.77632 30.77632 0 0 1-23.1424-16.7936l-23.0912-46.7456-23.0912 46.7456c-4.4544 9.0624-13.1072 15.36-23.1424 16.7936l-51.6096 7.4752 37.3248 36.4032a30.8736 30.8736 0 0 1 8.8576 27.1872l-8.8064 51.4048 46.1824-24.2688c4.4544-2.3552 9.3696-3.5328 14.2848-3.5328z" fill="#515151" p-id="8929"></path><path d="M513.28 792.32c-200.448 0-363.52-163.072-363.52-363.52s163.072-363.52 363.52-363.52 363.52 163.072 363.52 363.52-163.072 363.52-363.52 363.52z m0-665.6c-166.5536 0-302.08 135.5264-302.08 302.08s135.5264 302.08 302.08 302.08 302.08-135.5264 302.08-302.08-135.5264-302.08-302.08-302.08z" fill="#515151" p-id="8930"></path><path d="M732.6208 957.952c-9.2672 0-18.2272-4.1984-24.1664-11.7248l-138.1888-175.616c-10.496-13.312-8.192-32.6656 5.12-43.1104 13.312-10.496 32.6656-8.192 43.1616 5.12l95.5904 121.4976 17.6128-101.3248a30.76096 30.76096 0 0 1 32.256-25.3952l102.6048 6.7584-91.4432-116.2752a30.65856 30.65856 0 0 1 5.1712-43.1104 30.72 30.72 0 0 1 43.1616 5.1712l134.0416 170.4448a30.73024 30.73024 0 0 1-26.1632 49.664l-143.8208-9.472-24.6784 141.9264a30.81216 30.81216 0 0 1-22.7328 24.5248c-2.5088 0.6144-5.0176 0.9216-7.5264 0.9216zM286.7712 957.952a30.66368 30.66368 0 0 1-30.2592-25.4464l-24.7296-142.0288-143.872 9.472c-12.1344 0.8192-23.552-5.5808-29.184-16.3328-5.632-10.752-4.4544-23.7568 3.0208-33.3312l138.1888-175.6672a30.81216 30.81216 0 0 1 43.1616-5.1712 30.76096 30.76096 0 0 1 5.1712 43.1616l-95.5904 121.4976 102.656-6.7584c15.6672-1.024 29.5936 9.9328 32.256 25.3952l17.6128 101.3248 96.768-123.0336a30.76096 30.76096 0 0 1 43.1616-5.1712c13.312 10.496 15.6672 29.7984 5.1712 43.1104L310.9376 946.176a30.67904 30.67904 0 0 1-24.1664 11.776z" fill="#515151" p-id="8931"></path></svg>