<svg t="1628737907295" class="icon" viewBox="0 0 1024 1024" version="1.1" xmlns="http://www.w3.org/2000/svg" p-id="6037" width="200" height="200"><path d="M797.2 128.8h-568c-59.2 0-100.4 41.2-100.4 100.4v568c0 59.2 41.2 100.4 100.4 100.4h568c59.2 0 100.4-41.2 100.4-100.4v-568c-0.4-59.2-41.6-100.4-100.4-100.4z m-98.8 42.8l58.4 146.4h-82.4L616 171.6h82.4z m-157.6 0l58.4 146.4h-82.4l-58.4-146.4h82.4z m-157.6 0l58.4 146.4H359.2L300.4 171.6h82.8zM171.6 260.8c0-39.6 21.2-70.8 56-83.2L284 318H171.6V260.8z m682.8 504.8c0 52.4-36.4 88.8-88.8 88.8H260.8c-52.4 0-88.8-36.4-88.8-88.8V360.8h682.8v404.8z m0-447.6h-22L774 172c48 3.6 80.4 39.2 80.4 88.8v57.2z" fill="#515151" p-id="6038"></path><path d="M422.8 464v292.8l218.4-155.2-218.4-137.6z m37.6 68.4l113.2 71.2-113.2 80.4v-151.6z" fill="#515151" p-id="6039"></path></svg>