<svg t="1628755978795" class="icon" viewBox="0 0 1024 1024" version="1.1" xmlns="http://www.w3.org/2000/svg" p-id="13362" width="200" height="200"><path d="M153.850705 812.896572v-537.121614c0.409313-0.511642 0.920955-0.920955 0.920955-1.432598 1.330269-12.688718 6.856001-23.637854 15.144599-32.949735 13.609673-15.451584 31.005496-22.716898 51.573498-22.716898H284.626362v-5.62806-44.205856c0-1.637254 0.511642-3.376836 0.716298-5.01409 0.920955-6.037374 6.242031-7.469971 10.539822-9.925852h9.516539c10.130509 3.581493 12.688718 11.563106 12.381732 21.386629-0.409313 12.177076-0.102328 24.45648-0.102328 36.633557v6.446687h389.359448c0-14.4283 0.306985-28.549615-0.102328-42.67093-0.306985-10.02818 1.841911-18.112122 12.381733-21.898272h9.516538c8.902568 3.683821 12.074748 10.437494 11.460778 19.954032-0.61397 10.64215-0.204657 21.181973-0.204657 31.824124v13.098031h5.730389c19.851704 0 39.703408-0.102328 59.555111 0.102328 4.093135 0 8.18627 0.204657 12.177076 1.023284 20.874988 4.809433 37.145198 16.065554 46.559409 35.81493 2.353553 4.911762 3.990806 10.232837 5.935045 15.349255v546.740482c-0.61397 1.739582-1.330269 3.581493-1.944239 5.423403-7.879285 23.84251-23.740182 39.191766-48.401319 44.922155-2.353553 0.511642-4.604777 1.330269-6.856001 1.944239H211.973219c-0.306985-0.306985-0.511642-0.818627-0.920956-0.920955-9.209553-0.61397-17.498151-3.888478-25.377435-8.697912-12.074748-7.265314-21.181973-16.986509-26.298392-30.186869-2.148896-5.525732-3.683821-11.460777-5.525731-17.293495z m33.25672-397.955031V803.482362c0 18.419107 14.121315 33.359049 33.461377 33.359049 194.526232 0.102328 389.052463 0.102328 583.578695 0 19.237734 0 33.563705-14.325972 33.563705-33.666034 0.102328-127.603478 0.102328-255.206955 0.102329-382.810432v-5.321076c-217.038473-0.102328-433.565304-0.102328-650.706106-0.102328z m0-33.666034h650.501449c0.102328-0.920955 0.204657-1.534926 0.204657-2.148896 0-31.721795 0.102328-63.443589-0.102329-95.165384 0-2.762866-0.61397-5.62806-1.534925-8.186269-5.116419-15.963226-16.679524-23.126212-31.926452-23.637854-20.056361-0.511642-40.112721-0.204657-60.169082-0.102328-1.22794 0-2.455881 0.204657-3.888478 0.409313 0 17.088838 0.204657 33.870691-0.204656 50.754872-0.102328 3.172179-1.534926 6.856001-3.683822 9.209553-5.62806 6.037374-12.688718 6.549016-20.261017 3.581493-5.01409-1.944239-9.107225-8.18627-9.107225-14.632957-0.102328-13.302688 0-26.707705 0-40.010393v-8.800239H317.576097c0 15.758569 0.204657 31.107825-0.102329 46.45708-0.204657 10.64215-3.581493 16.679524-14.939942 18.726091-6.856001 1.22794-18.419107-3.78615-18.316778-14.4283 0.204657-15.246927 0.102328-30.391526 0.102328-45.740781v-5.321076H224.150295c-2.967523 0-5.832717 0.61397-8.902568 0.818627-17.805136 1.22794-28.754272 19.135405-28.549616 33.461377 0.409313 29.879884 0.102328 59.65744 0.102329 89.537324 0.306985 1.330269 0.306985 3.172179 0.306985 5.218747z m-33.25672 431.621065c1.841911 5.730389 3.479165 11.767763 5.62806 17.395823 5.116419 13.20036 14.223643 23.023883 26.298391 30.18687 7.879285 4.707105 16.167882 7.981613 25.377436 8.697911 0.306985 0 0.61397 0.511642 0.920955 0.920955h-58.122514c-0.102328-19.135405-0.102328-38.066154-0.102328-57.201559z m659.097032 57.201559c2.353553-0.61397 4.604777-1.432597 6.856-1.944239 24.661137-5.832717 40.419706-21.181973 48.401319-44.922154 0.61397-1.841911 1.330269-3.581493 1.944239-5.423404v52.392126c-19.135405-0.102328-38.168482-0.102328-57.201558-0.102329z" fill="#515151" p-id="13363"></path><path d="M227.424803 623.179774l10.02818-2.353552c25.275107-6.242031 44.410513-13.81433 56.792245-22.921555 12.893375-9.004897 23.433197-17.191166 31.517138-24.763466h-30.08454c-13.81433 0-33.359049 0.511642-58.224843 1.944239 0.511642-3.376836 0.511642-6.242031 0.920955-8.083941s0.511642-3.78615 0.511642-5.730389-0.511642-6.242031-1.432597-13.302688c32.949735 1.432597 52.494454 1.944239 58.224843 1.944239h59.145797v-22.512241c-25.275107 1.432597-39.601079 1.944239-42.977915 1.944239l-26.707705 0.409313-13.405016 0.511642c-0.920955-3.78615-2.353553-7.674628-3.376836-10.949136-0.920955-3.376836-4.297792-8.595583-9.107225-15.758569l10.02818 0.920956c6.242031 0.920955 18.112122 0.920955 35.81493 0.920955 20.568002 0 45.331468-0.920955 74.495053-3.376836 29.061257-2.353553 50.140901-5.218747 63.44359-8.595583l9.516538-2.353553c5.218747 9.004897 10.949136 17.60048 17.191166 26.196063l-30.493854 2.353553-32.438094 2.865194-29.572898 2.353552v23.842511h54.438692c5.218747 0 25.275107-0.511642 60.169082-1.944239-0.920955 3.78615-1.432597 7.162986-1.432597 8.595583-0.511642 1.944239-0.511642 3.376836-0.511642 3.786149 0 0.920955 0.511642 5.218747 1.944239 13.302689-24.865794-1.432597-44.819826-1.944239-60.169082-1.944239h-26.298391c6.242031 6.651344 15.246927 14.325972 26.707705 23.330868 11.972419 9.004897 31.517138 15.758569 59.145798 20.05636l9.107225 1.432598c-5.218747 5.218747-8.595583 9.516538-10.949136 12.893374-2.353553 3.376836-4.809433 8.595583-6.651344 15.246927l-9.107225-3.786149c-30.493854-13.302688-50.550215-24.354152-61.090037-32.847407-10.02818-8.595583-17.191166-15.246927-20.977316-19.544719L382.452283 575.801739l-3.786149-4.809434h-1.944239v29.982213c0 3.78615 0.511642 10.949136 1.432597 21.488958-6.651344-0.920955-10.539822-0.920955-12.381733-0.920956-1.432597 0-5.730389 0.511642-12.893375 0.920956 0.920955-10.02818 1.944239-17.191166 1.944239-21.488958V570.787649c-4.297792 4.297792-9.107225 9.004897-14.837613 14.735285s-11.460777 11.460777-18.112122 17.60048c-6.651344 5.730389-18.623763 14.325972-36.224243 24.763465 10.949136 0.920955 20.977316 1.432597 29.572899 1.432597h95.47237c10.539822 0 22.921555-0.511642 36.735884-1.432597-18.112122 14.735285-30.493854 24.763466-37.65684 29.061257L378.666134 676.595183v0.511642h47.68502c15.246927 0 35.81493-0.511642 62.010992-1.944239-0.511642 4.297792-0.920955 7.162986-0.920955 9.004897 0 1.944239-0.511642 3.78615-0.511642 5.730388s0.511642 6.242031 1.432597 12.893375c-24.865794-1.432597-45.331468-2.353553-62.010992-2.353552H378.666134v33.359048c0 8.083941-1.432597 14.735285-4.297792 19.033077-2.865194 4.809433-17.191166 7.162986-43.387229 8.083941 0-3.78615-0.511642-7.162986-0.920955-9.004896-0.511642-2.353553-0.920955-4.297792-1.944239-6.242031-0.920955-2.353553-4.297792-8.083941-10.539822-17.191166 11.972419 2.353553 20.977316 3.376836 27.219346 2.865194 3.376836 0 5.730389-0.511642 7.162986-1.944239 1.432597-1.432597 1.944239-4.809433 1.944239-9.516538v-19.544719h-51.573498c-11.972419 0-31.926451 0.920955-60.169082 2.353553 0-3.376836 0.511642-7.162986 0.511642-10.437494s0.511642-6.242031 0.511642-7.674628l-0.920956-9.516538c25.275107 1.432597 45.331468 1.944239 60.169082 1.944239h50.550215v-6.242031l-0.511642-3.376836 3.78615-0.920955c7.674628-2.353553 18.112122-8.083941 31.926451-17.60048h-73.47177c-9.516538 0-20.056361 0.511642-31.005496 1.432597 0.511642-2.865194 0.920955-5.218747 0.920956-7.674628 0.511642-1.944239 0.511642-3.376836 0.511641-4.809433l-0.511641-2.865194-0.511642-7.674628c-9.516538 5.730389-18.623763 10.437494-26.707705 14.735285l-7.674628 3.78615c-3.376836-6.242031-5.730389-10.02818-7.674627-11.870091-1.330269-0.204657-6.549016-4.502448-14.632957-10.744479zM522.744479 740.448086l7.162986-10.949135c2.353553-3.78615 5.218747-9.516538 8.595583-16.167883s6.651344-16.167882 10.539822-28.549615c3.78615-11.870091 6.242031-28.140302 6.651344-48.094334 0.920955-20.056361 0.920955-34.791646 1.432597-44.819826V568.536425L555.182572 525.660837c18.112122 0.920955 28.651944 1.432597 32.438094 1.432598h71.629859c-2.353553-5.730389-5.218747-11.870091-8.595583-18.623764l-4.297792-7.674628c8.083941-1.432597 17.191166-4.297792 26.707705-8.595583l11.972419 35.303288h36.224243c10.02818 0 27.62866-0.511642 52.494454-1.944239-0.511642 3.376836-0.920955 5.730389-0.920956 7.674628v4.297791c0 0.920955 0.511642 4.809433 1.432598 10.949136-11.972419 0-22.409913-0.511642-32.438094-0.920955-10.02818-0.511642-16.679524-0.511642-20.568002-0.511642h-140.803837V578.87159h43.387229v-8.083941c0-3.78615 0-6.651344-0.511642-8.595583l-0.920956-9.004897c6.242031 0.920955 10.02818 1.432597 10.949136 1.432597s5.730389-0.511642 13.405016-1.432597c-0.920955 4.297792-0.920955 7.162986-1.432597 9.516538v15.758569h58.736485v-6.24203c0-5.218747 0-8.595583-0.511642-10.02818l-0.920955-9.004897c6.651344 0.920955 10.949136 1.432597 12.381732 1.432597 1.432597 0 5.730389-0.511642 12.893375-1.432597-0.920955 4.297792-0.920955 7.162986-1.432597 9.516538v15.758569h20.568002c9.516538 0 20.568002-0.511642 31.926452-1.432597-0.511642 3.376836-0.511642 5.730389-0.511642 7.162986 0 1.432597 0 3.376836-0.511642 4.809434-0.511642 1.432597 0 2.353553 0 2.865194l0.920955 7.674628c-11.460777-0.920955-22.0006-1.432597-31.926451-1.432598H726.582592V616.733087c0 6.651344 0 10.437494 0.511642 12.381733l0.920955 12.893374c-9.107225-0.920955-18.112122-1.432597-26.298391-1.432597h-53.006095c-8.083941 0-16.679524 0.511642-25.78675 1.432597 0.511642-5.218747 0.511642-9.516538 0.920956-12.893374 0-3.376836 0.511642-7.162986 0.511641-11.460778v-19.544719h-43.89887c0 6.242031-0.511642 12.381733-0.511642 18.623764s-0.920955 15.246927-1.944239 27.62866c-0.920955 11.870091-2.353553 22.409913-3.376836 31.005496-1.432597 8.595583-4.297792 20.056361-8.595584 34.280004-4.297792 14.325972-9.107225 26.707705-13.81433 36.224243l-5.218746 11.460777c-2.865194-2.865194-5.218747-5.218747-7.162986-6.651344-2.762866-2.148896-7.981613-5.525732-17.088838-10.232837z m53.517737-9.107225c23.433197 0 48.196662-5.218747 74.495054-15.758569-8.083941-8.083941-14.325972-14.735285-18.112122-19.544718-3.78615-5.218747-8.083941-12.893375-13.405016-22.409913l-23.433197 1.944239c0.511642-3.376836 0.511642-5.730389 0.511642-7.162986 0-1.432597 0-2.865194 0.511642-4.297792 0-1.432597 0-4.809433-0.920955-10.949135 12.381733 0.920955 24.354152 1.432597 35.303287 1.432597h79.202159c10.949136 0 22.409913-0.511642 34.382332-1.432597-4.809433 9.004897-10.02818 17.60048-15.758569 25.684421-5.730389 8.083941-17.702808 20.056361-34.791646 36.735884 15.758569 6.242031 28.140302 10.437494 37.65684 11.870091 9.107225 1.432597 16.679524 2.353553 22.921555 2.865195l16.679525 0.920955 8.083941 0.920955c-3.376836 3.376836-9.107225 10.437494-16.679524 20.465674l-3.78615 7.162986-9.107225-2.865194c-0.511642 0-8.083941-1.944239-22.921555-6.242031-14.837614-4.297792-32.438093-11.460777-53.415409-21.898271-27.62866 12.381733-53.927051 21.488958-79.202159 26.707705l-9.107225 1.944239c-1.944239-2.353553-3.376836-4.809433-4.809433-7.674628-1.432597-2.865194-2.353553-4.297792-2.865194-5.218747l-4.297792-5.730389-6.651344-8.083941h9.516538v0.61397z m126.887179-57.610872h-58.736484c2.865194 6.242031 6.242031 11.460777 10.02818 16.167882 3.78615 4.809433 9.516538 9.516538 16.679525 14.735286 5.218747-2.865194 10.02818-6.242031 14.837613-10.02818 4.809433-3.274508 10.539822-10.437494 17.191166-20.874988z m-56.792245-50.550215h58.736484v-25.275107h-58.736484v25.275107z" fill="#515151" p-id="13364"></path></svg>