<svg t="1628773765966" class="icon" viewBox="0 0 1024 1024" version="1.1" xmlns="http://www.w3.org/2000/svg" p-id="1031" width="200" height="200"><path d="M750.314057 633.885257c8.206629 14.160457 21.8112 6.378057 33.0752 8.162743 9.991314-4.3008 11.132343 0.555886 9.055086 8.777143l0.994743 1.462857c-5.9392 6.085486-13.750857 7.943314-21.065143 9.786514 17.437257 3.6864 35.445029 0.658286 51.2 9.669486 11.424914 22.908343 40.711314 9.918171 54.930286 27.223771 0 10.0352-4.169143 23.508114 0.746057 29.535086 25.058743 30.6176-1.243429 35.898514-20.245943 45.348572-8.777143 13.063314-22.776686 15.9744-36.571429 18.826971-14.628571 4.637257 4.959086 12.580571-1.462857 17.993143-103.701943 21.021257-208.559543 38.356114-307.112228 78.379886-44.456229 18.168686-90.185143 35.474286-129.521372 64.731428-10.986057 25.058743-31.612343 23.639771-53.277257 19.499886-23.010743-12.317257-44.412343-30.0032-73.5232-22.703543-22.6304-9.259886-46.548114-10.488686-70.597486-10.839771-8.9088-7.211886-13.282743-24.151771-30.251885-14.175086l0.965485 2.998857c-10.576457 2.925714-16.237714-4.008229-21.942857-10.912914-4.5056-12.039314 4.271543-21.0944 7.050972-31.509943 2.165029-16.618057 8.352914-29.520457 27.794285-29.973943a27.896686 27.896686 0 0 1 11.117715 3.876571c7.314286 4.842057 13.165714 2.472229 18.519771-3.701028 11.936914-13.604571 24.868571-26.126629 37.2736-39.175314 8.850286-10.24 23.186286-17.846857 16.778971-35.357258 51.009829-24.254171 98.011429-57.724343 157.227886-62.902857 13.809371-1.199543 26.638629-13.663086 39.921372-20.948114 10.24-9.4208 23.873829-14.774857 32.402285-26.331429 23.508114-27.9552 36.981029-60.386743 43.446857-95.992685 14.979657-52.443429 39.497143-101.946514 48.64-156.203886 5.690514-30.910171 6.524343-61.791086-0.351085-92.657371-15.506286-21.650286-5.778286-47.981714-16.574172-72.762515-47.235657-108.470857-84.918857-116.823771-161.616457-29.257143-5.12 5.851429-9.493943 12.331886-14.218971 18.519772-28.0576 2.779429-3.013486 29.257143-17.130057 38.326857-68.169143-21.840457-69.7344-24.181029-75.337143-111.937829 11.337143-50.9952 65.082514-56.817371 94.4128-88.634514a64.570514 64.570514 0 0 1 33.1776-8.148114c16.164571-0.117029 32.373029-0.482743 48.274285-1.682286-8.411429-7.094857-28.701257 8.952686-31.363657-12.960914a21.942857 21.942857 0 0 0 6.846172-5.076114c22.235429-5.441829 44.412343-7.548343 66.413714 1.053257l112.903314 38.034285c7.460571 18.051657-14.467657 9.742629-16.939885 18.870858 13.443657 28.759771 20.2752 56.349257 53.730742 77.970285s47.689143 77.531429 43.329829 116.823772c-5.749029 51.799771 9.918171 105.413486-11.922286 155.457828 9.771886 14.409143 7.723886 27.209143-5.193143 38.487772-6.4512 3.671771-12.361143 2.428343-17.729828-2.004115-18.197943-6.729143-16.896 10.722743-18.7392 18.212572-10.24 41.3696-31.992686 77.136457-51.682743 113.912686-2.603886 6.816914-5.675886 13.560686-4.768914 21.0944 10.795886 11.498057 20.640914 0.2048 30.866285-1.272686 41.150171-18.1248 85.386971-10.532571 128.043886-15.915886z" p-id="1032" fill="#515151"></path></svg>