<svg t="1628773591006" class="icon" viewBox="0 0 1024 1024" version="1.1" xmlns="http://www.w3.org/2000/svg" p-id="5904" width="200" height="200"><path d="M511.996315 127.983687a240.344951 240.344951 0 1 0 238.061675 240.344951 239.263399 239.263399 0 0 0-238.061675-240.344951z m63.451067 393.925375c0 16.583802-10.094488 22.111736-26.437944 22.111735h-44.583989c-16.463629 0-24.034495-5.527934-24.034495-22.111735V337.684657c0-8.291901-12.017248-17.665354-20.549493-17.665354h-42.060367a22.712598 22.712598 0 0 1-24.034495-22.592426 33.768466 33.768466 0 0 1 22.352081-30.523809 96.738843 96.738843 0 0 0 48.06899-35.090362 44.944506 44.944506 0 0 1 39.416572-24.034496h45.064678c16.343457 0 26.437945 5.888451 26.437945 22.472253z m151.41732 168.962501a19.828458 19.828458 0 0 1 5.047244-25.116048 371.453122 371.453122 0 0 0 145.16835-295.504117A367.727776 367.727776 0 0 0 511.996315 0 367.727776 367.727776 0 0 0 146.912334 370.251398 371.453122 371.453122 0 0 0 292.080685 665.755515a19.828458 19.828458 0 0 1 5.047244 25.116048L171.788037 926.770132a13.0988 13.0988 0 0 0 15.982939 18.626734l92.412634-34.729845a17.545181 17.545181 0 0 1 22.592425 10.21466l36.051743 92.893324a15.862767 15.862767 0 0 0 28.961567 1.562242L503.944759 755.884872a9.133108 9.133108 0 0 1 16.223285 0l136.035242 259.452375a15.862767 15.862767 0 0 0 28.961567-1.562242l36.051742-92.893324a17.545181 17.545181 0 0 1 22.592426-10.21466l92.412634 34.729845a13.0988 13.0988 0 0 0 15.982939-18.626734z m-214.868387-20.429321a300.431189 300.431189 0 0 1 0-600.261516 300.431189 300.431189 0 0 1 0 600.862378z" fill="#1296db" p-id="5905"></path></svg>