<svg t="1628773550325" class="icon" viewBox="0 0 1024 1024" version="1.1" xmlns="http://www.w3.org/2000/svg" p-id="5070" width="200" height="200"><path d="M939.855405 202.777641H832.417563v-78.366426A124.320931 124.320931 0 0 0 708.367484 0H315.271381a124.411215 124.411215 0 0 0-124.05008 124.411215v78.366426H83.873744A84.144595 84.144595 0 0 0 0 286.922236c0 123.14724 82.248633 199.437136 194.561806 232.481044a321.862105 321.862105 0 0 0 281.414918 273.469935v158.899665H308.680656a36.11356 36.11356 0 0 0 0 72.22712h406.277552a36.11356 36.11356 0 0 0 0-72.22712H547.662141v-158.899665a321.681538 321.681538 0 0 0 281.414918-273.469935c112.313172-33.043908 194.65209-109.333804 194.652089-232.481044a84.144595 84.144595 0 0 0-83.873743-84.144595zM67.442074 286.922236A16.612238 16.612238 0 0 1 83.873744 270.851702h107.347557v175.602186C118.542761 415.305943 67.442074 370.976547 67.442074 286.922236z m444.377358 440.314583a254.14918 254.14918 0 0 1-252.794921-253.968612V124.411215a56.69829 56.69829 0 0 1 56.24687-56.69829h393.096103a56.69829 56.69829 0 0 1 56.608005 56.69829v348.856992a254.14918 254.14918 0 0 1-252.794921 253.968612z m320.598131-280.782931V270.851702h107.437842a16.612238 16.612238 0 0 1 16.341386 16.43167c0 83.693176-51.100688 128.022571-123.779228 159.170516z" p-id="5071" fill="#515151"></path><path d="M696.540293 469.476283a33.675895 33.675895 0 0 0-43.426556 19.772174 153.482631 153.482631 0 0 1-92.540999 90.283901 33.856463 33.856463 0 0 0 11.014636 65.816963 32.953624 32.953624 0 0 0 10.924352-1.805678 218.938459 218.938459 0 0 0 133.710457-130.640804A33.856463 33.856463 0 0 0 696.540293 469.476283zM517.417034 157.906542l-2.437665 2.708517a163.955563 163.955563 0 0 1-33.856463 27.08517 183.998589 183.998589 0 0 1-39.8152 16.341386l-6.410157 1.62511v64.914125l10.743784-3.069653a180.567801 180.567801 0 0 0 55.253747-25.911479v223.272086h64.282137v-306.965262z" p-id="5072" fill="#515151"></path></svg>