<svg t="1628775202204" class="icon" viewBox="0 0 1024 1024" version="1.1" xmlns="http://www.w3.org/2000/svg" p-id="1286" width="200" height="200"><path d="M123.99429 873.910512L68.475039 856.480239l34.876851-6.326422c25.044807-9.049393 52.176682 2.706665 77.074743-7.793892l28.012356-2.119678c22.093564-9.408108 46.567689 1.108754 68.644948-8.283048l25.99051-2.462087c20.544569-9.929875 44.170823 3.03277 64.487118-8.641763a6.668832 6.668832 0 0 0 9.098309-1.744658c17.202-9.391803 37.648737 1.891405 54.687685-8.527627q4.891564 3.424095 8.348269-1.418553c17.413968-10.239674 38.203115 0.945702 55.698609-8.739595 105.250151-24.278462 192.939588-81.656508 276.210311-147.121938 20.120633-15.816057 13.044171-32.023439-4.891564-42.947932-15.571479-9.473329-33.523518-15.082322-50.415719-22.403363-55.111621-7.304736-110.223241-6.750358-165.351167-0.211968-60.867361 30.197255-93.543008-15.555173-129.039457-49.649374-21.734849-20.870673-43.290341-37.87701-75.134423-35.18665l0.211968 0.195663a5.869877 5.869877 0 0 0-0.766345-5.804656c8.054775-14.022483-4.304576-32.039744 8.837426-45.051304 14.071399 1.630521 26.74055-8.886341 29.740708-16.892201 12.440878-33.197414 40.551065-34.404 68.188402-42.687048 89.548231-26.838381 157.88338-87.738352 223.022706-150.660171 44.480622-42.947932 36.083437-68.856915-22.305531-95.173529-6.09815-2.755581-11.756059-6.522085-17.625936-9.783128-39.4097-9.668991-78.900927-7.549314-118.408458-0.766345l-15.489953-4.483934c-25.745932-14.055094-48.589535 10.777746-73.683258 5.462247-15.147543-4.320882-29.854845-5.233973-42.980542 5.706824-4.810038 9.489634-12.620235 16.223687-20.789147 22.631636-23.838222 3.261043-46.502468-2.168593-69.721092-6.994936-16.158466-3.358874-37.06175-6.84819-31.550587-23.349065 5.136142-15.375816-11.136461-47.170982 25.044807-47.122067 4.777427 0 9.57116-3.06538 14.348588-4.695901 5.804656-22.599026 26.919907-23.039266 43.486003-30.066813l61.503265-23.071877c6.163371-10.027706 15.653005-13.957263 26.903601-14.674692C456.799997 2.429477 480.784966-1.50008 506.090656 0.570682c14.593166-1.206586 28.289545 4.646986 42.670743 5.217669 26.610108 2.135983 53.627846-4.451323 79.895545 4.043693l17.462884 2.135982c24.131716 12.571319 53.089774-5.869877 76.438839 11.82128 28.795007 15.913888 58.698768 30.148339 85.961084 48.410178 14.674692 9.783128 32.15388 21.196777 31.469062 43.665361-3.261043 5.625299-8.364574 9.359192-13.305054 13.044171-11.038629 11.136461-4.304576 13.924652 7.060157 14.54425a20.577179 20.577179 0 0 1 10.72883 5.494857c6.293812 11.968026 20.055412 13.337664 29.545047 20.772841 0.146747 13.696379 6.424254 24.180631 16.924811 32.479985-14.854049 23.463202-38.757492 41.431547-43.241426 71.188561-12.114773 23.903443-25.550269 33.947454-42.88271 4.271966-18.473807-11.82128-21.702239 8.152607-31.142958 14.935575a33.588739 33.588739 0 0 1-11.804974 7.027547 41.186969 41.186969 0 0 0-12.815897 6.228591 36.360625 36.360625 0 0 1 19.566255-5.478551c11.038629 3.880641 13.940957 11.968026 11.870196 22.680551a26.267698 26.267698 0 0 1-9.391803 10.582084c-12.489793 6.212286-24.946976 12.571319-36.197574 21.01742-59.562944 30.979905 8.495016 42.784879 9.783128 64.568644 64.487118 23.381676 113.94083 66.231776 144.659852 126.120824 13.044171 25.354607 37.290023 27.718862 53.334352 44.154517 22.664246 45.230661 10.859272 90.363492-0.391325 135.496322-47.611223 118.229101-142.638005 184.526098-254.671125 231.860132-43.909939 18.555333-88.309035 35.871469-132.496162 53.807204-21.294608 9.652686-45.198051-1.842489-66.460049 8.152606l-3.945862-1.271806-3.097991 2.755581c-46.795962 12.179994-90.950479-10.239674-136.784433-10.402726l1.516385-1.90771c-6.84819-10.614694-10.891882-22.517499-15.555174-34.02898-6.897105-16.729149-20.723926-5.543772-31.289704-7.533009-13.337664-0.260883-26.495971-9.19614-39.931467-0.586988l-41.007611 1.630522c-8.152607-10.370116-3.994777-18.604248 4.483933-26.088341 4.174135-2.28273 8.397185-4.59807 13.484412-3.261043-3.375179-4.337187-8.071081-1.337027-12.424573-2.135983-10.451642 0.619598-19.468425-1.728353-26.414445-9.652686l-94.977867-15.718226c-7.467788-1.206586-12.179994-5.168753-13.044171-13.04417 3.261043-19.745613 37.828095 5.853572 34.322474-23.658865z" p-id="1287" fill="#515151"></path></svg>