<svg t="1628738009522" class="icon" viewBox="0 0 1024 1024" version="1.1" xmlns="http://www.w3.org/2000/svg" p-id="6347" width="200" height="200"><path d="M457.9328 353.024c-1.1264 0-2.304 0-3.4304 0.0512 77.9264 30.0032 125.184 126.0032 84.6848 203.776L440.32 454.7584l37.7344-38.912-23.6032-24.1152c-8.7552 8.8064-21.0432 13.0048-32.3584 13.0048-5.4784 0-10.752-0.9728-15.3088-2.8672L331.6736 479.0784l42.5472 43.5712 28.3648-29.0304 98.816 101.888c-17.6128 9.9328-37.7856 15.1552-58.624 15.1552-36.3008 0-74.8032-15.7184-106.24-49.2544l-23.9616 24.5248c7.168 10.24 13.2096 19.5072 20.6848 27.2384-0.6656 0.8192-2.7136 2.56-2.7648 2.56-1.28-0.2048-2.7648-0.7168-4.0448-0.7168-12.7488 0-23.04 11.4176-23.04 24.5248s10.3936 23.7568 23.1424 23.7568c12.7488 0 23.6544-10.752 23.6544-23.8592 0-1.536-0.3584-2.9184-0.5632-4.352l3.6864-3.7376c29.8496 20.6848 61.184 31.8464 93.9008 31.8464 29.6448 0 60.4672-9.1648 92.3136-28.7744l27.6992 28.5696 37.888-38.4512-27.8528-28.928c79.0016-122.3168-24.1664-242.5856-119.3472-242.5856z" fill="#666666" p-id="6348"></path><path d="M697.6 838.4h-322.56v-61.44h322.56c39.5264 0 71.68-32.1536 71.68-71.68v-384c0-39.5264-32.1536-71.68-71.68-71.68h-486.4c-39.5264 0-71.68 32.1536-71.68 71.68v384c0 39.5264 32.1536 71.68 71.68 71.68h10.24v61.44h-10.24c-73.4208 0-133.12-59.6992-133.12-133.12v-384c0-73.4208 59.6992-133.12 133.12-133.12h486.4c73.4208 0 133.12 59.6992 133.12 133.12v384c0 73.4208-59.7504 133.12-133.12 133.12z" fill="#666666" p-id="6349"></path><path d="M810.24 730.88h-10.24v-61.44h10.24c39.5264 0 71.68-32.1536 71.68-71.68v-384c0-39.5264-32.1536-71.68-71.68-71.68h-486.4c-39.5264 0-71.68 32.1536-71.68 71.68v5.12h-61.44v-5.12c0-73.4208 59.6992-133.12 133.12-133.12h486.4c73.4208 0 133.12 59.6992 133.12 133.12v384c0 73.4208-59.7504 133.12-133.12 133.12zM221.44 920.32c-5.4784 0-10.9568-1.4848-15.8208-4.4032a30.65344 30.65344 0 0 1-14.8992-26.3168v-81.92c0-16.9472 13.7728-30.72 30.72-30.72s30.72 13.7728 30.72 30.72v30.72l108.4416-57.8048a30.70976 30.70976 0 0 1 41.5744 12.6464c7.9872 14.9504 2.304 33.5872-12.6464 41.5744l-153.6 81.92c-4.5568 2.4064-9.5232 3.584-14.4896 3.584z" fill="#666666" p-id="6350"></path></svg>