<?xml version="1.0" standalone="no"?><!DOCTYPE svg PUBLIC "-//W3C//DTD SVG 1.1//EN" "http://www.w3.org/Graphics/SVG/1.1/DTD/svg11.dtd"><svg class="icon" width="200px" height="200.00px" viewBox="0 0 1024 1024" version="1.1" xmlns="http://www.w3.org/2000/svg"><path fill="#333333" d="M511.7 63.9c-247.1 0-447.5 200.3-447.5 447.5s200.3 447.5 447.5 447.5 447.5-200.3 447.5-447.5S758.8 63.9 511.7 63.9z m283.9 731.4c-36.9 36.9-79.8 65.8-127.6 86.1-49.5 20.9-102.1 31.5-156.3 31.5s-106.8-10.6-156.3-31.5c-47.8-20.2-90.8-49.2-127.6-86.1s-65.8-79.8-86.1-127.6c-20.9-49.5-31.5-102.1-31.5-156.3 0-54.2 10.6-106.8 31.5-156.3 20.2-47.8 49.2-90.8 86.1-127.6s79.8-65.8 127.6-86.1c49.5-20.9 102.1-31.5 156.3-31.5s106.8 10.6 156.3 31.5c47.8 20.2 90.8 49.2 127.6 86.1s65.8 79.8 86.1 127.6c20.9 49.5 31.5 102.1 31.5 156.3 0 54.2-10.6 106.8-31.5 156.3-20.2 47.8-49.2 90.7-86.1 127.6zM587.5 528.4c22-20.6 44.8-42 55.7-74.3 5.8-17.3 8.2-35.8 6.8-53.7-1.6-21.2-8.5-40.8-19.9-56.7-16.1-22.4-49.4-49-116.9-49-45.3 0-81.4 13.8-107.5 41.1-39.8 41.7-40.6 100.5-40.4 111v0.5c0 13.3 10.8 24 24 24 13.3 0 24-10.8 24-24 0-0.6 0-1.1-0.1-1.7-0.1-6 0.5-48.9 27.3-76.9 16.6-17.3 41-26 72.5-26 26 0 60.7 5 78 29.1 14.6 20.4 13 48 6.6 67-7 20.8-23.7 36.5-43 54.6C525.4 520.8 489 554.9 489 616c0 13.3 10.7 24 24 24 13.2 0 24-10.7 24-24 0-40.3 23.4-62.2 50.5-87.6zM512.2 767.8h-1.6c-0.6 0-1-0.1-1.6-0.1s-1.1-0.1-1.6-0.2-1-0.2-1.6-0.3l-1.5-0.3c-0.5-0.1-1-0.3-1.5-0.4-0.5-0.1-1-0.3-1.5-0.5l-1.5-0.6c-0.5-0.2-1-0.4-1.4-0.6-0.5-0.2-0.9-0.5-1.4-0.7s-0.9-0.5-1.4-0.8c-0.5-0.3-0.9-0.5-1.3-0.8-0.4-0.3-0.9-0.6-1.3-0.9-0.4-0.3-0.8-0.6-1.3-1-0.4-0.3-0.8-0.7-1.2-1-0.4-0.4-0.8-0.7-1.1-1.1-0.4-0.4-0.7-0.8-1.1-1.2-0.4-0.4-0.7-0.8-1-1.2-0.3-0.4-0.6-0.8-1-1.2s-0.6-0.8-0.9-1.3c-0.3-0.4-0.6-0.9-0.8-1.3-0.3-0.4-0.5-0.9-0.8-1.4-0.2-0.5-0.5-0.9-0.7-1.4-0.2-0.5-0.4-1-0.6-1.4l-0.6-1.5c-0.2-0.5-0.3-1-0.5-1.5-0.1-0.5-0.3-1-0.4-1.5-0.1-0.5-0.3-1-0.3-1.5l-0.3-1.5c-0.1-0.5-0.1-1-0.2-1.6 0-0.5-0.1-1-0.1-1.6v-1.6-1.6c0-0.5 0.1-1 0.1-1.6 0.1-0.5 0.1-1 0.2-1.6l0.3-1.5 0.3-1.5c0.1-0.5 0.3-1 0.4-1.5 0.2-0.5 0.3-1 0.5-1.5l0.6-1.5c0.2-0.5 0.4-1 0.6-1.4 0.2-0.5 0.5-0.9 0.7-1.4 0.3-0.5 0.5-0.9 0.8-1.4 0.3-0.4 0.6-0.9 0.8-1.3 0.3-0.4 0.6-0.9 0.9-1.3s0.6-0.8 1-1.2c0.3-0.4 0.7-0.8 1-1.2 0.4-0.4 0.7-0.8 1.1-1.1 0.4-0.4 0.8-0.7 1.1-1.1 0.4-0.4 0.8-0.7 1.2-1 0.4-0.3 0.8-0.7 1.3-1 0.4-0.3 0.9-0.6 1.3-0.9 0.4-0.3 0.9-0.6 1.3-0.8 0.4-0.3 0.9-0.5 1.4-0.8 0.5-0.3 0.9-0.5 1.4-0.7 0.5-0.2 1-0.4 1.4-0.6l1.5-0.6c0.5-0.2 1-0.3 1.5-0.5 0.5-0.1 1-0.3 1.5-0.4l1.5-0.3c0.5-0.1 1-0.2 1.6-0.3 0.5-0.1 1-0.1 1.6-0.2 0.5-0.1 1-0.1 1.6-0.1h3.1c0.5 0 1 0.1 1.6 0.1 0.5 0 1 0.1 1.6 0.2l1.5 0.3 1.5 0.3c0.5 0.1 1 0.3 1.5 0.4 0.5 0.2 1 0.3 1.5 0.5l1.5 0.6c0.5 0.2 1 0.4 1.4 0.6 0.5 0.2 1 0.5 1.4 0.7 0.5 0.2 0.9 0.5 1.4 0.8 0.4 0.3 0.9 0.5 1.3 0.8 0.4 0.3 0.9 0.6 1.3 0.9 0.4 0.3 0.8 0.6 1.2 1 0.4 0.3 0.8 0.7 1.2 1 0.4 0.3 0.8 0.7 1.1 1.1s0.7 0.8 1.1 1.1c0.4 0.4 0.7 0.8 1 1.2 0.3 0.4 0.7 0.8 1 1.2 0.3 0.4 0.6 0.8 0.9 1.3 0.3 0.4 0.6 0.9 0.8 1.3 0.3 0.5 0.5 0.9 0.8 1.4 0.2 0.5 0.5 0.9 0.7 1.4 0.2 0.5 0.4 1 0.6 1.4l0.6 1.5c0.2 0.5 0.3 1 0.5 1.5 0.1 0.5 0.3 1 0.4 1.5l0.3 1.5 0.3 1.5c0.1 0.5 0.1 1 0.2 1.6 0 0.5 0.1 1 0.1 1.6v3.2c0 0.5-0.1 1-0.1 1.6-0.1 0.5-0.1 1-0.2 1.6l-0.3 1.5-0.3 1.5c-0.1 0.5-0.3 1-0.4 1.5-0.2 0.5-0.3 1-0.5 1.5l-0.6 1.5c-0.2 0.5-0.4 1-0.6 1.4s-0.5 0.9-0.7 1.4c-0.3 0.5-0.5 0.9-0.8 1.4-0.3 0.4-0.5 0.9-0.8 1.3-0.3 0.4-0.6 0.9-0.9 1.3-0.3 0.4-0.6 0.8-1 1.2-0.3 0.4-0.7 0.8-1 1.2-0.3 0.4-0.7 0.8-1.1 1.2s-0.8 0.7-1.1 1.1c-0.4 0.3-0.8 0.7-1.2 1-0.4 0.3-0.8 0.6-1.2 1-0.4 0.3-0.8 0.6-1.3 0.9-0.4 0.3-0.9 0.6-1.3 0.8-0.5 0.3-0.9 0.5-1.4 0.8-0.5 0.2-0.9 0.5-1.4 0.7-0.5 0.2-1 0.4-1.4 0.6l-1.5 0.6c-0.5 0.2-1 0.3-1.5 0.5s-1 0.3-1.5 0.4l-1.5 0.3-1.5 0.3c-0.5 0.1-1 0.1-1.6 0.2-0.5 0-1 0.1-1.6 0.1-0.5-0.1-1 0-1.5 0z" /></svg>