<svg t="1628755904741" class="icon" viewBox="0 0 1024 1024" version="1.1" xmlns="http://www.w3.org/2000/svg" p-id="11177" width="200" height="200"><path d="M715.702857 32.365714a23.771429 23.771429 0 0 1 23.515429 20.260572l0.256 3.510857V149.942857l210.944 0.036572a73.142857 73.142857 0 0 1 73.142857 73.142857v705.828571a73.142857 73.142857 0 0 1-73.142857 73.142857H97.755429a73.142857 73.142857 0 0 1-73.142858-73.142857V223.085714a73.142857 73.142857 0 0 1 73.142858-73.142857h201.837714V56.100571a23.771429 23.771429 0 0 1 47.286857-3.510857l0.256 3.510857V149.942857h344.795429V56.137143a23.771429 23.771429 0 0 1 23.771428-23.771429zM299.593143 197.485714l-201.874286 0.036572a25.6 25.6 0 0 0-25.344 22.125714l-0.219428 3.474286v705.828571a25.6 25.6 0 0 0 22.125714 25.380572l3.474286 0.219428h852.662857a25.6 25.6 0 0 0 25.380571-22.125714l0.219429-3.474286V223.085714a25.6 25.6 0 0 0-22.125715-25.380571l-3.474285-0.219429H739.474286v45.933715a23.771429 23.771429 0 0 1-47.286857 3.510857l-0.256-3.510857V197.485714H347.136v45.970286a23.771429 23.771429 0 0 1-47.286857 3.510857l-0.256-3.510857V197.485714z m112.274286 181.504l35.657142 6.656c-5.229714 18.066286-11.410286 34.706286-18.066285 50.870857h295.241143v33.28h-149.284572v76.068572h132.644572v32.804571h-132.644572v102.692572h164.498286v33.28h-164.498286v106.020571h-34.706286V714.605714H321.097143v-33.28h78.445714v-135.497143h141.202286v-76.068571h-127.890286a285.805714 285.805714 0 0 1-75.117714 84.626286l-22.820572-28.525715c48.018286-36.132571 80.347429-85.101714 96.987429-146.907428z m128.841142 199.68H433.737143v102.692572h106.971428v-102.692572z" p-id="11178" fill="#515151"></path></svg>