<svg class="icon" style="width: 1.0869140625em; height: 1em;vertical-align: middle;fill: currentColor;overflow: hidden;" viewBox="0 0 1113 1024" version="1.1" xmlns="http://www.w3.org/2000/svg"><path d="M1028.554485 1024H84.764023A84.764023 84.764023 0 0 1 0 939.235977V147.261675a84.764023 84.764023 0 0 1 84.764023-84.764022h162.443291a25.302693 25.302693 0 0 1 0 50.605386H84.764023A34.411663 34.411663 0 0 0 50.605387 147.261675v791.974302a34.411663 34.411663 0 0 0 34.158636 34.158636h943.790462A34.411663 34.411663 0 0 0 1062.713121 939.235977V147.261675a34.411663 34.411663 0 0 0-34.158636-34.158636h-162.949345a25.302693 25.302693 0 0 1 0-50.605386h162.949345A84.764023 84.764023 0 0 1 1113.318508 147.261675v791.974302a84.764023 84.764023 0 0 1-84.764023 84.764023z"  /><path d="M696.836175 113.103039H416.482333a25.302693 25.302693 0 0 1 0-50.605386h280.353842a25.302693 25.302693 0 1 1 0 50.605386z"  /><path d="M801.083272 167.50383m-27.579936 0l-2.783296 0q-27.579936 0-27.579936-27.579936l0-112.343958q0-27.579936 27.579936-27.579936l2.783296 0q27.579936 0 27.579936 27.579936l0 112.343958q0 27.579936-27.579936 27.579936Z"  /><path d="M364.358784 167.50383m-27.579935 0l-2.783297 0q-27.579936 0-27.579935-27.579936l0-112.343958q0-27.579936 27.579935-27.579936l2.783297 0q27.579936 0 27.579935 27.579936l0 112.343958q0 27.579936-27.579935 27.579936Z"  /><path d="M954.67062 348.671114H158.647887a25.302693 25.302693 0 1 1 0-50.605386h796.022733a25.302693 25.302693 0 0 1 0 50.605386zM319.31999 811.710403l-18.470966-8.855943a73.883865 73.883865 0 0 1-29.857178-25.302693 93.872992 93.872992 0 0 1-14.169508-40.48431h41.496417a43.014579 43.014579 0 0 0 7.843835 20.242155 34.411663 34.411663 0 0 0 15.434643 11.892266 58.955276 58.955276 0 0 0 22.013343 3.795404 43.520633 43.520633 0 0 0 31.375339-10.627131 39.472202 39.472202 0 0 0 11.133186-30.363232v-8.602916a48.328144 48.328144 0 0 0-10.627132-33.652582 37.701013 37.701013 0 0 0-29.857178-11.892266h-20.495181v-39.219175h20.495181a33.399555 33.399555 0 0 0 25.302694-10.121077 40.231282 40.231282 0 0 0 9.361996-28.592044v-9.108969a35.170744 35.170744 0 0 0-9.86805-26.567828 39.725229 39.725229 0 0 0-27.832963-9.361997 44.279713 44.279713 0 0 0-18.723993 4.048431 35.929825 35.929825 0 0 0-13.663454 11.892266 54.906845 54.906845 0 0 0-8.349889 20.242155h-40.231283a105.512231 105.512231 0 0 1 14.928589-40.737337 75.90808 75.90808 0 0 1 28.08599-25.302693 84.257969 84.257969 0 0 1 38.966148-8.855943 80.462565 80.462565 0 0 1 57.943168 19.736101 73.630838 73.630838 0 0 1 20.495181 55.665926v4.807511a61.991599 61.991599 0 0 1-11.892266 37.701013 63.50976 63.50976 0 0 1-33.146528 23.784532 59.967383 59.967383 0 0 1 36.688905 23.278478 75.90808 75.90808 0 0 1 13.157401 46.303929v4.807512a88.3064 88.3064 0 0 1-9.868051 43.267605 64.268841 64.268841 0 0 1-28.339016 27.326909 97.921423 97.921423 0 0 1-45.038794 9.361997zM515.668891 801.336298a65.787003 65.787003 0 0 1-27.579936-29.857178 107.28342 107.28342 0 0 1-9.361997-47.316036 159.659995 159.659995 0 0 1 3.795404-33.652582 192.300469 192.300469 0 0 1 10.880158-34.917717l2.53027-6.072647 2.783296-5.566592 63.003706-124.742278h43.77366L531.35656 663.43662v-7.084754a35.170744 35.170744 0 0 1 14.422536-14.675563 46.303929 46.303929 0 0 1 22.519397-5.060538 69.835434 69.835434 0 0 1 38.460094 10.121077 63.256733 63.256733 0 0 1 25.302693 29.604151 117.657524 117.657524 0 0 1 8.349889 46.556956 109.560662 109.560662 0 0 1-9.361997 47.822091 65.027922 65.027922 0 0 1-27.832962 30.363232 86.535211 86.535211 0 0 1-43.520633 10.374104 87.547319 87.547319 0 0 1-44.026686-10.121078z m73.37781-40.737336a49.087225 49.087225 0 0 0 10.627131-33.905609 57.690141 57.690141 0 0 0-11.133185-37.701013A37.701013 37.701013 0 0 0 556.659254 675.581913a32.893501 32.893501 0 0 0-28.08599 13.410427 60.726464 60.726464 0 0 0-10.121077 37.701013 50.605387 50.605387 0 0 0 10.627131 34.158636 37.194959 37.194959 0 0 0 29.604151 11.639239 36.435878 36.435878 0 0 0 30.363232-11.892266zM736.05535 803.107487a71.100568 71.100568 0 0 1-27.832963-25.302693 101.210773 101.210773 0 0 1-14.169508-39.472202H733.778107a37.447986 37.447986 0 0 0 12.651347 25.302693 41.749444 41.749444 0 0 0 27.579936 8.602916 36.941932 36.941932 0 0 0 31.122312-13.1574 56.678033 56.678033 0 0 0 10.627132-36.688906v-25.302693a56.678033 56.678033 0 0 0-10.627132-36.688905 39.219175 39.219175 0 0 0-50.605386-7.084755 56.678033 56.678033 0 0 0-17.205832 16.699778h-36.941932v-151.81616h147.767729V556.659254h-107.030393v65.027922a58.955276 58.955276 0 0 1 16.952805-9.615024 62.244626 62.244626 0 0 1 18.97702-3.28935 84.510996 84.510996 0 0 1 43.014579 10.374104 64.774895 64.774895 0 0 1 27.073881 30.363232 110.825797 110.825797 0 0 1 9.361997 48.075118v25.302693a109.560662 109.560662 0 0 1-9.615023 47.822091 66.293057 66.293057 0 0 1-27.832963 30.363232 86.029157 86.029157 0 0 1-44.026687 10.627131 84.004942 84.004942 0 0 1-38.966147-8.602916z"  /></svg>