<svg class="icon" style="width: 1em; height: 1em;vertical-align: middle;fill: currentColor;overflow: hidden;" viewBox="0 0 1024 1024" version="1.1" xmlns="http://www.w3.org/2000/svg"><path d="M296.877 249.817h12.395c18.59 0 30.98-12.39 30.98-30.985V70.107c0-18.598-12.39-30.989-30.98-30.989h-12.395c-18.594 0-30.985 12.391-30.985 30.989v154.928c0 12.391 12.391 24.782 30.985 24.782m402.809 0h12.392c18.598 0 30.989-12.39 30.989-30.985V70.107c0-18.598-12.392-30.989-30.989-30.989h-12.392c-18.589 0-30.989 12.391-30.989 30.989v154.928c0 12.391 18.594 24.782 30.989 24.782"  /><path d="M873.208 113.483h-80.564v55.776h80.564c37.178 0 68.166 30.985 68.166 68.167v61.969H67.579v-61.969c0-37.183 30.989-68.167 68.167-68.167h80.567v-55.776h-74.369c-74.366 0-130.137 61.974-130.137 130.14v601.119c0 68.171 55.771 130.14 130.137 130.14h737.461c68.167 0 130.137-55.776 130.137-130.14V243.623c-6.198-68.166-61.97-130.14-136.334-130.14m0 799.43H141.944c-37.178 0-68.167-30.988-68.167-68.171V361.365h873.795v477.179c0 43.381-30.989 74.369-74.364 74.369"  /><path d="M383.633 113.483H631.52v55.771H383.633z"  /><path d="M291.555 492.656h221.666v-50.809a17562.765 17562.765 0 0 1-179.325 4.483c-1.331-10.624-3.985-22.248-7.97-34.869 142.794-1.993 275.464-6.639 398.002-13.947l6.476 36.363a25374.762 25374.762 0 0 1-179.325 6.725v52.054h217.184v33.873h-173.1c48.979 35.036 111.494 61.105 187.544 78.205-7.97 11.294-15.609 23.579-22.914 36.861-88.335-26.898-157.905-64.421-208.715-112.576v78.704h-37.857v-79.451c-47.82 44.999-117.725 84.433-209.71 118.305-5.647-11.289-13.45-22.579-23.412-33.872 79.365-24.906 141.798-53.631 187.295-86.176H291.555v-33.873z m-5.479 229.636h238.602v-21.917l80.696-43.337H386.697v-33.873H667.64v34.371l-105.104 56.786v7.97h216.187v34.869H562.535v44.831c0 24.906-4.482 41.508-13.449 49.813-8.305 9.628-24.077 14.446-47.322 14.446-24.245 0-50.646-0.335-79.202-0.996-0.996-12.952-2.989-27.397-5.978-43.337 26.899 2.988 53.463 4.646 79.7 4.98 18.929 0.331 28.393-9.133 28.393-28.393V757.16H286.076v-34.868z"  /></svg>