<svg class="icon" style="width: 1.0869140625em; height: 1em;vertical-align: middle;fill: currentColor;overflow: hidden;" viewBox="0 0 1113 1024" version="1.1" xmlns="http://www.w3.org/2000/svg"><path d="M1028.554485 1024H84.764023A84.764023 84.764023 0 0 1 0 939.235977V147.261675a84.764023 84.764023 0 0 1 84.764023-84.764022h162.443291a25.302693 25.302693 0 0 1 0 50.605386H84.764023A34.411663 34.411663 0 0 0 50.605387 147.261675v791.974302a34.411663 34.411663 0 0 0 34.158636 34.158636h943.790462A34.411663 34.411663 0 0 0 1062.713121 939.235977V147.261675a34.411663 34.411663 0 0 0-34.158636-34.158636h-162.949345a25.302693 25.302693 0 0 1 0-50.605386h162.949345A84.764023 84.764023 0 0 1 1113.318508 147.261675v791.974302a84.764023 84.764023 0 0 1-84.764023 84.764023z"  /><path d="M696.836175 113.103039H416.482333a25.302693 25.302693 0 0 1 0-50.605386h280.353842a25.302693 25.302693 0 1 1 0 50.605386z"  /><path d="M801.083272 167.50383m-27.579936 0l-2.783296 0q-27.579936 0-27.579936-27.579936l0-112.343958q0-27.579936 27.579936-27.579936l2.783296 0q27.579936 0 27.579936 27.579936l0 112.343958q0 27.579936-27.579936 27.579936Z"  /><path d="M364.358784 167.50383m-27.579935 0l-2.783297 0q-27.579936 0-27.579935-27.579936l0-112.343958q0-27.579936 27.579935-27.579936l2.783297 0q27.579936 0 27.579935 27.579936l0 112.343958q0 27.579936-27.579935 27.579936Z"  /><path d="M954.67062 348.671114H158.647887a25.302693 25.302693 0 1 1 0-50.605386h796.022733a25.302693 25.302693 0 0 1 0 50.605386zM422.554979 811.96343l-17.711885-8.855943a71.859649 71.859649 0 0 1-29.857179-25.302693 93.872992 93.872992 0 0 1-14.169508-40.48431h41.496417a44.026686 44.026686 0 0 0 7.843835 20.495182 33.905609 33.905609 0 0 0 15.434643 11.639239 53.388683 53.388683 0 0 0 22.013343 4.048431 42.761552 42.761552 0 0 0 31.37534-10.880158 39.978255 39.978255 0 0 0 11.133185-30.110205v-8.855943a48.834198 48.834198 0 0 0-10.627131-33.652582 37.701013 37.701013 0 0 0-29.857178-11.892266h-20.495182v-38.966148h20.495182a33.652582 33.652582 0 0 0 25.302693-10.374104 39.725229 39.725229 0 0 0 9.361997-28.592044v-9.108969a34.158636 34.158636 0 0 0-9.868051-25.302694 38.713121 38.713121 0 0 0-27.832962-9.361996 44.279713 44.279713 0 0 0-18.723993 3.795404 35.929825 35.929825 0 0 0-13.663455 11.892266 56.678033 56.678033 0 0 0-8.349889 20.242154h-40.990363a102.981962 102.981962 0 0 1 14.928589-40.484309 73.883865 73.883865 0 0 1 28.08599-25.302693 84.257969 84.257969 0 0 1 38.966148-8.855943 80.462565 80.462565 0 0 1 57.943167 19.736101 73.630838 73.630838 0 0 1 20.495182 55.665925v4.807512a63.256733 63.256733 0 0 1-11.892266 37.95404A67.558191 67.558191 0 0 1 480.751174 657.870027a57.943168 57.943168 0 0 1 36.688905 23.278478 75.90808 75.90808 0 0 1 13.916481 46.050902v4.807512a88.3064 88.3064 0 0 1-9.86805 43.267605 64.268841 64.268841 0 0 1-28.339017 27.326909 97.921423 97.921423 0 0 1-45.038794 9.361997zM608.782802 790.203113a83.751915 83.751915 0 0 1-21.001235-60.473437v-131.827032a82.992834 82.992834 0 0 1 21.254262-60.726464 81.980726 81.980726 0 0 1 61.485545-21.507289 82.233753 82.233753 0 0 1 61.738572 21.507289 84.004942 84.004942 0 0 1 21.001235 60.726464v131.827032a84.004942 84.004942 0 0 1-21.001235 60.726464 82.48678 82.48678 0 0 1-61.738572 21.50729 81.7277 81.7277 0 0 1-61.738572-21.760317z m93.619965-28.085989a46.809983 46.809983 0 0 0 10.121078-32.387448v-131.827032a46.809983 46.809983 0 0 0-10.121078-32.387448 41.749444 41.749444 0 0 0-31.881393-11.133185 41.749444 41.749444 0 0 0-31.881394 11.133185 46.809983 46.809983 0 0 0-10.121077 32.387448v131.827032a46.809983 46.809983 0 0 0 10.121077 32.387448 40.990363 40.990363 0 0 0 31.881394 11.133185 40.737336 40.737336 0 0 0 31.881393-11.133185z"  /></svg>