<svg class="icon" style="width: 1em; height: 1em;vertical-align: middle;fill: currentColor;overflow: hidden;" viewBox="0 0 1024 1024" version="1.1" xmlns="http://www.w3.org/2000/svg"><path d="M836.8 195.2h-72V184c0-32-26.4-57.6-59.2-57.6h-70.4C628.8 73.6 581.6 32 524 32h-24.8c-56.8 0-104 41.6-111.2 94.4h-70.4c-32.8 0-59.2 25.6-59.2 57.6v11.2h-72c-48 0-87.2 37.6-87.2 84v628.8c0 46.4 39.2 84 87.2 84h650.4c48 0 87.2-37.6 87.2-84V279.2c0-46.4-39.2-84-87.2-84z m-513.6 1.6c0-4.8 4-8 8-8h112c4.8 0 8.8-4 8.8-8.8v-40c0-25.6 21.6-46.4 47.2-46.4h24.8c26.4 0 48 20.8 48 46.4v40c0 4.8 4 8.8 8.8 8.8h112c4.8 0 8 4 8 8v53.6c0 4.8-4 8-8 8H331.2c-4.8 0-8-4-8-8v-53.6z m536 711.2c0 12-10.4 21.6-22.4 21.6H187.2c-12 0-22.4-9.6-22.4-21.6V279.2c0-12 10.4-21.6 22.4-21.6h72v5.6c0 32 26.4 57.6 59.2 57.6h387.2c32.8 0 59.2-25.6 59.2-57.6v-5.6h72c12 0 22.4 9.6 22.4 21.6v628.8z" /><path d="M436.8 776c-8 0-16-3.2-22.4-9.6L263.2 616c-12.8-12.8-12.8-32.8 0-45.6 12.8-12.8 32.8-12.8 45.6 0l128 128 278.4-278.4c12.8-12.8 32.8-12.8 45.6 0 12.8 12.8 12.8 32.8 0 45.6L459.2 767.2c-5.6 6.4-14.4 8.8-22.4 8.8z"  /></svg>