<?xml version="1.0" standalone="no"?><!DOCTYPE svg PUBLIC "-//W3C//DTD SVG 1.1//EN" "http://www.w3.org/Graphics/SVG/1.1/DTD/svg11.dtd"><svg t="1593086846447" class="icon" viewBox="0 0 1037 1024" version="1.1" xmlns="http://www.w3.org/2000/svg" p-id="2893" xmlns:xlink="http://www.w3.org/1999/xlink" width="202.5390625" height="200"><defs><style type="text/css"></style></defs><path d="M470.106505 153.540525l24.181657 23.272728-5.293253 33.489454 28.571152-15.904323 31.55006 16.550788-5.303596-34.519919 24.176485-23.661899-34.389333-4.010667-14.484687-30.771717-15.64703 30.125252c-0.775758 0.258586-35.165091 6.334061-33.361455 5.430303z m-86.884848 23.277899L350.383838 189.358545l-27.929858-19.263353 2.203151 34.526384c-0.389172-0.263758-27.415273 20.944162-25.733171 23.272727l32.839111 9.307798 11.252363 31.939232 17.969132-28.701737 34.519919-2.19798-21.458748-27.671273 9.17592-33.751919z m332.541414 27.146344l1.692444-32.712404-29.085737 18.620767c-0.384-0.257293-32.580525-12.797414-30.77301-11.766949l10.464969 33.357576-22.363798 25.985293 34.130748-0.646465 18.615596 29.090909 12.147071-32.449939 32.717575-9.570263-27.545858-19.908525zM320.519758 827.41398l-1.680809 32.712404 29.999839-18.095839s26.115879 10.079677 29.085737 14.347637l-9.177212-31.286303 22.495677-25.986586-32.712404-1.675636-18.616889-29.09091-11.504485 31.544889-35.04097 8.15192 27.151516 19.378424z m339.777939 17.848889l8.78804 32.974868 21.206627-26.117171 34.005333 2.455272-18.227717-28.833616 11.893656-33.106747-32.071111 9.309091-26.510222-21.586748-2.444929 34.000162-29.085738 18.616889 32.446061 12.288z m-116.101172 9.954262l5.303596-33.490747-30.394182 14.748444-30.646303-16.036202 5.303596 34.521212-24.177777 23.660606 33.228282 5.692768 15.12598 30.641131 15.64703-30.126545 34.641455-6.471111-24.031677-23.139556zM0 369.722182l1.939394 297.111273c1.428687 25.858586 21.98497 46.813091 47.838384 47.317333l940.99006-6.469818c25.596121 1.035636 46.156283-19.907232 46.545455-44.606061l-1.414465-299.822545c0-24.954828-20.949333-45.51499-47.848727-47.323798L46.933333 321.751919c-25.337535 1.424808-46.281697 22.106505-46.933333 47.970263z m46.677333-14.611394l940.988768-6.464647c8.666505-0.903758 14.348929 7.111111 15.12598 15.647031l3.100444 297.241858c0.389172 8.40404-8.393697 15.387152-16.156444 14.873859l-940.73794 6.06901c-8.661333 0.920566-14.352808-7.111111-15.125979-15.640566l-2.064808-295.955394c-0.777051-8.791919 6.980525-16.285737 14.869979-15.771151z m0 0" p-id="2894"></path><path d="M343.140848 936.409212c56.242424 23.919192 117.531152 34.646626 179.459879 34.519919 61.54602 0.384 122.046061-12.534949 178.16695-37.360485 55.081374-24.312242 103.04-58.053818 144.808081-100.07402 31.681939-32.72404 56.894061-66.196687 77.575757-106.415838l-34.903919 1.939394c-73.439677 124.647434-210.236768 209.71701-365.384404 210.363475C366.807919 941.327515 230.656 857.545697 154.505051 733.287434l-37.105778 0.514586c21.07604 38.141414 48.100848 74.989899 79.767272 105.23798 41.510788 41.646545 91.93503 74.872242 145.974303 97.369212zM696.242424 89.281939c-56.369131-23.792485-116.752808-35.943434-179.459879-34.519919-62.707071 1.424808-121.792646 12.025535-178.161777 37.364364-55.080081 24.307071-103.691636 57.019475-145.459717 99.039677-31.155717 32.974869-57.530182 67.106909-77.186586 106.666666l37.105777-0.514586c70.076768-127.353535 206.868687-212.429576 363.055839-211.651232 156.060444-1.939394 293.630707 82.620768 368.879192 207.12598l37.100606-0.515879c-21.206626-38.141414-48.095677-74.989899-79.762101-105.241858-41.773253-41.898667-92.197495-75.252364-146.111354-97.753213z m0 0" p-id="2895"></path><path d="M246.524121 461.822707c15.820283-30.41099 25.819798-56.874667 29.999839-79.375515 8.32 4.999758 18.750061 9.589657 31.250101 13.750303-7.500283 7.500283-16.249535 25.839192-26.250344 54.999919V612.447677c0 25.000081 0.409859 43.750141 1.250263 56.250182h-26.250344c0.819717-11.67903 1.250263-29.999838 1.250263-54.99992v-120.000646c-10.839919 18.340202-22.089697 35.000889-33.750626 50.000162-4.18004-7.500283-9.999515-14.160162-17.499798-20.000324 10.821818-10.819232 24.16097-31.44404 40.000646-61.874424z m191.250101 178.125576c6.659879 1.679515 12.909899 2.304 18.750061 1.874747 5.820768-0.409859 10.19604-2.285899 13.124525-5.625535 2.910384-3.320242 6.035394-14.571313 9.37503-33.750626 5.820768 5.840162 15.000566 10.428768 27.500606 13.750303-4.999758 18.340202-9.804283 30.41099-14.374787 36.249858-4.589899 5.820768-11.875556 9.160404-21.875071 9.999515h-38.750384c-17.499798 0-26.250343-9.999515-26.250343-29.999838V489.947798h-16.249536c-4.18004 81.679515-28.749576 141.680485-73.74998 180.000323-5.840162-7.500283-14.179556-12.929293-25.00008-16.249535 43.319596-29.999838 67.909818-84.570505 73.749979-163.750788h-22.499555c-18.340202 0-33.750626 0.430545-46.249374 1.250263v-22.499556c12.50004 0.839111 27.910465 1.250263 46.249374 1.250263h23.749818c0-41.660768-0.430545-70.000485-1.250263-84.999758 5.819475 1.679515 15.410424 2.929778 28.749576 3.749495-2.500525 12.50004-3.749495 39.589495-3.749495 81.250263h67.49996c9.160404 0 21.250586-0.409859 36.249858-1.250263v22.499556c-14.179556-0.819717-25.839192-1.250263-34.999596-1.250263h-28.749575v135.001212c-0.840404 8.339394 2.06998 13.339152 8.749252 14.999273z m16.250829-226.875475c4.999758 7.089131 9.999515 13.555071 15.000565 19.374546-6.679273 4.18004-13.750303 9.589657-21.250586 16.249535-4.999758-9.999515-14.589414-24.16097-28.749575-42.499879 5.819475-4.160646 12.50004-9.160404 20.000323-15.000566a951.992889 951.992889 0 0 0 14.999273 21.876364zM742.773657 413.072808c-15.000566 1.250263-32.929616 3.12501-53.749657 5.625535v32.500364h78.749737c12.50004 0 27.071354-0.409859 43.750142-1.250263v22.499556c-15.839677-0.819717-30.429091-1.250263-43.750142-1.250263h-56.250181c7.500283 8.339394 17.696323 17.304566 30.625616 26.874829 12.909899 9.589657 25.624566 16.875313 38.124606 21.87507s25.409939 9.179798 38.750384 12.500041c-8.339394 7.500283-14.589414 15.839677-18.750061 25.000081-14.179556-4.999758-31.250101-13.321051-51.250424-25.000081-20.000323-11.660929-40.000646-32.071111-59.999677-61.251233v68.750223h54.999919c-2.500525 7.500283-5.840162 22.928808-9.999515 46.249373h57.500444c-2.500525 13.339152-4.375273 25.214707-5.625535 35.625374-1.250263 10.428768-2.929778 20.000323-4.999757 28.749576-2.089374 8.750545-8.750545 14.571313-20.000324 17.499798-11.249778 2.910384-23.125333 5.196283-35.625373 6.874505-2.500525-9.179798-6.679273-18.340202-12.500041-27.500606 24.16097 0.82101 38.124606-0.624485 41.875394-4.375273s6.445253-16.446061 8.124768-38.124606h-58.749414c4.160646-23.320566 7.07103-38.750384 8.750545-46.249374h-53.749656c-1.679515 16.678788-4.804525 30.840242-9.375031 42.499879-4.589899 11.67903-10.428768 21.875071-17.499798 30.625616-7.089131 8.750545-17.089939 16.875313-29.999838 24.375596-12.929293 7.500283-26.46497 14.160162-40.625131 20.000323-7.500283-9.999515-14.589414-17.929051-21.250586-23.749818 39.160242-9.179798 64.374949-22.070303 75.624727-38.750384 11.249778-16.660687 17.285172-34.999596 18.125576-54.999919-10.839919 0-24.590222 0.429253-41.249616 1.250263v-18.750061c-3.339636 1.679515-8.750545 4.178747-16.249536 7.500283-7.500283 3.339636-15.839677 6.679273-25.000081 9.999515-3.339636-8.321293-9.589657-16.660687-18.75006-25.000081 13.321051-0.82101 27.695838-4.785131 43.124363-11.875555 15.410424-7.07103 27.910465-15.195798 37.500122-24.375596 9.570263-9.160404 16.875313-17.910949 21.87507-26.250343h-47.499636c-14.179556 0-29.999838 0.430545-47.499636 1.250262v-22.499555c18.320808 0.839111 34.160485 1.250263 47.499636 1.250262h77.499475v-31.250101c-6.679273 0.839111-17.499798 1.679515-32.500364 2.500525-15.000566 0.839111-34.589737 2.500525-58.749414 4.999758-1.679515-6.659879-4.999758-13.750303-9.999515-21.250586 10.820525 0 23.946343-0.409859 39.374869-1.250262 15.410424-0.819717 32.695596-2.06998 51.874909-3.749495a1153.374384 1153.374384 0 0 0 56.250181-6.250021c18.320808-2.500525 34.999596-5.819475 50.000162-9.999515 1.660121 6.680566 7.500283 15.429818 17.499798 26.250344-9.181091 0.001293-21.251879 0.625778-36.252444 1.87604z m-105.000081 126.875152h27.500606v-68.750223h-3.749495c-9.999515 15.839677-19.589172 28.339717-28.749576 37.500122-9.179798 9.179798-21.679838 19.179313-37.500121 30.001131 14.999273 0.839111 29.159434 1.24897 42.498586 1.24897z" p-id="2896"></path></svg>