<?xml version="1.0" standalone="no"?><!DOCTYPE svg PUBLIC "-//W3C//DTD SVG 1.1//EN" "http://www.w3.org/Graphics/SVG/1.1/DTD/svg11.dtd"><svg t="1557444814557" class="icon" style="" viewBox="0 0 1024 1024" version="1.1" xmlns="http://www.w3.org/2000/svg" p-id="4572" xmlns:xlink="http://www.w3.org/1999/xlink" width="200" height="200"><defs><style type="text/css"></style></defs><path d="M575.232 896H160a32 32 0 0 1-32-32V160a32 32 0 0 1 32-32h544c17.664 0 32 14.336 32 32a32 32 0 0 0 64 0 96 96 0 0 0-96-96H160a96 96 0 0 0-96 96v704a96 96 0 0 0 96 96h415.232a32 32 0 0 0 0-64z" p-id="4573"></path><path d="M512 288a32 32 0 0 0-32-32H224a32 32 0 0 0 0 64h256a32 32 0 0 0 32-32zM480 480a32 32 0 0 0-32-32H224a32 32 0 0 0 0 64h224a32 32 0 0 0 32-32zM224 672a32 32 0 0 0 0 64h128a32 32 0 0 0 0-64H224zM864 624h-66.176C822.08 556.288 864 431.648 864 416a160 160 0 0 0-320 0c0 20.064 39.84 139.744 65.696 208H544a96 96 0 0 0-96 96v32a96 96 0 0 0 96 96h320a96 96 0 0 0 96-96v-32a96 96 0 0 0-96-96z m-221.536-98.464C623.104 469.76 608 420.608 608 416a96 96 0 1 1 192 0c0 6.304-52.192 158.464-70.336 208h-51.2c-8-20.16-22.4-59.264-36-98.464zM896 752a32 32 0 0 1-32 32H544a32 32 0 0 1-32-32v-32a32 32 0 0 1 32-32h320a32 32 0 0 1 32 32v32z" p-id="4574"></path></svg>