<?xml version="1.0" standalone="no"?><!DOCTYPE svg PUBLIC "-//W3C//DTD SVG 1.1//EN" "http://www.w3.org/Graphics/SVG/1.1/DTD/svg11.dtd"><svg t="1557444803946" class="icon" style="" viewBox="0 0 1024 1024" version="1.1" xmlns="http://www.w3.org/2000/svg" p-id="4456" xmlns:xlink="http://www.w3.org/1999/xlink" width="200" height="200"><defs><style type="text/css"></style></defs><path d="M864 576h-250.144A204.288 204.288 0 0 1 608 530.016c0-77.088 43.2-146.56 110.752-181.632a31.104 31.104 0 0 0 11.584-11.072C771.52 316.064 800 273.568 800 224a128 128 0 0 0-128-128H352a128 128 0 0 0-128 128c0 49.568 28.48 92.064 69.664 113.312a31.104 31.104 0 0 0 11.584 11.072A204.544 204.544 0 0 1 416 530.016c0 15.712-2.4 30.976-5.888 45.984H160a96 96 0 0 0-96 96v64a96 96 0 0 0 96 96c0 54.272 49.088 96 107.296 96h489.408C814.912 928 864 886.272 864 832a96 96 0 0 0 96-96v-64a96 96 0 0 0-96-96z m-452.384-224h37.024a32 32 0 0 0 0-64H352a64 64 0 0 1 0-128h320a64 64 0 0 1 0 128h-102.112a32 32 0 0 0 0 64h42.496a267.04 267.04 0 0 0-64.416 224h-71.936a267.04 267.04 0 0 0-64.416-224zM896 736a32 32 0 0 1-32 32h-55.712a32 32 0 0 0-32 32c0 14.72 10.144 26.592 23.712 30.336V832c0 16.416-18.336 32-43.296 32H267.296C242.336 864 224 848.416 224 832h456.128a32 32 0 0 0 0-64H160a32 32 0 0 1-32-32v-64a32 32 0 0 1 32-32h704a32 32 0 0 1 32 32v64z" p-id="4457"></path></svg>