<svg class="icon" style="width: 1.0400390625em; height: 1em;vertical-align: middle;fill: currentColor;overflow: hidden;" viewBox="0 0 1065 1024" version="1.1" xmlns="http://www.w3.org/2000/svg"><path d="M-33.65781547-34.13333333h1099.30647787v1092.25789973H-33.65781547z" fill="#1a76d1" /><path d="M375.87137 139.031897c112.632603-42.746802 244.053744-31.306012 347.596179 30.155357 95.594703 57.154635 171.340621 159.825861 188.164829 254.080873-42.138599 0.197255-52.173947 1.479412-94.246793 1.684887-26.933526-87.531905-125.807593-185.345726-206.46023-205.342451-105.482109-22.437756-190.7538-6.731327-263.688835 44.88373-54.19581 36.829152-104.035573 101.726045-123.424095 164.938053-27.673232 81.252621-5.613548 196.778297 41.513957 268.143511C302.089782 751.089494 366.814078 801.241576 429.146657 821.041047c60.927137 19.125516 159.43957 1.125997 219.627-20.218637C732.92757 770.182133 794.873858 693.014335 821.99642 607.972775l-117.399599 1.265719c-5.605329 39.220868-11.481885 52.601332-35.34152 97.337122l-321.468111-0.55067V330.698001h320.350333c38.152404 48.245285 44.407031 124.599406 44.883731 188.485368 0 0 128.478754 0.534232 207.578007 0-1.068465 122.183032-52.46161 242.319544-149.346689 317.654515-70.420034 55.806726-159.628606 87.992166-249.634417 87.992167-125.898001 2.358841-251.319303-58.708018-326.867967-159.423132-48.5987-61.601092-73.913091-137.946994-84.285416-214.966852-2.728694-47.012441 0.920523-70.904952 1.397223-73.707617 9.155919-53.8013 23.415812-107.306718 50.924665-154.853391C209.042957 238.062124 286.120347 172.211831 375.87137 139.023678m61.132611 276.946015l0.205474 210.939561 155.478032 0.846553c35.062076-40.683843 33.385408-66.483153-1.397223-103.789004 35.34152-36.746962 37.026407-76.025363 0.838334-107.44644l-155.124617-0.55067" fill="#FFFFFF" /></svg>