<svg class="icon" style="width: 1em; height: 1em;vertical-align: middle;fill: currentColor;overflow: hidden;" viewBox="0 0 1024 1024" version="1.1" xmlns="http://www.w3.org/2000/svg"><path d="M816 832h-608A80 80 0 0 1 128 752v-544A80 80 0 0 1 208 128h608A80 80 0 0 1 896 208v544a80 80 0 0 1-80 80zM208 160A48 48 0 0 0 160 208v544A48 48 0 0 0 208 800h608a48 48 0 0 0 48-48v-544A48 48 0 0 0 816 160z" fill="#606060" /><path d="M880 567.68h-736a16 16 0 0 1-16-16 16.32 16.32 0 0 1 16-16h736a16 16 0 0 1 16 16 16 16 0 0 1-16 16zM256 944a16 16 0 0 1-16-16v-96a16 16 0 0 1 32 0v96a16 16 0 0 1-16 16zM768 944a16 16 0 0 1-16-16v-96a16 16 0 0 1 32 0v96a16 16 0 0 1-16 16zM384 704H256a16 16 0 0 1 0-32h128a16 16 0 0 1 0 32zM768 704h-128a16 16 0 0 1 0-32h128a16 16 0 0 1 0 32zM128 480a32 32 0 0 1-32-32v-128a32 32 0 0 1 64 0v128a32 32 0 0 1-32 32zM896 480a32 32 0 0 1-32-32v-128a32 32 0 0 1 64 0v128a32 32 0 0 1-32 32z" fill="#606060" /></svg>