<?xml version="1.0" standalone="no"?><!DOCTYPE svg PUBLIC "-//W3C//DTD SVG 1.1//EN" "http://www.w3.org/Graphics/SVG/1.1/DTD/svg11.dtd"><svg class="icon" width="200px" height="200.00px" viewBox="0 0 1024 1024" version="1.1" xmlns="http://www.w3.org/2000/svg"><path fill="#333333" d="M918.4 131.2c-1.6-20.8-19.2-38.4-40-40-68.8-8-134.4 16-182.4 64l-131.2 131.2-273.6-120c-24-11.2-52.8-4.8-70.4 12.8l-48 48c-3.2 3.2-6.4 6.4-8 11.2-9.6 14.4-12.8 32-8 48 3.2 16 14.4 30.4 28.8 40l209.6 132.8-129.6 129.6-80-38.4c-20.8-6.4-41.6-3.2-54.4 9.6l-44.8 44.8c-9.6 9.6-14.4 20.8-12.8 33.6 1.6 12.8 8 24 17.6 32l136 102.4c3.2 1.6 4.8 3.2 6.4 6.4l102.4 136c8 9.6 19.2 16 32 17.6h3.2c11.2 0 22.4-4.8 30.4-12.8l44.8-44.8c12.8-12.8 16-33.6 8-49.6l-38.4-80 129.6-129.6 132.8 209.6c3.2 3.2 4.8 8 8 11.2 12.8 12.8 28.8 19.2 44.8 19.2 16 0 32-6.4 44.8-19.2l48-48c19.2-19.2 24-46.4 12.8-70.4l-120-273.6 132.8-132.8c52.8-46.4 75.2-113.6 68.8-180.8z m-704 142.4l48-48L515.2 336l-36.8 36.8-41.6 41.6-222.4-140.8z m459.2 220.8L784 745.6l-48 48-140.8-220.8 40-40 38.4-38.4z m20.8-112l-147.2 147.2-204.8 204.8 51.2 107.2-17.6 17.6-88-118.4c-4.8-8-11.2-14.4-19.2-19.2l-118.4-88 17.6-17.6 107.2 51.2L444.8 496l180.8-180.8 113.6-113.6c30.4-30.4 72-48 115.2-46.4 0 41.6-16 83.2-46.4 113.6l-113.6 113.6z"  /></svg>