<?xml version="1.0" standalone="no"?><!DOCTYPE svg PUBLIC "-//W3C//DTD SVG 1.1//EN" "http://www.w3.org/Graphics/SVG/1.1/DTD/svg11.dtd"><svg class="icon" width="200px" height="200.00px" viewBox="0 0 1024 1024" version="1.1" xmlns="http://www.w3.org/2000/svg"><path d="M0.4335 1.257151h1021.478473v1021.492923H0.4335z" fill="#769AFF" /><path d="M0.4335 1.257151l1021.471248 1021.485698M0.4335 1022.742849L1021.904748 1.257151" fill="#769AFF" /><path d="M339.076723 697.610386a50.567812 50.567812 0 0 0 69.540676-16.740337 50.582262 50.582262 0 0 0-16.733112-69.540676c-68.240175-41.767756-108.989205-114.400734-108.989205-194.294843 0-125.491117 102.09655-227.587667 227.587667-227.587666s227.587667 102.09655 227.587667 227.587666c0 77.625457-39.000579 149.153009-104.321852 191.347041a50.575037 50.575037 0 0 0 54.88114 84.966062c94.293544-60.89957 150.590785-164.188245 150.590786-276.313103 0-181.268158-147.469583-328.737741-328.737741-328.73774s-328.737741 147.469583-328.737741 328.73774c-0.007225 115.39056 58.811543 220.268736 157.331715 280.575856z" fill="#FFFFFF" /><path d="M796.340083 829.156057H561.050561V340.984125a50.575037 50.575037 0 1 0-101.150074 0v488.164707H224.610965a50.575037 50.575037 0 1 0 0 101.150074h571.729118a50.575037 50.575037 0 1 0 0-101.142849z" fill="#FFFFFF" /></svg>