<?xml version="1.0" standalone="no"?><!DOCTYPE svg PUBLIC "-//W3C//DTD SVG 1.1//EN" "http://www.w3.org/Graphics/SVG/1.1/DTD/svg11.dtd"><svg class="icon" width="200px" height="162.28px" viewBox="0 0 1262 1024" version="1.1" xmlns="http://www.w3.org/2000/svg"><path fill="#333333" d="M1136.047385 339.881769c-23.341731-196.733067-118.702365-340.157424-235.779091-339.881372L358.68492 1.288641C241.577522 1.564693 146.922354 145.357118 124.408779 342.243548c-82.2635 48.953223-124.683492 148.73069-124.40744 264.151103 0.184035 85.698813 24.016525 162.53329 69.902504 216.394105l0.460087 191.365389 212.805429-0.490759-0.276052-112.077117 697.338055-1.686985 0.276052 112.077117 212.805429-0.521432-0.460087-191.365389c45.640599-54.014177 69.135693-131.002016 68.920986-216.700829C1261.528361 488.183045 1218.586937 388.497596 1136.047385 339.881769zM358.930299 74.319734 900.513674 73.031491c75.392872-0.184035 141.491992 101.985882 166.490036 240.563992-11.53284-2.300433-23.648456-3.711366-36.193486-4.447505 0-0.306724 0.337397-0.920173 0.061345-0.889501-101.893865 0.24538-70.055866 0.153362-141.798717 0.337397s-46.560773 0.092017-118.119589 0.276052L247.282597 310.129497c-19.016916 0.030672-36.99097 2.085726-53.983505 5.551713C217.806376 176.919065 283.537427 74.473096 358.930299 74.319734zM218.297135 702.031337c-46.591445 0.092017-84.318553-42.788062-84.441243-95.974083-0.12269-53.094004 37.420384-96.250135 83.981157-96.372825 46.376738-0.092017 84.103846 42.880079 84.257209 95.974083C302.216947 658.93655 264.704546 701.908647 218.297135 702.031337zM875.270251 683.903921l-488.366682 0.582776c-76.12901 0.184035-77.785322-131.124706-0.306724-131.30874l488.366682-1.165553C946.184946 551.82837 946.49167 683.719887 875.270251 683.903921zM1043.938031 700.037628c-46.468755 0.12269-84.195864-42.757389-84.318553-95.94341-0.12269-53.094004 37.420384-96.280807 83.858467-96.372825 46.499428-0.12269 84.257209 42.849407 84.379898 95.974083C1127.888515 656.973514 1090.406786 699.976283 1043.938031 700.037628z" /></svg>