<svg class="icon" style="width: 1em;height: 1em;vertical-align: middle;fill: currentColor;overflow: hidden;" viewBox="0 0 1024 1024" version="1.1" xmlns="http://www.w3.org/2000/svg"><path d="M0 512c0 282.624 229.376 512 512 512s512-229.376 512-512S794.624 0 512 0 0 229.376 0 512z" fill="#FFFFFF" /><path d="M512 861.696c-10.24 0-19.968-3.072-28.16-8.192L219.136 686.08c-14.336-9.216-22.528-24.576-22.528-41.472V372.736c0-16.896 9.216-33.28 23.552-41.984l264.704-160.768c16.896-10.24 38.4-10.24 55.296 0l264.704 161.28c14.336 9.216 23.552 25.088 23.552 41.984V645.12c0 16.896-8.704 32.256-22.528 41.472l-264.704 167.424c-9.216 5.12-19.456 7.68-29.184 7.68z m-266.24-218.112l263.68 166.912c1.536 1.024 3.072 1.024 4.608 0l264.192-166.912V373.248l-263.68-160.768c-1.536-1.024-3.072-1.024-4.608 0L245.76 373.248v270.336zM511.488 778.24c-13.824 0-24.576-11.264-24.576-25.088l0.512-175.104c0-13.824 11.264-25.088 24.576-25.088 13.824 0 24.576 11.264 24.576 25.088l-0.512 175.104c0 13.824-11.264 25.088-24.576 25.088z m-27.648-253.952c-5.12 0-9.728-1.024-14.336-3.584L283.136 416.768C270.336 409.6 266.24 394.24 273.92 382.464c7.68-11.776 24.576-15.872 37.888-8.704l186.368 103.424c12.8 7.168 16.896 22.528 9.216 34.304-5.12 8.192-13.824 12.8-23.552 12.8z m84.48 6.656c-8.192 0-16.384-4.096-20.992-12.288-7.168-11.776-3.584-27.136 8.192-34.304l167.424-103.424c11.264-7.168 26.624-3.584 33.792 8.192 0 0 0 0.512 0.512 0.512 7.168 11.776 3.584 27.136-8.192 34.304L581.12 527.36c-4.096 2.56-8.192 3.584-12.8 3.584zM396.8 359.424c0 16.896 13.312 30.72 30.208 30.72s30.208-13.824 30.208-30.72-13.312-30.72-30.208-30.72-30.208 13.824-30.208 30.72z m-60.928 242.688c0 16.896 13.312 30.72 30.208 30.72s30.208-13.824 30.208-30.72-13.312-30.72-30.208-30.72-30.208 13.824-30.208 30.72zM563.2 359.424c0 16.896 13.312 30.72 30.208 30.72 16.896 0 30.208-13.824 30.208-30.72s-13.312-30.72-30.208-30.72c-16.384 0-30.208 13.824-30.208 30.72z m9.216 324.096c0 16.896 13.312 30.72 30.208 30.72 16.896 0 30.208-13.824 30.208-30.72s-13.312-30.72-30.208-30.72c-16.896 0-30.208 13.824-30.208 30.72z m63.488-81.408c0 16.896 13.312 30.72 30.208 30.72 16.896 0 30.208-13.824 30.208-30.72s-13.312-30.72-30.208-30.72c-16.896 0-30.72 13.824-30.208 30.72z m62.976-81.408c0 16.896 13.312 30.72 30.208 30.72 16.896 0 30.208-13.824 30.208-30.72s-13.312-30.72-30.208-30.72c-16.384 0-30.208 13.824-30.208 30.72z" fill="#23ADE5" /></svg>