<?xml version="1.0" standalone="no"?><!DOCTYPE svg PUBLIC "-//W3C//DTD SVG 1.1//EN" "http://www.w3.org/Graphics/SVG/1.1/DTD/svg11.dtd"><svg t="1584793947903" class="icon" viewBox="0 0 1024 1024" version="1.1" xmlns="http://www.w3.org/2000/svg" p-id="1209" xmlns:xlink="http://www.w3.org/1999/xlink" width="200" height="200"><defs><style type="text/css"></style></defs><path d="M762.63619 905.752381h-71.43619c-6.826667 0-12.190476-5.36381-12.190476-12.190476s5.36381-12.190476 12.190476-12.190476h71.43619c20.23619 0 36.571429-16.335238 36.571429-36.571429v-72.167619c0-6.826667 5.36381-12.190476 12.190476-12.190476s12.190476 5.36381 12.190476 12.190476v72.167619a60.952381 60.952381 0 0 1-60.952381 60.952381zM375.222857 905.752381H240.88381a60.952381 60.952381 0 0 1-60.952381-60.952381V198.217143a60.952381 60.952381 0 0 1 60.952381-60.952381h521.75238a60.952381 60.952381 0 0 1 60.952381 60.952381v130.925714c0 6.826667-5.36381 12.190476-12.190476 12.190476s-12.190476-5.36381-12.190476-12.190476V198.217143c0-20.23619-16.335238-36.571429-36.571429-36.571429H240.88381c-20.23619 0-36.571429 16.335238-36.571429 36.571429v646.826667c0 20.23619 16.335238 36.571429 36.571429 36.571428h134.339047c6.826667 0 12.190476 5.36381 12.190476 12.190476s-5.36381 11.946667-12.190476 11.946667z" p-id="1210"></path><path d="M714.849524 318.902857H408.380952c-6.826667 0-12.190476-5.36381-12.190476-12.190476s5.36381-12.190476 12.190476-12.190476h306.224762c6.826667 0 12.190476 5.36381 12.190476 12.190476s-5.36381 12.190476-11.946666 12.190476zM666.575238 445.927619H408.380952c-6.826667 0-12.190476-5.36381-12.190476-12.190476s5.36381-12.190476 12.190476-12.190476h257.950477c6.826667 0 12.190476 5.36381 12.190476 12.190476s-5.36381 12.190476-11.946667 12.190476zM537.6 572.708571h-128.975238c-6.826667 0-12.190476-5.36381-12.190476-12.190476s5.36381-12.190476 12.190476-12.190476h128.975238c6.826667 0 12.190476 5.36381 12.190476 12.190476s-5.607619 12.190476-12.190476 12.190476zM323.047619 318.902857h-34.133333c-6.826667 0-12.190476-5.36381-12.190476-12.190476s5.36381-12.190476 12.190476-12.190476h34.133333c6.826667 0 12.190476 5.36381 12.190476 12.190476s-5.36381 12.190476-12.190476 12.190476zM323.047619 445.927619h-34.133333c-6.826667 0-12.190476-5.36381-12.190476-12.190476s5.36381-12.190476 12.190476-12.190476h34.133333c6.826667 0 12.190476 5.36381 12.190476 12.190476s-5.36381 12.190476-12.190476 12.190476zM323.047619 572.708571h-34.133333c-6.826667 0-12.190476-5.36381-12.190476-12.190476s5.36381-12.190476 12.190476-12.190476h34.133333c6.826667 0 12.190476 5.36381 12.190476 12.190476s-5.36381 12.190476-12.190476 12.190476z" p-id="1211"></path><path d="M323.047619 699.733333h-34.133333c-6.826667 0-12.190476-5.36381-12.190476-12.190476s5.36381-12.190476 12.190476-12.190476h34.133333c6.826667 0 12.190476 5.36381 12.190476 12.190476s-5.36381 12.190476-12.190476 12.190476z" p-id="1212"></path><path d="M420.327619 934.034286a11.459048 11.459048 0 0 1-8.533333-3.657143 11.873524 11.873524 0 0 1-3.413334-10.48381l31.939048-204.55619c0.487619-2.438095 1.706667-4.87619 3.413333-6.826667L767.024762 385.219048c22.186667-22.186667 56.56381-23.893333 76.55619-3.900953l117.272381 117.272381c9.99619 9.99619 14.872381 23.405714 13.897143 38.278095-0.975238 14.140952-7.314286 27.794286-17.798095 38.278096L633.417143 898.681905c-1.950476 1.706667-4.388571 2.925714-6.826667 3.413333l-204.55619 31.939048h-1.706667z m43.154286-210.895238l-28.769524 184.07619 184.07619-28.769524 320.609524-320.609524c6.339048-6.339048 9.99619-14.384762 10.727619-22.674285 0.487619-7.558095-1.950476-14.628571-6.826666-19.504762l-117.272381-117.272381c-10.24-10.24-29.744762-8.533333-42.179048 3.900952L463.481905 723.139048z m484.693333-156.525715z" p-id="1213"></path><path d="M890.63619 636.342857a11.459048 11.459048 0 0 1-8.533333-3.657143l-172.617143-172.617143c-4.87619-4.87619-4.87619-12.434286 0-17.310476s12.434286-4.87619 17.310476 0l172.617143 172.617143c4.87619 4.87619 4.87619 12.434286 0 17.310476-2.438095 2.438095-5.607619 3.657143-8.777143 3.657143z" p-id="1214"></path><path d="M537.112381 915.992381a11.459048 11.459048 0 0 1-8.533333-3.657143l-93.866667-93.866667c-4.87619-4.87619-4.87619-12.434286 0-17.310476s12.434286-4.87619 17.310476 0l93.866667 93.866667c4.87619 4.87619 4.87619 12.434286 0 17.310476-2.681905 2.438095-5.607619 3.657143-8.777143 3.657143z" p-id="1215"></path><path d="M522.727619 774.095238a11.459048 11.459048 0 0 1-8.533333-3.657143c-4.87619-4.87619-4.87619-12.434286 0-17.310476l252.830476-252.830476c4.87619-4.87619 12.434286-4.87619 17.310476 0s4.87619 12.434286 0 17.310476L531.260952 770.438095c-2.438095 2.438095-5.607619 3.657143-8.533333 3.657143z" p-id="1216"></path><path d="M580.266667 831.634286a11.459048 11.459048 0 0 1-8.533334-3.657143c-4.87619-4.87619-4.87619-12.434286 0-17.310476l252.830477-252.830477c4.87619-4.87619 12.434286-4.87619 17.310476 0s4.87619 12.434286 0 17.310477L588.8 827.977143c-2.438095 2.438095-5.607619 3.657143-8.533333 3.657143z" p-id="1217"></path></svg>