<svg class="icon" style="width: 1em; height: 1em;vertical-align: middle;fill: currentColor;overflow: hidden;" viewBox="0 0 1024 1024" version="1.1" xmlns="http://www.w3.org/2000/svg"><path d="M256.9 701.7h27.7v46.5c0 12.4 10 22.4 22.4 22.4 12.4 0 22.4-10 22.4-22.4v-46.5H544c12.4 0 22.4-10 22.4-22.4s-10-22.4-22.4-22.4H256.9c-31.2 0-56.6-25.4-56.6-56.6V457.4c0-31.2 25.4-56.6 56.6-56.6h529.3c31.2 0 56.6 25.4 56.6 56.6 0 12.4 10 22.4 22.4 22.4 12.4 0 22.4-10 22.4-22.4 0-53.2-41.2-96.9-93.4-101v-3c0-116.6-82.8-211.4-184.6-211.4H442.1c-101.8 0-184.6 94.8-184.6 211.4v2.6h-0.6c-55.9 0-101.4 45.5-101.4 101.4v142.9c0 55.9 45.5 101.4 101.4 101.4z m45.4-348.3c0-91.9 62.7-166.6 139.8-166.6h167.5c77.1 0 139.8 74.7 139.8 166.6v2.6H302.3v-2.6z" fill="#2C2C2C" /><path d="M263.9 524.2a51.9 51.9 0 1 0 103.8 0 51.9 51.9 0 1 0-103.8 0zM752.2 467.9c-91.5 0-165.9 74.4-165.9 165.9s74.4 165.9 165.9 165.9 165.9-74.4 165.9-165.9-74.4-165.9-165.9-165.9z m0 287c-66.8 0-121.1-54.3-121.1-121.1s54.3-121.1 121.1-121.1S873.3 567 873.3 633.8 819 754.9 752.2 754.9z" fill="#2C2C2C" /><path d="M803.8 618.8h-26.6v-53.9c0-13.1-10.7-23.9-23.9-23.9h-0.4c-13.1 0-23.9 10.7-23.9 23.9v78.2c0 13.1 10.7 23.9 23.9 23.9h50.9c13.1 0 23.9-10.7 23.9-23.9v-0.4c0-13.2-10.7-23.9-23.9-23.9z m21.8 218.5H198.4c-12.3 0-22.4 10.1-22.4 22.4 0 12.3 10.1 22.4 22.4 22.4h627.2c12.3 0 22.4-10.1 22.4-22.4 0-12.3-10.1-22.4-22.4-22.4z m107.6 0h-44.8c-12.3 0-22.4 10.1-22.4 22.4 0 12.3 10.1 22.4 22.4 22.4h44.8c12.3 0 22.4-10.1 22.4-22.4 0-12.3-10.1-22.4-22.4-22.4z m-797.6 0H90.8c-12.3 0-22.4 10.1-22.4 22.4 0 12.3 10.1 22.4 22.4 22.4h44.8c12.3 0 22.4-10.1 22.4-22.4 0-12.3-10.1-22.4-22.4-22.4z" fill="#2C2C2C" /></svg>