<?xml version="1.0" standalone="no"?><!DOCTYPE svg PUBLIC "-//W3C//DTD SVG 1.1//EN" "http://www.w3.org/Graphics/SVG/1.1/DTD/svg11.dtd"><svg class="icon" width="200px" height="200.00px" viewBox="0 0 1024 1024" version="1.1" xmlns="http://www.w3.org/2000/svg"><path fill="#7766709|-1,7766710|-1,7766711|-1,7766712|-1,7766713|-1,7766714|-1,7766715|-1,7766716|-1,7766717|-1,7766718|-1,7766719|-1,7766720|-1,7766721|-1,7766722|-1,7766723|-1,7766724|-1,7766725|-1,7766726|-1,7766727|-1,7766728|-1" d="M735.989447 681.062464V521.069563c0-17.672498 14.326287-31.998785 31.998785-31.998785s31.998785 14.326287 31.998785 31.998785v159.991877H959.977871c17.672498 0 31.998785 14.326287 31.998785 31.998785s-14.326287 31.998785-31.998785 31.998785H799.985993v159.991877c0 17.672498-14.326287 31.998785-31.998784 31.998785s-31.998785-14.326287-31.998785-31.998785V745.05901H575.996546c-17.672498 0-31.998785-14.326287-31.998784-31.998785s14.326287-31.998785 31.998784-31.998785h159.992901zM991.976656 393.075447c0 17.672498-14.326287 31.998785-31.998785 31.998785s-31.998785-14.326287-31.998785-31.998785V169.087023c0-17.672498-14.326287-31.998785-31.998785-31.998785H128.018675c-17.672498 0-31.998785 14.326287-31.998784 31.998785v511.975441c0 17.672498 14.326287 31.998785 31.998784 31.998784h127.994116c35.344996 0 63.996546 28.652574 63.996547 63.996547v93.13826l95.995331-74.66349c8.642844-6.722098 21.099551-5.16565 27.821649 3.478218a19.826558 19.826558 0 0 1 4.176112 12.172227v24.88783c0 9.874905-4.558829 19.196201-12.353352 25.258267l-102.172007 79.466889c-20.924565 16.274662-51.080376 12.504802-67.355038-8.419763a47.994084 47.994084 0 0 1-10.110265-29.468149V777.057795H128.018675c-53.016471 0-95.995331-42.97886-95.995331-95.995331V169.087023c0-53.016471 42.97886-95.995331 95.995331-95.995331h767.96265c53.016471 0 95.995331 42.97886 95.995331 95.995331V393.075447z" /></svg>