<?xml version="1.0" standalone="no"?><!DOCTYPE svg PUBLIC "-//W3C//DTD SVG 1.1//EN" "http://www.w3.org/Graphics/SVG/1.1/DTD/svg11.dtd"><svg class="icon" width="200px" height="200.00px" viewBox="0 0 1024 1024" version="1.1" xmlns="http://www.w3.org/2000/svg"><path fill="#7766709|-1,7766710|-1,7766711|-1,7766712|-1,7766713|-1,7766714|-1,7766715|-1,7766716|-1,7766717|-1,7766718|-1,7766719|-1,7766720|-1,7766721|-1,7766722|-1,7766723|-1,7766724|-1,7766725|-1,7766726|-1,7766727|-1,7766728|-1" d="M767.987209 751.98884V623.994724c0-17.672498 14.326287-31.998785 31.998784-31.998785s31.998785 14.326287 31.998785 31.998785v127.994116H959.977871c17.672498 0 31.998785 14.326287 31.998785 31.998784s-14.326287 31.998785-31.998785 31.998785H831.984778v127.994116c0 17.672498-14.326287 31.998785-31.998785 31.998785s-31.998785-14.326287-31.998784-31.998785v-127.995139H639.994116c-17.672498 0-31.998785-14.326287-31.998785-31.998785s14.326287-31.998785 31.998785-31.998785h127.993093zM606.553493 682.456207l-0.116657 0.069585c-20.713764-23.240307-30.440289-51.80283-30.44029-90.530877 0-28.667923 9.048073-53.575196 25.279757-78.742388 5.132904-7.958252 10.5728-15.404852 18.23327-25.27464-3.815909 4.916986 13.59053-17.342993 17.306154-22.291702 24.740474-32.948413 35.176151-58.473763 35.176151-97.680717v-95.995331c0-93.106538-66.784032-159.991878-159.992901-159.991877-93.208868 0-159.991878 66.88534-159.991878 159.991877v95.995331c0 39.206954 10.435677 64.732303 35.176151 97.680717 3.677762 4.897543 20.762883 26.750247 17.48114 22.516829 7.569396 9.757225 12.964266 17.151635 18.058284 25.049513 16.231683 25.166169 25.279756 50.074466 25.279756 78.742388 0 88.693018-50.975998 123.93773-168.494528 164.215063a8615.7644 8615.7644 0 0 1-19.303648 6.574742 1957.252183 1957.252183 0 0 0-18.833951 6.501064c-36.761252 12.935614-60.7015 23.558555-79.425957 36.001959-14.718213 9.780761-29.498848 26.513864-44.340881 50.198285-4.692882 7.487531-2.426259 17.361413 5.061272 22.053272a16.001439 16.001439 0 0 0 8.495488 2.441609h412.837537c17.672498 0 31.998785 14.326287 31.998784 31.998785s-14.326287 31.998785-31.998784 31.998785H82.765005c-26.508747 0-47.997154-21.48943-47.997154-47.997154 0-3.232624 0.326435-6.456039 0.974188-9.622149 11.691273-57.130162 41.951461-101.920274 90.781586-134.370336 96.3013-63.996546 257.482259-63.996546 257.482259-159.991878 0-63.996546-95.996354-95.689363-95.996354-223.989447v-95.995331c0-128.257106 95.241154-223.989447 223.988423-223.989447s223.989447 95.732341 223.989448 223.989447v95.995331c0 128.300085-95.994308 159.991878-95.994308 223.989447 0 22.995737 9.187243 40.481993 24.490787 54.659901 0.013303 0.010233 0.024559 0.022513 0.036839 0.033769 0.214894 0.199545 0.431835 0.398066 0.649799 0.596587 2.817162 2.831488 4.836145 4.968152 6.028297 6.426363 5.931083 7.256264-0.242524 26.761504-10.867512 34.57547-10.624988 7.813966-31.135114 11.416004-46.880726 0.806365-0.607844-0.409322-2.90619-2.62171-6.897084-6.63921z" /></svg>