<?xml version="1.0" standalone="no"?><!DOCTYPE svg PUBLIC "-//W3C//DTD SVG 1.1//EN" "http://www.w3.org/Graphics/SVG/1.1/DTD/svg11.dtd"><svg class="icon" width="200px" height="200.00px" viewBox="0 0 1024 1024" version="1.1" xmlns="http://www.w3.org/2000/svg"><path fill="#7766809|-1,7766810|-1,7766811|-1,7766812|-1,7766813|-1,7766814|-1,7766815|-1,7766816|-1,7766817|-1,7766818|-1,7766819|-1,7766820|-1,7772174|-1,7772175|-1,7772176|-1,7772177|-1,7772178|-1,7772179|-1,7772180|-1,7772181|-1" d="M541.41903 617.140619c57.151651 57.768705 121.327276 86.850044 191.103456 86.850043 5.073552 0 10.184967-0.161682 15.334243-0.480954 21.499663-1.348718 40.186258-9.555633 56.065923-22.404265 5.65786-4.578272 10.562567-9.442046 14.683421-14.276145 2.508123-2.943029 4.290723-5.354961 5.328355-6.946203 2.476401-3.460822 5.27412-8.552793 6.870478-13.92822 2.127454-7.16212 1.422396-12.386098-2.483564-16.114003-14.794961-14.086833-79.848583-59.47251-93.523023-65.00041-2.943029-1.184989-5.831822-1.77032-8.599866-1.77032-9.314133 0-17.664312 6.073322-27.525913 18.430768-1.465374 1.837858-2.740414 3.526313-5.237281 6.896061-14.299681 19.305695-21.717627 24.882714-36.491099 20.211321-19.638269-6.170536-37.428448-17.810644-63.326281-44.129057-24.88169-25.298176-32.942273-36.541241-39.915081-51.996234a140.375098 140.375098 0 0 0-1.828649-3.966335c-7.557116-15.693424-1.356904-25.541723 20.493754-44.104497a827.619354 827.619354 0 0 0 3.473101-2.969635c0.831948-0.720408 1.131777-0.981351 1.654686-1.441838 15.421224-13.542434 21.183462-29.688159 16.142655-39.589671-12.871145-25.260314-52.423977-83.19991-65.967434-95.578845-8.680706-7.942903-21.988804-6.417153-40.266075 7.153933-5.466502 4.062526-12.71151 11.083429-19.722181 20.907169-11.04352 15.476483-18.101263 33.565467-19.374256 54.298674-4.045129 65.875337 32.44597 148.601456 93.110631 209.948663z m-445.399139 22.853497h127.994116c17.672498 0 31.998785 14.326287 31.998784 31.998785s-14.326287 31.998785-31.998784 31.998785H96.019891c-17.672498 0-31.998785-14.326287-31.998785-31.998785s14.326287-31.998785 31.998785-31.998785z m0-319.984778h127.994116c17.672498 0 31.998785 14.326287 31.998784 31.998784s-14.326287 31.998785-31.998784 31.998785H96.019891c-17.672498 0-31.998785-14.326287-31.998785-31.998785s14.326287-31.998785 31.998785-31.998784z m63.996546 431.979502h63.996546c44.180222 0 79.995939-35.815717 79.995939-79.995939 0-44.180222-35.815717-79.995939-79.995939-79.995939h-63.996546c-17.672498 0-31.998785-14.326287-31.998785-31.998785v-95.995331c0-17.672498 14.326287-31.998785 31.998785-31.998785h63.996546c44.180222 0 79.995939-35.815717 79.995939-79.995939s-35.815717-79.995939-79.995939-79.995938h-63.996546c-17.672498 0-31.998785-14.326287-31.998785-31.998785V160.01746c0-53.016471 42.97886-95.995331 95.995331-95.995331h639.969557c53.016471 0 95.995331 42.97886 95.995331 95.995331v703.966103c0 53.016471-42.97886 95.995331-95.995331 95.995331H224.014007c-53.016471 0-95.995331-42.97886-95.995332-95.995331v-79.995939c0-17.673521 14.325263-31.998785 31.997762-31.998784z" /></svg>