<?xml version="1.0" standalone="no"?><!DOCTYPE svg PUBLIC "-//W3C//DTD SVG 1.1//EN" "http://www.w3.org/Graphics/SVG/1.1/DTD/svg11.dtd"><svg class="icon" width="200px" height="200.00px" viewBox="0 0 1024 1024" version="1.1" xmlns="http://www.w3.org/2000/svg"><path fill="#7766809|-1,7766810|-1,7766811|-1,7766812|-1,7766813|-1,7766814|-1,7766815|-1,7766816|-1,7766817|-1,7766818|-1,7766819|-1,7766820|-1,7772174|-1,7772175|-1,7772176|-1,7772177|-1,7772178|-1,7772179|-1,7772180|-1,7772181|-1" d="M96.019891 640.670521h159.991877c17.672498 0 31.998785 14.326287 31.998785 31.998785s-14.326287 31.998785-31.998785 31.998785H96.019891c-17.672498 0-31.998785-14.326287-31.998785-31.998785s14.326287-31.998785 31.998785-31.998785z m0-319.984778h159.991877c17.672498 0 31.998785 14.326287 31.998785 31.998785s-14.326287 31.998785-31.998785 31.998785H96.019891c-17.672498 0-31.998785-14.326287-31.998785-31.998785s14.326287-31.998785 31.998785-31.998785z m671.967318-95.995331c0-17.672498-14.326287-31.998785-31.998785-31.998785s-31.998785 14.326287-31.998785 31.998785v575.971987c0 17.672498 14.326287 31.998785 31.998785 31.998785s31.998785-14.326287 31.998785-31.998785V224.690412zM160.016437 752.665245h79.995939c44.180222 0 79.995939-35.815717 79.995938-79.995939 0-44.180222-35.815717-79.995939-79.995938-79.995939h-79.995939c-17.672498 0-31.998785-14.326287-31.998785-31.998784v-95.995332c0-17.672498 14.326287-31.998785 31.998785-31.998784h79.995939c44.180222 0 79.995939-35.815717 79.995938-79.995939s-35.815717-79.995939-79.995938-79.995939h-79.995939c-17.672498 0-31.998785-14.326287-31.998785-31.998785V160.692842c0-53.016471 42.97886-95.995331 95.995331-95.995331h639.969557c53.016471 0 95.995331 42.97886 95.995331 95.995331v703.966103c0 53.016471-42.97886 95.995331-95.995331 95.995331H224.014007c-53.016471 0-95.995331-42.97886-95.995332-95.995331v-79.995939c0-17.671475 14.325263-31.997762 31.997762-31.997761z" /></svg>