<?xml version="1.0" standalone="no"?><!DOCTYPE svg PUBLIC "-//W3C//DTD SVG 1.1//EN" "http://www.w3.org/Graphics/SVG/1.1/DTD/svg11.dtd"><svg class="icon" width="200px" height="200.00px" viewBox="0 0 1024 1024" version="1.1" xmlns="http://www.w3.org/2000/svg"><path fill="#7766709|-1,7766710|-1,7766711|-1,7766712|-1,7766713|-1,7766714|-1,7766715|-1,7766716|-1,7766717|-1,7766718|-1,7766719|-1,7766720|-1,7766721|-1,7766722|-1,7766723|-1,7766724|-1,7766725|-1,7766726|-1,7766727|-1,7766728|-1" d="M863.98254 64.021106H224.014007c-53.017494 0-95.995331 42.97886-95.995332 95.995331v159.991877h-31.998784c-17.671475 0-31.998785 14.325263-31.998785 31.998785s14.32731 31.998785 31.998785 31.998785h31.998784v255.988232h-31.998784c-17.671475 0-31.998785 14.325263-31.998785 31.998785s14.32731 31.998785 31.998785 31.998785h31.998784v159.991877c0 53.017494 42.97886 95.995331 95.995332 95.995331h639.969556c53.017494 0 95.995331-42.97886 95.995331-95.995331V160.016437c-0.001023-53.016471-42.97886-95.995331-95.996354-95.995331z m31.998785 799.961434c0 17.673521-14.32731 31.998785-31.998785 31.998785H224.014007c-17.671475 0-31.998785-14.325263-31.998785-31.998785V703.990662h63.996546c17.671475 0 31.998785-14.325263 31.998785-31.998784 0-17.672498-14.32731-31.998785-31.998785-31.998785h-63.996546V384.005884h63.996546c17.671475 0 31.998785-14.325263 31.998785-31.998785s-14.32731-31.998785-31.998785-31.998785h-63.996546V160.016437c0-17.672498 14.32731-31.998785 31.998785-31.998785h639.969556c17.671475 0 31.998785 14.325263 31.998785 31.998785v703.966103zM702.803627 564.839439c-2.945075-1.183965-5.835915-1.769296-8.600888-1.769297-9.31618 0-17.663288 6.072299-27.530007 18.430768-1.461281 1.837858-2.738367 3.52529-5.234211 6.896061-14.299681 19.305695-21.717627 24.88169-36.490076 20.212344-19.639293-6.17156-37.428448-17.811668-63.325258-44.131103-24.885783-25.297153-32.943296-36.541241-39.920198-51.995211a132.419915 132.419915 0 0 0-1.827624-3.966335c-7.554046-15.692401-1.355881-25.541723 20.494776-44.105521a619.619066 619.619066 0 0 0 3.472078-2.970658 170.380482 170.380482 0 0 0 1.655709-1.441838c15.421224-13.542434 21.182438-29.688159 16.139586-39.58967-12.866029-25.258267-52.41886-83.198887-65.965388-95.577823-8.679683-7.942903-21.99085-6.418176-40.267099 7.153934-5.464455 4.062526-12.710486 11.083429-19.72218 20.907169-11.042497 15.47546-18.10024 33.564443-19.374256 54.298674-4.046153 65.875337 32.448016 148.60248 93.112677 209.950709 57.149605 57.768705 121.326253 86.84902 191.100386 86.84902 5.077645 0 10.187013-0.161682 15.335267-0.480954 21.49864-1.349741 40.185234-9.556657 56.06797-22.405289 5.655813-4.578272 10.561543-9.441023 14.682397-14.277168 2.508123-2.940982 4.29277-5.354961 5.328356-6.945179 2.476401-3.460822 5.273097-8.553817 6.870477-13.929244 2.124384-7.16212 1.421372-12.386098-2.484587-16.114003-14.795984-14.083763-79.847559-59.470463-93.517907-64.999386z" /></svg>