<?xml version="1.0" standalone="no"?><!DOCTYPE svg PUBLIC "-//W3C//DTD SVG 1.1//EN" "http://www.w3.org/Graphics/SVG/1.1/DTD/svg11.dtd"><svg class="icon" width="200px" height="200.00px" viewBox="0 0 1024 1024" version="1.1" xmlns="http://www.w3.org/2000/svg"><path fill="#7766709|-1,7766710|-1,7766711|-1,7766712|-1,7766713|-1,7766714|-1,7766715|-1,7766716|-1,7766717|-1,7766718|-1,7766719|-1,7766720|-1,7766721|-1,7766722|-1,7766723|-1,7766724|-1,7766725|-1,7766726|-1,7766727|-1,7766728|-1" d="M783.986601 831.984778c88.361467 0 159.991878-71.631434 159.991878-159.991877 0-88.361467-71.631434-159.991878-159.991878-159.991878s-159.991878 71.631434-159.991877 159.991878c0 88.360444 71.630411 159.991878 159.991877 159.991877z m0 63.996547c-123.70544 0-223.989447-100.282984-223.989447-223.989447 0-123.70544 100.284007-223.989447 223.989447-223.989448s223.989447 100.284007 223.989447 223.989448c0 123.706463-100.284007 223.989447-223.989447 223.989447zM750.764965 358.559329c7.057743 16.202007-0.356111 35.057447-16.558117 42.114166-16.202007 7.057743-35.057447-0.356111-42.114167-16.558117-50.404993-115.721605-164.606988-192.100156-292.780183-192.100156-176.325891 0-319.292 143.247518-319.292 319.984778s142.966109 319.984778 319.292 319.984778c24.136723 0 47.901986-2.677992 71.005171-7.933693 17.232476-3.920286 34.378995 6.871501 38.299281 24.103978 3.920286 17.232476-6.871501 34.378995-24.103978 38.299281-27.752064 6.312776-56.278771 9.528004-85.200474 9.528004-211.698516 0-383.288546-171.928744-383.288546-383.981325S187.613982 128.018675 399.312498 128.018675c153.878646 0 290.972001 91.689259 351.452467 230.540654z" /></svg>