<?xml version="1.0" standalone="no"?><!DOCTYPE svg PUBLIC "-//W3C//DTD SVG 1.1//EN" "http://www.w3.org/Graphics/SVG/1.1/DTD/svg11.dtd"><svg class="icon" width="200px" height="200.00px" viewBox="0 0 1024 1024" version="1.1" xmlns="http://www.w3.org/2000/svg"><path fill="#7766709|-1,7766710|-1,7766711|-1,7766712|-1,7766713|-1,7766714|-1,7766715|-1,7766716|-1,7766717|-1,7766718|-1,7766719|-1,7766720|-1,7766721|-1,7766722|-1,7766723|-1,7766724|-1,7766725|-1,7766726|-1,7766727|-1,7766728|-1" d="M737.082338 872.065635l-203.824175-181.176362c-12.123109-10.776438-30.393217-10.776438-42.517349 0l-203.824175 181.176362a31.996738 31.996738 0 0 0-10.739599 23.91569c0 17.672498 14.326287 31.998785 31.998785 31.998784h407.647327c9.140171 0 17.84339-3.90903 23.915689-10.739598 11.741415-13.208836 10.552334-33.434483-2.656503-45.174876zM895.981325 96.019891H128.018675c-53.016471 0-95.995331 42.97886-95.995331 95.995331v543.974225c0 53.016471 42.97886 95.995331 95.995331 95.995331h63.996547c17.672498 0 31.998785-14.326287 31.998785-31.998785s-14.326287-31.998785-31.998785-31.998784h-63.996547c-17.672498 0-31.998785-14.326287-31.998784-31.998785V192.015222c0-17.672498 14.326287-31.998785 31.998784-31.998785h767.96265c17.672498 0 31.998785 14.326287 31.998784 31.998785v543.974225c0 17.672498-14.326287 31.998785-31.998784 31.998785h-63.996547c-17.672498 0-31.998785 14.326287-31.998785 31.998785s14.326287 31.998785 31.998785 31.998785h63.996547c53.016471 0 95.995331-42.97886 95.995331-95.995332V192.015222c0-53.016471-42.97886-95.995331-95.995331-95.995331z" /></svg>