<?xml version="1.0" standalone="no"?><!DOCTYPE svg PUBLIC "-//W3C//DTD SVG 1.1//EN" "http://www.w3.org/Graphics/SVG/1.1/DTD/svg11.dtd"><svg class="icon" width="200px" height="200.00px" viewBox="0 0 1024 1024" version="1.1" xmlns="http://www.w3.org/2000/svg"><path fill="#7766709|-1,7766710|-1,7766711|-1,7766712|-1,7766713|-1,7766714|-1,7766715|-1,7766716|-1,7766717|-1,7766718|-1,7766719|-1,7766720|-1,7766721|-1,7766722|-1,7766723|-1,7766724|-1,7766725|-1,7766726|-1,7766727|-1,7766728|-1" d="M322.749752 745.237065c74.987878 0 149.936871-47.355541 208.79642-123.163087-83.736123-40.35715-154.673755-69.230758-231.311203-61.753459-20.720927 2.034333-59.624982 11.099802-80.896449 29.652343-63.759139 54.903447-25.614377 155.264203 103.411232 155.264203zM160.016437 64.021106h703.966103c53.016471 0 95.995331 42.97886 95.995331 95.995331v703.966103c0 53.016471-42.97886 95.995331-95.995331 95.995331H160.016437c-53.016471 0-95.995331-42.97886-95.995331-95.995331V160.016437c0-53.016471 42.97886-95.995331 95.995331-95.995331z m735.964888 600.388073V160.016437c0-17.672498-14.326287-31.998785-31.998785-31.998785H160.016437c-17.672498 0-31.998785 14.326287-31.998785 31.998785v703.966103c0 17.672498 14.326287 31.998785 31.998785 31.998785h703.966103c17.672498 0 31.998785-14.326287 31.998785-31.998785V784.602631c-64.164369-26.708292-209.505571-87.783299-292.64613-127.259382-73.051783 88.768743-167.301354 142.641721-265.137613 142.641721-165.469636 0-221.660402-142.991692-143.308917-237.131768 17.076934-20.521383 46.147016-40.116673 91.247191-51.093679 70.545706-17.113773 182.841282 10.679223 288.069904 44.970214 18.914792-34.440393 34.853809-72.354911 46.715975-112.724341H296.610418v-32.458249h167.223583v-58.144258H261.292028v-32.457226h202.541973v-82.95534s0-13.977339 14.329356-13.97734h81.733513v96.93268h200.257953v32.457226H559.89687v58.144258h163.467025c-15.637142 63.282279-39.414685 121.517611-69.210291 172.657338 49.595558 17.72264 94.132914 34.505885 127.311571 45.469588 56.590879 18.723434 92.449575 29.05064 114.51615 34.735106z" /></svg>