<?xml version="1.0" standalone="no"?><!DOCTYPE svg PUBLIC "-//W3C//DTD SVG 1.1//EN" "http://www.w3.org/Graphics/SVG/1.1/DTD/svg11.dtd"><svg class="icon" width="200px" height="200.00px" viewBox="0 0 1024 1024" version="1.1" xmlns="http://www.w3.org/2000/svg"><path fill="#7766809|-1,7766810|-1,7766811|-1,7766812|-1,7766813|-1,7766814|-1,7766815|-1,7766816|-1,7766817|-1,7766818|-1,7766819|-1,7766820|-1,7772174|-1,7772175|-1,7772176|-1,7772177|-1,7772178|-1,7772179|-1,7772180|-1,7772181|-1" d="M863.98254 607.995331H703.990662c-53.017494 0-95.995331-42.97886-95.995331-95.995331 0-31.975249 15.632025-60.299341 39.673581-77.746712 53.680597-40.919968 88.319511-105.535615 88.319512-178.24152 0-123.706463-100.284007-223.989447-223.989447-223.989447s-223.989447 100.281961-223.989447 223.989447c0 72.705905 34.638915 137.321552 88.319511 178.24152 24.041556 17.446347 39.673581 45.771463 39.673581 77.746712 0 53.016471-42.97886 95.995331-95.995331 95.995331H160.016437c-35.341926 0-63.996546 28.650527-63.996546 63.996547v159.991877h831.960218V671.991878c0-35.346019-28.655643-63.996546-63.997569-63.996547zM96.019891 895.981325c0 35.343973 28.65462 63.996546 63.996546 63.996546h703.966103c35.341926 0 63.996546-28.652574 63.996546-63.996546v-31.998785H96.019891v31.998785z" /></svg>