<?xml version="1.0" standalone="no"?><!DOCTYPE svg PUBLIC "-//W3C//DTD SVG 1.1//EN" "http://www.w3.org/Graphics/SVG/1.1/DTD/svg11.dtd"><svg class="icon" width="200px" height="200.00px" viewBox="0 0 1024 1024" version="1.1" xmlns="http://www.w3.org/2000/svg"><path fill="#7766709|-1,7766710|-1,7766711|-1,7766712|-1,7766713|-1,7766714|-1,7766715|-1,7766716|-1,7766717|-1,7766718|-1,7766719|-1,7766720|-1,7766721|-1,7766722|-1,7766723|-1,7766724|-1,7766725|-1,7766726|-1,7766727|-1,7766728|-1" d="M450.451202 679.651324C525.144368 699.665147 609.444333 642.618896 635.088386 546.924417c25.63996-95.694479-18.844184-187.248661-93.538373-207.262484-74.693166-20.013823-158.993131 37.031405-184.637184 132.725884-25.640983 95.695502 18.84316 187.249685 93.538373 207.263507z m214.549448-324.971349l16.402575-61.217247c4.573155-17.069771 22.12081-27.200502 39.188534-22.626323 17.071817 4.574179 27.201525 22.119787 22.626323 39.190581L703.898565 456.776258c2.210341 15.998369 2.950192 32.494065 2.102894 49.253774 4.584412 29.328979 16.789385 55.654554 34.311457 75.278497 16.850783 18.87386 33.345456 26.687826 43.674708 26.687825 10.329253 0 26.823925-7.812943 43.674709-26.687825 22.575158-25.281803 36.32123-61.684898 36.32123-101.306291 0-194.394409-157.589155-351.983563-351.983563-351.983563-212.066907 0-383.981325 171.914418-383.981325 383.981325s171.914418 383.981325 383.981325 383.981325c153.238057 0 287.122323-82.857103 359.294063-206.212572a32.397874 32.397874 0 0 1 0.953721-1.777483c8.837272-15.304568 28.408003-20.547988 43.712571-11.712763 15.301498 8.836249 20.546965 28.405957 11.711739 43.710524l4.604878-7.978718c-81.794911 147.854443-239.346203 247.967558-420.277995 247.967558-247.411903 0-447.978894-200.566992-447.978895-447.978894s200.568015-447.977871 447.979918-447.977871c229.739405 0 415.980109 186.240705 415.980109 415.980109 0 106.033965-64.467267 191.990662-143.993508 191.990663-41.332361 0-78.595033-23.217794-104.855116-60.404742-47.546899 99.082646-148.956543 155.680688-245.243517 129.880069-110.957091-29.730115-173.095313-157.616784-138.789996-285.642622C329.400219 327.798744 447.158203 248.114914 558.113247 277.845029c44.508703 11.926634 81.163531 39.646975 106.887403 76.834946z" /></svg>