<?xml version="1.0" standalone="no"?><!DOCTYPE svg PUBLIC "-//W3C//DTD SVG 1.1//EN" "http://www.w3.org/Graphics/SVG/1.1/DTD/svg11.dtd"><svg class="icon" width="200px" height="200.00px" viewBox="0 0 1024 1024" version="1.1" xmlns="http://www.w3.org/2000/svg"><path fill="#7766709|-1,7766710|-1,7766711|-1,7766712|-1,7766713|-1,7766714|-1,7766715|-1,7766716|-1,7766717|-1,7766718|-1,7766719|-1,7766720|-1,7766721|-1,7766722|-1,7766723|-1,7766724|-1,7766725|-1,7766726|-1,7766727|-1,7766728|-1" d="M512 95.352695c4.952802 0 14.475689 1.217734 22.624277 9.371438l86.620823 86.62287a64.007803 64.007803 0 0 0 45.255716 18.744923h119.56412c17.647939 0 31.998785 14.354939 31.998785 31.998784v119.56412a64.003709 64.003709 0 0 0 18.74083 45.252647l82.472339 82.4662c8.147564 8.153704 9.366322 17.675568 9.366322 22.6253s-1.218758 14.470573-9.374508 22.626323l-82.465177 82.465177a64.002686 64.002686 0 0 0-18.74083 45.252646v123.721813c0 17.643845-14.350846 31.998785-31.998784 31.998785H662.344147a64.007803 64.007803 0 0 0-45.255717 18.744923l-82.45699 82.464153c-8.15575 8.15575-17.678638 9.373485-22.63144 9.373485s-14.468526-1.217734-22.624277-9.372462l-82.465176-82.465176a64.011896 64.011896 0 0 0-45.255717-18.744923H242.09071c-17.647939 0-31.998785-14.353916-31.998784-31.998785v-119.563096a64.001663 64.001663 0 0 0-18.74083-45.251624l-86.62901-86.624916c-8.147564-8.153704-9.366322-17.675568-9.366321-22.6253s1.218758-14.470573 9.374508-22.627347l86.620823-86.623893a64.001663 64.001663 0 0 0 18.74083-45.251623V242.09071c0-17.643845 14.350846-31.998785 31.998784-31.998784h115.408474a64.007803 64.007803 0 0 0 45.255716-18.744923l86.612637-86.620823c8.156774-8.15575 17.679661-9.373485 22.632463-9.373485m0-63.99757c-24.569582 0-49.13814 9.372461-67.879993 28.116361l-86.620823 86.623893h-115.408474c-53.013401 0-95.995331 42.97886-95.995331 95.995331v115.405404l-86.620823 86.623893c-37.490869 37.488823-37.490869 98.269118 0 135.75794l86.620823 86.623893v119.563096c0 53.016471 42.98193 95.995331 95.995331 95.995331h119.56412l82.465177 82.465177c18.74083 18.7439 43.310412 28.116361 67.879993 28.116361 24.569582 0 49.13814-9.372461 67.879993-28.116361l82.465177-82.465177h123.720789c53.020564 0 95.995331-42.97886 95.995331-95.995331V662.343123l82.465177-82.465176c37.490869-37.488823 37.490869-98.269118 0-135.75794l-82.465177-82.465177V242.09071c0-53.016471-42.974767-95.995331-95.995331-95.995331H666.499793l-86.620823-86.623893c-18.74083-18.7439-43.310412-28.116361-67.87897-28.116361zM326.642408 518.932899l97.238649 72.217789c8.241708 6.121418 19.676132 5.503341 27.209711-1.471514l253.534344-234.697324a21.333888 21.333888 0 0 1 22.825868-3.982707l5.006014 2.125407c7.150864 3.035126 10.486842 11.291161 7.452739 18.442024a14.084787 14.084787 0 0 1-2.275833 3.667529L458.773751 700.020234c-7.674796 8.93858-21.142529 9.962909-30.081109 2.288113a21.473057 21.473057 0 0 1-1.790785-1.728364L288.010553 549.860283c-6.650467-7.216355-6.191003-18.458397 1.025353-25.107841a17.758456 17.758456 0 0 1 4.88424-3.196809l11.410888-5.021363a21.332864 21.332864 0 0 1 21.311374 2.398629z" /></svg>