<?xml version="1.0" standalone="no"?><!DOCTYPE svg PUBLIC "-//W3C//DTD SVG 1.1//EN" "http://www.w3.org/Graphics/SVG/1.1/DTD/svg11.dtd"><svg class="icon" width="200px" height="200.00px" viewBox="0 0 1024 1024" version="1.1" xmlns="http://www.w3.org/2000/svg"><path fill="#7766809|-1,7766810|-1,7766811|-1,7766812|-1,7766813|-1,7766814|-1,7766815|-1,7766816|-1,7766817|-1,7766818|-1,7766819|-1,7766820|-1,7772174|-1,7772175|-1,7772176|-1,7772177|-1,7772178|-1,7772179|-1,7772180|-1,7772181|-1" d="M42.669822 467.058438C87.982844 327.358723 185.172373 224.830605 349.340363 154.6318c164.16799-70.197782 336.529593-77.67201 453.111798-20.633947 64.544015 31.546483 105.297185 90.080621 118.809943 142.507668 13.052271 50.961672 9.442046 91.447758-32.032554 111.670336-34.886555 16.991999-135.095861 45.829791-190.31244 50.64547-38.114063 3.341095-65.676815-35.422767-81.97092-82.83459-1.12973-3.282766-4.897543-14.770402-5.943362-17.955954-11.105942-33.669844-17.126053-41.522696-28.681226-40.777729-1.787716 0.116657-7.723915 0.382717-9.658987 0.457418-26.592658 1.035586-86.208431 7.979742-151.189398 40.320311s-109.257379 71.569012-129.848347 97.165994c-4.524037 5.616928-5.164626 10.378371 0.620124 22.370496 2.561335 5.309936 17.336854 30.375821 19.518542 34.277688 25.325805 45.77351 28.622898 82.47848-0.289595 113.092731-22.318308 23.620977-118.027114 76.608795-155.571195 93.951789-25.987884 11.985986-49.545416 1.675152-69.855998-18.738783-7.986905-8.02886-13.957897-16.061814-17.021675-21.029966-3.789303-5.533017-9.143241-14.794961-14.82873-27.308972-22.677489-49.904597-30.422893-106.477057-11.526521-164.753322z m501.328963 268.931009c-44.180222 0-79.995939-35.815717-79.995939-79.995939s35.815717-79.995939 79.995939-79.995938 79.995939 35.815717 79.995939 79.995938-35.815717 79.995939-79.995939 79.995939z m0.149403 63.996546c79.525218 0 143.993508-64.46829 143.993508-143.993508s-64.46829-143.993508-143.993508-143.993508-143.993508 64.46829-143.993509 143.993508 64.46829 143.993508 143.993509 143.993508zM64.237023 745.178737c35.240619 24.505114 76.457346 31.200606 118.467136 11.825326 57.022715-26.340925 148.645458-79.918167 175.286212-108.114346 49.855478-52.788274 48.547693-117.941156 9.769504-188.027398-0.50449-0.902556-2.478448-4.319375-4.581342-7.950066 21.62553-19.361977 51.92665-40.228213 86.807065-57.587579 35.303041-17.570167 71.099315-27.587312 102.074793-31.663141l1.163499 3.532453c1.818415 5.505387 2.587941 7.818059 3.210112 9.625219 27.024493 78.634942 75.221192 132.140553 148.07036 125.755122 46.428426-4.049223 123.202996-23.196305 175.973874-41.922809 67.326385 46.118364 111.49842 123.571387 111.49842 211.34036 0 141.377938-114.609271 255.987209-255.987209 255.987208H256.011768c-102.95279 0.001023-186.978509-81.033571-191.774745-182.800349z" /></svg>