<?xml version="1.0" standalone="no"?><!DOCTYPE svg PUBLIC "-//W3C//DTD SVG 1.1//EN" "http://www.w3.org/Graphics/SVG/1.1/DTD/svg11.dtd"><svg class="icon" width="200px" height="200.00px" viewBox="0 0 1024 1024" version="1.1" xmlns="http://www.w3.org/2000/svg"><path fill="#7766709|-1,7766710|-1,7766711|-1,7766712|-1,7766713|-1,7766714|-1,7766715|-1,7766716|-1,7766717|-1,7766718|-1,7766719|-1,7766720|-1,7766721|-1,7766722|-1,7766723|-1,7766724|-1,7766725|-1,7766726|-1,7766727|-1,7766728|-1" d="M548.416398 790.078343l23.143093 115.715465a42.278919 42.278919 0 0 1-11.561314 38.185694 54.624085 54.624085 0 0 1-38.625716 15.999392h-18.743899a54.624085 54.624085 0 0 1-38.625716-15.999392 42.273802 42.273802 0 0 1-11.561313-38.185694l23.143093-115.715465-31.462573-31.462572c-12.495592-12.496615-12.495592-32.756031 0-45.252647l45.252647-45.252647c12.496615-12.495592 32.756031-12.495592 45.252647 0l45.252646 45.252647c12.495592 12.496615 12.495592 32.756031 0 45.252647l-31.463595 31.462572z m187.633424 169.899528h-0.061398c-17.672498 0-31.998785-14.326287-31.998785-31.998785s14.326287-31.998785 31.998785-31.998785H920.40662c-10.423397-31.153534-29.684066-55.392588-58.752102-74.601068-18.687618-12.349259-42.439578-22.920012-78.478375-35.664268a1892.693842 1892.693842 0 0 0-19.415189-6.726191 8822.897947 8822.897947 0 0 1-19.909445-6.798847c-116.938316-40.194444-167.855986-75.587536-167.855986-164.196642 0-28.667923 9.048073-53.575196 25.279756-78.742389 5.132904-7.958252 10.5728-15.405875 18.23327-25.27464-3.815909 4.916986 13.59053-17.342993 17.306155-22.291702 24.740474-32.948413 35.176151-58.473763 35.17615-97.680717v-95.995331c0-93.106538-66.784032-159.991878-159.992901-159.991877-93.208868 0-159.991878 66.88534-159.991877 159.991877v95.995331c0 39.206954 10.435677 64.732303 35.17615 97.680717 3.677762 4.897543 20.762883 26.750247 17.48114 22.516829 7.569396 9.757225 12.964266 17.151635 18.058285 25.049513 16.231683 25.166169 25.279756 50.074466 25.279756 78.742389 0 88.693018-50.975998 123.93773-168.494529 164.215062a8615.7644 8615.7644 0 0 1-19.303648 6.574742 1957.252183 1957.252183 0 0 0-18.83395 6.501064c-36.761252 12.936637-60.7015 23.558555-79.425958 36.001959-14.718213 9.780761-29.498848 26.513864-44.34088 50.198286-4.692882 7.487531-2.426259 17.361413 5.061272 22.053271a16.001439 16.001439 0 0 0 8.495488 2.441609h156.850328c17.672498 0 31.998785 14.326287 31.998784 31.998785s-14.326287 31.998785-31.998784 31.998785H82.762959c-26.508747 0-47.997154-21.48943-47.997154-47.997154 0-3.232624 0.326435-6.456039 0.974187-9.622148 11.691273-57.130162 41.951461-101.920274 90.781586-134.370337 96.3013-63.996546 257.482259-63.996546 257.482259-159.991878 0-63.996546-95.996354-95.689363-95.996354-223.989447v-95.995331c0-128.257106 95.241154-223.989447 223.988424-223.989447s223.989447 95.732341 223.989447 223.989447v95.995331c0 128.300085-95.994308 159.991878-95.994308 223.989447 0 95.995331 160.097278 95.995331 256.944 159.991878 55.207369 36.481889 86.811158 88.559988 94.812389 156.236343 2.074242 17.549701-10.470469 33.459043-28.02017 35.533285a32.011064 32.011064 0 0 1-3.756557 0.221034H736.049822z" /></svg>