<?xml version="1.0" standalone="no"?><!DOCTYPE svg PUBLIC "-//W3C//DTD SVG 1.1//EN" "http://www.w3.org/Graphics/SVG/1.1/DTD/svg11.dtd"><svg class="icon" width="200px" height="200.00px" viewBox="0 0 1024 1024" version="1.1" xmlns="http://www.w3.org/2000/svg"><path fill="#7766809|-1,7766810|-1,7766811|-1,7766812|-1,7766813|-1,7766814|-1,7766815|-1,7766816|-1,7766817|-1,7766818|-1,7766819|-1,7766820|-1,7772174|-1,7772175|-1,7772176|-1,7772177|-1,7772178|-1,7772179|-1,7772180|-1,7772181|-1" d="M703.990662 64.021106c17.672498 0 31.998785 14.326287 31.998785 31.998785v127.994116c0 17.672498-14.326287 31.998785-31.998785 31.998784s-31.998785-14.326287-31.998784-31.998784V96.019891c0-17.672498 14.326287-31.998785 31.998784-31.998785z m-383.981324 0c17.672498 0 31.998785 14.326287 31.998784 31.998785v127.994116c0 17.672498-14.326287 31.998785-31.998784 31.998784s-31.998785-14.326287-31.998785-31.998784V96.019891c0-17.672498 14.326287-31.998785 31.998785-31.998785z m479.976655 543.974225c0-17.672498-14.326287-31.998785-31.998784-31.998785h-63.996547c-17.672498 0-31.998785 14.326287-31.998784 31.998785s14.326287 31.998785 31.998784 31.998785h63.996547c17.672498 0 31.998785-14.326287 31.998784-31.998785z m-223.989447 0c0-17.672498-14.326287-31.998785-31.998784-31.998785H256.011768c-17.672498 0-31.998785 14.326287-31.998785 31.998785s14.326287 31.998785 31.998785 31.998785h287.985994c17.672498 0 31.998785-14.326287 31.998784-31.998785z m223.989447-159.992901c0-17.672498-14.326287-31.998785-31.998784-31.998784H256.011768c-17.672498 0-31.998785 14.326287-31.998785 31.998784s14.326287 31.998785 31.998785 31.998785h511.975441c17.672498 0 31.998785-14.326287 31.998784-31.998785z m-15.999392-287.985993c0-17.672498 14.326287-31.998785 31.998785-31.998785h47.998177c53.016471 0 95.995331 42.97886 95.995331 95.995331v639.969557c0 53.016471-42.97886 95.995331-95.995331 95.995331H160.016437c-53.016471 0-95.995331-42.97886-95.995331-95.995331V224.014007c0-53.016471 42.97886-95.995331 95.995331-95.995332h47.998177c17.672498 0 31.998785 14.326287 31.998785 31.998785v63.996547c0 44.180222 35.815717 79.995939 79.995939 79.995938 44.180222 0 79.995939-35.815717 79.995938-79.995938V160.01746c0-17.672498 14.326287-31.998785 31.998785-31.998785h159.991878c17.672498 0 31.998785 14.326287 31.998785 31.998785v63.996547c0 44.180222 35.815717 79.995939 79.995938 79.995938s79.995939-35.815717 79.995939-79.995938v-63.99757z" /></svg>