<?xml version="1.0" standalone="no"?><!DOCTYPE svg PUBLIC "-//W3C//DTD SVG 1.1//EN" "http://www.w3.org/Graphics/SVG/1.1/DTD/svg11.dtd"><svg class="icon" width="200px" height="200.00px" viewBox="0 0 1024 1024" version="1.1" xmlns="http://www.w3.org/2000/svg"><path fill="#7766709|-1,7766710|-1,7766711|-1,7766712|-1,7766713|-1,7766714|-1,7766715|-1,7766716|-1,7766717|-1,7766718|-1,7766719|-1,7766720|-1,7766721|-1,7766722|-1,7766723|-1,7766724|-1,7766725|-1,7766726|-1,7766727|-1,7766728|-1" d="M618.132202 178.870854l77.356832 106.366539c23.799032 32.727379 62.166875 52.266387 102.634542 52.266387H956.171172v507.624343H67.828828V337.50378h158.047596c40.467667 0 78.836533-19.539009 102.630448-52.26434l77.360926-106.368586H618.132202M512 749.948367c104.962563 0 190.359512-85.394902 190.359512-190.359512s-85.396949-190.359512-190.359512-190.359512-190.359512 85.394902-190.359512 190.359512 85.396949 190.359512 190.359512 190.359512M618.132202 115.418706H405.867798a63.453171 63.453171 0 0 0-51.315736 26.132171L277.191136 247.919463a63.452147 63.452147 0 0 1-51.315736 26.13217H67.828828c-35.045167 0-63.453171 28.409027-63.453171 63.453171v507.624342c0 35.045167 28.40698 63.453171 63.453171 63.453171h888.342344c35.042097 0 63.453171-28.40698 63.453171-63.453171V337.50378c0-35.044144-28.411073-63.453171-63.453171-63.45317H798.123576a63.448054 63.448054 0 0 1-51.315736-26.132171l-77.360925-106.368586A63.455217 63.455217 0 0 0 618.132202 115.418706z m-106.132202 571.07649c-70.087265 0-126.906342-56.81703-126.906342-126.906341 0-70.087265 56.819077-126.906342 126.906342-126.906342s126.906342 56.819077 126.906342 126.906342c0 70.090335-56.819077 126.906342-126.906342 126.906341zM210.598462 178.870854H83.692121c-17.525142 0-31.726585 14.205537-31.726586 31.726585 0 17.523095 14.201443 31.726585 31.726586 31.726585h126.906341c17.521049 0 31.726585-14.20349 31.726586-31.726585 0-17.520025-14.205537-31.726585-31.726586-31.726585z" /></svg>