<?xml version="1.0" standalone="no"?><!DOCTYPE svg PUBLIC "-//W3C//DTD SVG 1.1//EN" "http://www.w3.org/Graphics/SVG/1.1/DTD/svg11.dtd"><svg class="icon" width="200px" height="200.00px" viewBox="0 0 1024 1024" version="1.1" xmlns="http://www.w3.org/2000/svg"><path fill="#7772182|-1,7772183|-1,7772184|-1,7772185|-1,7772186|-1,7772187|-1,7772188|-1,7772189|-1,7772190|-1,7772191|-1,7772192|-1,7772193|-1,7772194|-1,7772195|-1,7772196|-1,7772197|-1,7772198|-1,7772199|-1,7772200|-1,7772201|-1" d="M512 734.085074c-87.61036 0-158.632927-71.022567-158.632927-158.632927s71.022567-158.632927 158.632927-158.632926 158.632927 71.022567 158.632927 158.632926-71.022567 158.632927-158.632927 158.632927zM83.692121 178.870854h126.906341c17.522072 0 31.726585 14.204513 31.726586 31.726585s-14.204513 31.726585-31.726586 31.726585H83.692121c-17.522072 0-31.726585-14.204513-31.726586-31.726585s14.204513-31.726585 31.726586-31.726585z m428.307879 618.667391c122.654504 0 222.086098-99.431593 222.086098-222.086098s-99.431593-222.086098-222.086098-222.086097-222.086098 99.431593-222.086098 222.086097 99.431593 222.086098 222.086098 222.086098zM277.19216 247.919463l77.358878-106.368586a63.454194 63.454194 0 0 1 51.31676-26.132171h212.262358a63.451124 63.451124 0 0 1 51.316759 26.132171l77.359902 106.368586a63.452147 63.452147 0 0 0 51.316759 26.13217H956.171172c35.044144 0 63.453171 28.409027 63.453171 63.453171v507.624342c0 35.044144-28.409027 63.453171-63.453171 63.453171H67.828828c-35.044144 0-63.453171-28.409027-63.453171-63.453171V337.50378c0-35.044144 28.409027-63.453171 63.453171-63.45317h158.047596a63.451124 63.451124 0 0 0 51.315736-26.131147z" /></svg>