<?xml version="1.0" standalone="no"?><!DOCTYPE svg PUBLIC "-//W3C//DTD SVG 1.1//EN" "http://www.w3.org/Graphics/SVG/1.1/DTD/svg11.dtd"><svg class="icon" width="200px" height="200.00px" viewBox="0 0 1024 1024" version="1.1" xmlns="http://www.w3.org/2000/svg"><path fill="#7766709|-1,7766710|-1,7766711|-1,7766712|-1,7766713|-1,7766714|-1,7766715|-1,7766716|-1,7766717|-1,7766718|-1,7766719|-1,7766720|-1,7766721|-1,7766722|-1,7766723|-1,7766724|-1,7766725|-1,7766726|-1,7766727|-1,7766728|-1" d="M512 575.996546c88.361467 0 159.991878-71.631434 159.991878-159.991877s-71.631434-159.991878-159.991878-159.991878-159.991878 71.631434-159.991878 159.991878 71.630411 159.991878 159.991878 159.991877z m0 63.99757c-123.70544 0-223.989447-100.284007-223.989447-223.989447s100.284007-223.989447 223.989447-223.989447 223.989447 100.284007 223.989447 223.989447-100.284007 223.989447-223.989447 223.989447z m0 95.995331c176.722934 0 319.984778-143.261844 319.984778-319.984778S688.722934 96.019891 512 96.019891 192.015222 239.281735 192.015222 416.004669s143.261844 319.984778 319.984778 319.984778z m0 63.996546c-212.066907 0-383.981325-171.914418-383.981325-383.981324S299.933093 32.023344 512 32.023344 895.981325 203.937762 895.981325 416.004669 724.066907 799.985993 512 799.985993z m-58.258868 36.909632l-78.912258 136.679939c-8.836249 15.304568-28.405957 20.547988-43.710524 11.711739a32.004925 32.004925 0 0 1-11.977799-12.180413l-63.128783-113.718995-130.047892 2.187829c-17.669428 0.296759-32.235169-13.785981-32.531927-31.45541a31.998785 31.998785 0 0 1 4.282537-16.537651l76.53307-132.559085c68.160379 83.715657 167.059853 141.40659 279.493576 155.872047z m393.844973-159.622464l78.698386 136.309502c8.836249 15.304568 3.592828 34.874275-11.711739 43.710524a31.998785 31.998785 0 0 1-16.537652 4.282537l-130.047891-2.187829-63.128783 113.718995c-8.577353 15.4509-28.057009 21.022803-43.50791 12.44545a31.996738 31.996738 0 0 1-12.180413-11.9778L569.885362 836.248895c112.108311-15.705704 210.419384-74.441433 277.700743-158.975734z" /></svg>