<?xml version="1.0" standalone="no"?><!DOCTYPE svg PUBLIC "-//W3C//DTD SVG 1.1//EN" "http://www.w3.org/Graphics/SVG/1.1/DTD/svg11.dtd"><svg class="icon" width="200px" height="200.00px" viewBox="0 0 1024 1024" version="1.1" xmlns="http://www.w3.org/2000/svg"><path fill="#7772182|-1,7772183|-1,7772184|-1,7772185|-1,7772186|-1,7772187|-1,7772188|-1,7772189|-1,7772190|-1,7772191|-1,7772192|-1,7772193|-1,7772194|-1,7772195|-1,7772196|-1,7772197|-1,7772198|-1,7772199|-1,7772200|-1,7772201|-1" d="M328.788282 501.843686a21.331841 21.331841 0 0 0-21.615297-2.456958l-12.83533 5.76019a19.435655 19.435655 0 0 0-5.071505 3.310396c-7.963369 7.195889-8.586562 19.484773-1.390674 27.448142l149.838634 165.835979a21.378913 21.378913 0 0 0 2.089591 2.01796c9.013281 7.587815 22.470781 6.432503 30.057573-2.580778l299.641451-355.937618a15.363919 15.363919 0 0 0 2.347465-3.79442c3.372817-7.792477-0.209778-16.842597-8.001232-20.215414l-6.060019-2.622734a21.330818 21.330818 0 0 0-23.118534 4.065596l-272.844131 257.599939c-7.578606 7.154957-19.216667 7.786337-27.52489 1.494027l-105.513102-79.924307z m28.708855-355.747283l86.623893-86.62287c37.488823-37.488823 98.269118-37.488823 135.75794 0l86.62287 86.62287h119.563096c53.017494 0 95.995331 42.97886 95.995331 95.995331v119.564119l82.465177 82.465177c37.488823 37.488823 37.488823 98.269118 0 135.75794l-82.465177 82.465177V786.065959c0 53.016471-42.97886 95.995331-95.995331 95.995331H662.344147l-82.465177 82.465177c-37.488823 37.488823-98.269118 37.488823-135.75794 0l-82.465177-82.465177H242.091734c-53.016471 0-95.995331-42.97886-95.995331-95.995331V666.502863l-86.62287-86.62287c-37.488823-37.488823-37.488823-98.269118 0-135.75794l86.62287-86.622869V242.091734c0-53.016471 42.97886-95.995331 95.995331-95.995331h115.405403z" /></svg>