<?xml version="1.0" standalone="no"?><!DOCTYPE svg PUBLIC "-//W3C//DTD SVG 1.1//EN" "http://www.w3.org/Graphics/SVG/1.1/DTD/svg11.dtd"><svg class="icon" width="200px" height="200.00px" viewBox="0 0 1024 1024" version="1.1" xmlns="http://www.w3.org/2000/svg"><path fill="#7766709|-1,7766710|-1,7766711|-1,7766712|-1,7766713|-1,7766714|-1,7766715|-1,7766716|-1,7766717|-1,7766718|-1,7766719|-1,7766720|-1,7766721|-1,7766722|-1,7766723|-1,7766724|-1,7766725|-1,7766726|-1,7766727|-1,7766728|-1" d="M97.280604 639.994116c-35.344996 0-63.996546-28.652574-63.996547-63.996546 0-35.344996 28.652574-63.996546 63.996547-63.996547s63.996546 28.652574 63.996546 63.996547-28.652574 63.996546-63.996546 63.996546z m415.980109 63.996546c106.033965 0 191.990662-85.956697 191.990663-191.990662s-85.956697-191.990662-191.990663-191.990662-191.990662 85.956697-191.990662 191.990662 85.956697 191.990662 191.990662 191.990662z m0 63.996547c-141.377938 0-255.988232-114.609271-255.988232-255.988232s114.609271-255.987209 255.988232-255.987209 255.987209 114.609271 255.987209 255.987209-114.609271 255.988232-255.987209 255.988232z m349.749686-68.855204a31.998785 31.998785 0 0 1-0.411369-27.501355c22.724561-49.643654 34.643008-103.765295 34.643008-159.631673 0-212.066907-171.914418-383.981325-383.981325-383.981325-167.961386 0-314.934762 108.826568-365.591489 266.209014-5.414313 16.822131-23.440875 26.069749-40.264029 20.655436-16.822131-5.414313-26.069749-23.441898-20.655435-40.264029C145.861042 190.969403 317.307809 64.021106 513.260713 64.021106c247.411903 0 447.978894 200.566992 447.978895 447.978894 0 59.842946-11.758812 118.076232-34.263362 172.110893l60.392462 122.142851c10.120498 20.468171-3.838422 44.644803-26.624381 46.11427l-169.472809 10.929934c-78.458933 62.180178-175.621856 96.680946-278.010805 96.680946-154.23271 0-295.081599-78.585823-376.987027-205.88102-9.562796-14.861476-5.265934-34.661428 9.595543-44.223201 14.861476-9.562796 34.661428-5.265934 44.2232 9.595542 70.247924 109.177562 190.932564 176.512133 323.168284 176.512133 90.908476 0 176.862103-31.654954 245.314125-88.564082a31.998785 31.998785 0 0 1 18.396999-7.326872l131.75579-8.497535-45.717228-92.461854z" /></svg>