<?xml version="1.0" standalone="no"?><!DOCTYPE svg PUBLIC "-//W3C//DTD SVG 1.1//EN" "http://www.w3.org/Graphics/SVG/1.1/DTD/svg11.dtd"><svg class="icon" width="200px" height="200.00px" viewBox="0 0 1024 1024" version="1.1" xmlns="http://www.w3.org/2000/svg"><path fill="#7766709|-1,7766710|-1,7766711|-1,7766712|-1,7766713|-1,7766714|-1,7766715|-1,7766716|-1,7766717|-1,7766718|-1,7766719|-1,7766720|-1,7766721|-1,7766722|-1,7766723|-1,7766724|-1,7766725|-1,7766726|-1,7766727|-1,7766728|-1" d="M831.968405 428.745854C830.218552 244.684792 680.476109 96.019891 496.000608 96.019891c-185.561229 0-335.984171 150.422941-335.984171 335.98417 0 3.234671 0.047072 6.457062 0.140193 9.667174-85.331457 41.517579-144.132678 129.052215-144.132678 230.320643 0 141.375891 114.611318 255.987209 255.988232 255.987208h479.976656c141.375891 0 255.987209-114.611318 255.987208-255.987208 0-113.447818-73.79368-209.658044-176.007643-243.246024z m-79.980589 435.236686H272.01116c-106.033965 0-191.990662-85.956697-191.990662-191.990662 0-74.262354 42.513256-140.844795 108.135836-172.772972 22.607904-10.999518 36.678364-34.224476 35.967166-59.356876a291.031353 291.031353 0 0 1-0.109493-7.858992c0-150.21521 121.775484-271.986601 271.986601-271.986601 149.226696 0 270.557042 120.251781 271.971251 269.338284 0.26606 27.420513 17.968234 51.629891 44.013423 60.188824 78.113055 25.666566 131.993197 98.886171 131.993197 182.448333 0.001023 106.033965-85.956697 191.990662-191.990663 191.990662zM678.272931 644.282792L527.999392 557.524846V288.010553c0-17.671475-14.32731-31.998785-31.998784-31.998785s-31.998785 14.32731-31.998785 31.998785v287.985993c0 1.378393 0.617054 2.554172 0.780782 3.890611 0.281409 2.207271 0.578168 4.320399 1.296529 6.421246 0.679475 1.960655 1.62501 3.667529 2.656503 5.433756 1.01512 1.769296 2.015913 3.437286 3.374864 4.999874 1.461281 1.683339 3.140527 3.000334 4.929266 4.347005 1.062192 0.812505 1.77339 1.929955 2.960425 2.616594L646.273123 699.700963c15.296381 8.835226 34.873252 3.593851 43.708477-11.710716 8.837272-15.302521 3.587712-34.872229-11.708669-43.707455z" /></svg>