<?xml version="1.0" standalone="no"?><!DOCTYPE svg PUBLIC "-//W3C//DTD SVG 1.1//EN" "http://www.w3.org/Graphics/SVG/1.1/DTD/svg11.dtd"><svg class="icon" width="200px" height="200.00px" viewBox="0 0 1024 1024" version="1.1" xmlns="http://www.w3.org/2000/svg"><path fill="#7772182|-1,7772183|-1,7772184|-1,7772185|-1,7772186|-1,7772187|-1,7772188|-1,7772189|-1,7772190|-1,7772191|-1,7772192|-1,7772193|-1,7772194|-1,7772195|-1,7772196|-1,7772197|-1,7772198|-1,7772199|-1,7772200|-1,7772201|-1" d="M783.951809 139.008984v133.787052H238.126422c-8.836249 0-15.999392-7.163143-15.999392-15.999392a15.999392 15.999392 0 0 1 10.714016-15.10093l465.97271-163.090448c33.359782-11.675924 69.869301 5.90243 81.545225 39.262212a63.99757 63.99757 0 0 1 3.592828 21.141506z m-63.961754 362.018104c53.016471 0 95.995331 42.97886 95.995331 95.995331s-42.97886 95.995331-95.995331 95.995331-95.995331-42.97886-95.995331-95.995331c0-53.017494 42.97886-95.995331 95.995331-95.995331z m223.989447-52.239782H719.990055c-79.525218 0-143.993508 64.46829-143.993509 143.993509s64.46829 143.993508 143.993509 143.993508h223.989447V853.010651c0 53.016471-42.97886 95.995331-95.995331 95.995331H176.015829c-53.016471 0-95.995331-42.97886-95.995331-95.995331V405.030733c0-53.016471 42.97886-95.995331 95.995331-95.995331h671.967318c53.016471 0 95.995331 42.97886 95.995332 95.995331v43.756573z" /></svg>