<?xml version="1.0" standalone="no"?><!DOCTYPE svg PUBLIC "-//W3C//DTD SVG 1.1//EN" "http://www.w3.org/Graphics/SVG/1.1/DTD/svg11.dtd"><svg class="icon" width="200px" height="200.00px" viewBox="0 0 1024 1024" version="1.1" xmlns="http://www.w3.org/2000/svg"><path fill="#7766809|-1,7766810|-1,7766811|-1,7766812|-1,7766813|-1,7766814|-1,7766815|-1,7766816|-1,7766817|-1,7766818|-1,7766819|-1,7766820|-1,7772174|-1,7772175|-1,7772176|-1,7772177|-1,7772178|-1,7772179|-1,7772180|-1,7772181|-1" d="M256.011768 80.020498h55.241139a31.996738 31.996738 0 0 1 17.83418 5.430686l79.154781 53.135174a31.996738 31.996738 0 0 0 17.83418 5.430686h324.786131a31.998785 31.998785 0 0 1 26.624381 14.248516l22.499433 33.748638c9.457396 14.187117 5.624091 33.354666-8.562002 42.813085a30.873148 30.873148 0 0 1-17.12503 5.185093H224.014007c-17.672498 0-31.998785-14.326287-31.998785-31.998785v-63.996547c0-35.343973 28.652574-63.996546 63.996546-63.996546z m159.992901 383.981325c-17.672498 0-31.998785 14.326287-31.998785 31.998785s14.326287 31.998785 31.998785 31.998784h191.990662c17.672498 0 31.998785-14.326287 31.998785-31.998784s-14.326287-31.998785-31.998785-31.998785H416.004669zM116.511597 304.009945h790.976806c44.180222 0 79.995939 35.815717 79.995939 79.995939 0 6.540973-0.802272 13.056364-2.388397 19.401886L865.102037 883.384425c-8.902764 35.612079-40.900525 60.594053-77.607542 60.594054h-550.98899c-36.70804 0-68.704778-24.982998-77.607542-60.594054L38.904055 403.40777c-10.715039-42.86118 15.344476-86.294388 58.205657-97.009428a79.999009 79.999009 0 0 1 19.401885-2.388397z" /></svg>