<?xml version="1.0" standalone="no"?><!DOCTYPE svg PUBLIC "-//W3C//DTD SVG 1.1//EN" "http://www.w3.org/Graphics/SVG/1.1/DTD/svg11.dtd"><svg class="icon" width="200px" height="200.00px" viewBox="0 0 1024 1024" version="1.1" xmlns="http://www.w3.org/2000/svg"><path fill="#7766729|-1,7766730|-1,7766731|-1,7766732|-1,7766733|-1,7766734|-1,7766735|-1,7766736|-1,7766737|-1,7766738|-1,7766739|-1,7766740|-1,7766741|-1,7766742|-1,7766743|-1,7766744|-1,7766745|-1,7766746|-1,7766747|-1,7766748|-1" d="M288.010553 489.070778h447.978894c17.672498 0 31.998785 14.326287 31.998785 31.998785s-14.326287 31.998785-31.998785 31.998785H288.010553c-17.672498 0-31.998785-14.326287-31.998785-31.998785s14.326287-31.998785 31.998785-31.998785z m0-191.990662h447.978894c17.672498 0 31.998785 14.326287 31.998785 31.998785s-14.326287 31.998785-31.998785 31.998784H288.010553c-17.672498 0-31.998785-14.326287-31.998785-31.998784s14.326287-31.998785 31.998785-31.998785z m15.999392 573.115939l184.698583-143.654794a63.99757 63.99757 0 0 1 39.289841-13.481036h351.983563c17.672498 0 31.998785-14.326287 31.998785-31.998785V169.087023c0-17.672498-14.326287-31.998785-31.998785-31.998785H144.017044c-17.672498 0-31.998785 14.326287-31.998784 31.998785v511.975441c0 17.672498 14.326287 31.998785 31.998784 31.998784h95.995332c35.344996 0 63.996546 28.652574 63.996546 63.996547v93.13826z m223.989447-93.13826L317.478701 940.795996c-20.924565 16.274662-51.080376 12.504802-67.355037-8.419763a47.994084 47.994084 0 0 1-10.110265-29.468149V777.057795h-95.995331c-53.016471 0-95.995331-42.97886-95.995331-95.995331V169.087023c0-53.016471 42.97886-95.995331 95.995331-95.995331h735.964888c53.016471 0 95.995331 42.97886 95.995331 95.995331v511.975441c0 53.016471-42.97886 95.995331-95.995331 95.995331H527.999392z" /></svg>