<?xml version="1.0" standalone="no"?><!DOCTYPE svg PUBLIC "-//W3C//DTD SVG 1.1//EN" "http://www.w3.org/Graphics/SVG/1.1/DTD/svg11.dtd"><svg class="icon" width="200px" height="200.00px" viewBox="0 0 1024 1024" version="1.1" xmlns="http://www.w3.org/2000/svg"><path fill="#7772182|-1,7772183|-1,7772184|-1,7772185|-1,7772186|-1,7772187|-1,7772188|-1,7772189|-1,7772190|-1,7772191|-1,7772192|-1,7772193|-1,7772194|-1,7772195|-1,7772196|-1,7772197|-1,7772198|-1,7772199|-1,7772200|-1,7772201|-1" d="M831.984778 180.701548l100.680027-100.68105c6.249331-6.248308 16.380062-6.248308 22.629394 0a16.007579 16.007579 0 0 1 4.684695 11.313673v242.733347c0 8.836249-7.16519 15.999392-15.999392 15.999393a16.005532 16.005532 0 0 1-11.314697-4.685719l-100.680027-100.681051v-63.998593zM512 84.706217h255.987209c17.672498 0 31.998785 14.326287 31.998784 31.998785v191.990662c0 17.672498-14.325263 31.998785-31.998784 31.998785H512c-17.672498 0-31.998785-14.326287-31.998785-31.998785V116.705002c0.001023-17.672498 14.326287-31.998785 31.998785-31.998785zM258.639618 767.728312C132.252093 639.920438 56.230676 467.574185 64.655556 330.332451c2.65241-43.194778 17.356296-80.881099 40.363289-113.123431 14.607696-20.466124 29.701462-35.093263 41.089837-43.556005 38.078247-28.27395 65.804728-31.451316 83.887573-14.903431 28.219715 25.789363 110.618377 146.496515 137.433092 199.122083 10.502192 20.627806-1.50119 54.264904-33.630958 82.477456a389.362892 389.362892 0 0 1-3.446496 3.003404 1545.961886 1545.961886 0 0 1-7.234774 6.186909c-45.523823 38.672788-58.44204 59.1911-42.698475 91.885734a285.829887 285.829887 0 0 1 3.810792 8.263197c14.527878 32.197306 31.320333 55.621808 83.157955 108.326171 53.955866 54.830793 91.015923 79.08008 131.929752 91.935876 30.779004 9.731642 46.230927-1.888 76.022441-42.107004 5.202489-7.020904 7.862062-10.538007 10.914584-14.366196 20.542872-25.745361 37.940101-38.397518 57.344032-38.397518 5.76633 0 11.785417 1.218758 17.916045 3.689019 28.488845 11.516288 164.014494 106.070804 194.838524 135.417179 8.137331 7.766894 9.605775 18.648732 5.173836 33.570583-3.327792 11.19804-9.154497 21.808702-14.312984 29.016871-2.163269 3.314489-5.874801 8.340969-11.103895 14.471596-8.585539 10.07138-18.802228 20.204158-30.590716 29.742395-33.080419 26.767644-72.013127 43.86709-116.804263 46.676065a516.937452 516.937452 0 0 1-31.943526 1.001817c-145.368832 0-279.06481-60.584843-398.131603-180.936909z" /></svg>