<?xml version="1.0" standalone="no"?><!DOCTYPE svg PUBLIC "-//W3C//DTD SVG 1.1//EN" "http://www.w3.org/Graphics/SVG/1.1/DTD/svg11.dtd"><svg class="icon" width="200px" height="200.00px" viewBox="0 0 1024 1024" version="1.1" xmlns="http://www.w3.org/2000/svg"><path fill="#7772182|-1,7772183|-1,7772184|-1,7772185|-1,7772186|-1,7772187|-1,7772188|-1,7772189|-1,7772190|-1,7772191|-1,7772192|-1,7772193|-1,7772194|-1,7772195|-1,7772196|-1,7772197|-1,7772198|-1,7772199|-1,7772200|-1,7772201|-1" d="M478.863299 620.551298l252.048503-327.20932-328.057641 252.703419a63.995523 63.995523 0 0 1-67.081815 6.833639l-232.429676-113.239064c-31.774681-15.479553-44.983517-53.78702-29.502941-85.561701a63.987337 63.987337 0 0 1 37.527708-32.761148l761.272273-250.495124c33.57263-11.047614 69.747527 7.213285 80.793095 40.786938a63.995523 63.995523 0 0 1 0 40.006156L703.099363 912.391063c-11.045567 33.573653-47.219441 51.834552-80.793095 40.786938a64.00064 64.00064 0 0 1-37.595246-32.894177L471.965192 687.501106a63.995523 63.995523 0 0 1 6.898107-66.949808z" /></svg>