<?xml version="1.0" standalone="no"?><!DOCTYPE svg PUBLIC "-//W3C//DTD SVG 1.1//EN" "http://www.w3.org/Graphics/SVG/1.1/DTD/svg11.dtd"><svg class="icon" width="200px" height="200.00px" viewBox="0 0 1024 1024" version="1.1" xmlns="http://www.w3.org/2000/svg"><path fill="#7772182|-1,7772183|-1,7772184|-1,7772185|-1,7772186|-1,7772187|-1,7772188|-1,7772189|-1,7772190|-1,7772191|-1,7772192|-1,7772193|-1,7772194|-1,7772195|-1,7772196|-1,7772197|-1,7772198|-1,7772199|-1,7772200|-1,7772201|-1" d="M606.614891 416.004669c-17.124006 0-31.212886 13.481036-31.967062 30.588669l-12.763698 289.426808c-0.019443 0.449231-0.029676 0.899486-0.029676 1.348718 0 16.910135 13.70821 30.618345 30.618344 30.618345h1.380441c17.124006 0 31.212886-13.481036 31.967062-30.588669l12.763698-289.426809c0.019443-0.449231 0.029676-0.899486 0.029676-1.348717 0-16.910135-13.70821-30.618345-30.618345-30.618345h-1.38044z m-190.610222 0c-0.449231 0-0.89744 0.010233-1.346671 0.029676-16.894785 0.743944-29.989011 15.042601-29.246091 31.938409l12.735045 289.436019c0.753153 17.108656 14.842033 30.591739 31.968086 30.591739h1.37737c0.449231 0 0.89744-0.010233 1.345648-0.029676 16.895809-0.74292 29.989011-15.042601 29.246091-31.93841l-12.735046-289.436018c-0.753153-17.108656-14.842033-30.591739-31.968085-30.591739h-1.376347z m-8.93551-383.981325h209.861682a31.998785 31.998785 0 0 1 30.356378 21.87931l17.685801 53.057403c2.793626 8.382924-1.736551 17.443277-10.118451 20.237927a15.981996 15.981996 0 0 1-5.059226 0.820691H374.204657c-8.836249 0-15.999392-7.163143-15.999392-15.999392 0-1.719154 0.277316-3.428076 0.820691-5.059226l17.685801-53.057403a31.999808 31.999808 0 0 1 30.357402-21.87931z m424.915619 255.987209l-56.059783 616.661711c-4.495384 49.445132-45.951565 87.304392-95.601358 87.304392h-336.647274c-49.64877 0-91.105974-37.859259-95.601358-87.304392l-56.059783-616.661711H86.288249c-8.836249 0-15.999392-7.163143-15.999393-15.999393 0-1.843998 0.319272-3.674693 0.942465-5.410219l19.193131-53.408398a31.998785 31.998785 0 0 1 30.112832-21.177321h782.924409a31.998785 31.998785 0 0 1 30.112831 21.177321l19.193132 53.408398c2.988054 8.315386-1.330298 17.479093-9.645685 20.467147a16.010649 16.010649 0 0 1-5.41022 0.942465H831.984778z" /></svg>