<?xml version="1.0" standalone="no"?><!DOCTYPE svg PUBLIC "-//W3C//DTD SVG 1.1//EN" "http://www.w3.org/Graphics/SVG/1.1/DTD/svg11.dtd"><svg class="icon" width="200px" height="200.00px" viewBox="0 0 1024 1024" version="1.1" xmlns="http://www.w3.org/2000/svg"><path fill="#7766709|-1,7766710|-1,7766711|-1,7766712|-1,7766713|-1,7766714|-1,7766715|-1,7766716|-1,7766717|-1,7766718|-1,7766719|-1,7766720|-1,7766721|-1,7766722|-1,7766723|-1,7766724|-1,7766725|-1,7766726|-1,7766727|-1,7766728|-1" d="M510.651282 352.007099c-26.508747 0-47.998177-21.48943-47.998177-47.998177s21.48943-47.998177 47.998177-47.998177 47.997154 21.48943 47.997154 47.998177-21.48943 47.998177-47.997154 47.998177z m-31.998784 63.99757h31.998784c17.672498 0 31.998785 14.326287 31.998785 31.998785v287.985993h47.998177c8.836249 0 15.999392 7.163143 15.999393 15.999393s-7.163143 15.999392-15.999393 15.999392H430.655344c-8.836249 0-15.999392-7.163143-15.999393-15.999392s7.163143-15.999392 15.999393-15.999393h47.998177V448.00243h-31.998785c-8.836249 0-15.999392-7.163143-15.999392-15.999392s7.163143-15.999392 15.999392-15.999392h31.997762z m31.998784 495.976048c220.909295 0 399.980717-179.071422 399.980718-399.980717S731.560578 112.019283 510.651282 112.019283 110.670565 291.090705 110.670565 512s179.071422 399.980717 399.980717 399.980717zM62.672388 512c0-247.406786 200.572108-447.978894 447.978894-447.978894s447.978894 200.572108 447.978895 447.978894-200.573131 447.977871-447.978895 447.977871S62.672388 759.405763 62.672388 512z" /></svg>