<?xml version="1.0" standalone="no"?><!DOCTYPE svg PUBLIC "-//W3C//DTD SVG 1.1//EN" "http://www.w3.org/Graphics/SVG/1.1/DTD/svg11.dtd"><svg class="icon" width="200px" height="200.00px" viewBox="0 0 1024 1024" version="1.1" xmlns="http://www.w3.org/2000/svg"><path fill="#7772182|-1,7772183|-1,7772184|-1,7772185|-1,7772186|-1,7772187|-1,7772188|-1,7772189|-1,7772190|-1,7772191|-1,7772192|-1,7772193|-1,7772194|-1,7772195|-1,7772196|-1,7772197|-1,7772198|-1,7772199|-1,7772200|-1,7772201|-1" d="M373.646955 370.376469l-13.068643-146.362462h-35.573193c-56.653301 0-105.285928-40.322357-115.779934-95.995332L198.279902 69.948095c-3.273557-17.366529 8.151657-34.098609 25.518187-37.372165a31.998785 31.998785 0 0 1 5.926989-0.553609h564.550867c17.672498 0 31.998785 14.326287 31.998785 31.998785a31.998785 31.998785 0 0 1-0.553609 5.926989l-10.945283 58.069557c-10.494005 55.672974-59.125609 95.995331-115.779933 95.995331h-35.574217l-13.068643 146.362462c147.627269 43.904952 213.630519 161.757081 213.630518 301.615409h-304.628022l-12.360516 287.907199c-0.760317 17.715477-15.442714 32.077579-33.373085 32.07758h-2.331091c-17.670451 0-32.661887-14.583137-33.460066-32.07758l-13.141298-287.907199H160.016437c0-139.857305 66.00325-257.709433 213.630518-301.614385z" /></svg>