<?xml version="1.0" standalone="no"?><!DOCTYPE svg PUBLIC "-//W3C//DTD SVG 1.1//EN" "http://www.w3.org/Graphics/SVG/1.1/DTD/svg11.dtd"><svg class="icon" width="200px" height="200.00px" viewBox="0 0 1024 1024" version="1.1" xmlns="http://www.w3.org/2000/svg"><path fill="#7766729|-1,7766730|-1,7766731|-1,7766732|-1,7766733|-1,7766734|-1,7766735|-1,7766736|-1,7766737|-1,7766738|-1,7766739|-1,7766740|-1,7766741|-1,7766742|-1,7766743|-1,7766744|-1,7766745|-1,7766746|-1,7766747|-1,7766748|-1" d="M162.872484 67.827805c1.870604 0 3.76065 0.369414 5.54632 1.149173 27.710109 12.088316 207.856002 93.983511 364.024807 148.71095 75.311243 26.387997 264.655635 92.305289 290.827715 102.206799 28.365025 10.734482 43.278689 25.372877 50.203402 43.784203 6.924713 18.398022 2.753717 42.860157-7.265474 59.658751-33.983999 64.407915-145.700383 239.492536-145.700383 239.492536h118.467135L596.833107 956.167079l66.248843-204.54356-111.596657-0.741897 37.442774-128.321574c-20.131503 9.302877-63.425541 22.549575-80.039941 25.463952-4.481058 0.789992-12.594853 1.874697-23.260773 1.874697-28.875654 0-76.41539-7.964392-120.913861-51.333132 0 0-30.328749-29.497824-39.882336-48.715515-2.521426-5.061272-1.321088-9.290597 0.080842-12.009522 1.52575-2.940982 4.728698-6.037507 9.515724-6.843872 5.193279-0.88516 230.756571-31.410384 230.756571-31.410383s-184.575786-4.173043-230.756571-13.060458c-56.582693-10.891048-122.405841-84.306104-134.578068-149.638065-0.887206-4.735861 1.184989-9.055237 3.446495-11.293207 2.777253-2.744507 6.033413-4.021593 9.845229-4.021593 0.73985 0 1.502213 0.048095 2.289136 0.144286 6.556323 0.794086 345.637018 74.166163 345.637018 74.166163S240.251829 290.020326 215.430514 269.162276c-50.614771-42.548048-76.17082-132.445498-66.125023-190.660364 0.464581-2.212388 1.607614-5.243421 5.030573-7.833409 2.408863-1.831718 5.445012-2.840698 8.53642-2.840698m0-63.452148c-16.877389 0-33.542954 5.601578-46.927798 15.773242a76.644611 76.644611 0 0 0-28.736485 45.305859 56.5786 56.5786 0 0 0-0.429789 2.257413c-11.378142 65.914222 9.403161 161.121608 62.318324 224.338395-11.033287 16.386202-15.340383 36.629245-11.614525 56.516178 12.780071 68.595284 65.083298 138.701992 125.015272 175.761026-4.79419 17.884322-2.943029 36.788881 5.538133 53.816696 13.31526 26.779923 43.503816 57.218166 52.438303 65.909106 45.834908 44.671409 104.505146 69.299319 165.153434 69.299319 3.803629 0 7.408737-0.098237 10.785647-0.268106l-5.840008 20.024055a63.455217 63.455217 0 0 0 60.490699 81.22493l24.956391 0.165775-39.553854 122.117269c-9.383718 28.979008 3.14462 60.537771 29.851888 75.186399a63.281255 63.281255 0 0 0 30.483269 7.822153c18.438954 0 36.559661-8.03193 48.964178-23.062252l242.141876-293.336861c15.638165-18.945491 18.938328-45.217854 8.465812-67.440995s-32.833803-36.405141-57.399291-36.405142h-3.621481c32.125675-51.768037 68.390623-111.437022 86.310761-145.171334 19.767206-34.280758 24.185842-78.369905 11.195993-112.879883-13.907755-36.979216-43.224454-64.161299-87.131452-80.777745-20.692275-7.828292-132.722814-46.971801-222.743061-78.423117l-69.560262-24.321942C416.989089 109.992113 260.266675 40.337707 208.768791 17.448394l-14.98018-6.631024c-9.763364-4.26821-20.180622-6.441713-30.916127-6.441713z" /></svg>