<?xml version="1.0" standalone="no"?><!DOCTYPE svg PUBLIC "-//W3C//DTD SVG 1.1//EN" "http://www.w3.org/Graphics/SVG/1.1/DTD/svg11.dtd"><svg class="icon" width="200px" height="200.00px" viewBox="0 0 1024 1024" version="1.1" xmlns="http://www.w3.org/2000/svg"><path fill="#7772182|-1,7772183|-1,7772184|-1,7772185|-1,7772186|-1,7772187|-1,7772188|-1,7772189|-1,7772190|-1,7772191|-1,7772192|-1,7772193|-1,7772194|-1,7772195|-1,7772196|-1,7772197|-1,7772198|-1,7772199|-1,7772200|-1,7772201|-1" d="M124.393101 18.876929c2.076288 0 4.175089 0.410346 6.157234 1.276063 30.763654 13.420661 230.763734 104.341417 404.143527 165.100222 83.61128 29.296233 293.821909 102.477976 322.879711 113.471355 31.491225 11.917424 48.048319 28.169573 55.736419 48.610114 7.688099 20.426215 3.056616 47.583738-8.066723 66.233494-37.7293 71.505567-161.758104 265.886673-161.758104 265.886673h131.522476L606.179986 1005.118977l73.550133-227.085971-123.894751-0.823762 41.568744-142.463666c-22.350031 10.328229-70.415746 25.034163-88.861864 28.270881-4.974291 0.876973-13.982456 2.081405-25.824155 2.081405-32.058137 0-84.8372-8.842389-134.240377-56.989969 0 0-33.670867-32.748868-44.278459-54.084803-2.798742-5.618974-1.466398-10.313903 0.090051-13.333679 1.693572-3.26537 5.249561-6.703679 10.564613-7.599072 5.76633-0.982374 256.187777-34.872229 256.187777-34.872229s-204.91809-4.63353-256.187777-14.500249c-62.817698-12.091386-135.895063-93.596701-149.408845-166.128644-0.984421-5.257747 1.315972-10.053983 3.827165-12.538571 3.083222-3.046383 6.698562-4.464685 10.929934-4.464685 0.821715 0 1.667989 0.054235 2.540869 0.159635 7.2798 0.881067 383.728568 82.340333 383.728568 82.340334s-356.171955-117.53081-383.728568-140.687206c-56.192813-47.236837-84.566024-147.041938-73.41301-211.671911 0.515746-2.455935 1.784646-5.821589 5.585205-8.697079 2.675946-2.033309 6.046716-3.152806 9.477862-3.152807" /></svg>