<?xml version="1.0" standalone="no"?><!DOCTYPE svg PUBLIC "-//W3C//DTD SVG 1.1//EN" "http://www.w3.org/Graphics/SVG/1.1/DTD/svg11.dtd"><svg class="icon" width="200px" height="200.00px" viewBox="0 0 1024 1024" version="1.1" xmlns="http://www.w3.org/2000/svg"><path fill="#7772202|-1,7772203|-1,7772204|-1,7772205|-1,7772206|-1,7772207|-1,7772208|-1,7772209|-1,7772210|-1,7772211|-1,7772212|-1,7772213|-1,7772214|-1,7772215|-1,7772216|-1,7772217|-1,7772218|-1,7772219|-1,7772220|-1,7772221|-1" d="M278.95327 204.594725c17.671475 0 31.998785-14.32731 31.998785-31.998785V76.600609c0-17.671475-14.32731-31.998785-31.998785-31.998785s-31.998785 14.32731-31.998785 31.998785v95.995331c0 17.671475 14.328333 31.998785 31.998785 31.998785zM726.932164 204.594725c17.671475 0 31.998785-14.32731 31.998785-31.998785V76.600609c0-17.671475-14.32731-31.998785-31.998785-31.998785s-31.998785 14.32731-31.998785 31.998785v95.995331c0 17.671475 14.32731 31.998785 31.998785 31.998785zM950.331163 544.586163L617.796558 352.5955c-15.307637-8.835226-34.877345-3.593851-43.712571 11.710716-8.835226 15.303544-3.593851 34.873252 11.713786 43.708478l55.419194 31.998785-80.840166 140.024104-172.60515 58.802244c-26.022677 8.866948-29.486568 44.255946-5.67935 58.005088l166.268838 95.995331-79.995939 138.55566c-8.835226 15.303544-3.593851 34.873252 11.710717 43.708477 15.303544 8.835226 34.873252 3.593851 43.71257-11.710716l79.995939-138.555659 166.269861 95.995331c23.807219 13.741979 52.723805-6.952342 47.388287-33.920554l-35.373649-178.88211 80.840167-140.024103 55.423287 31.998784c15.307637 8.835226 34.877345 3.593851 43.712571-11.710716s3.593851-34.873252-11.713787-43.708477zM269.719978 633.79288a64.008826 64.008826 0 0 1 30.432103-25.834388l206.216665-83.957157a32.000831 32.000831 0 0 0 19.815301-32.357965L513.161453 339.025437c-3.003404-35.217083 23.108301-66.199725 58.325383-69.207222a63.977104 63.977104 0 0 1 36.521798 7.820106l342.912977 190.529381v-263.572977c0-53.013401-42.97886-95.995331-95.995331-95.995331h-15.999392c-17.671475 0-31.998785 14.32731-31.998785 31.998784v15.999393c0 44.177152-35.814694 79.995939-79.995939 79.995939s-79.995939-35.818787-79.995939-79.995939v-15.999393c0-17.671475-14.32731-31.998785-31.998785-31.998784H390.947993c-17.671475 0-31.998785 14.32731-31.998785 31.998784v15.999393c0 44.177152-35.814694 79.995939-79.995938 79.995939s-79.995939-35.818787-79.995939-79.995939v-15.999393c0-17.671475-14.32731-31.998785-31.998785-31.998784h-15.999392c-53.016471 0-95.995331 42.98193-95.995331 95.995331v639.969556c0 53.013401 42.97886 95.995331 95.995331 95.995332h226.996944l60.989049-127.994116-148.102083-90.769307c-30.135344-18.475793-39.591717-57.872059-21.123086-88.00331z" /></svg>