<?xml version="1.0" standalone="no"?><!DOCTYPE svg PUBLIC "-//W3C//DTD SVG 1.1//EN" "http://www.w3.org/Graphics/SVG/1.1/DTD/svg11.dtd"><svg class="icon" width="200px" height="200.00px" viewBox="0 0 1024 1024" version="1.1" xmlns="http://www.w3.org/2000/svg"><path fill="#7772182|-1,7772183|-1,7772184|-1,7772185|-1,7772186|-1,7772187|-1,7772188|-1,7772189|-1,7772190|-1,7772191|-1,7772192|-1,7772193|-1,7772194|-1,7772195|-1,7772196|-1,7772197|-1,7772198|-1,7772199|-1,7772200|-1,7772201|-1" d="M640.690988 847.63727H384.703779c-17.672498 0-31.998785 14.326287-31.998785 31.998785s14.326287 31.998785 31.998785 31.998785h255.987209c17.672498 0 31.998785-14.326287 31.998784-31.998785s-14.326287-31.998785-31.998784-31.998785zM512.697895 1007.629147c52.344159 0 98.816586-25.136493 128.005372-63.996546H384.691499c29.189809 38.860053 75.662237 63.996546 128.006396 63.996546zM512.697895 15.677051c-212.066907 0-383.981325 171.914418-383.981325 383.981325 0 134.12372 68.766177 252.186649 172.965354 320.853565l8.735965 43.680848c5.982248 29.913287 32.248472 51.445696 62.754252 51.445696h279.051507c30.505781 0 56.770981-21.532409 62.754253-51.445696l8.735965-43.680848c104.199177-68.666916 172.965353-186.729845 172.965353-320.853565 0-212.066907-171.914418-383.981325-383.981324-383.981325z m224.37421 383.981325c-17.672498 0-31.998785-14.326287-31.998785-31.998785 0-70.688969-57.305147-127.994116-127.994116-127.994116-17.672498 0-31.998785-14.326287-31.998785-31.998785s14.326287-31.998785 31.998785-31.998785c106.033965 0 191.990662 85.956697 191.990663 191.990662 0.001023 17.673521-14.325263 31.999808-31.997762 31.999809z" /></svg>