<?xml version="1.0" standalone="no"?><!DOCTYPE svg PUBLIC "-//W3C//DTD SVG 1.1//EN" "http://www.w3.org/Graphics/SVG/1.1/DTD/svg11.dtd"><svg class="icon" width="200px" height="200.00px" viewBox="0 0 1024 1024" version="1.1" xmlns="http://www.w3.org/2000/svg"><path fill="#7766729|-1,7766730|-1,7766731|-1,7766732|-1,7766733|-1,7766734|-1,7766735|-1,7766736|-1,7766737|-1,7766738|-1,7766739|-1,7766740|-1,7766741|-1,7766742|-1,7766743|-1,7766744|-1,7766745|-1,7766746|-1,7766747|-1,7766748|-1" d="M768.685103 367.659591c0 17.672498-14.326287 31.998785-31.998784 31.998785s-31.998785-14.326287-31.998785-31.998785c0-70.688969-57.305147-127.994116-127.994116-127.994116-17.672498 0-31.998785-14.326287-31.998785-31.998785s14.326287-31.998785 31.998785-31.998785c106.034988 0.001023 191.991686 85.958744 191.991685 191.991686zM384.691499 943.632601h256.011768c-29.189809 38.860053-75.662237 63.996546-128.005372 63.996546-52.344159 0-98.816586-25.136493-128.006396-63.996546z m0.01228-95.995331h255.988232c17.672498 0 31.998785 14.326287 31.998785 31.998785s-14.326287 31.998785-31.998785 31.998785H384.703779c-17.672498 0-31.998785-14.326287-31.998785-31.998785s14.326287-31.998785 31.998785-31.998785z m-47.806819-180.562379a63.99757 63.99757 0 0 1 27.539216 40.886199l8.735965 43.680849h279.051507l8.735965-43.680849a63.995523 63.995523 0 0 1 27.539217-40.886199c89.354074-58.884109 144.183843-158.439522 144.183843-267.416515 0-176.722934-143.261844-319.984778-319.984778-319.984779S192.713117 222.935442 192.713117 399.658376c0 108.978017 54.828746 208.532407 144.183843 267.416515z m-35.215036 53.43705C197.482747 651.845025 128.715547 533.782096 128.715547 399.658376c0-212.066907 171.914418-383.981325 383.981325-383.981325s383.981325 171.914418 383.981324 383.981325c0 134.12372-68.766177 252.186649-172.965353 320.853565l-8.735965 43.680848c-5.982248 29.913287-32.248472 51.445696-62.754253 51.445696H373.172141c-30.505781 0-56.770981-21.532409-62.754252-51.445696l-8.735965-43.680848z" /></svg>