<?xml version="1.0" standalone="no"?><!DOCTYPE svg PUBLIC "-//W3C//DTD SVG 1.1//EN" "http://www.w3.org/Graphics/SVG/1.1/DTD/svg11.dtd"><svg class="icon" width="200px" height="200.00px" viewBox="0 0 1024 1024" version="1.1" xmlns="http://www.w3.org/2000/svg"><path fill="#7766729|-1,7766730|-1,7766731|-1,7766732|-1,7766733|-1,7766734|-1,7766735|-1,7766736|-1,7766737|-1,7766738|-1,7766739|-1,7766740|-1,7766741|-1,7766742|-1,7766743|-1,7766744|-1,7766745|-1,7766746|-1,7766747|-1,7766748|-1" d="M617.366769 876.29496l294.142204-294.142204c12.495592-12.496615 32.756031-12.496615 45.252647 0 12.496615 12.495592 12.496615 32.756031 0 45.252647L639.994116 944.17393c-12.496615 12.496615-32.756031 12.496615-45.252647 0L413.729859 763.163343c-12.495592-12.496615-12.495592-32.756031 0-45.252646 12.495592-12.496615 32.756031-12.496615 45.252647 0l158.384263 158.384263z m-399.508973-492.289076H409.848459c17.672498 0 31.998785 14.326287 31.998785 31.998785s-14.326287 31.998785-31.998785 31.998785H217.857796c-17.672498 0-31.998785-14.326287-31.998784-31.998785s14.326287-31.998785 31.998784-31.998785z m0 159.992901h319.984779c17.672498 0 31.998785 14.326287 31.998785 31.998785s-14.326287 31.998785-31.998785 31.998784H217.857796c-17.672498 0-31.998785-14.326287-31.998784-31.998784s14.326287-31.998785 31.998784-31.998785z m0-319.984778h383.981325c17.672498 0 31.998785 14.326287 31.998785 31.998784s-14.326287 31.998785-31.998785 31.998785H217.857796c-17.672498 0-31.998785-14.326287-31.998784-31.998785s14.326287-31.998785 31.998784-31.998784zM409.848459 895.981325c17.672498 0 31.998785 14.326287 31.998785 31.998784s-14.326287 31.998785-31.998785 31.998785H153.860227c-53.016471 0-95.995331-42.97886-95.995331-95.995331V160.016437c0-53.016471 42.97886-95.995331 95.995331-95.995331h639.969556c53.016471 0 95.995331 42.97886 95.995332 95.995331v223.989447c0 17.672498-14.326287 31.998785-31.998785 31.998785s-31.998785-14.326287-31.998785-31.998785V160.016437c0-17.672498-14.326287-31.998785-31.998785-31.998785H153.860227c-17.672498 0-31.998785 14.326287-31.998785 31.998785v703.966103c0 17.672498 14.326287 31.998785 31.998785 31.998785H409.848459z" /></svg>