<?xml version="1.0" standalone="no"?><!DOCTYPE svg PUBLIC "-//W3C//DTD SVG 1.1//EN" "http://www.w3.org/Graphics/SVG/1.1/DTD/svg11.dtd"><svg class="icon" width="200px" height="200.00px" viewBox="0 0 1024 1024" version="1.1" xmlns="http://www.w3.org/2000/svg"><path fill="#7772182|-1,7772183|-1,7772184|-1,7772185|-1,7772186|-1,7772187|-1,7772188|-1,7772189|-1,7772190|-1,7772191|-1,7772192|-1,7772193|-1,7772194|-1,7772195|-1,7772196|-1,7772197|-1,7772198|-1,7772199|-1,7772200|-1,7772201|-1" d="M924.444587 131.281999H99.555413c-52.566216 0-95.179756 42.61354-95.179756 95.179756v571.077513c0 52.566216 42.61354 95.179756 95.179756 95.179757h824.889174c52.566216 0 95.179756-42.61354 95.179756-95.179757V226.460732c0-52.565193-42.61354-95.178733-95.179756-95.178733z m-38.936801 180.405813L576.573691 592.536244c-36.614919 33.286104-92.532463 33.286104-129.147382 0L138.492214 311.687812c-13.07683-11.887748-14.039761-32.125675-2.152013-45.201482 11.887748-13.07683 32.124651-14.040784 45.201482-2.153036l308.934094 280.849456c12.204973 11.095709 30.843472 11.095709 43.048446 0L842.458317 264.333294c13.075807-11.887748 33.313733-10.923794 45.201482 2.153036 11.887748 13.075807 10.923794 33.313733-2.152013 45.201482z" /></svg>