<?xml version="1.0" standalone="no"?><!DOCTYPE svg PUBLIC "-//W3C//DTD SVG 1.1//EN" "http://www.w3.org/Graphics/SVG/1.1/DTD/svg11.dtd"><svg class="icon" width="200px" height="200.00px" viewBox="0 0 1024 1024" version="1.1" xmlns="http://www.w3.org/2000/svg"><path fill="#7766729|-1,7766730|-1,7766731|-1,7766732|-1,7766733|-1,7766734|-1,7766735|-1,7766736|-1,7766737|-1,7766738|-1,7766739|-1,7766740|-1,7766741|-1,7766742|-1,7766743|-1,7766744|-1,7766745|-1,7766746|-1,7766747|-1,7766748|-1" d="M288.010553 735.989447h383.981325c17.672498 0 31.998785 14.326287 31.998784 31.998785s-14.326287 31.998785-31.998784 31.998785H288.010553c-17.672498 0-31.998785-14.326287-31.998785-31.998785s14.326287-31.998785 31.998785-31.998785z m0-159.992901h191.990662c17.672498 0 31.998785 14.326287 31.998785 31.998785s-14.326287 31.998785-31.998785 31.998785H288.010553c-17.672498 0-31.998785-14.326287-31.998785-31.998785s14.326287-31.998785 31.998785-31.998785zM636.111692 92.137467l231.753272 231.753271a95.994308 95.994308 0 0 1 28.116361 67.87897v472.212832c0 53.016471-42.97886 95.995331-95.995332 95.995331H224.014007c-53.016471 0-95.995331-42.97886-95.995332-95.995331V160.016437c0-53.016471 42.97886-95.995331 95.995332-95.995331h344.218715c25.459858 0 49.875944 10.114358 67.87897 28.116361z m-28.116361 62.388932v197.4807h197.4807L607.995331 154.526399z m-53.016471-26.507724H224.014007c-17.672498 0-31.998785 14.326287-31.998785 31.998785v703.966103c0 17.672498 14.326287 31.998785 31.998785 31.998785h575.971986c17.672498 0 31.998785-14.326287 31.998785-31.998785V405.024593v10.980076H607.995331c-35.344996 0-63.996546-28.652574-63.996546-63.996547V128.018675h10.980075z" /></svg>