<?xml version="1.0" standalone="no"?><!DOCTYPE svg PUBLIC "-//W3C//DTD SVG 1.1//EN" "http://www.w3.org/Graphics/SVG/1.1/DTD/svg11.dtd"><svg class="icon" width="200px" height="200.00px" viewBox="0 0 1024 1024" version="1.1" xmlns="http://www.w3.org/2000/svg"><path fill="#7766729|-1,7766730|-1,7766731|-1,7766732|-1,7766733|-1,7766734|-1,7766735|-1,7766736|-1,7766737|-1,7766738|-1,7766739|-1,7766740|-1,7766741|-1,7766742|-1,7766743|-1,7766744|-1,7766745|-1,7766746|-1,7766747|-1,7766748|-1" d="M830.92975 128.018675l-0.008187 0.001024-41.138956 95.994308H352.007099c-35.341926 0-63.996546 28.652574-63.996546 63.996546v111.994723c0 35.344996 28.65462 63.996546 63.996546 63.996547h383.981325v95.995331H352.007099c-35.341926 0-63.996546 28.652574-63.996546 63.996546v111.994724c0 35.344996 28.65462 63.996546 63.996546 63.996546h479.976656v95.995331H192.015222V128.018675h638.914528m0-63.997569H192.015222c-35.341926 0-63.996546 28.652574-63.996547 63.996546v767.962649c0 35.343973 28.65462 63.996546 63.996547 63.996547h639.968533c35.341926 0 63.996546-28.652574 63.996546-63.996547v-95.995331c0-35.343973-28.65462-63.996546-63.996546-63.996546H352.007099V623.994724h383.981325c35.341926 0 63.996546-28.652574 63.996546-63.996547v-95.995331c0-35.344996-28.65462-63.996546-63.996546-63.996546H352.007099V288.010553h437.775508c25.600051 0 48.740074-15.256472 58.825781-38.787398l41.138955-95.995331a64.007803 64.007803 0 0 0 5.178953-25.210172c0-35.343973-28.65462-63.996546-63.996546-63.996546z" /></svg>