<?xml version="1.0" standalone="no"?><!DOCTYPE svg PUBLIC "-//W3C//DTD SVG 1.1//EN" "http://www.w3.org/Graphics/SVG/1.1/DTD/svg11.dtd"><svg class="icon" width="200px" height="200.00px" viewBox="0 0 1024 1024" version="1.1" xmlns="http://www.w3.org/2000/svg"><path fill="#7766729|-1,7766730|-1,7766731|-1,7766732|-1,7766733|-1,7766734|-1,7766735|-1,7766736|-1,7766737|-1,7766738|-1,7766739|-1,7766740|-1,7766741|-1,7766742|-1,7766743|-1,7766744|-1,7766745|-1,7766746|-1,7766747|-1,7766748|-1" d="M703.990662 256.011768H289.031812V134.88813L112.747877 290.292526l176.282912 151.608953V320.009338h446.957635v0.912789c36.963866 2.12029 72.765257 7.91118 106.506732 17.136285-28.199249-47.562249-80.918961-82.046644-138.504494-82.046644z m-31.998784 129.024585v-1.030469H353.028359V511.62547c0 17.672498-14.326287 31.998785-31.998785 31.998785a31.999808 31.999808 0 0 1-20.865213-7.738242L43.156916 314.850851c-13.398148-11.523451-14.918781-31.726585-3.39533-45.124733a31.945573 31.945573 0 0 1 3.100617-3.13848L299.869648 40.018436c13.256932-11.686157 33.476439-10.413164 45.163619 2.842744a31.998785 31.998785 0 0 1 7.995092 21.159926v127.993092h350.962303c123.70544 0 223.989447 107.446128 223.989447 221.528396a330.016249 330.016249 0 0 1-1.432628 30.886451c-57.589626-38.119179-136.065955-60.424184-222.556819-60.424184a495.247454 495.247454 0 0 0-31.998784 1.031492zM320.009338 767.613702h414.95885v121.124661l176.282912-155.404395-176.282912-151.609977v121.892141H288.010553v-0.912789c-36.963866-2.12029-72.765257-7.91118-106.506733-17.136285 28.200272 47.562249 80.919984 82.046644 138.505518 82.046644z m31.997761-129.024585v1.030469h318.963519V512c0-17.672498 14.326287-31.998785 31.998785-31.998785a31.998785 31.998785 0 0 1 20.865213 7.738242L980.843084 708.774619c13.398148 11.523451 14.918781 31.726585 3.39533 45.124733a31.94762 31.94762 0 0 1-3.100617 3.13848L724.129328 983.607034c-13.255908 11.686157-33.476439 10.414187-45.163619-2.842744a31.998785 31.998785 0 0 1-7.995091-21.159926V831.610248H320.009338c-123.70544 0-223.989447-107.446128-223.989447-221.528395 0-10.513448 0.48607-20.817118 1.432628-30.886451 57.589626 38.119179 136.065955 60.423161 222.556819 60.423161a493.786173 493.786173 0 0 0 31.997761-1.029446z" /></svg>