<?xml version="1.0" standalone="no"?><!DOCTYPE svg PUBLIC "-//W3C//DTD SVG 1.1//EN" "http://www.w3.org/Graphics/SVG/1.1/DTD/svg11.dtd"><svg class="icon" width="200px" height="200.00px" viewBox="0 0 1024 1024" version="1.1" xmlns="http://www.w3.org/2000/svg"><path fill="#7766729|-1,7766730|-1,7766731|-1,7766732|-1,7766733|-1,7766734|-1,7766735|-1,7766736|-1,7766737|-1,7766738|-1,7766739|-1,7766740|-1,7766741|-1,7766742|-1,7766743|-1,7766744|-1,7766745|-1,7766746|-1,7766747|-1,7766748|-1" d="M224.014007 703.990662h383.981324c17.672498 0 31.998785 14.326287 31.998785 31.998785s-14.326287 31.998785-31.998785 31.998785H224.014007c-17.672498 0-31.998785-14.326287-31.998785-31.998785s14.326287-31.998785 31.998785-31.998785z m0-159.991877h191.990662c17.672498 0 31.998785 14.326287 31.998785 31.998785s-14.326287 31.998785-31.998785 31.998784H224.014007c-17.672498 0-31.998785-14.326287-31.998785-31.998784s14.326287-31.998785 31.998785-31.998785z m-95.995332-383.982348c-17.672498 0-31.998785 14.326287-31.998784 31.998785v639.969556c0 17.672498 14.326287 31.998785 31.998784 31.998785h767.96265c17.672498 0 31.998785-14.326287 31.998784-31.998785V288.010553c0-17.672498-14.326287-31.998785-31.998784-31.998785H575.996546a159.988808 159.988808 0 0 1-95.995331-31.998785l-76.79606-57.596789a32.002878 32.002878 0 0 0-19.199271-6.399757H128.018675z m0-63.996546h255.987209a95.992261 95.992261 0 0 1 57.596789 19.19927l76.796061 57.59679a95.992261 95.992261 0 0 0 57.596789 19.199271H895.980301c53.016471 0 95.995331 42.97886 95.995332 95.995331v543.974225c0 53.016471-42.97886 95.995331-95.995332 95.995331H128.018675c-53.016471 0-95.995331-42.97886-95.995331-95.995331V192.015222c0-53.016471 42.977837-95.995331 95.995331-95.995331z" /></svg>