<?xml version="1.0" standalone="no"?><!DOCTYPE svg PUBLIC "-//W3C//DTD SVG 1.1//EN" "http://www.w3.org/Graphics/SVG/1.1/DTD/svg11.dtd"><svg class="icon" width="200px" height="200.00px" viewBox="0 0 1024 1024" version="1.1" xmlns="http://www.w3.org/2000/svg"><path fill="#7772182|-1,7772183|-1,7772184|-1,7772185|-1,7772186|-1,7772187|-1,7772188|-1,7772189|-1,7772190|-1,7772191|-1,7772192|-1,7772193|-1,7772194|-1,7772195|-1,7772196|-1,7772197|-1,7772198|-1,7772199|-1,7772200|-1,7772201|-1" d="M583.76037 320.009338l41.370223-41.370223c12.496615-12.496615 12.496615-32.756031 0-45.252647-12.495592-12.495592-32.756031-12.495592-45.252646 0l-67.87897 67.87897-67.87897-67.87897c-12.495592-12.495592-32.756031-12.495592-45.252647 0-12.496615 12.496615-12.496615 32.756031 0 45.252647l41.370223 41.370223h-88.231507c-17.672498 0-31.998785 14.326287-31.998785 31.998784s14.326287 31.998785 31.998785 31.998785h127.994116v47.998178h-63.996546c-17.672498 0-31.998785 14.326287-31.998785 31.998784s14.326287 31.998785 31.998785 31.998785h63.996546v79.995939c0 17.672498 14.326287 31.998785 31.998785 31.998785s31.998785-14.326287 31.998785-31.998785v-79.995939h63.996546c17.672498 0 31.998785-14.326287 31.998785-31.998785s-14.326287-31.998785-31.998785-31.998784h-63.996546v-47.998178h127.994116c17.672498 0 31.998785-14.326287 31.998784-31.998785s-14.326287-31.998785-31.998784-31.998784h-88.231508z m280.22217 364.607068l38.426171-22.185278c22.956851-13.253862 52.311413-5.38873 65.566298 17.568121 13.253862 22.956851 5.38873 52.311413-17.568121 65.566298L542.479175 981.083561c-8.7902 7.220449-19.86442 11.04352-31.110555 10.906398-11.246135 0.138146-22.320355-3.685949-31.110555-10.906398L72.329329 745.565547C49.372477 732.311685 41.507346 702.957123 54.761208 680.000272c13.253862-22.956851 42.609447-30.823006 65.566298-17.568121l39.689954 22.914896V128.018675c0-53.016471 42.97886-95.995331 95.995331-95.995331h511.975441c53.016471 0 95.995331 42.97886 95.995331 95.995331v556.597731z" /></svg>