<?xml version="1.0" standalone="no"?><!DOCTYPE svg PUBLIC "-//W3C//DTD SVG 1.1//EN" "http://www.w3.org/Graphics/SVG/1.1/DTD/svg11.dtd"><svg class="icon" width="200px" height="200.00px" viewBox="0 0 1024 1024" version="1.1" xmlns="http://www.w3.org/2000/svg"><path fill="#7772202|-1,7772203|-1,7772204|-1,7772205|-1,7772206|-1,7772207|-1,7772208|-1,7772209|-1,7772210|-1,7772211|-1,7772212|-1,7772213|-1,7772214|-1,7772215|-1,7772216|-1,7772217|-1,7772218|-1,7772219|-1,7772220|-1,7772221|-1" d="M273.179776 240.319367h181.010587L344.367095 130.4961c-25.029046-25.029046-65.571415-25.041326-90.558505-0.054236-24.927739 24.927739-24.931832 65.574484 0.053212 90.558506l19.317974 19.318997z m477.779618 0l19.318997-19.318997c25.029046-25.029046 25.040303-65.571415 0.053212-90.558506-24.927739-24.927739-65.573461-24.930809-90.558505 0.054236L569.948807 240.319367h181.010587z m97.721648 351.983564v287.682071c0 53.184293-43.056632 96.29823-96.27674 96.29823H272.990464c-53.172013 0-96.27674-42.770106-96.27674-96.29823V592.302931h303.985386v191.990662c0 17.672498 14.326287 31.998785 31.998785 31.998785s31.998785-14.326287 31.998785-31.998785V592.302931h303.984362z m0-63.99757H544.695656V368.313483c0-17.672498-14.326287-31.998785-31.998784-31.998784s-31.998785 14.326287-31.998785 31.998784V528.305361H144.532791c-52.916187 0-95.812159-43.113937-95.81216-95.895047v-96.195899c0-52.961212 42.895973-95.895047 95.81216-95.895048h44.037982c-28.694529-49.070602-21.976524-113.168456 19.98517-155.130149 49.984415-49.984415 131.047662-49.962925 181.063799 0.053212L512.069585 207.693296 634.519428 85.24243c50.01409-50.01409 131.181715-49.936319 181.063799-0.053212 42.045605 42.045605 48.708352 106.080014 19.995403 155.130149h45.283346c52.915164 0 95.812159 43.113937 95.812159 95.895048v96.195899c0 52.961212-42.895973 95.895047-95.812159 95.895047h-32.180934z" /></svg>