<?xml version="1.0" standalone="no"?><!DOCTYPE svg PUBLIC "-//W3C//DTD SVG 1.1//EN" "http://www.w3.org/Graphics/SVG/1.1/DTD/svg11.dtd"><svg class="icon" width="200px" height="200.00px" viewBox="0 0 1024 1024" version="1.1" xmlns="http://www.w3.org/2000/svg"><path fill="#7766729|-1,7766730|-1,7766731|-1,7766732|-1,7766733|-1,7766734|-1,7766735|-1,7766736|-1,7766737|-1,7766738|-1,7766739|-1,7766740|-1,7766741|-1,7766742|-1,7766743|-1,7766744|-1,7766745|-1,7766746|-1,7766747|-1,7766748|-1" d="M880.859929 255.664867h-45.279253C864.290555 206.614731 857.626785 142.580323 815.58118 100.533694c-24.944112-24.944112-57.70833-37.433564-90.496084-37.433564-32.771381 0-65.559135 12.483312-90.565668 37.488823L512.072655 223.039819 389.617695 100.588953c-25.021883-25.019837-57.794287-37.527708-90.582041-37.527709-32.748868 0-65.5049 12.493545-90.479711 37.47245-41.958624 41.962717-48.677653 106.061594-19.983123 155.131173H144.535861c-52.919257 0-95.815229 42.933835-95.81523 95.896071v96.194876c0 52.78111 42.895973 95.89607 95.81523 95.89607h32.177863v320.002175c0 52.960189 43.107797 95.977935 96.27674 95.977935h479.414861c53.216016 0 96.27674-42.970674 96.276741-95.977935V543.651884h32.177863c52.919257 0 95.815229-42.933835 95.815229-95.89607v-96.194876c0-52.780087-42.895973-95.89607-95.815229-95.896071zM679.775144 145.840576c12.499685-12.499685 28.912493-18.742876 45.326325-18.742876 16.390295 0 32.772404 6.233981 45.232181 18.690687 24.982998 24.987091 24.975834 65.530482-0.054235 90.558506l-19.318998 19.318998H569.944713l109.830431-109.825315z m-425.963484-0.053212c12.483312-12.485359 28.850072-18.729573 45.23218-18.729573 16.397459 0 32.803103 6.261611 45.326325 18.782785l109.823268 109.824291H273.177729l-19.318997-19.318997c-24.982998-24.982998-24.975834-65.63179-0.047072-90.558506z m530.872836 717.866695c0 17.633612-14.483876 31.981389-32.279171 31.981388H272.990464c-17.796318 0-32.280194-14.346753-32.280194-31.981388V543.651884h239.98884v255.987209c0 17.672498 14.32731 31.998785 31.998785 31.998785s31.998785-14.325263 31.998785-31.998785V543.651884H784.685519v320.002175z m127.994116-415.898245c0 17.588587-14.273075 31.898501-31.818683 31.8985H544.695656v-95.995331c0-17.672498-14.32731-31.998785-31.998784-31.998785s-31.998785 14.325263-31.998785 31.998785v95.995331H144.535861c-17.545608 0-31.818683-14.309914-31.818683-31.8985v-96.194876c0-17.588587 14.273075-31.898501 31.818683-31.898501H880.859929c17.545608 0 31.818683 14.309914 31.818683 31.898501v96.194876z" /></svg>