<?xml version="1.0" standalone="no"?><!DOCTYPE svg PUBLIC "-//W3C//DTD SVG 1.1//EN" "http://www.w3.org/Graphics/SVG/1.1/DTD/svg11.dtd"><svg class="icon" width="200px" height="200.00px" viewBox="0 0 1024 1024" version="1.1" xmlns="http://www.w3.org/2000/svg"><path fill="#7766729|-1,7766730|-1,7766731|-1,7766732|-1,7766733|-1,7766734|-1,7766735|-1,7766736|-1,7766737|-1,7766738|-1,7766739|-1,7766740|-1,7766741|-1,7766742|-1,7766743|-1,7766744|-1,7766745|-1,7766746|-1,7766747|-1,7766748|-1" d="M782.188652 812.839743c96.370885 0 174.494173-78.124312 174.494173-174.494173 0-96.370885-78.123288-174.494173-174.494173-174.494173S607.694479 541.974685 607.694479 638.34557c0 96.370885 78.123288 174.494173 174.494173 174.494173z m-539.346835 0c96.370885 0 174.494173-78.124312 174.494173-174.494173 0-96.370885-78.123288-174.494173-174.494173-174.494173-96.370885 0-174.494173 78.123288-174.494173 174.494173 0 96.370885 78.123288 174.494173 174.494173 174.494173z m649.828089-385.29218L810.298873 249.075799c-14.685467-31.818683-52.384068-45.706995-84.20275-31.021528-0.907673 0.424672-0.907673 0.424672-1.807159 0.868787l-38.944987 19.48989c-15.668865 7.841595-34.728966 1.496074-42.570561-14.173814-7.841595-15.668865-1.496074-34.728966 14.173814-42.570561l38.944987-19.48989c1.797949-0.88823 1.797949-0.88823 3.613294-1.737574 63.637366-29.370935 139.034567-1.592264 168.405501 62.044078l149.191904 323.249125c5.28333 11.447726 3.169179 24.418133-4.359284 33.528628 4.826935 18.891256 7.392364 38.687114 7.392364 59.08263 0 131.415029-106.532315 237.947344-237.947344 237.947343S544.241308 769.759575 544.241308 638.34557c0-5.330402 0.174985-10.619872 0.51984-15.863293h-0.51984c0-17.522072-14.204513-31.726585-31.726585-31.726585s-31.726585 14.204513-31.726585 31.726585h-0.51984a241.694691 241.694691 0 0 1 0.51984 15.863293c0 131.415029-106.532315 237.947344-237.947344 237.947343S4.894474 769.759575 4.894474 638.34557c0-20.357654 2.556219-40.117696 7.365758-58.978253-7.599072-9.115612-9.750061-22.141276-4.446266-33.633005l149.191904-323.249125c29.370935-63.637366 104.768135-91.415013 168.405501-62.044078 1.815345 0.849344 1.815345 0.849344 3.613294 1.737574l38.944988 19.48989c15.668865 7.841595 22.014386 26.900673 14.173814 42.570561-7.841595 15.668865-26.900673 22.014386-42.570561 14.173814l-38.944988-19.48989c-0.898463-0.444115-0.898463-0.444115-1.807158-0.868787-31.818683-14.685467-69.517283-0.796132-84.202751 31.021528l-82.407871 178.550558c33.050744-17.388019 70.691015-27.228131 110.630656-27.228131 97.355305 0 181.054589 58.467623 217.900775 142.204769 14.901385-9.67843 32.680307-15.299451 51.773154-15.299451 19.091824 0 36.871769 5.621021 51.773154 15.299451 36.846186-83.737146 120.54547-142.204769 217.900775-142.204769 39.879266 0 77.466326 9.810437 110.481254 27.149337z" /></svg>