<?xml version="1.0" standalone="no"?><!DOCTYPE svg PUBLIC "-//W3C//DTD SVG 1.1//EN" "http://www.w3.org/Graphics/SVG/1.1/DTD/svg11.dtd"><svg class="icon" width="200px" height="200.00px" viewBox="0 0 1024 1024" version="1.1" xmlns="http://www.w3.org/2000/svg"><path fill="#7766729|-1,7766730|-1,7766731|-1,7766732|-1,7766733|-1,7766734|-1,7766735|-1,7766736|-1,7766737|-1,7766738|-1,7766739|-1,7766740|-1,7766741|-1,7766742|-1,7766743|-1,7766744|-1,7766745|-1,7766746|-1,7766747|-1,7766748|-1" d="M128.018675 639.994116h767.96265v63.996546H128.018675v-63.996546z m703.966103-351.983563c-17.672498 0-31.998785-14.326287-31.998785-31.998785s14.326287-31.998785 31.998785-31.998785h31.998785c53.016471 0 95.995331 42.97886 95.995331 95.995331v543.974226c0 53.016471-42.97886 95.995331-95.995331 95.995331H160.016437c-53.016471 0-95.995331-42.97886-95.995331-95.995331V320.009338c0-53.016471 42.97886-95.995331 95.995331-95.995331h31.998785c17.672498 0 31.998785 14.326287 31.998785 31.998784s-14.326287 31.998785-31.998785 31.998785h-31.998785c-17.672498 0-31.998785 14.326287-31.998785 31.998785v543.974225c0 17.672498 14.326287 31.998785 31.998785 31.998785h703.966103c17.672498 0 31.998785-14.326287 31.998785-31.998785V320.009338c0-17.672498-14.326287-31.998785-31.998785-31.998785h-31.997762zM512 480.001215c-26.508747 0-47.998177-21.48943-47.998177-47.998177s21.48943-47.998177 47.998177-47.998177 47.998177 21.48943 47.998177 47.998177c-0.001023 26.508747-21.48943 47.998177-47.998177 47.998177z m135.75794-199.754486c12.495592 12.495592 12.495592 32.756031 0 45.252646-12.495592 12.496615-32.756031 12.496615-45.252647 0-23.162536-23.162536-55.161321-37.488823-90.505293-37.488822s-67.342758 14.326287-90.505293 37.488822c-12.495592 12.496615-32.756031 12.496615-45.252647 0-12.495592-12.495592-12.495592-32.756031 0-45.252646 34.743292-34.743292 82.741469-56.232722 135.75794-56.232722s101.014648 21.488407 135.75794 56.232722z m113.131617-113.131617c12.496615 12.495592 12.496615 32.756031 0 45.252647-12.495592 12.495592-32.756031 12.495592-45.252647 0-52.114938-52.114938-124.111692-84.349083-203.63691-84.349084s-151.521972 32.234145-203.63691 84.349084c-12.496615 12.495592-32.756031 12.495592-45.252647 0-12.496615-12.496615-12.496615-32.756031 0-45.252647C326.806137 103.418394 414.802284 64.021106 512 64.021106s185.192839 39.397289 248.889557 103.094006z" /></svg>