<?xml version="1.0" standalone="no"?><!DOCTYPE svg PUBLIC "-//W3C//DTD SVG 1.1//EN" "http://www.w3.org/Graphics/SVG/1.1/DTD/svg11.dtd"><svg class="icon" width="200px" height="200.00px" viewBox="0 0 1024 1024" version="1.1" xmlns="http://www.w3.org/2000/svg"><path fill="#7766729|-1,7766730|-1,7766731|-1,7766732|-1,7766733|-1,7766734|-1,7766735|-1,7766736|-1,7766737|-1,7766738|-1,7766739|-1,7766740|-1,7766741|-1,7766742|-1,7766743|-1,7766744|-1,7766745|-1,7766746|-1,7766747|-1,7766748|-1" d="M242.7313 975.97624h-5.436826c-86.714967 0-157.273976-70.559009-157.273976-157.273976V205.294666c0-86.714967 70.559009-157.273976 157.273976-157.273976h5.436826c86.714967 0 157.273976 70.559009 157.273976 157.273976v82.183768c6.687306 4.90573 18.811438 11.780301 41.841968 19.092847 14.655791 4.750187 28.28009 8.43716 40.653908 11.780301 45.747927 12.374842 97.620341 26.436092 93.276407 83.714633-3.90596 50.997488-44.559868 60.059887-83.839477 68.840878-16.874319 3.781116-35.997865 8.061606-59.21566 15.436574-12.717649 3.937682-23.779589 8.999978-32.717146 14.874779v317.484841c0 86.713944-70.559009 157.272953-157.273976 157.272953z m-5.436826-863.95798c-51.435463 0-93.276407 41.841967-93.276406 93.276406v613.407598c0 51.435463 41.841967 93.276407 93.276406 93.276406h5.436826c51.435463 0 93.276407-41.841967 93.276407-93.276406V471.593731l10.468422-9.531073c18.186198-16.468067 40.373523-28.499078 67.090001-36.779672 25.686009-8.15575 47.15395-12.968359 64.402799-16.811897 13.780865-3.093455 30.90487-6.906294 34.748409-9.937327l-0.750084-3.155876c-3.90596-3.811816-28.342512-10.4367-46.216601-15.249309-13.249769-3.593851-27.873838-7.562233-43.466977-12.624529-25.717731-8.187473-45.466518-17.530258-60.247153-28.529777-9.0624-6.468318-16.999163-15.561417-22.405289-25.904996l-3.624551-6.936993v-100.838639c0-51.435463-41.841967-93.276407-93.276406-93.276407h-5.435803zM783.986601 975.97624c-88.214111 0-159.991878-71.777767-159.991877-159.991877v-86.777389a16.21224 16.21224 0 0 0-2.437516-2.156106c-7.280824-5.436826-20.780279-13.280468-46.2473-21.467941-15.936971-5.187139-30.780027-9.217942-44.217061-12.874216-48.466851-13.187347-103.370299-28.155247-98.839099-87.870279 4.062526-53.435003 47.029106-63.153342 88.589664-72.55855 17.405415-3.937682 39.092343-8.843412 64.340377-16.96744 15.280008-4.780887 28.467355-11.093662 38.810935-18.467607V208.013591c0-88.214111 71.777767-159.991878 159.991877-159.991878s159.991878 71.777767 159.991878 159.991878v607.970772c0.001023 88.214111-71.776743 159.991878-159.991878 159.991877zM496.501004 605.963045c0.094144 0.124843-0.249687 1.343601-0.437975 3.749394 4.249791 8.280594 31.779797 15.780405 51.841716 21.248953 14.34266 3.90596 30.154787 8.218172 47.059805 13.718443 27.530007 8.843412 48.684816 18.936281 64.528666 30.842449 11.218506 8.093329 20.342304 19.467377 25.936719 32.56058l2.562358 6.031367v101.870132c0 52.934606 43.060725 95.995331 95.995331 95.995331s95.995331-43.060725 95.995332-95.995331V208.013591c0-52.934606-43.060725-95.995331-95.995332-95.995331s-95.995331 43.060725-95.995331 95.995331V524.529361l-8.937556 9.280364a76.153424 76.153424 0 0 1-4.281513 4.155646c-17.968234 16.436344-41.717124 29.436426-70.246901 38.34226-27.717272 8.905834-50.935066 14.155395-69.559239 18.374487-15.249309 3.469008-34.153868 7.749498-38.46608 11.280927z" /></svg>