<?xml version="1.0" standalone="no"?><!DOCTYPE svg PUBLIC "-//W3C//DTD SVG 1.1//EN" "http://www.w3.org/Graphics/SVG/1.1/DTD/svg11.dtd"><svg class="icon" width="200px" height="200.00px" viewBox="0 0 1024 1024" version="1.1" xmlns="http://www.w3.org/2000/svg"><path fill="#7766769|-1,7766770|-1,7766771|-1,7766772|-1,7766773|-1,7766774|-1,7766775|-1,7766776|-1,7766777|-1,7766778|-1,7766779|-1,7766780|-1,7766781|-1,7766782|-1,7766783|-1,7766784|-1,7766785|-1,7766786|-1,7766787|-1,7766788|-1" d="M734.085074 448.546829h31.726586c17.522072 0 31.726585 14.204513 31.726585 31.726586v31.726585c0 17.522072-14.204513 31.726585-31.726585 31.726585h-31.726586c-17.522072 0-31.726585-14.204513-31.726585-31.726585v-31.726585c0-17.522072 14.205537-31.726585 31.726585-31.726586z m0-158.632927h31.726586c17.522072 0 31.726585 14.204513 31.726585 31.726586v31.726585c0 17.522072-14.204513 31.726585-31.726585 31.726585h-31.726586c-17.522072 0-31.726585-14.204513-31.726585-31.726585v-31.726585c0-17.522072 14.205537-31.726585 31.726585-31.726586z m-158.631903 158.632927h31.726585c17.522072 0 31.726585 14.204513 31.726586 31.726586v31.726585c0 17.522072-14.204513 31.726585-31.726586 31.726585h-31.726585c-17.522072 0-31.726585-14.204513-31.726586-31.726585v-31.726585c0-17.522072 14.204513-31.726585 31.726586-31.726586z m0-158.632927h31.726585c17.522072 0 31.726585 14.204513 31.726586 31.726586v31.726585c0 17.522072-14.204513 31.726585-31.726586 31.726585h-31.726585c-17.522072 0-31.726585-14.204513-31.726586-31.726585v-31.726585c0-17.522072 14.204513-31.726585 31.726586-31.726586zM353.367073 638.906342h317.264831c17.522072 0 31.726585 14.204513 31.726585 31.726585v31.726585c0 17.522072-14.204513 31.726585-31.726585 31.726586H353.367073c-17.522072 0-31.726585-14.204513-31.726585-31.726586v-31.726585c0-17.522072 14.204513-31.726585 31.726585-31.726585z m63.453171-190.359513h31.726585c17.522072 0 31.726585 14.204513 31.726586 31.726586v31.726585c0 17.522072-14.204513 31.726585-31.726586 31.726585h-31.726585c-17.522072 0-31.726585-14.204513-31.726586-31.726585v-31.726585c0-17.522072 14.204513-31.726585 31.726586-31.726586z m0-158.632927h31.726585c17.522072 0 31.726585 14.204513 31.726586 31.726586v31.726585c0 17.522072-14.204513 31.726585-31.726586 31.726585h-31.726585c-17.522072 0-31.726585-14.204513-31.726586-31.726585v-31.726585c0-17.522072 14.204513-31.726585 31.726586-31.726586z m-158.632927 158.632927h31.726585c17.522072 0 31.726585 14.204513 31.726586 31.726586v31.726585c0 17.522072-14.204513 31.726585-31.726586 31.726585h-31.726585c-17.522072 0-31.726585-14.204513-31.726585-31.726585v-31.726585c0-17.522072 14.204513-31.726585 31.726585-31.726586z m0-158.632927h31.726585c17.522072 0 31.726585 14.204513 31.726586 31.726586v31.726585c0 17.522072-14.204513 31.726585-31.726586 31.726585h-31.726585c-17.522072 0-31.726585-14.204513-31.726585-31.726585v-31.726585c0-17.522072 14.204513-31.726585 31.726585-31.726586z m253.812683 697.983855c262.831081 0 475.897757-213.066677 475.897757-475.897757S774.831081 36.102243 512 36.102243 36.102243 249.168919 36.102243 512 249.168919 987.897757 512 987.897757z m0 31.726586c-280.353153 0-507.624343-227.27119-507.624343-507.624343S231.646847 4.375657 512 4.375657s507.624343 227.27119 507.624343 507.624343-227.27119 507.624343-507.624343 507.624343z" /></svg>