<?xml version="1.0" standalone="no"?><!DOCTYPE svg PUBLIC "-//W3C//DTD SVG 1.1//EN" "http://www.w3.org/Graphics/SVG/1.1/DTD/svg11.dtd"><svg class="icon" width="200px" height="200.00px" viewBox="0 0 1024 1024" version="1.1" xmlns="http://www.w3.org/2000/svg"><path fill="#7766729|-1,7766730|-1,7766731|-1,7766732|-1,7766733|-1,7766734|-1,7766735|-1,7766736|-1,7766737|-1,7766738|-1,7766739|-1,7766740|-1,7766741|-1,7766742|-1,7766743|-1,7766744|-1,7766745|-1,7766746|-1,7766747|-1,7766748|-1" d="M512 987.897757c262.831081 0 475.897757-213.066677 475.897757-475.897757S774.831081 36.102243 512 36.102243 36.102243 249.168919 36.102243 512 249.168919 987.897757 512 987.897757z m0 31.726586c-280.353153 0-507.624343-227.27119-507.624343-507.624343S231.646847 4.375657 512 4.375657s507.624343 227.27119 507.624343 507.624343-227.27119 507.624343-507.624343 507.624343z m-31.726585-539.350928V257.978563c0-17.406438 14.081717-31.516808 31.726585-31.516808 17.522072 0 31.726585 14.116509 31.726585 31.516808v222.294852h222.294852c17.406438 0 31.516808 14.081717 31.516808 31.726585 0 17.522072-14.116509 31.726585-31.516808 31.726585H543.726585v222.294852c0 17.406438-14.081717 31.516808-31.726585 31.516808-17.522072 0-31.726585-14.116509-31.726585-31.516808V543.726585H257.978563c-17.406438 0-31.516808-14.081717-31.516808-31.726585 0-17.522072 14.116509-31.726585 31.516808-31.726585h222.294852z" /></svg>