<?xml version="1.0" standalone="no"?><!DOCTYPE svg PUBLIC "-//W3C//DTD SVG 1.1//EN" "http://www.w3.org/Graphics/SVG/1.1/DTD/svg11.dtd"><svg class="icon" width="200px" height="200.00px" viewBox="0 0 1024 1024" version="1.1" xmlns="http://www.w3.org/2000/svg"><path fill="#7772182|-1,7772183|-1,7772184|-1,7772185|-1,7772186|-1,7772187|-1,7772188|-1,7772189|-1,7772190|-1,7772191|-1,7772192|-1,7772193|-1,7772194|-1,7772195|-1,7772196|-1,7772197|-1,7772198|-1,7772199|-1,7772200|-1,7772201|-1" d="M262.58958 63.674205h498.170017c42.141796 0 79.356372 27.486004 91.749634 67.76436l107.143229 348.215749v383.981325c0 53.016471-42.97886 95.995331-95.995332 95.995331H159.691025c-53.016471 0-95.995331-42.97886-95.995331-95.995331V479.654314l107.143229-348.215749c12.393261-40.278355 49.607838-67.76436 91.750657-67.76436z m564.157917 415.980109L728.760812 191.668321H294.588365L196.60168 479.654314h187.079816c17.672498 0 31.998785 14.326287 31.998785 31.998785 0 53.016471 42.97886 95.995331 95.995331 95.995331s95.995331-42.97886 95.995331-95.995331c0-17.672498 14.326287-31.998785 31.998785-31.998785h187.077769z" /></svg>