<?xml version="1.0" standalone="no"?><!DOCTYPE svg PUBLIC "-//W3C//DTD SVG 1.1//EN" "http://www.w3.org/Graphics/SVG/1.1/DTD/svg11.dtd"><svg class="icon" width="200px" height="200.00px" viewBox="0 0 1024 1024" version="1.1" xmlns="http://www.w3.org/2000/svg"><path fill="#7772202|-1,7772203|-1,7772204|-1,7772205|-1,7772206|-1,7772207|-1,7772208|-1,7772209|-1,7772210|-1,7772211|-1,7772212|-1,7772213|-1,7772214|-1,7772215|-1,7772216|-1,7772217|-1,7772218|-1,7772219|-1,7772220|-1,7772221|-1" d="M631.899764 721.519898l-5.358031 6.12244-35.928281 111.082958c-6.337335 19.596314 4.048199 30.240745 23.25975 23.7581l102.912881-34.729989 10.959609-12.523221c-0.020466-1.238201 0.674359-2.566452 2.366908-3.941776 5.606695-4.552689 7.108908-9.462512 4.508687-14.730492l-85.779666-80.518848c-6.735401-2.039449-12.368702-0.161682-16.898878 5.6333l-0.042979-0.152472z m-409.833109 254.097162h-47.105854c-26.03598 0-47.045479-21.453614-46.943149-47.91836V95.937003c0.102331-26.354228 21.283746-47.917336 47.312562-47.91529h46.736441v927.595347z m65.943898 0.001023V48.021713l592.480986 0.060375c26.037003 0.00307 47.045479 21.457708 46.943148 47.919383l-1.11438 289.113677-132.669602 151.570067-103.524818 118.29829c-2.816139 7.15598-1.533936 13.220093 3.847631 18.192338 0.667196 0.615007 1.073448 1.154289 1.251503 1.62194l72.367191 66.335824c10.089799 4.827959 18.430768 4.494361 25.021884-1.001816 0.689708-0.574075 1.356904-1.006933 2.004656-1.314949l89.27835-102.018511 41.640376-47.571459-1.304716 338.474898c-0.102331 26.353205-21.283746 47.914266-47.312562 47.914266l-592.150458 0.002047h3.240811z" /></svg>