<?xml version="1.0" standalone="no"?><!DOCTYPE svg PUBLIC "-//W3C//DTD SVG 1.1//EN" "http://www.w3.org/Graphics/SVG/1.1/DTD/svg11.dtd"><svg class="icon" width="200px" height="200.00px" viewBox="0 0 1024 1024" version="1.1" xmlns="http://www.w3.org/2000/svg"><path fill="#7772202|-1,7772203|-1,7772204|-1,7772205|-1,7772206|-1,7772207|-1,7772208|-1,7772209|-1,7772210|-1,7772211|-1,7772212|-1,7772213|-1,7772214|-1,7772215|-1,7772216|-1,7772217|-1,7772218|-1,7772219|-1,7772220|-1,7772221|-1" d="M352.007099 288.010553c-35.344996 0-63.996546-28.652574-63.996546-63.996546s28.652574-63.996546 63.996546-63.996547c35.344996 0 63.996546 28.652574 63.996547 63.996547s-28.65155 63.996546-63.996547 63.996546z m-31.997761 639.969556h383.981324c17.672498 0 31.998785 14.326287 31.998785 31.998785s-14.326287 31.998785-31.998785 31.998785H320.009338c-17.672498 0-31.998785-14.326287-31.998785-31.998785s14.326287-31.998785 31.998785-31.998785z m511.97544-471.61829V128.018675c0-17.672498-14.326287-31.998785-31.998785-31.998784H224.014007c-17.672498 0-31.998785 14.326287-31.998785 31.998784v371.002732l74.075089-73.701582c12.414751-12.352329 32.453133-12.429077 44.963051-0.172939l108.018156 105.828281 233.592152-233.592153c13.256932-13.256932 35.020608-12.32777 47.098691 2.01182l132.222417 156.966985zM128.018675 576.11832V128.018675c0-53.016471 42.97886-95.995331 95.995332-95.995331h575.971986c53.016471 0 95.995331 42.97886 95.995332 95.995331v671.967318c0 53.016471-42.97886 95.995331-95.995332 95.995332H224.014007c-53.016471 0-95.995331-42.97886-95.995332-95.995332V576.11832z" /></svg>