<?xml version="1.0" standalone="no"?><!DOCTYPE svg PUBLIC "-//W3C//DTD SVG 1.1//EN" "http://www.w3.org/Graphics/SVG/1.1/DTD/svg11.dtd"><svg class="icon" width="200px" height="200.00px" viewBox="0 0 1024 1024" version="1.1" xmlns="http://www.w3.org/2000/svg"><path fill="#7766769|-1,7766770|-1,7766771|-1,7766772|-1,7766773|-1,7766774|-1,7766775|-1,7766776|-1,7766777|-1,7766778|-1,7766779|-1,7766780|-1,7766781|-1,7766782|-1,7766783|-1,7766784|-1,7766785|-1,7766786|-1,7766787|-1,7766788|-1" d="M407.300426 781.594111c-9.749038 6.930853-22.77061-2.255367-19.581987-13.814633l35.159778-127.476324-98.279351-82.344426c-9.119705-7.641027-3.739161-22.548552 8.138354-22.548552h125.283378l41.924855-126.670981c3.853771-11.643178 20.255323-11.643178 24.109094 0l41.924855 126.670981h125.283378c11.876492 0 17.257036 14.907525 8.138354 22.548552l-98.279351 82.344426 35.159778 127.476324c3.188622 11.559267-9.832949 20.745487-19.581987 13.814633l-104.698551-74.431199L407.300426 781.594111zM357.381503 65.774029c-9.80225-14.703887-5.829775-34.571377 8.875135-44.373626 14.703887-9.803273 34.571377-5.829775 44.373627 8.874111l63.996546 95.995331c9.80225 14.703887 5.829775 34.571377-8.875135 44.373627-14.703887 9.80225-34.571377 5.829775-44.373626-8.875135l-63.996547-95.994308z m534.039969-1.286296l-95.995331 159.991878c-9.092076 15.154141-28.747741 20.067035-43.901882 10.974959-15.154141-9.092076-20.067035-28.747741-10.974959-43.901883L836.544631 31.561833C845.636706 16.407692 865.292372 11.494799 880.446513 20.586874c15.153118 9.092076 20.067035 28.746718 10.974959 43.900859z m-379.421472 879.493816c194.394409 0 351.983563-157.588131 351.983563-351.98254s-157.589155-351.983563-351.983563-351.983563-351.983563 157.588131-351.983563 351.982539 157.588131 351.983563 351.983563 351.983564z m111.452371-752.863767C799.071158 239.838414 927.979086 400.86383 927.979086 591.999009c0 229.739405-186.240705 415.980109-415.980109 415.980109s-415.979086-186.241728-415.979086-415.981133c0-129.396045 59.080583-244.992807 151.737889-321.286423L101.979626 66.623373c-10.271948-14.380522-6.941086-34.364669 7.439436-44.636616 14.380522-10.271948 34.364669-6.941086 44.636616 7.439436l146.08003 204.511837c62.052265-36.795021 134.491087-57.919131 211.863269-57.919131 15.023158 0 29.859052 0.796132 44.469817 2.349511L644.553968 31.561833C653.646044 16.407692 673.301709 11.494799 688.455851 20.586874c15.154141 9.092076 20.067035 28.747741 10.974959 43.901883l-75.978439 126.629025z" /></svg>