<?xml version="1.0" standalone="no"?><!DOCTYPE svg PUBLIC "-//W3C//DTD SVG 1.1//EN" "http://www.w3.org/Graphics/SVG/1.1/DTD/svg11.dtd"><svg class="icon" width="200px" height="200.00px" viewBox="0 0 1024 1024" version="1.1" xmlns="http://www.w3.org/2000/svg"><path fill="#7772202|-1,7772203|-1,7772204|-1,7772205|-1,7772206|-1,7772207|-1,7772208|-1,7772209|-1,7772210|-1,7772211|-1,7772212|-1,7772213|-1,7772214|-1,7772215|-1,7772216|-1,7772217|-1,7772218|-1,7772219|-1,7772220|-1,7772221|-1" d="M783.110651 276.812513c-55.828516-46.806026-123.665531-79.757508-198.221574-93.561909l-42.85811-58.930157 57.541531-79.119989a31.998785 31.998785 0 0 1 25.87839-13.178137h272.851295a31.998785 31.998785 0 0 1 18.820648 6.120394c14.292518 10.394744 17.452487 30.40652 7.057743 44.699038L783.110651 276.812513z m-261.140579-100.683097c-3.314489-0.074701-6.638187-0.112564-9.970072-0.112563-103.08889 0-197.74369 36.110429-272.005021 96.372931L102.142331 82.841753c-10.394744-14.292518-7.234775-34.304294 7.057743-44.699038a31.998785 31.998785 0 0 1 18.820648-6.120394h272.851295a31.999808 31.999808 0 0 1 25.87839 13.178137l95.219665 130.928958zM407.300426 797.590434l104.698551-74.4312 104.69855 74.4312c9.749038 6.930853 22.77061-2.255367 19.581987-13.814634L601.12076 656.3005l98.279351-82.343403c9.119705-7.641027 3.739161-22.548552-8.138354-22.548552h-125.283378l-41.924855-126.670981c-3.853771-11.643178-20.255323-11.643178-24.109094 0l-41.924855 126.670981h-125.283378c-11.876492 0-17.257036 14.907525-8.138354 22.548552l98.27935 82.343403-35.159777 127.476323c-3.186576 11.559267 9.833973 20.744463 19.58301 13.813611z m104.699574 194.386222c-212.066907 0-383.981325-171.914418-383.981325-383.981325s171.914418-383.981325 383.981325-383.981324 383.981325 171.914418 383.981325 383.981324-171.914418 383.981325-383.981325 383.981325z" /></svg>