<?xml version="1.0" standalone="no"?><!DOCTYPE svg PUBLIC "-//W3C//DTD SVG 1.1//EN" "http://www.w3.org/Graphics/SVG/1.1/DTD/svg11.dtd"><svg class="icon" width="200px" height="200.00px" viewBox="0 0 1024 1024" version="1.1" xmlns="http://www.w3.org/2000/svg"><path fill="#7772202|-1,7772203|-1,7772204|-1,7772205|-1,7772206|-1,7772207|-1,7772208|-1,7772209|-1,7772210|-1,7772211|-1,7772212|-1,7772213|-1,7772214|-1,7772215|-1,7772216|-1,7772217|-1,7772218|-1,7772219|-1,7772220|-1,7772221|-1" d="M290.008047 241.165642c-14.97711 31.779797-17.933441 69.472258-17.349134 113.210411 0 14.937201-15.373129 7.427156-15.373129 29.956266 0 22.530133 7.686053 67.106374 30.746258 97.387027 23.059182 30.280654 30.746258 37.789675 46.119387 60.319807 15.373129 22.529109 23.059182 47.588855 23.059182 67.588352 0 75.098395-129.08496 80.647785-203.142653 128.074957-31.009248 19.85828-52.248991 45.952588-63.720254 78.281901H33.426297c-17.671475 0-31.997762-14.326287-31.997762-31.997762 0-2.800789 0.367367-5.590322 1.093915-8.295943 8.018627-29.872355 25.826202-53.556777 53.420677-71.055313 58.533115-37.116339 160.558789-41.459251 160.558789-100.231819 0-15.652492-6.075369-35.263132-18.225084-52.89572-12.150738-17.631566-18.225083-23.509437-36.45119-47.207162-18.225083-23.697725-24.300452-58.58428-24.300452-76.215845 0-17.631566 12.150738-11.754718 12.150738-23.443945-0.846274-62.701041 7.699356-109.526509 66.827011-141.120065 12.102642-6.466272 40.770566-9.875928 54.459333-9.875928 12.149714-1.230014 4.708232-9.416464 19.045775-12.479219z m47.267536 99.504248c-1.164522-87.084381 10.588149-152.120606 91.90313-195.998953 16.643052-8.980535 56.070017-13.71742 74.894757-13.717419 20.623713-2.109034 0.205685-18.934235 45.703925-18.934235 45.49824 0 108.773356 20.045545 139.01717 82.09167 30.244838 62.046125 32.804127 130.143059 32.804127 146.468886 0 16.325827 16.709567 8.162914 16.709567 32.651654s-7.208169 72.942289-32.846082 105.854886c-25.637913 32.913621-33.992185 41.076534-50.702776 65.565275-16.709567 24.488741-25.064862 51.188846-25.064862 73.466222 0 81.629135 139.655713 87.660502 220.608444 139.211599 43.818995 27.903513 69.692269 67.13605 77.620845 117.695562h0.001023c2.737344 17.45965-9.196453 33.83255-26.656103 36.570917a32.038694 32.038694 0 0 1-4.956895 0.38681H162.500001c-17.672498 0-31.998785-14.326287-31.998785-31.998785 0-1.697665 0.135076-3.39226 0.404206-5.068436 8.101515-50.506301 33.923624-89.701998 77.464279-117.585045 80.497359-51.550073 220.807988-57.582463 220.807989-139.211599 0-21.739117-8.355295-48.977481-25.064862-73.466222-16.709567-24.488741-25.064862-32.651654-50.128701-65.565274-25.064862-32.913621-33.419134-81.367169-33.419134-105.854887 0.001023-24.489764 16.71059-16.32685 16.71059-32.562626z m421.122223-100.481506c32.069393 1.76418 73.350588 17.072841 93.754291 58.930158 21.775956 44.673455 23.61893 93.703125 23.61893 105.457843 0 11.754718 12.031011 5.876847 12.031011 23.509437 0 17.631566-5.189186 52.518121-23.649629 76.215845-18.459421 23.697725-24.474414 29.574572-36.505426 47.207162-12.031011 17.632589-18.046005 36.856419-18.046004 52.895721 0 58.772568 100.552114 63.11548 158.838611 100.231819 27.535123 17.534352 45.228087 41.280172 53.079916 71.239507h-0.001024c4.480035 17.09433-5.744841 34.583656-22.840194 39.064714a32.009018 32.009018 0 0 1-8.111748 1.045819h-28.599362c-11.426237-32.330336-32.731472-58.424644-63.916728-78.282924-74.477248-47.426149-202.960505-52.976562-202.960505-128.074957 0-20.494777 7.686053-45.059242 23.059182-67.588351 15.373129-22.530133 23.059182-30.039153 46.64639-60.319807 23.587208-30.280654 30.218232-74.857918 30.218232-97.387028 0-22.529109-15.373129-15.019065-15.373129-30.039153 0-13.223163-1.824555-63.35391-21.242814-114.105805z" /></svg>