<?xml version="1.0" standalone="no"?><!DOCTYPE svg PUBLIC "-//W3C//DTD SVG 1.1//EN" "http://www.w3.org/Graphics/SVG/1.1/DTD/svg11.dtd"><svg class="icon" width="200px" height="200.00px" viewBox="0 0 1024 1024" version="1.1" xmlns="http://www.w3.org/2000/svg"><path fill="#7766809|-1,7766810|-1,7766811|-1,7766812|-1,7766813|-1,7766814|-1,7766815|-1,7766816|-1,7766817|-1,7766818|-1,7766819|-1,7766820|-1,7772174|-1,7772175|-1,7772176|-1,7772177|-1,7772178|-1,7772179|-1,7772180|-1,7772181|-1" d="M381.691165 439.844633c10.141988 13.30912 34.540677 43.986817 33.101909 42.13668 1.511423 1.943258 1.517563 1.951445 3.056616 3.952008 5.879917 7.667633 11.293207 15.136745 17.319457 23.962761 23.430642 34.316573 36.788881 74.541717 36.788881 111.160729 0 47.219441-23.793916 83.636862-63.398935 107.129926-23.961738 14.213723-47.488571 21.972431-92.722798 33.505092-2.429329 0.6191-13.484106 3.420913-16.47216 4.184299a1275.563456 1275.563456 0 0 0-15.915481 4.1536c-31.630395 8.508791-52.031027 16.208147-66.868967 25.704428-22.529109 14.418384-37.473473 34.898835-46.042639 64.085574h683.974793c-8.107655-32.151257-23.183002-53.953819-46.323025-68.679195-14.648628-9.322319-34.973536-16.71366-66.085114-24.451902a1116.861968 1116.861968 0 0 0-16.660449-3.987824c-3.53757-0.822738-15.70161-3.622504-17.286711-3.989871-45.255717-10.475586-68.483744-17.572214-92.457762-31.216979-39.950897-22.73684-64.015989-59.069327-64.015989-106.437148 0-37.004799 13.246699-76.68145 36.788881-111.160729 5.966898-8.738012 11.330046-16.141632 17.060561-23.59744 1.753947-2.273786 1.753947-2.273786 3.492544-4.494361 2.036379-2.594081 24.225751-30.04734 33.93795-42.507116 9.851369-12.638855 17.004279-35.112706 19.472494-55.336306-10.168594-12.420891-16.240893-28.022217-16.240893-48.129161 0-11.483542-1.261737-28.559453-4.361331-47.352471-4.487198-27.207665-12.053524-53.06252-22.972201-75.449389-14.8318-30.407544-46.907333-47.485501-81.855286-48.770774-11.411911 10.384511-26.198685 17.147542-44.836161 19.052938l-6.430456 0.327458c-14.960737 0-43.429115 4.592598-47.0025 6.519484-49.688679 26.794249-62.443168 58.895365-61.292972 144.919601l0.00614 0.846274c0 19.998473-6.021134 35.536354-16.101723 47.910173 2.711761 19.700691 10.31902 42.856064 20.343327 56.009641z m-64.915475-167.371961a87.765903 87.765903 0 0 1-8.117888 1.208524l-6.426363 0.327458c-9.31618 0-29.141714 3.195785-29.28907 3.275603-32.550347 17.540492-40.339754 37.128619-39.512922 99.272981 0 16.32992-4.28356 29.645181-11.555174 40.572044 2.28095 11.435447 6.678096 23.747867 11.830443 30.503735 7.698333 10.095939 26.415626 33.611515 25.380041 32.281217 1.199315 1.540076 1.202385 1.545192 2.427282 3.13541 4.688789 6.109138 9.013281 12.071943 13.8044 19.084661 22.343891 32.700773 30.867008 51.554166 30.867009 83.210143 0 42.149982-21.771863 74.758658-57.142442 93.91188-20.086477 10.876722-38.314631 15.885805-74.363661 23.136953-24.490787 4.926196-20.171412 4.046153-26.916023 5.554506-21.488407 4.804423-35.287691 9.622148-44.367487 15.428388-11.43647 7.313569-21.104667 21.312398-27.443026 41.575907 38.34533-0.007163 64.4775-0.008186 78.395488-0.001023 8.41874-8.368598 17.800411-15.862269 28.145014-22.482037 82.781378-52.978609 226.228441-37.521568 226.228441-121.412211 0-22.340821-8.591679-50.334385-25.77606-75.500554-17.183358-25.167193-25.775037-33.556257-51.551096-67.381643-25.77606-33.824363-34.367739-83.620489-34.367739-108.787682 0-25.167193 17.183358-16.778128 17.183358-33.463136-0.303922-22.588461 0.240477-43.73406 2.567475-63.451124z m363.966479-76.216869c23.722284 2.349511 12.031011 13.029758 27.225061 14.511505 15.597233 0 48.26219 3.744277 62.052265 10.843976 67.37141 34.68701 77.108169 86.100984 76.144214 154.944931 0 12.83533 13.84431 6.381337 13.84431 25.741267 0 19.358907-6.922666 57.663304-27.68862 83.682911-20.766976 26.019607-27.688619 32.472576-41.532928 51.831483-13.84431 19.358907-20.765953 30.347169-20.765953 47.533596 0 64.530712 115.018593 44.002167 181.712575 84.755336 37.255509 22.76447 60.084447 66.687842 66.023716 123.327839a30.330796 30.330796 0 0 1 0.164752 3.152807c0 17.46272-14.81645 31.619138-33.092699 31.619138H911.115a223.067448 223.067448 0 0 1 4.716418 16.158005c8.53949 33.866319-11.991102 68.243267-45.85742 76.782757a63.22702 63.22702 0 0 1-15.462157 1.919723H170.537048c-34.926464 0-63.2393-28.313859-63.2393-63.2393 0-6.030343 0.862647-12.028964 2.561336-17.814738a212.366735 212.366735 0 0 1 4.563945-13.806447H37.6986c-17.46272 0-31.619138-14.156418-31.619138-31.619138 0-1.052982 0.052189-2.104941 0.157589-3.152807 5.675256-56.638975 27.487028-100.56337 63.083757-123.327839 63.724347-40.753169 173.621293-20.224624 173.621293-84.755336 0-17.185404-6.613628-28.173666-19.841907-47.532573-13.228279-19.358907-19.841907-25.811876-39.683814-51.831482-19.841907-26.019607-26.455535-64.324004-26.455535-83.682911s13.228279-12.905938 13.228279-25.741268c-0.921999-68.843948 8.381901-120.256898 72.752977-154.944931 13.175067-7.099698 44.38693-10.843976 59.289338-10.843976 16.32685-1.667989 0.162706-14.9679 36.180014-14.9679l-0.092098 4.475942c14.264888-25.556049 36.428677-47.461965 70.39835-65.780169 17.115819-9.229199 57.660234-14.097066 77.019141-14.097067 21.209044-2.167363 0.210801-19.459191 47.000454-19.45919 46.788629 0 111.858624 20.600177 142.960993 84.365456a277.460266 277.460266 0 0 1 5.043876 10.9504z m193.956433 568.692186c15.745612-0.00307 39.110763-0.001023 70.096475 0.005117-6.633071-20.263509-16.752546-34.262338-28.722158-41.575908-9.503445-5.806239-23.945365-10.623965-46.435589-15.428387-7.059789-1.508353-2.537799-0.62831-28.170596-5.554506-37.7293-7.251148-56.805774-12.260232-77.8296-23.136953-37.020148-19.153222-59.806107-51.761897-59.806107-93.91188 0-31.657001 8.92016-50.510394 32.305776-83.211167 5.0142-7.012717 9.540284-12.975523 14.44806-19.084661 1.281179-1.590218 1.285273-1.595334 2.539846-3.13541-1.083681 1.330298 18.505469-22.186302 26.562983-32.28224 5.3918-6.755868 9.994632-19.068288 12.380981-30.503735-7.610328-10.927887-12.093433-24.242124-12.093432-40.572044 0.864694-62.145385-7.286963-81.732489-41.354874-99.272981-0.154519-0.079818-20.903076-3.275603-30.65416-3.275603l-4.489244-0.218988c5.225001 29.643134 5.954619 53.210899 5.954618 62.041008 0 16.778128 17.183358 8.389064 17.183358 33.556257s-7.41283 74.962296-33.777291 108.787682c-26.365484 33.825386-34.957163 42.214451-52.140521 67.381644-17.183358 25.166169-25.77606 52.606125-25.776059 75.500554 0 83.889619 143.968949 63.752999 227.217978 116.730585 12.215206 7.774057 23.067368 16.827247 32.559556 27.161616z" /></svg>