<?xml version="1.0" standalone="no"?><!DOCTYPE svg PUBLIC "-//W3C//DTD SVG 1.1//EN" "http://www.w3.org/Graphics/SVG/1.1/DTD/svg11.dtd"><svg class="icon" width="200px" height="200.00px" viewBox="0 0 1024 1024" version="1.1" xmlns="http://www.w3.org/2000/svg"><path fill="#7772202|-1,7772203|-1,7772204|-1,7772205|-1,7772206|-1,7772207|-1,7772208|-1,7772209|-1,7772210|-1,7772211|-1,7772212|-1,7772213|-1,7772214|-1,7772215|-1,7772216|-1,7772217|-1,7772218|-1,7772219|-1,7772220|-1,7772221|-1" d="M813.248042 897.030214c-22.131043 38.257326-63.495126 63.996546-110.87011 63.996546-47.376007 0-88.74009-25.739221-110.87011-63.996546h221.74022zM63.603597 321.058227a95.993285 95.993285 0 0 1 27.844161-60.35153L259.114432 93.161796a96.000448 96.000448 0 0 1 60.179615-27.78481v215.682248c0 22.090111-17.907858 39.997969-39.99797 39.997969H63.603597z m863.661221-35.640732c-57.794287-57.101509-137.223315-92.353384-224.886886-92.353384-176.722934 0-319.984778 143.261844-319.984779 319.984778 0 72.060199 23.819498 138.557706 64.014966 192.046944 9.734712 12.954033 31.980365 31.942503 31.980366 77.919651v146.013514H159.302169c-53.016471 0-95.995331-42.97886-95.995331-95.995331V385.054773h207.990055c61.85272 0 111.994724-50.142004 111.994723-111.994724V65.069995h447.978895c53.016471 0 95.995331 42.97886 95.995331 95.995331v124.352169zM862.370833 513.048889c0-88.361467-71.631434-159.991878-159.991878-159.991878-17.672498 0-31.998785 14.326287-31.998785 31.998785s14.326287 31.998785 31.998785 31.998785c53.016471 0 95.995331 42.97886 95.995331 95.995331 0 17.672498 14.326287 31.998785 31.998785 31.998785s31.997762-14.328333 31.997762-31.999808z m-415.98011 0c0-141.377938 114.609271-255.987209 255.987209-255.987209s255.988232 114.609271 255.988232 255.987209c0 70.599941-28.579919 134.523833-74.801637 180.834578-6.704702 6.718005-21.193695 20.009729-21.193694 43.403532v63.747883c0 35.344996-28.652574 63.996546-63.996547 63.996547H606.382601c-35.344996 0-63.996546-28.652574-63.996547-63.996547v-63.355956c0-24.235984-15.985066-38.426171-23.311938-45.942355-44.975331-46.12962-72.683393-109.173468-72.683393-178.687682z" /></svg>