<?xml version="1.0" standalone="no"?><!DOCTYPE svg PUBLIC "-//W3C//DTD SVG 1.1//EN" "http://www.w3.org/Graphics/SVG/1.1/DTD/svg11.dtd"><svg class="icon" width="200px" height="200.00px" viewBox="0 0 1024 1024" version="1.1" xmlns="http://www.w3.org/2000/svg"><path fill="#7772202|-1,7772203|-1,7772204|-1,7772205|-1,7772206|-1,7772207|-1,7772208|-1,7772209|-1,7772210|-1,7772211|-1,7772212|-1,7772213|-1,7772214|-1,7772215|-1,7772216|-1,7772217|-1,7772218|-1,7772219|-1,7772220|-1,7772221|-1" d="M288.010553 489.070778c35.344996 0 63.996546-28.652574 63.996546-63.996546s-28.652574-63.996546-63.996546-63.996547c-35.344996 0-63.996546 28.652574-63.996546 63.996547s28.65155 63.996546 63.996546 63.996546z m223.989447 0c35.344996 0 63.996546-28.652574 63.996546-63.996546s-28.652574-63.996546-63.996546-63.996547-63.996546 28.652574-63.996546 63.996547 28.65155 63.996546 63.996546 63.996546z m223.989447 0c35.344996 0 63.996546-28.652574 63.996546-63.996546s-28.652574-63.996546-63.996546-63.996547-63.996546 28.652574-63.996546 63.996547 28.65155 63.996546 63.996546 63.996546zM527.999392 777.057795L317.478701 940.795996c-20.924565 16.274662-51.080376 12.504802-67.355037-8.419763a47.994084 47.994084 0 0 1-10.110265-29.468149V777.057795h-95.995331c-53.016471 0-95.995331-42.97886-95.995331-95.995331V169.087023c0-53.016471 42.97886-95.995331 95.995331-95.995331h735.964888c53.016471 0 95.995331 42.97886 95.995331 95.995331v511.975441c0 53.016471-42.97886 95.995331-95.995331 95.995331H527.999392z" /></svg>