<?xml version="1.0" standalone="no"?><!DOCTYPE svg PUBLIC "-//W3C//DTD SVG 1.1//EN" "http://www.w3.org/Graphics/SVG/1.1/DTD/svg11.dtd"><svg class="icon" width="200px" height="200.00px" viewBox="0 0 1024 1024" version="1.1" xmlns="http://www.w3.org/2000/svg"><path fill="#7772222|-1,7772223|-1,7772224|-1,7772225|-1,7772226|-1,7772227|-1,7772228|-1,7772229|-1,7772230|-1,7772231|-1,7772232|-1,7772233|-1,7772234|-1,7772235|-1,7772236|-1,7772237|-1,7772238|-1,7772239|-1,7772240|-1,7772241|-1" d="M924.444587 131.281999H99.555413c-52.566216 0-95.179756 42.61354-95.179756 95.179756v571.077513c0 52.566216 42.61354 95.179756 95.179756 95.179757h824.889174c52.566216 0 95.179756-42.61354 95.179756-95.179757V226.460732c0-52.565193-42.61354-95.178733-95.179756-95.178733zM163.008584 543.726585h190.359512c17.522072 0 31.726585 14.204513 31.726586 31.726586s-14.204513 31.726585-31.726586 31.726585H163.008584c-17.522072 0-31.726585-14.204513-31.726585-31.726585s14.20349-31.726585 31.726585-31.726586z m380.718001 190.358489H163.008584c-17.522072 0-31.726585-14.204513-31.726585-31.726585s14.204513-31.726585 31.726585-31.726585h380.718001c17.522072 0 31.726585 14.204513 31.726586 31.726585s-14.204513 31.726585-31.726586 31.726585z m334.020447-191.539384a19.023262 19.023262 0 0 1-6.601349 1.180895l-242.358816-0.002046c-10.512425 0-19.034519-8.522094-19.034519-19.034519a19.033495 19.033495 0 0 1 1.191128-6.627954c4.516874-12.158924 12.656251-22.004153 24.419156-29.537733 28.732391-18.400069 78.815043-20.553105 78.815044-49.689703 0-7.759731-2.981914-17.482163-8.946767-26.223245-5.963829-8.741082-8.946766-11.654434-17.893532-23.403012-8.946766-11.748578-11.92868-29.043477-11.92868-37.784558 0-8.741082 5.963829-5.827729 5.963828-11.622712-0.415462-31.083949 3.77907-54.29765 32.804127-69.959352 5.940292-3.206018 20.013823-4.89652 26.732851-4.89652 7.361665-0.753153 0.073678-6.757914 16.313548-6.757914 16.239869 0 38.82526 7.154957 49.621141 29.30135 10.79588 22.147416 11.709693 46.454008 11.709692 52.280713 0 5.827729 5.963829 2.913353 5.963829 11.654435s-2.572592 26.03598-11.724019 37.784558c-9.151427 11.747555-12.133342 14.661931-18.098194 23.403012-5.964852 8.741082-8.946766 18.271132-8.946766 26.223245 0 29.136597 49.848315 31.289634 78.744436 49.689703 11.837606 7.538697 20.006659 17.393135 24.505113 29.563316l0.001023-0.001024c3.64911 9.862625-1.390673 20.813025-11.252274 24.459065z" /></svg>