<?xml version="1.0" standalone="no"?><!DOCTYPE svg PUBLIC "-//W3C//DTD SVG 1.1//EN" "http://www.w3.org/Graphics/SVG/1.1/DTD/svg11.dtd"><svg class="icon" width="200px" height="200.00px" viewBox="0 0 1024 1024" version="1.1" xmlns="http://www.w3.org/2000/svg"><path fill="#7766769|-1,7766770|-1,7766771|-1,7766772|-1,7766773|-1,7766774|-1,7766775|-1,7766776|-1,7766777|-1,7766778|-1,7766779|-1,7766780|-1,7766781|-1,7766782|-1,7766783|-1,7766784|-1,7766785|-1,7766786|-1,7766787|-1,7766788|-1" d="M681.374572 339.802126c-0.415462-31.083949 3.77907-54.29765 32.804127-69.959351 5.940292-3.206018 20.013823-4.89652 26.732851-4.896521 7.361665-0.753153 0.073678-6.757914 16.313547-6.757914 16.239869 0 38.82526 7.154957 49.621141 29.30135 10.79588 22.147416 11.709693 46.454008 11.709693 52.280714s5.963829 2.913353 5.963829 11.654434-2.572592 26.03598-11.72402 37.784558c-9.151427 11.747555-12.133342 14.661931-18.098193 23.403013-5.964852 8.741082-8.946766 18.271132-8.946766 26.223244 0 29.136597 49.848315 31.289634 78.744435 49.689703 11.837606 7.538697 20.006659 17.393135 24.505114 29.563316l0.001023-0.001023c3.64604 9.861602-1.39272 20.812001-11.255345 24.457018a19.023262 19.023262 0 0 1-6.601348 1.180895l-242.358817-0.002047c-10.512425 0-19.034519-8.522094-19.034518-19.034518a19.033495 19.033495 0 0 1 1.191128-6.627954c4.516874-12.158924 12.656251-22.004153 24.419156-29.537734 28.732391-18.400069 78.815043-20.553105 78.815043-49.689702 0-7.759731-2.981914-17.482163-8.946766-26.223245-5.963829-8.741082-8.946766-11.654434-17.893532-23.403013-8.946766-11.748578-11.92868-29.043477-11.92868-37.784558 0.002047-8.739035 5.966898-5.825682 5.966898-11.620665zM163.007561 670.632927h380.718001c17.522072 0 31.726585 14.204513 31.726585 31.726585s-14.204513 31.726585-31.726585 31.726586H163.007561c-17.522072 0-31.726585-14.204513-31.726586-31.726586 0.001023-17.522072 14.204513-31.726585 31.726586-31.726585z m0-126.906342h190.359512c17.522072 0 31.726585 14.204513 31.726585 31.726586s-14.204513 31.726585-31.726585 31.726585H163.007561c-17.522072 0-31.726585-14.204513-31.726586-31.726585s14.204513-31.726585 31.726586-31.726586z m-63.452148-348.992439c-17.522072 0-31.726585 14.204513-31.726585 31.726586v571.077513c0 17.522072 14.204513 31.726585 31.726585 31.726585h824.889174c17.522072 0 31.726585-14.204513 31.726585-31.726585V226.460732c0-17.522072-14.204513-31.726585-31.726585-31.726586H99.555413z m0-63.452147h824.889174c52.566216 0 95.179756 42.61354 95.179756 95.179756v571.077513c0 52.566216-42.61354 95.179756-95.179756 95.179757H99.555413c-52.566216 0-95.179756-42.61354-95.179756-95.179757V226.460732c0-52.565193 42.61354-95.178733 95.179756-95.178733z" /></svg>