<?xml version="1.0" standalone="no"?><!DOCTYPE svg PUBLIC "-//W3C//DTD SVG 1.1//EN" "http://www.w3.org/Graphics/SVG/1.1/DTD/svg11.dtd"><svg class="icon" width="200px" height="200.00px" viewBox="0 0 1024 1024" version="1.1" xmlns="http://www.w3.org/2000/svg"><path fill="#7772202|-1,7772203|-1,7772204|-1,7772205|-1,7772206|-1,7772207|-1,7772208|-1,7772209|-1,7772210|-1,7772211|-1,7772212|-1,7772213|-1,7772214|-1,7772215|-1,7772216|-1,7772217|-1,7772218|-1,7772219|-1,7772220|-1,7772221|-1" d="M787.80558 738.826052c-10.265808-6.936993-22.682605-10.993378-36.058241-10.993379-17.661242 0-31.978319-14.146185-31.978318-31.597648 0-17.450441 14.317077-31.597649 31.978318-31.597649 70.643943 0 127.912251 56.586786 127.912252 126.388548 0 17.450441-14.317077 31.597649-31.978319 31.597649s-31.978319-14.146185-31.978319-31.597649c0-15.799848-5.867638-30.245861-15.56858-41.325197-0.611937 8.880251-4.460592 20.833491-12.159948 32.018228-60.888765 88.442308-161.739684 146.261155-275.849582 146.261154-113.89091 0-214.57196-57.595766-275.497564-145.749501-17.85874-25.839505-15.216563-55.80805 0.414439-42.914392 71.454402 58.94039 168.361499 104.014982 275.083125 104.014981 106.871029 0 203.8999-45.176922 275.382955-104.263645 0.099261-0.081864 0.198521-0.162706 0.297782-0.2415zM96.256274 422.491407v150.502759c18.59859 6.598278 31.91692 24.348548 31.916921 45.208644v93.669357c0 26.486234-21.471011 47.957245-47.957245 47.957245S32.258705 738.359424 32.258705 711.87319v-359.866091c0-23.333428 12.393261-46.666856 37.17876-58.106396l402.570705-185.801706a95.998401 95.998401 0 0 1 80.455404 0l402.570705 185.801706c49.570999 22.87908 49.570999 93.333712 0 116.212792L552.463574 595.915201a95.998401 95.998401 0 0 1-80.455404 0L96.256274 422.491407z" /></svg>