<?xml version="1.0" standalone="no"?><!DOCTYPE svg PUBLIC "-//W3C//DTD SVG 1.1//EN" "http://www.w3.org/Graphics/SVG/1.1/DTD/svg11.dtd"><svg class="icon" width="200px" height="200.00px" viewBox="0 0 1024 1024" version="1.1" xmlns="http://www.w3.org/2000/svg"><path fill="#7772202|-1,7772203|-1,7772204|-1,7772205|-1,7772206|-1,7772207|-1,7772208|-1,7772209|-1,7772210|-1,7772211|-1,7772212|-1,7772213|-1,7772214|-1,7772215|-1,7772216|-1,7772217|-1,7772218|-1,7772219|-1,7772220|-1,7772221|-1" d="M579.520813 629.2801c-32.644491 42.97272-52.019771 96.577592-52.019771 154.706501 0 46.356794 12.32163 89.836051 33.869389 127.340223 6.591115 11.472286-2.818185 32.651654-15.364943 32.651655H112.517633c-35.344996 0-63.99757-28.652574-63.99757-63.99757a63.987337 63.987337 0 0 1 4.994758-24.785499c14.440897-34.376948 38.491663-62.519915 72.151273-84.427878 88.709391-57.736982 243.330958-64.49285 243.330958-155.917073 0-24.347524-9.207709-54.854329-27.621081-82.280981-18.414395-27.427676-27.621081-36.569894-55.242162-73.432453-27.621081-36.863582-36.82879-91.130533-36.82879-118.558209 0-27.427676 18.414395-18.284435 18.414395-36.468587-1.283226-97.535407 11.667737-170.375366 101.277638-219.518622 18.340717-10.0591 61.789275-15.362896 82.534761-15.362896 22.727631-2.362814 0.226151-21.206998 50.365085-21.206998s119.868041 22.450315 153.198148 91.942016 36.150338 145.760758 36.150338 164.045193c0 18.284435 18.414395 9.142218 18.414395 36.569894 0 27.426653-7.942903 81.69565-36.196387 118.558209-28.253484 36.862559-37.46017 46.004777-55.874565 73.432453-16.284895 24.25645-25.369807 50.448996-27.251668 73.440639-0.245593 3.00545-7.466042 18.860557-10.816346 23.269983zM783.488251 975.977263c-106.033965 0-191.990662-85.957721-191.990662-191.990662s85.957721-191.990662 191.990662-191.990662 191.990662 85.956697 191.990662 191.990662-85.956697 191.990662-191.990662 191.990662z m23.89113-167.880545l71.906703 0.064469c13.254885 0.01228 24.00881-10.723226 24.02109-23.977088 0.01228-13.253862-10.723226-24.00881-23.977088-24.020066l-71.906703-0.064469 0.064468-71.906703c0.01228-13.253862-10.723226-24.00881-23.977087-24.020066-13.253862-0.01228-24.00881 10.723226-24.020067 23.977087l-0.064468 71.906704-71.906703-0.064469c-13.253862-0.01228-24.00881 10.723226-24.020067 23.977088-0.01228 13.253862 10.723226 24.00881 23.977088 24.020066l71.906703 0.064469-0.064468 71.906703c-0.01228 13.253862 10.723226 24.00881 23.977087 24.020066 13.253862 0.01228 24.00881-10.723226 24.020067-23.977087l0.063445-71.906704z" /></svg>