<?xml version="1.0" standalone="no"?><!DOCTYPE svg PUBLIC "-//W3C//DTD SVG 1.1//EN" "http://www.w3.org/Graphics/SVG/1.1/DTD/svg11.dtd"><svg class="icon" width="200px" height="200.00px" viewBox="0 0 1024 1024" version="1.1" xmlns="http://www.w3.org/2000/svg"><path fill="#7766769|-1,7766770|-1,7766771|-1,7766772|-1,7766773|-1,7766774|-1,7766775|-1,7766776|-1,7766777|-1,7766778|-1,7766779|-1,7766780|-1,7766781|-1,7766782|-1,7766783|-1,7766784|-1,7766785|-1,7766786|-1,7766787|-1,7766788|-1" d="M594.366939 766.06544c-159.949922-44.407396-286.332331-171.396625-332.337107-334.574055-7.93574-33.57263 0.589424-58.139142 20.833491-76.930114 2.334161-2.166339 8.812713-7.6574 7.883551-6.846941 5.597485-4.881171 10.837836-9.142218 19.834744-16.252149 2.812045-2.220574 2.812045-2.220574 5.558599-4.393054 21.046339-16.672728 30.17116-25.720801 34.406624-34.540677 5.409197-11.263531-8.538467-51.386344-40.708144-92.706425-37.842887-48.608068-70.305229-71.802326-98.924033-71.802326-20.010753 0-40.808428 24.629957-69.484538 82.763982-15.160281 30.733978-16.61133 108.283192-8.523117 161.977091 5.968945 39.624463 27.458375 117.279077 46.62797 162.884764 78.380138 186.474019 248.529353 320.266188 449.951829 352.145246 98.261954 15.363919 197.22692 8.435113 225.184669-15.370059 27.800159-23.671119 41.494043-42.909276 41.494043-51.451836 0-23.763217-29.543873-70.203922-71.062476-103.345739-40.60479-32.412201-79.886445-46.413076-90.551342-41.162492-7.424086 3.65525-15.161305 10.838859-25.971511 24.202215-3.03001 3.746324-21.337981 27.621081-27.841092 35.579333-25.540699 32.458249-44.096311 39.199791-86.37216 29.823236z m36.237319-69.600171l0.445139-0.553609c5.430686-6.613628 23.953551-30.772864 27.774576-35.496446 16.142655-19.956517 29.889751-32.719192 47.458895-41.370223 39.706327-19.550265 100.614535 2.158153 158.744467 48.560996 55.264675 44.11473 95.134731 106.787118 95.134731 153.361877 0 32.958646-22.99062 65.260329-64.002686 100.17963-46.997384 40.016389-160.744008 47.980781-276.618085 29.862121-223.393883-35.356252-412.053684-183.703929-499.004011-390.5663-21.25714-50.572816-44.165896-133.357264-50.913577-178.150446-9.928117-65.907059-8.283664-153.812131 14.411221-199.821001C123.704416 102.053304 155.817812 64.021106 210.914664 64.021106c53.312206 0 100.621698 33.802874 149.422148 96.484471 45.666062 58.655911 66.9846 119.983675 47.899939 159.724795-9.901511 20.61962-23.690562 34.290991-52.357461 57.001225-2.832512 2.241041-2.832512 2.241041-5.615905 4.439102-8.232498 6.506181-12.850679 10.261715-17.455557 14.277168-0.048095 0.041956-5.324262 4.513804-6.405897 5.518691-4.00522 3.716648-4.495384 5.129834-2.434445 13.976316 39.618323 140.435473 149.21851 250.560616 285.85547 288.543695 16.519232 3.64604 10.199293 5.965875 20.781302-7.5213z" /></svg>