<?xml version="1.0" standalone="no"?><!DOCTYPE svg PUBLIC "-//W3C//DTD SVG 1.1//EN" "http://www.w3.org/Graphics/SVG/1.1/DTD/svg11.dtd"><svg class="icon" width="200px" height="200.00px" viewBox="0 0 1024 1024" version="1.1" xmlns="http://www.w3.org/2000/svg"><path fill="#7772202|-1,7772203|-1,7772204|-1,7772205|-1,7772206|-1,7772207|-1,7772208|-1,7772209|-1,7772210|-1,7772211|-1,7772212|-1,7772213|-1,7772214|-1,7772215|-1,7772216|-1,7772217|-1,7772218|-1,7772219|-1,7772220|-1,7772221|-1" d="M712.095247 943.979502c11.268648 0 22.665209-0.357134 34.186614-1.070378 47.828308-2.99931 91.844801-20.648272 130.780579-52.144614 12.463869-10.082636 23.89727-21.212114 33.969672-33.024138 5.28026-6.192026 9.768481-12.07706 13.22214-17.340947 6.682189-9.287527 12.933567-21.98164 16.474206-33.894971 6.558369-22.071691 3.242857-39.231513-9.852392-51.730175C896.421346 721.978339 754.173598 623.277386 723.32808 610.81147c-8.359388-3.366677-16.72287-5.058203-24.907273-5.058203-25.037233 0-46.653553 13.597693-72.641437 46.15725-3.169179 3.973498-5.870708 7.528464-11.69639 15.389502-28.707832 38.748513-37.21867 45.010123-60.340274 37.699623-41.980113-13.18837-78.5848-38.878472-130.074497-91.192955-49.612954-50.429553-67.871807-74.064856-83.013669-107.618043a310.865073 310.865073 0 0 0-4.118807-8.921183c-12.009522-24.935925-3.89982-37.915541 40.064484-75.255985 5.100158-4.347005 5.100158-4.347005 7.604188-6.501064 1.560542-1.351787 1.560542-1.351787 2.326999-2.01796 0.562818-0.49221 0.562818-0.49221 1.429558-1.254573 38.777165-34.043351 53.757345-76.277244 38.74749-105.756649C396.528082 247.264547 310.016753 122.107035 280.405341 95.049796c-26.02063-23.805172-62.85556-19.424398-108.398825 14.383592-15.417131 11.453866-31.911804 28.757974-46.309722 48.930409-26.954909 37.765115-42.164309 80.159668-44.986588 126.111233-9.058306 147.513682 71.770604 330.859453 206.178803 466.751446 126.662795 127.999233 269.669836 192.753025 425.206238 192.753026z" /></svg>