<?xml version="1.0" standalone="no"?><!DOCTYPE svg PUBLIC "-//W3C//DTD SVG 1.1//EN" "http://www.w3.org/Graphics/SVG/1.1/DTD/svg11.dtd"><svg class="icon" width="200px" height="200.00px" viewBox="0 0 1024 1024" version="1.1" xmlns="http://www.w3.org/2000/svg"><path fill="#7766769|-1,7766770|-1,7766771|-1,7766772|-1,7766773|-1,7766774|-1,7766775|-1,7766776|-1,7766777|-1,7766778|-1,7766779|-1,7766780|-1,7766781|-1,7766782|-1,7766783|-1,7766784|-1,7766785|-1,7766786|-1,7766787|-1,7766788|-1" d="M288.010553 448.00243c-35.344996 0-63.996546-28.652574-63.996546-63.996546s28.652574-63.996546 63.996546-63.996546c35.344996 0 63.996546 28.652574 63.996546 63.996546s-28.65155 63.996546-63.996546 63.996546z m639.969556 302.169018l-258.988565-258.077823L372.528482 759.740384c-12.629645 11.402701-31.975249 10.92584-44.027749-1.084705L220.383316 650.927119l-124.363425 100.357686v80.699973c0 17.672498 14.326287 31.998785 31.998784 31.998785h767.96265c17.672498 0 31.998785-14.326287 31.998784-31.998785v-81.81333z m0-90.346681V192.015222c0-17.672498-14.326287-31.998785-31.998784-31.998785H128.018675c-17.672498 0-31.998785 14.326287-31.998784 31.998785v477.033627l84.173074-67.926042c25.424042-20.516266 62.219063-18.58938 85.361133 4.469801l86.61673 86.306668 273.934976-247.308549c25.261337-22.805402 63.951521-21.851681 88.058569 2.170433l213.815736 213.063607zM32.023344 736.273926a45.762253 45.762253 0 0 1 0-0.530072V192.015222c0-53.016471 42.97886-95.995331 95.995331-95.995331h767.96265c53.016471 0 95.995331 42.97886 95.995331 95.995331v639.969556c0 53.016471-42.97886 95.995331-95.995331 95.995331H128.018675c-53.016471 0-95.995331-42.97886-95.995331-95.995331v-95.710852z" /></svg>