<?xml version="1.0" standalone="no"?><!DOCTYPE svg PUBLIC "-//W3C//DTD SVG 1.1//EN" "http://www.w3.org/Graphics/SVG/1.1/DTD/svg11.dtd"><svg class="icon" width="200px" height="200.00px" viewBox="0 0 1024 1024" version="1.1" xmlns="http://www.w3.org/2000/svg"><path fill="#7772202|-1,7772203|-1,7772204|-1,7772205|-1,7772206|-1,7772207|-1,7772208|-1,7772209|-1,7772210|-1,7772211|-1,7772212|-1,7772213|-1,7772214|-1,7772215|-1,7772216|-1,7772217|-1,7772218|-1,7772219|-1,7772220|-1,7772221|-1" d="M304.009945 448.00243c-44.180222 0-79.995939-35.815717-79.995938-79.995938s35.815717-79.995939 79.995938-79.995939c44.180222 0 79.995939 35.815717 79.995939 79.995939s-35.815717 79.995939-79.995939 79.995938z m623.970164 225.087455V192.015222c0-17.672498-14.326287-31.998785-31.998784-31.998785H128.018675c-17.672498 0-31.998785 14.326287-31.998784 31.998785V678.168554l107.270118-86.564542c11.379165-9.18315 27.536146-9.482979 39.249933-0.73064l80.049151 59.821457 28.497031 21.296025 22.321378-49.910736L648.145773 431.239652c12.701277-8.821923 29.892821-7.299243 40.845267 3.61841l238.989069 238.231823z m63.098084 172.08224v18.810415h-4.563946c-13.178137 37.284161-48.735981 63.996546-90.532922 63.996546H128.018675c-53.016471 0-95.995331-42.97886-95.995331-95.995331V192.015222c0-53.016471 42.97886-95.995331 95.995331-95.995331h767.96265c53.016471 0 95.995331 42.97886 95.995331 95.995331v639.969556c0 4.473895-0.305969 8.876158-0.898463 13.187347z" /></svg>