<?xml version="1.0" standalone="no"?><!DOCTYPE svg PUBLIC "-//W3C//DTD SVG 1.1//EN" "http://www.w3.org/Graphics/SVG/1.1/DTD/svg11.dtd"><svg class="icon" width="200px" height="200.00px" viewBox="0 0 1024 1024" version="1.1" xmlns="http://www.w3.org/2000/svg"><path fill="#7766769|-1,7766770|-1,7766771|-1,7766772|-1,7766773|-1,7766774|-1,7766775|-1,7766776|-1,7766777|-1,7766778|-1,7766779|-1,7766780|-1,7766781|-1,7766782|-1,7766783|-1,7766784|-1,7766785|-1,7766786|-1,7766787|-1,7766788|-1" d="M608.705506 799.985993h127.994116c35.344996 0 63.996546 28.652574 63.996546 63.996547H544.707936c0-35.344996 28.652574-63.996546 63.99757-63.996547zM417.792385 531.072381c14.895245 24.828478 23.133883 49.166793 23.133883 76.921927 0 88.714508-50.135864 121.615848-161.599492 153.522536-3.614317 1.034563-19.608593 5.568832-23.87885 6.792706-8.989745 2.577708-16.19996 4.711302-23.029506 6.835686-31.258934 9.721409-53.327556 19.082614-70.601988 30.520107-31.390941 20.784372-51.228755 49.863664-60.931744 90.315982h822.216298c-9.590426-40.393989-29.436426-69.428256-61.021796-90.224908-17.044188-11.221576-38.549991-20.455891-68.452021-29.925566-7.106862-2.25025-14.618952-4.503571-23.968901-7.212262-4.536316-1.313925-21.253046-6.094812-24.891924-7.145748-110.138446-31.827893-160.009274-65.00655-160.009273-153.478533 0-27.53103 8.032954-51.750641 22.591531-76.472696 4.737908-8.046257 9.781784-15.59314 16.899902-25.6154-3.647063 5.135974 12.267395-17.110703 15.726169-22.146393 22.913872-33.350572 32.719192-59.516512 32.719193-99.753935v-95.995331c0-99.348706-57.684794-159.991878-159.982668-159.991878-103.730503 0-161.27408 60.542888-159.999041 159.165046l0.005117 0.827855v43.874253c0 29.051663 0 29.051663-0.005117 52.948933-0.518816 40.121789 9.190313 65.942875 32.558533 99.380428 3.458775 4.948709 18.756179 26.003234 15.536858 21.539572 7.141654 9.899464 12.215206 17.368576 16.984837 25.317619zM288.720727 288.010553C287.065018 160.016437 367.206266 64.021106 512.711198 64.021106c143.837966 0 223.979214 95.732341 223.979214 223.989447v95.995331c0 127.994116-87.935772 159.991878-87.935772 223.989447 0 95.995331 151.314241 80.313164 248.517074 144.310733 45.429679 29.910217 74.794473 72.873728 88.095407 128.890533 8.16496 34.388205-13.09218 68.88488-47.481408 77.050863a64.002686 64.002686 0 0 1-14.784727 1.731434l-822.215275 0.001024c-35.344996 0-63.99757-28.652574-63.997569-63.99757 0-5.027503 0.592494-10.037611 1.765203-14.926968 13.419637-55.94722 42.696428-98.863658 87.832418-128.749316 96.655364-63.996546 250.443959-48.315402 250.443959-144.310733 0-63.996546-89.86368-95.995331-88.208995-223.989447v-95.995331z" /></svg>