<?xml version="1.0" standalone="no"?><!DOCTYPE svg PUBLIC "-//W3C//DTD SVG 1.1//EN" "http://www.w3.org/Graphics/SVG/1.1/DTD/svg11.dtd"><svg class="icon" width="200px" height="200.00px" viewBox="0 0 1024 1024" version="1.1" xmlns="http://www.w3.org/2000/svg"><path fill="#7766769|-1,7766770|-1,7766771|-1,7766772|-1,7766773|-1,7766774|-1,7766775|-1,7766776|-1,7766777|-1,7766778|-1,7766779|-1,7766780|-1,7766781|-1,7766782|-1,7766783|-1,7766784|-1,7766785|-1,7766786|-1,7766787|-1,7766788|-1" d="M703.746092 991.976656c-87.12122 0-151.618163-18.280342-191.771675-54.357002-40.99774 36.326347-105.213273 54.357002-191.709253 54.357002-86.683245 0-122.68111-37.592177-136.431275-59.997466-15.999392-26.076912-17.749246-60.356646-4.624321-91.714841 9.030677-21.639856 24.311709-39.576367 43.903929-52.294017a462.004329 462.004329 0 0 1-20.436448-35.701107c-16.21838 17.452487-33.935903 27.983331-51.372018 29.826306-17.779945 1.890047-33.435507-5.015224-43.654242-18.780738-21.530362-29.030174-20.030196-81.167624-19.530822-91.323939 4.750187-66.684772 36.154431-134.868687 93.432972-203.428156-4.687766-30.420847-2.405793-80.746022 30.248931-120.915907C216.208227 167.483502 343.732645 32.631188 511.881296 32.021298c168.523181 0.608867 296.111045 135.63412 300.360836 315.625493 32.654724 40.169885 34.904974 90.496084 30.217209 120.915907 57.278541 68.559469 88.682785 136.696312 93.402273 202.771194 0.562818 10.859325 1.968841 63.012126-19.467377 91.964528-10.281157 13.780865-26.092261 20.670785-43.684942 18.796088-17.436114-1.843998-35.154661-12.374842-51.372018-29.826306-5.655813 11.06194-12.405541 22.983457-20.436448 35.701107 19.593244 12.7023 34.873252 30.638811 43.903929 52.278667 13.123902 31.358195 11.374048 65.653279-4.62432 91.74554-13.753235 22.390963-49.751101 59.983139-136.434346 59.98314zM507.97329 933.900959c0.124843 0.124843 0.249687 0.249687 0.37453 0.359181-0.12382-0.124843-0.248663-0.233314-0.37453-0.359181z m8.905834-0.827855c-0.249687 0.26606-0.531096 0.515746-0.812505 0.780783 0.281409-0.249687 0.562818-0.499373 0.812505-0.780783z m-4.936429-60.684104c21.154809 0.047072 34.123168 8.858762 41.279149 16.264429 14.718213 14.217816 54.93517 39.326681 150.524248 39.32668 57.59065 0 76.43381-20.608364 81.870636-29.467125 5.062296-8.218172 5.124717-21.717627 0.156566-33.576723-3.90596-9.296737-14.31196-25.827225-40.404222-31.873941a32.064276 32.064276 0 0 1-22.811542-20.092617 32.009018 32.009018 0 0 1 4.281513-30.077016c35.935444-48.731888 50.810223-85.683475 56.93471-108.104114a32.011064 32.011064 0 0 1 28.31079-23.436782c13.936407-1.109264 26.092261 6.374174 31.685653 18.608824 9.312086 20.421098 18.780739 33.013905 25.873274 40.264029 1.812275-9.484002 3.000334-22.13923 2.343371-35.029818-3.937682-55.122435-33.686217-114.900913-88.370677-176.960341a32.027437 32.027437 0 0 1-5.499247-33.576723c2.312672-7.031137 9.187243-52.450583-20.468171-82.074274a32.094976 32.094976 0 0 1-9.249665-25.498743C748.337683 208.655204 646.685515 96.520287 511.880273 96.019891c-134.556579 0.500397-236.207723 112.635313-236.207723 260.862239 0 8.484232-3.312442 19.686365-9.312086 25.686009-29.65439 29.639041-22.779819 75.074859-20.217461 82.792634 3.624551 10.812253 1.812275 24.311709-5.749957 32.873712-54.68446 62.059428-84.432994 121.822556-88.4024 177.648003-0.62524 12.467963 0.562818 24.935925 2.343372 34.357505 7.124258-7.265474 16.59291-19.84293 25.904996-40.279378 5.625114-12.233626 17.936511-19.701714 31.685653-18.608824a32.010041 32.010041 0 0 1 28.310789 23.436782c6.124488 22.420639 20.999266 59.372226 56.934711 108.104114a32.004925 32.004925 0 0 1 4.281513 30.077016 32.058137 32.058137 0 0 1-22.811542 20.092617c-26.061562 6.046716-36.498262 22.577205-40.404222 31.889291-4.937452 11.859096-4.90573 25.342178 0.156566 33.545 5.436826 8.874111 24.279986 29.482475 81.870636 29.482475 95.558379 0 135.836735-25.124214 151.305031-40.092113 6.313799-6.592139 19.250436-15.4509 40.374546-15.497973z" /></svg>