<?xml version="1.0" standalone="no"?><!DOCTYPE svg PUBLIC "-//W3C//DTD SVG 1.1//EN" "http://www.w3.org/Graphics/SVG/1.1/DTD/svg11.dtd"><svg class="icon" width="200px" height="200.00px" viewBox="0 0 1024 1024" version="1.1" xmlns="http://www.w3.org/2000/svg"><path fill="#7772202|-1,7772203|-1,7772204|-1,7772205|-1,7772206|-1,7772207|-1,7772208|-1,7772209|-1,7772210|-1,7772211|-1,7772212|-1,7772213|-1,7772214|-1,7772215|-1,7772216|-1,7772217|-1,7772218|-1,7772219|-1,7772220|-1,7772221|-1" d="M839.33007 695.478801c-7.863085 28.478612-26.018583 71.932286-67.12684 127.114073 68.774363 15.807011 88.398306 84.107583 65.25112 121.450073-16.312524 26.303063-53.652967 47.933709-118.054743 47.933709-114.547873 0-165.149341-30.974455-187.710172-52.589752-4.584412-4.687766-11.239995-6.959505-19.689435-6.975879-8.433066 0.016373-15.105023 2.288113-19.689435 6.975879-22.577205 21.615297-73.1623 52.589752-187.710172 52.589752-64.402799 0-101.742219-21.630646-118.054743-47.933709-23.14821-37.34249-3.523243-105.643062 65.25112-121.450073-41.108257-55.181787-59.263755-98.635461-67.12684-127.114073-28.28623 61.46898-67.827805 84.572164-82.248236 65.341171-11.809977-15.791661-15.562441-51.293223-14.338566-75.66019 6.688329-92.732008 68.464301-170.408111 104.188944-210.58209-4.958942-11.678994-17.014512-79.371722 29.558199-125.498272-0.081864-1.119497-0.065492-2.223644-0.065492-3.279696 0-182.118827 128.70736-313.184909 290.235221-313.777403 161.52786 0.592494 290.235221 131.658575 290.235221 313.777403 0 1.056052 0.032746 2.160199-0.065492 3.279696 46.589085 46.125527 34.518165 113.818255 29.558199 125.498272 35.724643 40.173978 97.516987 117.850082 104.188944 210.58209 1.223874 24.366967-2.512217 59.869552-14.338566 75.66019-14.420431 19.230993-53.962006-3.872191-82.248236-65.341171z" /></svg>