<?xml version="1.0" standalone="no"?><!DOCTYPE svg PUBLIC "-//W3C//DTD SVG 1.1//EN" "http://www.w3.org/Graphics/SVG/1.1/DTD/svg11.dtd"><svg class="icon" width="200px" height="200.00px" viewBox="0 0 1024 1024" version="1.1" xmlns="http://www.w3.org/2000/svg"><path fill="#7766769|-1,7766770|-1,7766771|-1,7766772|-1,7766773|-1,7766774|-1,7766775|-1,7766776|-1,7766777|-1,7766778|-1,7766779|-1,7766780|-1,7766781|-1,7766782|-1,7766783|-1,7766784|-1,7766785|-1,7766786|-1,7766787|-1,7766788|-1" d="M208.014614 670.817122h127.994116c8.836249 0 15.999392 7.163143 15.999392 15.999392V814.81063c0 8.836249-7.163143 15.999392-15.999392 15.999393H208.014614c-8.836249 0-15.999392-7.163143-15.999392-15.999393V686.816514c0-8.836249 7.163143-15.999392 15.999392-15.999392z m479.976656-479.976656h127.994116c8.836249 0 15.999392 7.163143 15.999392 15.999393v127.994116c0 8.836249-7.163143 15.999392-15.999392 15.999392H687.99127c-8.836249 0-15.999392-7.163143-15.999392-15.999392V206.839859c0-8.836249 7.163143-15.999392 15.999392-15.999393z m-479.976656 0h127.994116c8.836249 0 15.999392 7.163143 15.999392 15.999393v127.994116c0 8.836249-7.163143 15.999392-15.999392 15.999392H208.014614c-8.836249 0-15.999392-7.163143-15.999392-15.999392V206.839859c0-8.836249 7.163143-15.999392 15.999392-15.999393z m399.980717-47.997154v255.987209c0 8.836249 7.163143 15.999392 15.999393 15.999392h255.987208c8.836249 0 15.999392-7.163143 15.999393-15.999392V142.843312c0-8.836249-7.163143-15.999392-15.999393-15.999392H623.994724c-8.836249 0-15.999392 7.163143-15.999393 15.999392z m0-79.996962h287.985994c35.344996 0 63.996546 28.652574 63.996546 63.996547v287.985993c0 35.344996-28.652574 63.996546-63.996546 63.996546H607.995331c-35.344996 0-63.996546-28.652574-63.996546-63.996546V126.84392c0-35.344996 28.65155-63.99757 63.996546-63.99757z m-479.976656 559.973618v255.987209c0 8.836249 7.163143 15.999392 15.999393 15.999392h255.987208c8.836249 0 15.999392-7.163143 15.999393-15.999392V622.819968c0-8.836249-7.163143-15.999392-15.999393-15.999392H144.017044c-8.835226 0-15.998369 7.163143-15.998369 15.999392z m0-79.995939h287.985994c35.344996 0 63.996546 28.652574 63.996546 63.996547v287.985993c0 35.344996-28.652574 63.996546-63.996546 63.996546H128.018675c-35.344996 0-63.996546-28.652574-63.996546-63.996546V606.820576c-0.001023-35.344996 28.65155-63.996546 63.996546-63.996547z m0-399.980717v255.987209c0 8.836249 7.163143 15.999392 15.999393 15.999392h255.987208c8.836249 0 15.999392-7.163143 15.999393-15.999392V142.843312c0-8.836249-7.163143-15.999392-15.999393-15.999392H144.017044c-8.835226 0-15.998369 7.163143-15.998369 15.999392z m0-79.996962h287.985994c35.344996 0 63.996546 28.652574 63.996546 63.996547v287.985993c0 35.344996-28.652574 63.996546-63.996546 63.996546H128.018675c-35.344996 0-63.996546-28.652574-63.996546-63.996546V126.84392c-0.001023-35.344996 28.65155-63.99757 63.996546-63.99757z m671.967318 767.963673h-95.995331v95.995331c0 17.672498-14.326287 31.998785-31.998784 31.998785h-95.995332c-17.672498 0-31.998785-14.326287-31.998784-31.998785v-95.995331c0-17.672498 14.326287-31.998785 31.998784-31.998785h95.995332v-95.995331h-95.995332c-17.672498 0-31.998785-14.326287-31.998784-31.998785v-95.995331c0-17.672498 14.326287-31.998785 31.998784-31.998785h95.995332c17.672498 0 31.998785 14.326287 31.998784 31.998785v95.995331h95.995331v-95.995331c0-17.672498 14.326287-31.998785 31.998785-31.998785h95.995331c17.672498 0 31.998785 14.326287 31.998785 31.998785v351.98254c0 17.672498-14.326287 31.998785-31.998785 31.998784h-95.995331c-17.672498 0-31.998785-14.326287-31.998785-31.998784v-95.994308z" /></svg>