<?xml version="1.0" standalone="no"?><!DOCTYPE svg PUBLIC "-//W3C//DTD SVG 1.1//EN" "http://www.w3.org/Graphics/SVG/1.1/DTD/svg11.dtd"><svg class="icon" width="200px" height="200.00px" viewBox="0 0 1024 1024" version="1.1" xmlns="http://www.w3.org/2000/svg"><path fill="#7766769|-1,7766770|-1,7766771|-1,7766772|-1,7766773|-1,7766774|-1,7766775|-1,7766776|-1,7766777|-1,7766778|-1,7766779|-1,7766780|-1,7766781|-1,7766782|-1,7766783|-1,7766784|-1,7766785|-1,7766786|-1,7766787|-1,7766788|-1" d="M408.989905 448.00243h206.02019c14.683421 0 27.481911 9.993608 31.043017 24.238031l12.122085 48.489364c7.717775 30.872125-10.317996 62.329581-40.85857 71.266114l-8.65103 2.531659c-27.278273 7.982812-46.02422 32.998555-46.02422 61.420885v162.465209c0 33.434483 25.737174 61.234643 59.072397 63.807234l142.602835 11.006682a63.205531 63.205531 0 0 1 51.668777 34.751478c5.461385 10.921747 1.033539 24.203238-9.888208 29.664624-3.069919 1.534959-6.455015 2.334161-9.888208 2.334161H227.79103c-12.211113 0-22.110577-9.899464-22.110577-22.110577 0-3.432169 0.799202-6.818289 2.334161-9.888208a63.198368 63.198368 0 0 1 51.668777-34.748408l142.905734-11.015892c33.338293-2.569522 59.078537-30.370705 59.078536-63.807234V655.987369c0-28.440749-18.768459-53.467749-46.070268-61.435211l-8.759501-2.556219c-30.621415-8.93551-48.713468-40.464597-40.977273-71.4104l12.086269-48.345078c3.561106-14.244422 16.359596-24.238031 31.043017-24.238031z m-24.645307-298.253848a48.371684 48.371684 0 0 1-0.338714-5.730514v-31.998785c0-26.508747 21.48943-47.998177 47.998177-47.998177h159.991878c26.508747 0 47.998177 21.48943 47.998177 47.998177v31.998785a48.371684 48.371684 0 0 1-0.338714 5.730514c149.314701 52.616358 256.325923 194.936761 256.325923 362.251418 0 107.128903-44.137243 207.27988-120.532168 279.350312-12.854772 12.127202-33.107025 11.536754-45.233203-1.318018-12.127202-12.854772-11.536754-33.106002 1.318018-45.233204 63.707974-60.101843 100.450806-143.474692 100.450806-232.800113 0-176.722934-143.261844-319.984778-319.984778-319.984779s-319.984778 143.262868-319.984778 319.985802c0 89.427752 36.82879 172.888606 100.664677 233.001705 12.866029 12.114922 13.473873 32.366152 1.358951 45.23218s-32.366152 13.473873-45.232181 1.358951c-76.549443-72.083735-120.789017-172.340113-120.789017-279.592836 0.001023-167.314657 107.012246-309.635059 256.326946-362.251418z" /></svg>