<?xml version="1.0" standalone="no"?><!DOCTYPE svg PUBLIC "-//W3C//DTD SVG 1.1//EN" "http://www.w3.org/Graphics/SVG/1.1/DTD/svg11.dtd"><svg class="icon" width="200px" height="200.00px" viewBox="0 0 1024 1024" version="1.1" xmlns="http://www.w3.org/2000/svg"><path fill="#7766769|-1,7766770|-1,7766771|-1,7766772|-1,7766773|-1,7766774|-1,7766775|-1,7766776|-1,7766777|-1,7766778|-1,7766779|-1,7766780|-1,7766781|-1,7766782|-1,7766783|-1,7766784|-1,7766785|-1,7766786|-1,7766787|-1,7766788|-1" d="M799.985993 32.023344H224.014007c-53.016471 0-95.995331 42.97886-95.995332 95.995331v767.96265c0 53.016471 42.97886 95.995331 95.995332 95.995331h575.971986c53.016471 0 95.995331-42.97886 95.995332-95.995331V128.018675c0-53.017494-42.97886-95.995331-95.995332-95.995331z m31.998785 863.957981c0 17.672498-14.326287 31.998785-31.998785 31.998784H224.014007c-17.672498 0-31.998785-14.326287-31.998785-31.998784V288.942785c57.3031 58.303894 136.441509 100.697423 226.794329 118.194936 10.351766 41.841967 48.148603 72.863495 93.190449 72.863494s82.83766-31.020504 93.190449-72.863494c90.353844-17.498536 169.491229-59.892065 226.794329-118.194936v607.03854z m0-717.802226c-43.700291 76.847226-128.708384 140.913357-233.40591 164.312276-15.482623-32.230052-48.432059-54.480822-86.578868-54.480822s-71.096245 22.25077-86.578868 54.480822c-104.697527-23.39892-189.70562-87.466074-233.40591-164.312276V128.018675c0-17.672498 14.326287-31.998785 31.998785-31.998784h575.971986c17.672498 0 31.998785 14.326287 31.998785 31.998784v50.160424z" /></svg>