<?xml version="1.0" standalone="no"?><!DOCTYPE svg PUBLIC "-//W3C//DTD SVG 1.1//EN" "http://www.w3.org/Graphics/SVG/1.1/DTD/svg11.dtd"><svg class="icon" width="200px" height="200.00px" viewBox="0 0 1024 1024" version="1.1" xmlns="http://www.w3.org/2000/svg"><path fill="#7772222|-1,7772223|-1,7772224|-1,7772225|-1,7772226|-1,7772227|-1,7772228|-1,7772229|-1,7772230|-1,7772231|-1,7772232|-1,7772233|-1,7772234|-1,7772235|-1,7772236|-1,7772237|-1,7772238|-1,7772239|-1,7772240|-1,7772241|-1" d="M420.432515 412.916331c12.268418 38.888705 48.625464 67.084884 91.566462 67.084884 42.942021 0 79.298044-28.196179 91.566462-67.084884 108.673072-7.395434 208.5365-27.760251 292.414862-57.686841v540.751835c0 53.016471-42.976814 95.995331-95.995331 95.995331H224.014007c-53.018517 0-95.995331-42.97886-95.995332-95.995331V355.22949c83.877339 29.92659 183.740768 50.291406 292.41384 57.686841z m180.452885-65.233724c-14.322194-35.008328-48.724725-59.672054-88.8854-59.672054s-74.563206 24.663726-88.8854 59.672054c-116.742864-11.494799-219.883943-45.237297-295.095925-93.171006V128.018675c0-53.016471 42.976814-95.995331 95.995332-95.995331h575.971986c53.018517 0 95.995331 42.97886 95.995332 95.995331v126.492926c-75.211982 47.933709-178.353061 81.676208-295.095925 93.171006z" /></svg>