<?xml version="1.0" standalone="no"?><!DOCTYPE svg PUBLIC "-//W3C//DTD SVG 1.1//EN" "http://www.w3.org/Graphics/SVG/1.1/DTD/svg11.dtd"><svg class="icon" width="200px" height="200.00px" viewBox="0 0 1024 1024" version="1.1" xmlns="http://www.w3.org/2000/svg"><path fill="#7772222|-1,7772223|-1,7772224|-1,7772225|-1,7772226|-1,7772227|-1,7772228|-1,7772229|-1,7772230|-1,7772231|-1,7772232|-1,7772233|-1,7772234|-1,7772235|-1,7772236|-1,7772237|-1,7772238|-1,7772239|-1,7772240|-1,7772241|-1" d="M288.708448 511.653099c35.344996 0 63.996546-28.652574 63.996546-63.996546s-28.65155-63.996546-63.996546-63.996546-63.996546 28.652574-63.996547 63.996546 28.650527 63.996546 63.996547 63.996546z m223.989447 0c35.344996 0 63.996546-28.652574 63.996546-63.996546s-28.65155-63.996546-63.996546-63.996546-63.996546 28.652574-63.996547 63.996546 28.650527 63.996546 63.996547 63.996546z m223.989447 0c35.344996 0 63.996546-28.652574 63.996546-63.996546s-28.65155-63.996546-63.996546-63.996546-63.996546 28.652574-63.996546 63.996546 28.650527 63.996546 63.996546 63.996546zM544.695656 799.639093L334.174965 963.377294c-20.923542 16.274662-51.079352 12.504802-67.35299-8.419763a47.995107 47.995107 0 0 1-10.111289-29.468149V799.639093H160.714332c-53.018517 0-95.995331-42.97886-95.995331-95.995331V191.668321c0-53.016471 42.976814-95.995331 95.995331-95.995331h703.966103c53.018517 0 95.995331 42.97886 95.995331 95.995331v511.975441c0 53.016471-42.976814 95.995331-95.995331 95.995331H544.695656z" /></svg>