<?xml version="1.0" standalone="no"?><!DOCTYPE svg PUBLIC "-//W3C//DTD SVG 1.1//EN" "http://www.w3.org/Graphics/SVG/1.1/DTD/svg11.dtd"><svg class="icon" width="200px" height="200.00px" viewBox="0 0 1024 1024" version="1.1" xmlns="http://www.w3.org/2000/svg"><path fill="#7772202|-1,7772203|-1,7772204|-1,7772205|-1,7772206|-1,7772207|-1,7772208|-1,7772209|-1,7772210|-1,7772211|-1,7772212|-1,7772213|-1,7772214|-1,7772215|-1,7772216|-1,7772217|-1,7772218|-1,7772219|-1,7772220|-1,7772221|-1" d="M512 703.990662c26.508747 0 47.998177-21.48943 47.998177-47.998177s-21.48943-47.998177-47.998177-47.998177-47.998177 21.48943-47.998177 47.998177 21.48943 47.998177 47.998177 47.998177z m-15.649422-415.980109c-0.605797 0-1.211595 0.017396-1.816368 0.051165-17.643845 1.003863-31.133068 16.120143-30.130228 33.763988l12.736069 223.989447c0.963954 16.939811 14.980179 30.182416 31.946596 30.182417h5.802146c16.965393 0 30.981618-13.240559 31.946597-30.178323l12.760628-223.989448a31.742958 31.742958 0 0 0 0.052189-1.820461c0-17.672498-14.326287-31.998785-31.998785-31.998785h-31.298844z m15.649422 671.967318c-247.411903 0-447.978894-200.566992-447.978894-447.978894S264.588097 64.021106 512 64.021106 959.977871 264.588097 959.977871 512 759.411903 959.977871 512 959.977871z" /></svg>