<?xml version="1.0" standalone="no"?><!DOCTYPE svg PUBLIC "-//W3C//DTD SVG 1.1//EN" "http://www.w3.org/Graphics/SVG/1.1/DTD/svg11.dtd"><svg class="icon" width="200px" height="200.00px" viewBox="0 0 1024 1024" version="1.1" xmlns="http://www.w3.org/2000/svg"><path fill="#7766769|-1,7766770|-1,7766771|-1,7766772|-1,7766773|-1,7766774|-1,7766775|-1,7766776|-1,7766777|-1,7766778|-1,7766779|-1,7766780|-1,7766781|-1,7766782|-1,7766783|-1,7766784|-1,7766785|-1,7766786|-1,7766787|-1,7766788|-1" d="M543.998785 480.001215h191.990662c17.672498 0 31.998785 14.326287 31.998785 31.998785s-14.326287 31.998785-31.998785 31.998785H543.998785v191.990662c0 17.672498-14.326287 31.998785-31.998785 31.998785s-31.998785-14.326287-31.998785-31.998785V543.998785H288.010553c-17.672498 0-31.998785-14.326287-31.998785-31.998785s14.326287-31.998785 31.998785-31.998785h191.990662V288.010553c0-17.672498 14.326287-31.998785 31.998785-31.998785s31.998785 14.326287 31.998785 31.998785v191.990662z m-415.98011 31.998785c0 212.062813 171.918511 383.981325 383.981325 383.981325s383.981325-171.918511 383.981325-383.981325S724.06179 128.018675 512 128.018675 128.018675 299.937187 128.018675 512z m-63.997569 0c0-247.406786 200.572108-447.978894 447.978894-447.978894S959.977871 264.593214 959.977871 512 759.405763 959.977871 512 959.977871 64.021106 759.405763 64.021106 512z" /></svg>