<?xml version="1.0" standalone="no"?><!DOCTYPE svg PUBLIC "-//W3C//DTD SVG 1.1//EN" "http://www.w3.org/Graphics/SVG/1.1/DTD/svg11.dtd"><svg class="icon" width="200px" height="200.00px" viewBox="0 0 1024 1024" version="1.1" xmlns="http://www.w3.org/2000/svg"><path fill="#7772242|-1,7772243|-1,7772244|-1" d="M512 64.021106c-247.405763 0-447.978894 200.572108-447.978894 447.978894s200.572108 447.978894 447.978894 447.978894S959.977871 759.405763 959.977871 512 759.405763 64.021106 512 64.021106z m135.75794 628.989481L512 557.252647 376.24206 693.010587c-12.496615 12.496615-32.757055 12.495592-45.252647 0s-12.496615-32.756031 0-45.252647l135.75794-135.75794L330.989413 376.24206c-12.496615-12.496615-12.495592-32.757055 0-45.252647 12.495592-12.495592 32.756031-12.496615 45.252647 0l135.75794 135.75794 135.75794-135.75794c12.495592-12.495592 32.756031-12.496615 45.252647 0s12.495592 32.757055 0 45.252647L557.252647 512l135.75794 135.75794c12.495592 12.495592 12.495592 32.757055 0 45.252647-12.496615 12.495592-32.757055 12.495592-45.252647 0z" /></svg>