<?xml version="1.0" standalone="no"?><!DOCTYPE svg PUBLIC "-//W3C//DTD SVG 1.1//EN" "http://www.w3.org/Graphics/SVG/1.1/DTD/svg11.dtd"><svg class="icon" width="200px" height="200.00px" viewBox="0 0 1024 1024" version="1.1" xmlns="http://www.w3.org/2000/svg"><path fill="#7766809|-1,7766810|-1,7766811|-1,7766812|-1,7766813|-1,7766814|-1,7766815|-1,7766816|-1,7766817|-1,7766818|-1,7766819|-1,7766820|-1,7772174|-1,7772175|-1,7772176|-1,7772177|-1,7772178|-1,7772179|-1,7772180|-1,7772181|-1" d="M512 32.023344c-89.698928 0-319.984778 159.991878-415.980109 159.991878v415.980109c0 127.994116 319.984778 383.981325 415.980109 383.981325s415.980109-255.987209 415.980109-383.981325V192.015222c-95.995331 0-328.582597-159.991878-415.980109-159.991878z m351.98254 575.971987c0 80.423681-275.849582 315.741128-351.693968 319.990918-76.422554-4.249791-352.272135-239.566214-352.272135-319.990918V245.239424c53.071729-15.610536 114.724905-46.143946 178.862667-77.904301C399.653259 137.238664 482.887962 96.019891 512 96.019891c27.740808 0 113.795742 42.470277 170.741709 70.574358 65.062831 32.109302 127.611399 62.97938 181.240831 78.682014v362.719068zM439.249069 540.523637l-97.241718-72.216765a21.327748 21.327748 0 0 0-21.307282-2.400676l-11.409864 5.021363a17.70729 17.70729 0 0 0-4.886287 3.196809c-7.214309 6.650467-7.67582 17.891486-1.027399 25.107841l138.891303 150.7197c0.562818 0.610914 1.163499 1.187035 1.792833 1.728364 8.940626 7.67582 22.409382 6.650467 30.080086-2.289136L753.003959 324.606029a14.005992 14.005992 0 0 0 2.273787-3.667529c3.035126-7.14984-0.300852-15.405875-7.452739-18.441001l-5.007038-2.125407a21.325701 21.325701 0 0 0-22.822798 3.982707l-253.534343 234.695277c-7.53665 6.975878-18.97005 7.594979-27.211759 1.473561z" /></svg>