<?xml version="1.0" standalone="no"?><!DOCTYPE svg PUBLIC "-//W3C//DTD SVG 1.1//EN" "http://www.w3.org/Graphics/SVG/1.1/DTD/svg11.dtd"><svg class="icon" width="200px" height="200.00px" viewBox="0 0 1024 1024" version="1.1" xmlns="http://www.w3.org/2000/svg"><path fill="#7772222|-1,7772223|-1,7772224|-1,7772225|-1,7772226|-1,7772227|-1,7772228|-1,7772229|-1,7772230|-1,7772231|-1,7772232|-1,7772233|-1,7772234|-1,7772235|-1,7772236|-1,7772237|-1,7772238|-1,7772239|-1,7772240|-1,7772241|-1" d="M342.010421 468.305849a21.331841 21.331841 0 0 0-21.310352-2.399653l-11.410887 5.021363a17.780969 17.780969 0 0 0-4.884241 3.196809c-7.216355 6.650467-7.67582 17.891486-1.025352 25.107841l138.891303 150.7197c0.562818 0.610914 1.160429 1.188058 1.790786 1.729387 8.93858 7.674796 22.406313 6.650467 30.081109-2.288113l278.859126-324.785107a14.029528 14.029528 0 0 0 2.275833-3.66753c3.035126-7.14984-0.301875-15.406898-7.452739-18.442024l-5.007038-2.124384a21.332864 21.332864 0 0 0-22.825868 3.982708l-253.532297 234.695277c-7.534604 6.974855-18.968004 7.592932-27.210735 1.471514l-97.238648-72.217788zM512 32.023344c87.397512 0 319.984778 159.991878 415.980109 159.991878v415.980109c0 127.994116-319.984778 383.981325-415.980109 383.981325S96.019891 735.989447 96.019891 607.995331V192.015222c95.995331 0 326.279135-159.991878 415.980109-159.991878z" /></svg>