<?xml version="1.0" standalone="no"?><!DOCTYPE svg PUBLIC "-//W3C//DTD SVG 1.1//EN" "http://www.w3.org/Graphics/SVG/1.1/DTD/svg11.dtd"><svg class="icon" width="200px" height="200.00px" viewBox="0 0 1024 1024" version="1.1" xmlns="http://www.w3.org/2000/svg"><path fill="#7766769|-1,7766770|-1,7766771|-1,7766772|-1,7766773|-1,7766774|-1,7766775|-1,7766776|-1,7766777|-1,7766778|-1,7766779|-1,7766780|-1,7766781|-1,7766782|-1,7766783|-1,7766784|-1,7766785|-1,7766786|-1,7766787|-1,7766788|-1" d="M863.534332 512c0 17.672498-14.326287 31.998785-31.998785 31.998785s-31.998785-14.326287-31.998785-31.998785c0-53.016471-42.97886-95.995331-95.995331-95.995331-17.672498 0-31.998785-14.326287-31.998785-31.998785s14.326287-31.998785 31.998785-31.998785c88.361467 0 159.992901 71.631434 159.992901 159.992901z m-351.983563 0c0 50.815339 19.742646 98.353029 54.509474 134.01218a642.830721 642.830721 0 0 1 4.774747 4.850471c3.079128 3.192715 5.89015 6.304589 8.712429 9.739829 17.292851 21.050432 27.998681 45.932122 27.998681 76.027557v63.355956h191.990662v-63.747882c0-29.121248 10.033517-53.527101 26.348088-73.857125a144.827503 144.827503 0 0 1 8.53335-9.689687 264.916579 264.916579 0 0 1 5.012154-5.066389c35.733852-35.803437 56.100716-84.021625 56.100716-135.625933 0-106.033965-85.957721-191.990662-191.990662-191.990663s-191.989639 85.957721-191.989639 191.991686z m-63.996547 0c0-141.377938 114.609271-255.987209 255.987209-255.987209s255.988232 114.609271 255.988232 255.987209c0 70.599941-28.579919 134.523833-74.801637 180.834578-6.704702 6.716982-21.193695 20.009729-21.193694 43.403533v63.747882c0 35.344996-28.652574 63.996546-63.996547 63.996547H607.5461c-35.344996 0-63.996546-28.652574-63.996547-63.996547V736.630037c0-24.235984-15.984043-38.426171-23.311938-45.942355-44.975331-46.12962-72.683393-109.172445-72.683393-178.687682zM814.412564 895.981325c-22.131043 38.257326-63.495126 63.996546-110.87011 63.996546-47.376007 0-88.74009-25.739221-110.87011-63.996546h221.74022z m-493.955018-767.029394a31.993668 31.993668 0 0 0-14.944364 8.429996L137.847531 304.926828a31.991622 31.991622 0 0 0-8.476045 15.08251h159.088298c17.672498 0 31.998785-14.326287 31.998785-31.998785V128.951931z m63.997569-0.933256v159.991878c0 53.016471-42.97886 95.995331-95.995331 95.995331H128.466883v447.978894c0 17.672498 14.326287 31.998785 31.998785 31.998785h255.988232c17.672498 0 31.998785 14.326287 31.998785 31.998785s-14.326287 31.998785-31.998785 31.998785H160.465668c-53.016471 0-95.995331-42.97886-95.995331-95.995331V327.561337a95.994308 95.994308 0 0 1 28.140921-67.903529L260.277932 92.112907a95.996354 95.996354 0 0 1 67.85441-28.091801H832.432986c53.016471 0 95.995331 42.97886 95.995332 95.995331v63.996546c0 17.672498-14.326287 31.998785-31.998785 31.998785s-31.998785-14.326287-31.998785-31.998785v-63.996546c0-17.672498-14.326287-31.998785-31.998785-31.998785H384.455115z" /></svg>