<?xml version="1.0" standalone="no"?><!DOCTYPE svg PUBLIC "-//W3C//DTD SVG 1.1//EN" "http://www.w3.org/Graphics/SVG/1.1/DTD/svg11.dtd"><svg class="icon" width="200px" height="200.00px" viewBox="0 0 1024 1024" version="1.1" xmlns="http://www.w3.org/2000/svg"><path fill="#7766769|-1,7766770|-1,7766771|-1,7766772|-1,7766773|-1,7766774|-1,7766775|-1,7766776|-1,7766777|-1,7766778|-1,7766779|-1,7766780|-1,7766781|-1,7766782|-1,7766783|-1,7766784|-1,7766785|-1,7766786|-1,7766787|-1,7766788|-1" d="M64.021106 512c0-17.672498 14.07353-31.998785 31.887244-31.998785h832.182277c17.6111 0 31.887244 14.202467 31.887244 31.998785 0 17.672498-14.07353 31.998785-31.887244 31.998785H95.909373c-17.6111 0-31.888268-14.20349-31.888267-31.998785zM959.977871 352.007099c0 17.672498-14.326287 31.998785-31.998785 31.998785s-31.998785-14.326287-31.998785-31.998785V160.016437c0-17.672498-14.326287-31.998785-31.998784-31.998785H160.016437c-17.672498 0-31.998785 14.326287-31.998785 31.998785v191.990662c0 17.672498-14.326287 31.998785-31.998785 31.998785s-31.998785-14.326287-31.998785-31.998785V160.016437c0-53.016471 42.97886-95.995331 95.995332-95.995331H863.981517c53.016471 0 95.995331 42.97886 95.995331 95.995331v191.990662z m0 319.984779v191.990662c0 53.016471-42.97886 95.995331-95.995331 95.995331H160.016437c-53.016471 0-95.995331-42.97886-95.995331-95.995331V671.991878c0-17.672498 14.326287-31.998785 31.998785-31.998785s31.998785 14.326287 31.998784 31.998785v191.990662c0 17.672498 14.326287 31.998785 31.998785 31.998785h703.966103c17.672498 0 31.998785-14.326287 31.998785-31.998785V671.991878c0-17.672498 14.326287-31.998785 31.998785-31.998785s31.996738 14.32731 31.996738 31.998785z" /></svg>