<?xml version="1.0" standalone="no"?><!DOCTYPE svg PUBLIC "-//W3C//DTD SVG 1.1//EN" "http://www.w3.org/Graphics/SVG/1.1/DTD/svg11.dtd"><svg class="icon" width="200px" height="200.00px" viewBox="0 0 1024 1024" version="1.1" xmlns="http://www.w3.org/2000/svg"><path fill="#7766789|-1,7766790|-1,7766791|-1,7766792|-1,7766793|-1,7766794|-1,7766795|-1,7766796|-1,7766797|-1,7766798|-1,7766799|-1,7766800|-1,7766801|-1,7766802|-1,7766803|-1,7766804|-1,7766805|-1,7766806|-1,7766807|-1,7766808|-1" d="M543.726585 607.179756h444.171172c17.522072 0 31.726585 14.204513 31.726586 31.726586s-14.204513 31.726585-31.726586 31.726585H543.726585c-17.522072 0-31.726585-14.204513-31.726585-31.726585s14.204513-31.726585 31.726585-31.726586z m412.444587-95.179756v-31.726585c0-17.522072-14.204513-31.726585-31.726585-31.726586H607.179756c-17.522072 0-31.726585 14.204513-31.726585 31.726586v31.726585c0 17.522072-14.204513 31.726585-31.726586 31.726585s-31.726585-14.204513-31.726585-31.726585v-31.726585c0-52.566216 42.61354-95.179756 95.179756-95.179757h317.264831c52.566216 0 95.179756 42.61354 95.179756 95.179757v31.726585c0 17.522072-14.204513 31.726585-31.726586 31.726585s-31.726585-14.204513-31.726585-31.726585z m63.453171 253.81166v31.726585c0 52.566216-42.61354 95.179756-95.179756 95.179756H607.179756c-52.566216 0-95.179756-42.61354-95.179756-95.179756v-31.726585c0-17.522072 14.204513-31.726585 31.726585-31.726586s31.726585 14.204513 31.726586 31.726586v31.726585c0 17.522072 14.204513 31.726585 31.726585 31.726585h317.264831c17.522072 0 31.726585-14.204513 31.726585-31.726585v-31.726585c0-17.522072 14.204513-31.726585 31.726585-31.726586s31.726585 14.204513 31.726586 31.726586zM205.476815 308.075541c-0.415462-31.083949 3.77907-54.29765 32.804127-69.959352 5.940292-3.206018 20.013823-4.89652 26.732851-4.89652 7.361665-0.753153 0.073678-6.757914 16.313547-6.757914s38.82526 7.154957 49.621141 29.30135c10.79588 22.147416 11.709693 46.454008 11.709693 52.280713s5.963829 2.913353 5.963828 11.654435-2.572592 26.03598-11.724019 37.784558c-9.151427 11.747555-12.133342 14.661931-18.098193 23.403012-5.964852 8.741082-8.946766 18.271132-8.946766 26.223245 0 29.136597 49.849338 31.289634 78.744435 49.689702 11.837606 7.538697 20.006659 17.393135 24.505113 29.563317l0.001024-0.001024c3.64604 9.861602-1.39272 20.812001-11.255345 24.457018a19.023262 19.023262 0 0 1-6.601348 1.180896l-242.358817-0.002047c-10.512425 0-19.034519-8.522094-19.034519-19.034519a19.033495 19.033495 0 0 1 1.191129-6.627954c4.516874-12.158924 12.656251-22.004153 24.419156-29.537733C188.19829 438.397678 238.280942 436.244642 238.280942 407.108045c0-7.759731-2.981914-17.482163-8.946767-26.223245-5.964852-8.741082-8.946766-11.654434-17.893532-23.403013-8.946766-11.748578-11.92868-29.043477-11.92868-37.784558 0-8.740058 5.964852-5.826705 5.964852-11.621688z m814.147528-18.161639c0 17.522072-14.204513 31.726585-31.726586 31.726586s-31.726585-14.204513-31.726585-31.726586V226.460732c0-17.522072-14.204513-31.726585-31.726585-31.726586H99.555413c-17.522072 0-31.726585 14.204513-31.726585 31.726586v571.077513c0 17.522072 14.204513 31.726585 31.726585 31.726585h317.264831c17.522072 0 31.726585 14.204513 31.726585 31.726586s-14.204513 31.726585-31.726585 31.726585H99.555413c-52.566216 0-95.179756-42.61354-95.179756-95.179756V226.460732c0-52.566216 42.61354-95.179756 95.179756-95.179757h824.889174c52.566216 0 95.179756 42.61354 95.179756 95.179757v63.45317z" /></svg>