<?xml version="1.0" standalone="no"?><!DOCTYPE svg PUBLIC "-//W3C//DTD SVG 1.1//EN" "http://www.w3.org/Graphics/SVG/1.1/DTD/svg11.dtd"><svg class="icon" width="200px" height="200.00px" viewBox="0 0 1024 1024" version="1.1" xmlns="http://www.w3.org/2000/svg"><path fill="#7766769|-1,7766770|-1,7766771|-1,7766772|-1,7766773|-1,7766774|-1,7766775|-1,7766776|-1,7766777|-1,7766778|-1,7766779|-1,7766780|-1,7766781|-1,7766782|-1,7766783|-1,7766784|-1,7766785|-1,7766786|-1,7766787|-1,7766788|-1" d="M423.401126 711.417819c159.050436 0 287.985993-128.935558 287.985994-287.985994S582.451562 135.445832 423.401126 135.445832 135.415133 264.381389 135.415133 423.431825s128.935558 287.985993 287.985993 287.985994z m270.491551-62.74709l43.980677 43.980677c10.705829-2.819209 22.590508-0.035816 30.780027 8.153704l169.866782 169.866782c18.708084 18.708084 18.809391 48.938596-0.065491 67.813479-18.7439 18.7439-49.136094 18.741853-67.813479 0.065492L700.774411 768.68408c-8.360412-8.360412-11.131525-20.180622-8.229428-30.855752l-43.90393-43.904952c-61.037145 50.880831-139.563616 81.490989-225.238904 81.490989-194.394409 0-351.983563-157.588131-351.983563-351.983563S229.006717 71.448262 423.401126 71.448262s351.983563 157.588131 351.983563 351.983563c0 85.676311-30.610158 164.201759-81.492012 225.238904z" /></svg>