<?xml version="1.0" standalone="no"?><!DOCTYPE svg PUBLIC "-//W3C//DTD SVG 1.1//EN" "http://www.w3.org/Graphics/SVG/1.1/DTD/svg11.dtd"><svg class="icon" width="200px" height="200.00px" viewBox="0 0 1024 1024" version="1.1" xmlns="http://www.w3.org/2000/svg"><path fill="#7766789|-1,7766790|-1,7766791|-1,7766792|-1,7766793|-1,7766794|-1,7766795|-1,7766796|-1,7766797|-1,7766798|-1,7766799|-1,7766800|-1,7766801|-1,7766802|-1,7766803|-1,7766804|-1,7766805|-1,7766806|-1,7766807|-1,7766808|-1" d="M736.687342 879.992165c70.688969 0 127.994116-42.97886 127.994116-95.995331 0-9.694803-1.092891-22.73991-3.499707-37.586037-25.429159 12.226462-66.592674 4.440126-82.748633-24.164352-23.26896-40.415478 10.958586-53.444213-48.198745-144.450926-58.189284 120.292714-121.540124 136.227638-121.540124 206.201315-0.001023 53.016471 57.3031 95.995331 127.993093 95.995331z m-191.991686-95.995331c0-127.994116 144.460136-160.322405 144.460136-319.984778 31.998785 0 143.525857 95.995331 143.525858 223.989447 16.821107 0 31.998785-31.884175 31.998785-63.996546 0 0 63.962777 62.168921 63.962777 159.991877 0 97.823979-95.960539 159.971411-191.95587 159.971412s-191.991686-63.97608-191.991686-159.971412zM270.092461 833.864592l15.773242-6.477528a31.998785 31.998785 0 0 1 26.643824 1.068331l15.220656 7.729032c38.971593 19.783579 81.70179 33.206286 125.891222 39.569204 17.492396 2.518357 29.629831 18.74083 27.111474 36.232203-2.51938 17.491373-18.74083 29.629831-36.233226 27.110451-51.059909-7.352455-100.497878-22.88215-145.741315-45.850258l-2.146897-1.090844-2.216481 0.910742c-53.134151 21.799492-109.688191 32.856315-167.983899 32.856316h-0.86981c-23.305799 0-38.793538-24.116257-29.098735-45.309952 14.242376-31.133068 21.629623-65.063855 21.629623-99.550297 0-28.440749-4.874007-56.039317-14.291494-81.72021l-17.993816-46.282092c-13.231349-38.715767-21.066805-94.536097-21.066805-141.052527 0-233.250368 203.907063-431.979502 447.978894-431.979502 224.060055 0 416.890852 168.08623 444.627567 380.535853 2.288113 17.524119-10.063193 33.583886-27.586289 35.871999-17.524119 2.288113-33.583886-10.063193-35.871999-27.586289-23.563672-180.482561-189.155081-324.823993-381.169279-324.823993-209.090109 0-383.981325 170.45109-383.981325 367.981932 0 39.923268 6.873548 88.886423 17.165962 119.092376l17.754362 45.605687c12.239765 33.351596 18.431791 68.415183 18.431792 104.355743 0 26.52819-3.455705 52.812833-10.217713 78.212316 33.878598-3.992941 66.76152-12.493545 98.240465-25.408693z" /></svg>