<?xml version="1.0" standalone="no"?><!DOCTYPE svg PUBLIC "-//W3C//DTD SVG 1.1//EN" "http://www.w3.org/Graphics/SVG/1.1/DTD/svg11.dtd"><svg class="icon" width="200px" height="200.00px" viewBox="0 0 1024 1024" version="1.1" xmlns="http://www.w3.org/2000/svg"><path fill="#7772222|-1,7772223|-1,7772224|-1,7772225|-1,7772226|-1,7772227|-1,7772228|-1,7772229|-1,7772230|-1,7772231|-1,7772232|-1,7772233|-1,7772234|-1,7772235|-1,7772236|-1,7772237|-1,7772238|-1,7772239|-1,7772240|-1,7772241|-1" d="M393.860323 708.569958c30.760584 28.005844 72.744791 45.2506 119.02893 45.2506 47.653323 0 90.747817-18.280342 121.729436-47.76384 4.852518-4.618181 9.19236-0.943488 6.383384 5.559622-23.062252 53.394071-71.76344 90.202395-128.111797 90.202395-56.412824 0-105.159038-36.891212-128.189567-90.381473-2.777253-6.447852 3.288906-8.211009 9.159614-2.867304z m150.138462 283.406698h-31.998785c-53.016471 0-95.995331-28.652574-95.995331-63.996547s42.97886-63.996546 95.995331-63.996546c50.362015 0 91.666746 25.854854 95.67606 58.740846 150.146649-25.059745 270.800589-137.244804 308.231083-282.82546a80.608899 80.608899 0 0 1-3.926426 0.095167c-10.710946 0-20.930705-2.104941-30.266327-5.92392-18.780739 36.022425-42.75271 68.949348-70.934563 97.806584-30.67258 31.407314-66.216097 12.872169-39.181371-35.307134 11.158131-19.885909 20.144806-41.281195 23.882944-62.691831 17.640776-101.021811-23.242354-230.245941-43.405579-271.692912-21.869077-44.951795-67.218938-113.927749-83.934645-110.053512-31.391964 7.274684 0 82.539878-72.322165 130.703831-46.823422 31.182186-255.009951 52.913117-304.019155 69.755713-31.875988 10.954493-60.526515 51.714825-65.544809 79.966263-8.257058 46.476521 3.086291 130.620943 23.393803 166.015058 3.541663 6.173606 7.361665 12.205996 11.359722 18.061354 31.637558 46.335305 1.589195 60.692291-27.517727 34.647102-36.361139-32.537044-66.903759-71.351048-89.895403-114.719788-0.438998-0.828878-0.87595-1.658779-1.308808-2.490728-9.336646 3.818979-19.555381 5.92392-30.266328 5.92392-44.180222 0-79.995939-35.815717-79.995939-79.995939v-95.995331c0-40.223097 29.686113-73.511247 68.343552-79.153758 29.232788-199.552895 202.391547-352.825744 411.634128-352.825744s382.40134 153.272849 411.634128 352.825744c38.657438 5.641487 68.343551 38.930661 68.343551 79.153758v95.995331c0 3.945869-0.285502 7.824199-0.837065 11.616572-14.266935 234.548944-209.006198 420.361907-447.143876 420.361907z" /></svg>