<?xml version="1.0" standalone="no"?><!DOCTYPE svg PUBLIC "-//W3C//DTD SVG 1.1//EN" "http://www.w3.org/Graphics/SVG/1.1/DTD/svg11.dtd"><svg class="icon" width="200px" height="200.00px" viewBox="0 0 1024 1024" version="1.1" xmlns="http://www.w3.org/2000/svg"><path fill="#7772222|-1,7772223|-1,7772224|-1,7772225|-1,7772226|-1,7772227|-1,7772228|-1,7772229|-1,7772230|-1,7772231|-1,7772232|-1,7772233|-1,7772234|-1,7772235|-1,7772236|-1,7772237|-1,7772238|-1,7772239|-1,7772240|-1,7772241|-1" d="M513.299599 735.536123c123.706463 0 223.989447-100.282984 223.989447-223.989448 0-123.70544-100.282984-223.989447-223.989447-223.989447-123.70544 0-223.989447 100.282984-223.989447 223.989447 0 123.706463 100.284007 223.989447 223.989447 223.989448zM160.945599 234.857982a450.408223 450.408223 0 0 1 72.317049-72.983221c11.949146-9.578146 29.009707-9.346879 40.694841 0.551562 16.337083 13.839193 36.758182 21.866007 58.635445 22.630417 51.610448 1.802042 95.356788-37.564547 99.088786-88.890517 1.111311-15.288195 12.909008-27.640524 28.130687-29.452799a451.124538 451.124538 0 0 1 69.122287-2.87242 453.462792 453.462792 0 0 1 33.583886 2.420119c15.231913 1.667989 27.143197 13.900591 28.404934 29.17139 1.765203 21.341051 10.529821 41.460274 25.460881 57.471946 35.214013 37.762045 93.970208 40.86471 132.902916 7.226588 11.593036-10.016121 28.658713-10.410094 40.700981-0.939395a450.408223 450.408223 0 0 1 72.983221 72.317049c9.578146 11.949146 9.346879 29.009707-0.551562 40.695864-13.839193 16.337083-21.866007 36.758182-22.630416 58.635445-1.802042 51.610448 37.564547 95.356788 88.889493 99.088786 15.288195 1.111311 27.641547 12.909008 29.453822 28.130688a451.124538 451.124538 0 0 1 2.871397 69.122287 454.017424 454.017424 0 0 1-2.419096 33.583886c-1.669012 15.231913-13.900591 27.142174-29.17139 28.404933-21.341051 1.765203-41.460274 10.529821-57.472969 25.460882-37.762045 35.214013-40.86471 93.970208-7.226588 132.902916 10.016121 11.593036 10.410094 28.658713 0.939395 40.70098a450.408223 450.408223 0 0 1-72.317049 72.983222c-11.949146 9.578146-29.009707 9.346879-40.694841-0.551562-16.337083-13.839193-36.759205-21.866007-58.635445-22.629394-51.610448-1.802042-95.356788 37.564547-99.088786 88.889493-1.111311 15.288195-12.909008 27.640524-28.130687 29.453823a451.117374 451.117374 0 0 1-69.121264 2.87242 453.462792 453.462792 0 0 1-33.583886-2.420119c-15.231913-1.667989-27.143197-13.900591-28.404934-29.17139-1.765203-21.341051-10.529821-41.460274-25.460881-57.471946-35.214013-37.762045-93.971232-40.86471-132.902916-7.226588-11.593036 10.016121-28.658713 10.410094-40.700981 0.939395a450.408223 450.408223 0 0 1-72.983221-72.317049c-9.578146-11.949146-9.346879-29.009707 0.551562-40.694841 13.839193-16.337083 21.866007-36.758182 22.629393-58.635445 1.802042-51.610448-37.564547-95.356788-88.889493-99.088786-15.288195-1.111311-27.640524-12.909008-29.453822-28.130687a451.117374 451.117374 0 0 1-2.872421-69.121264 453.462792 453.462792 0 0 1 2.420119-33.583886c1.667989-15.231913 13.900591-27.142174 29.17139-28.404934 21.341051-1.76418 41.460274-10.529821 57.471946-25.460881 37.762045-35.214013 40.86471-93.971232 7.226589-132.902916-10.016121-11.595083-10.410094-28.661783-0.938372-40.704051z" /></svg>