<?xml version="1.0" standalone="no"?><!DOCTYPE svg PUBLIC "-//W3C//DTD SVG 1.1//EN" "http://www.w3.org/Graphics/SVG/1.1/DTD/svg11.dtd"><svg class="icon" width="200px" height="200.00px" viewBox="0 0 1024 1024" version="1.1" xmlns="http://www.w3.org/2000/svg"><path fill="#7766789|-1,7766790|-1,7766791|-1,7766792|-1,7766793|-1,7766794|-1,7766795|-1,7766796|-1,7766797|-1,7766798|-1,7766799|-1,7766800|-1,7766801|-1,7766802|-1,7766803|-1,7766804|-1,7766805|-1,7766806|-1,7766807|-1,7766808|-1" d="M789.476639 602.505293c0-17.672498 14.326287-31.998785 31.998785-31.998784s31.998785 14.326287 31.998784 31.998784v255.988232c0 53.016471-42.97886 95.995331-95.995331 95.995332H149.507082c-53.016471 0-95.995331-42.97886-95.995331-95.995332V282.520515c0-53.016471 42.97886-95.995331 95.995331-95.995331h223.989447c17.672498 0 31.998785 14.326287 31.998785 31.998785s-14.326287 31.998785-31.998785 31.998785H149.507082c-17.672498 0-31.998785 14.326287-31.998785 31.998784v575.971987c0 17.672498 14.326287 31.998785 31.998785 31.998785h607.970772c17.672498 0 31.998785-14.326287 31.998785-31.998785V602.505293z m71.761394-351.983563L734.851531 124.136252c-12.495592-12.495592-12.495592-32.756031 0-45.252647 12.496615-12.496615 32.756031-12.496615 45.252646 0l181.010587 181.010587c12.496615 12.496615 12.496615 32.756031 0 45.252646L780.105201 486.157425c-12.496615 12.496615-32.756031 12.496615-45.252647 0-12.495592-12.495592-12.495592-32.756031 0-45.252646l126.385479-126.385479H757.477854c-212.066907 0-383.981325 171.914418-383.981325 383.981325 0 17.672498-14.326287 31.998785-31.998784 31.998784s-31.998785-14.326287-31.998785-31.998784c0-247.411903 200.566992-447.978894 447.978894-447.978895h103.760179z" /></svg>