<?xml version="1.0" standalone="no"?><!DOCTYPE svg PUBLIC "-//W3C//DTD SVG 1.1//EN" "http://www.w3.org/Graphics/SVG/1.1/DTD/svg11.dtd"><svg class="icon" width="200px" height="200.00px" viewBox="0 0 1024 1024" version="1.1" xmlns="http://www.w3.org/2000/svg"><path fill="#7766789|-1,7766790|-1,7766791|-1,7766792|-1,7766793|-1,7766794|-1,7766795|-1,7766796|-1,7766797|-1,7766798|-1,7766799|-1,7766800|-1,7766801|-1,7766802|-1,7766803|-1,7766804|-1,7766805|-1,7766806|-1,7766807|-1,7766808|-1" d="M557.327348 989.157447c-25.009603 25.092491-65.645093 25.092491-90.654696 0-235.249909-236.027621-354.653369-422.443311-354.653369-569.724702C112.019283 196.780759 290.950512 16.023952 512 16.023952s399.980717 180.756807 399.980717 403.408793c0 147.281391-119.40346 333.697081-354.653369 569.724702z m-45.327348-605.151563c35.344996 0 63.996546-28.652574 63.996546-63.996546s-28.652574-63.996546-63.996546-63.996547-63.996546 28.652574-63.996546 63.996547 28.65155 63.996546 63.996546 63.996546z m0 63.996546c-70.688969 0-127.994116-57.305147-127.994116-127.994116s57.305147-127.994116 127.994116-127.994116 127.994116 57.305147 127.994116 127.994116-57.305147 127.994116-127.994116 127.994116z m191.870936 281.150308c-3.599991-102.867856-88.126106-185.153954-191.870936-185.153953s-188.270944 82.287121-191.870936 185.153953c50.620911 65.669652 114.578572 137.27755 191.870936 214.826764 77.292364-77.549214 141.250024-149.158135 191.870936-214.826764z m-435.486373-72.00801c33.245172-102.797247 129.748063-177.143513 243.615437-177.143513s210.370265 74.345242 243.615437 177.143513c61.578474-92.949972 92.367711-172.187641 92.36771-237.711983 0-187.452299-150.424988-339.412246-335.98417-339.412247S176.015829 231.980445 176.015829 419.432745c0 65.524342 30.789237 144.760988 92.368734 237.711983z" /></svg>