<?xml version="1.0" standalone="no"?><!DOCTYPE svg PUBLIC "-//W3C//DTD SVG 1.1//EN" "http://www.w3.org/Graphics/SVG/1.1/DTD/svg11.dtd"><svg class="icon" width="200px" height="200.00px" viewBox="0 0 1024 1024" version="1.1" xmlns="http://www.w3.org/2000/svg"><path fill="#7772222|-1,7772223|-1,7772224|-1,7772225|-1,7772226|-1,7772227|-1,7772228|-1,7772229|-1,7772230|-1,7772231|-1,7772232|-1,7772233|-1,7772234|-1,7772235|-1,7772236|-1,7772237|-1,7772238|-1,7772239|-1,7772240|-1,7772241|-1" d="M512.445138 29.274744c-212.08328 0.240477-384.16859 172.349323-384.426463 384.417253-0.094144 96.448656 35.357276 184.550203 94.011141 251.927753l254.737752 312.412312a45.709041 45.709041 0 0 0 6.562462 6.545067c19.452028 15.790638 48.028876 12.827143 63.802118-6.618745L800.110837 666.441465c59.583027-67.695798 95.776344-156.467611 95.870488-253.620302C896.239198 200.75528 724.504882 29.03529 512.445138 29.274744z m190.842513 553.253566c0.335644-3.076058 0.703011-6.145977 0.703011-9.279341 0-70.687946-85.948511-127.994116-191.990662-127.994116S320.009338 502.561024 320.009338 573.248969c0 3.447519 0.37146 6.831592 0.773619 10.208503-40.232306-45.185108-64.840774-104.58087-64.770166-169.909761 0.156566-141.377938 114.908076-256.118192 256.276805-256.278851 141.367705-0.160659 255.855202 114.320699 255.698636 255.696589-0.070608 65.088414-24.632004 124.348076-64.700581 169.562861zM512 317.261761m-95.995331 0a95.995331 95.995331 0 1 0 191.990662 0 95.995331 95.995331 0 1 0-191.990662 0Z" /></svg>