<?xml version="1.0" standalone="no"?><!DOCTYPE svg PUBLIC "-//W3C//DTD SVG 1.1//EN" "http://www.w3.org/Graphics/SVG/1.1/DTD/svg11.dtd"><svg class="icon" width="200px" height="200.00px" viewBox="0 0 1024 1024" version="1.1" xmlns="http://www.w3.org/2000/svg"><path fill="#7772222|-1,7772223|-1,7772224|-1,7772225|-1,7772226|-1,7772227|-1,7772228|-1,7772229|-1,7772230|-1,7772231|-1,7772232|-1,7772233|-1,7772234|-1,7772235|-1,7772236|-1,7772237|-1,7772238|-1,7772239|-1,7772240|-1,7772241|-1" d="M407.365918 900.807237L60.426231 450.254727c-5.390777-7.000438-4.086062-17.046235 2.915399-22.438035a16.001439 16.001439 0 0 1 9.761318-3.322675h211.716936c7.064906 0 13.292748 4.63353 15.32401 11.399631l135.221728 450.55251c2.539846 8.462742-2.261507 17.382902-10.725272 19.922748a15.994276 15.994276 0 0 1-17.274432-5.561669z m52.865021-804.083312l-153.117306 255.988232a15.998369 15.998369 0 0 1-13.730723 7.786337H69.457932c-8.836249 0-15.999392-7.163143-15.999393-15.999392 0-2.998287 0.842181-5.935176 2.430352-8.478092L201.741747 102.59054a63.99757 63.99757 0 0 1 54.268998-30.079063h190.489472c8.836249 0 15.999392 7.163143 15.999392 15.999393 0 2.891863-0.783853 5.730515-2.26867 8.213055z m36.299741 842.738703L369.464703 444.472024c-2.197038-8.558933 2.960425-17.277502 11.518335-19.47454a15.998369 15.998369 0 0 1 3.977591-0.502444h254.601652c8.836249 0 15.999392 7.163143 15.999392 15.999393 0 1.346671-0.169869 2.688225-0.506536 3.991917l-127.534652 494.990605c-2.204202 8.556886-10.92891 13.706163-19.484773 11.500938a15.998369 15.998369 0 0 1-11.505032-11.515265z m243.205091-514.967588h211.160257c8.836249 0 15.999392 7.163143 15.999393 15.999393 0 3.53143-1.168616 6.963599-3.322675 9.761318L616.874559 900.507408c-5.390777 7.001461-15.436574 8.306176-22.438035 2.915399a15.998369 15.998369 0 0 1-5.558599-17.288758l135.537929-450.251657a15.999392 15.999392 0 0 1 15.319917-11.387352z m-350.437347-87.421048L497.890654 129.788995c4.100388-7.827269 13.769608-10.848069 21.596877-6.747681a16.004509 16.004509 0 0 1 6.738472 6.729262l108.929921 207.28602c4.110621 7.822153 1.102101 17.494443-6.720052 21.605063a15.996322 15.996322 0 0 1-7.442506 1.836835H403.470191c-8.836249 0-15.999392-7.163143-15.999392-15.999392a16.010649 16.010649 0 0 1 1.827625-7.42511zM577.573461 72.511477h190.413748a63.9945 63.9945 0 0 1 54.268997 30.079063l145.852856 233.43047c4.681626 7.493671 2.402723 17.364483-5.090948 22.046108a15.992229 15.992229 0 0 1-8.478092 2.431376H731.165582a15.998369 15.998369 0 0 1-13.719466-7.767917L563.853995 96.742345c-4.546549-7.576559-2.089591-17.404392 5.487991-21.950942a15.994276 15.994276 0 0 1 8.231475-2.279926z" /></svg>