<?xml version="1.0" standalone="no"?><!DOCTYPE svg PUBLIC "-//W3C//DTD SVG 1.1//EN" "http://www.w3.org/Graphics/SVG/1.1/DTD/svg11.dtd"><svg class="icon" width="200px" height="200.00px" viewBox="0 0 1024 1024" version="1.1" xmlns="http://www.w3.org/2000/svg"><path fill="#7766789|-1,7766790|-1,7766791|-1,7766792|-1,7766793|-1,7766794|-1,7766795|-1,7766796|-1,7766797|-1,7766798|-1,7766799|-1,7766800|-1,7766801|-1,7766802|-1,7766803|-1,7766804|-1,7766805|-1,7766806|-1,7766807|-1,7766808|-1" d="M982.251154 382.086162L822.258253 126.09793A63.999616 63.999616 0 0 0 767.987209 96.019891H256.011768a63.999616 63.999616 0 0 0-54.271044 30.079062L41.748846 382.086162c-15.322987 24.52251-12.304234 56.274678 7.374968 77.465302l415.98011 447.978894a63.995523 63.995523 0 0 0 93.792152 0l415.98011-447.978894c19.678178-21.190625 22.697955-52.942793 7.374968-77.465302zM767.987209 160.016437l139.993404 223.989447H719.985962L551.993876 160.016437h215.993333zM640.000256 384.005884H384.491954l127.546932-170.610726L640.000256 384.005884zM256.011768 160.016437h216.044498l-167.474293 223.989447H116.018364l139.993404-223.989447zM125.732609 448.00243H299.464419l148.062174 346.543668-321.793984-346.543668z m386.321626 334.63443L369.084033 448.00243h286.394752L512.054235 782.63686z m213.030861-334.63443h173.181271L576.645322 794.364973l148.439774-346.362543z" /></svg>