<?xml version="1.0" standalone="no"?><!DOCTYPE svg PUBLIC "-//W3C//DTD SVG 1.1//EN" "http://www.w3.org/Graphics/SVG/1.1/DTD/svg11.dtd"><svg class="icon" width="200px" height="200.00px" viewBox="0 0 1024 1024" version="1.1" xmlns="http://www.w3.org/2000/svg"><path fill="#7772222|-1,7772223|-1,7772224|-1,7772225|-1,7772226|-1,7772227|-1,7772228|-1,7772229|-1,7772230|-1,7772231|-1,7772232|-1,7772233|-1,7772234|-1,7772235|-1,7772236|-1,7772237|-1,7772238|-1,7772239|-1,7772240|-1,7772241|-1" d="M706.544835 64.021106h-6.500041a159.889547 159.889547 0 0 0-83.558068 23.557532c-54.583153 33.422204-86.949304 40.439014-104.486726 40.439014-17.538445 0-49.903573-7.016811-104.494912-40.445154a159.88136 159.88136 0 0 0-83.550905-23.551392h-6.507204a127.823224 127.823224 0 0 0-97.182366 44.702108l-172.836417 201.635323c-19.522636 22.774703-20.600177 56.050574-2.609431 80.047104l95.995331 127.994116a63.99757 63.99757 0 0 0 83.198887 17.024745v328.558038c0 52.93256 43.060725 95.995331 95.995331 95.995331h415.98011c52.934606 0 95.995331-43.062771 95.995331-95.995331V535.424502a64.028269 64.028269 0 0 0 42.240033 7.749498 64.013943 64.013943 0 0 0 46.990221-34.528398l63.996546-127.856993c11.522428-23.027459 8.125051-50.721195-8.632611-70.278623L803.743574 108.74675c-24.335245-28.421306-59.770292-44.725644-97.198739-44.725644z" /></svg>