<?xml version="1.0" standalone="no"?><!DOCTYPE svg PUBLIC "-//W3C//DTD SVG 1.1//EN" "http://www.w3.org/Graphics/SVG/1.1/DTD/svg11.dtd"><svg class="icon" width="200px" height="200.00px" viewBox="0 0 1024 1024" version="1.1" xmlns="http://www.w3.org/2000/svg"><path fill="#7766789|-1,7766790|-1,7766791|-1,7766792|-1,7766793|-1,7766794|-1,7766795|-1,7766796|-1,7766797|-1,7766798|-1,7766799|-1,7766800|-1,7766801|-1,7766802|-1,7766803|-1,7766804|-1,7766805|-1,7766806|-1,7766807|-1,7766808|-1" d="M529.851577 987.197816c-7.504928 0-15.041578-2.532683-21.280676-7.721869-14.053064-11.768021-15.936971-32.707936-4.169973-46.777373l146.121985-174.769442-205.578122-114.200972c-8.524141-4.740978-15.96767-11.428284-21.496593-19.334347-20.570501-29.017894-13.651928-69.570495 15.505136-90.249467l196.867739-139.281183L457.021851 300.476469c-7.258311-3.968381-15.96767-4.710278-23.844058-2.099824L269.481548 352.951611c-17.358343 5.760191-36.229133-3.597945-42.004673-21.002337-5.806239-17.404392 3.613294-36.198433 21.002336-42.004672l163.726945-54.57599c25.203008-8.369621 53.123918-5.960759 76.504418 6.733355l178.953742 97.074919c15.196097 8.246825 26.315342 21.929452 31.226188 38.530548 4.941546 16.616446 3.119037 34.144658-5.158486 49.386804-4.694929 8.647961-11.428284 16.23066-19.488867 21.960151L477.345736 588.349899l223.831858 121.737622c11.458983 6.393617 19.736507 16.833387 23.319101 29.41903 3.613294 12.602016 2.069125 25.851784-4.324492 37.295417-0.957815 1.698688-3.706415 5.77554-4.941545 7.28901L555.363623 975.291648c-6.578836 7.860015-15.999392 11.906168-25.512046 11.906168zM37.619806 970.875059c-11.180644 0-22.083971-5.65172-28.353768-15.890922-9.575076-15.644305-4.66423-36.089963 10.995425-45.64969l230.441392-140.979871c11.335163-6.949272 20.878516-16.045441 28.384468-27.010168l61.864999-90.712001c10.31595-15.150048 30.91715-19.026332 46.143947-8.725732 15.133675 10.346649 19.057031 30.993898 8.710382 46.159296l-61.864999 90.712002c-12.817933 18.794042-29.15604 34.329876-48.583509 46.220694L54.915727 965.979562a32.970926 32.970926 0 0 1-17.295921 4.895497zM844.086397 520.694009c-5.034666 0-10.130731-1.143033-14.856359-3.505847l-79.068823-39.534411c-16.400528-8.199753-23.040762-28.136827-14.85636-44.552706 8.216125-16.369829 28.04473-23.087834 44.569078-14.841009l57.046251 28.523637 125.397988-132.300189c12.602016-13.31219 33.665751-13.867846 46.947242-1.26583 13.31219 12.617365 13.867846 33.635051 1.235131 46.947242L868.178095 510.332011a33.169447 33.169447 0 0 1-24.091698 10.361998zM788.738835 337.261257c-82.836637 0-150.229536-67.393923-150.229536-150.229537S705.902198 36.802184 788.738835 36.802184 938.969395 104.195084 938.969395 187.03172s-67.393923 150.229536-150.23056 150.229537z m0-237.204424c-47.966455 0-86.974887 39.009456-86.974887 86.974887s39.009456 86.974887 86.974887 86.974888 86.974887-39.009456 86.974887-86.974888-39.008432-86.974887-86.974887-86.974887z" /></svg>