<?xml version="1.0" standalone="no"?><!DOCTYPE svg PUBLIC "-//W3C//DTD SVG 1.1//EN" "http://www.w3.org/Graphics/SVG/1.1/DTD/svg11.dtd"><svg class="icon" width="200px" height="200.00px" viewBox="0 0 1024 1024" version="1.1" xmlns="http://www.w3.org/2000/svg"><path fill="#7766789|-1,7766790|-1,7766791|-1,7766792|-1,7766793|-1,7766794|-1,7766795|-1,7766796|-1,7766797|-1,7766798|-1,7766799|-1,7766800|-1,7766801|-1,7766802|-1,7766803|-1,7766804|-1,7766805|-1,7766806|-1,7766807|-1,7766808|-1" d="M336.00873 736.030379h31.998785c17.672498 0 31.998785 14.326287 31.998785 31.998785v31.998785c0 17.672498-14.326287 31.998785-31.998785 31.998785h-31.998785c-17.672498 0-31.998785-14.326287-31.998785-31.998785v-31.998785c0-17.672498 14.326287-31.998785 31.998785-31.998785z m0-191.990662h31.998785c17.672498 0 31.998785 14.326287 31.998785 31.998785v31.998785c0 17.672498-14.326287 31.998785-31.998785 31.998785h-31.998785c-17.672498 0-31.998785-14.326287-31.998785-31.998785v-31.998785c0-17.672498 14.326287-31.998785 31.998785-31.998785z m383.981325 95.995331h31.998785c17.672498 0 31.998785 14.326287 31.998784 31.998785v31.998785c0 17.672498-14.326287 31.998785-31.998784 31.998785h-31.998785c-17.672498 0-31.998785-14.326287-31.998785-31.998785v-31.998785c0-17.672498 14.326287-31.998785 31.998785-31.998785zM336.00873 352.049055h31.998785c17.672498 0 31.998785 14.326287 31.998785 31.998785v31.998784c0 17.672498-14.326287 31.998785-31.998785 31.998785h-31.998785c-17.672498 0-31.998785-14.326287-31.998785-31.998785v-31.998784c0-17.672498 14.326287-31.998785 31.998785-31.998785zM176.015829 912.021649H527.999392c8.836249 0 15.999392-7.163143 15.999393-15.999392V137.946792c0-8.836249-7.163143-15.999392-15.999393-15.999392-2.483564 0-4.933359 0.578168-7.154957 1.688455L168.860872 299.629171a15.999392 15.999392 0 0 0-8.844435 14.309914v582.083172c0 8.836249 7.163143 15.999392 15.999392 15.999392z m447.978895 0h223.989447c8.836249 0 15.999392-7.163143 15.999392-15.999392V536.907273a15.998369 15.998369 0 0 0-7.519254-13.566994l-248.468978-155.291832v527.974833c0 8.835226 7.163143 15.998369 15.999393 15.998369z m-527.974833 0V304.050878a63.99757 63.99757 0 0 1 35.376718-57.240679L515.377934 54.819536c42.551118-21.276582 92.617397 9.66615 92.617397 57.240679v191.888332c11.379165-0.025583 23.059182 3.043313 33.918507 9.829879l255.987209 159.991878a63.99757 63.99757 0 0 1 30.079062 54.268997v383.981325h31.998785c17.672498 0 31.998785 14.326287 31.998785 31.998785s-14.326287 31.998785-31.998785 31.998785H64.021106c-17.672498 0-31.998785-14.326287-31.998785-31.998785s14.326287-31.998785 31.998785-31.998785h31.998785z" /></svg>