<?xml version="1.0" standalone="no"?><!DOCTYPE svg PUBLIC "-//W3C//DTD SVG 1.1//EN" "http://www.w3.org/Graphics/SVG/1.1/DTD/svg11.dtd"><svg class="icon" width="200px" height="200.00px" viewBox="0 0 1024 1024" version="1.1" xmlns="http://www.w3.org/2000/svg"><path fill="#7766789|-1,7766790|-1,7766791|-1,7766792|-1,7766793|-1,7766794|-1,7766795|-1,7766796|-1,7766797|-1,7766798|-1,7766799|-1,7766800|-1,7766801|-1,7766802|-1,7766803|-1,7766804|-1,7766805|-1,7766806|-1,7766807|-1,7766808|-1" d="M575.996546 129.23027v414.767492c0 17.672498-14.32731 31.998785-31.998784 31.998784H129.229247c16.33913 214.787878 195.795315 383.981325 414.769538 383.981325 229.739405 0 415.980109-186.240705 415.980109-415.980109-0.001023-218.972177-169.195493-398.428362-383.982348-414.767492z m-31.997761 766.751055c-159.148673 0-296.509111-107.977223-338.671373-255.987209h338.671373c52.931536 0 95.995331-43.062771 95.995331-95.995331V205.326389c148.012032 42.163285 255.987209 179.52577 255.987209 338.671373 0 194.084347-157.898193 351.983563-351.98254 351.983563zM512 480.001215V65.071018C272.41025 80.84119 80.84119 272.411273 65.072041 512h414.929174c17.671475 0 31.998785-14.326287 31.998785-31.998785z m-63.99757-31.998785H139.173736c36.119639-152.354943 156.472727-272.710079 308.828694-308.829717v308.829717z" /></svg>