<?xml version="1.0" standalone="no"?><!DOCTYPE svg PUBLIC "-//W3C//DTD SVG 1.1//EN" "http://www.w3.org/Graphics/SVG/1.1/DTD/svg11.dtd"><svg class="icon" width="200px" height="200.00px" viewBox="0 0 1024 1024" version="1.1" xmlns="http://www.w3.org/2000/svg"><path fill="#7766789|-1,7766790|-1,7766791|-1,7766792|-1,7766793|-1,7766794|-1,7766795|-1,7766796|-1,7766797|-1,7766798|-1,7766799|-1,7766800|-1,7766801|-1,7766802|-1,7766803|-1,7766804|-1,7766805|-1,7766806|-1,7766807|-1,7766808|-1" d="M88.019683 160.016437c0-53.016471 42.97886-95.995331 95.995331-95.995331h639.969556c53.016471 0 95.995331 42.97886 95.995332 95.995331v543.974225c0 53.016471-42.97886 95.995331-95.995332 95.995331H200.014406c-26.508747 0-47.998177 21.48943-47.998177 47.998178s21.48943 47.998177 47.998177 47.998177h703.966103c17.672498 0 31.998785 14.326287 31.998785 31.998785s-14.326287 31.998785-31.998785 31.998785H200.014406c-56.421011 0-111.994724-39.997969-111.994723-95.995332V160.016437z m543.974225-31.997762H184.016037c-17.672498 0-31.998785 14.326287-31.998785 31.998785v586.749448c14.547321-6.910387 30.820959-10.777461 47.998178-10.777461h623.970164c17.672498 0 31.998785-14.326287 31.998785-31.998785V160.016437c0-17.672498-14.326287-31.998785-31.998785-31.998785H695.991478v447.978894c0 17.672498-14.326287 31.998785-31.998785 31.998785s-31.998785-14.326287-31.998785-31.998785V128.018675z" /></svg>