<?xml version="1.0" standalone="no"?><!DOCTYPE svg PUBLIC "-//W3C//DTD SVG 1.1//EN" "http://www.w3.org/Graphics/SVG/1.1/DTD/svg11.dtd"><svg class="icon" width="200px" height="200.00px" viewBox="0 0 1024 1024" version="1.1" xmlns="http://www.w3.org/2000/svg"><path fill="#7772222|-1,7772223|-1,7772224|-1,7772225|-1,7772226|-1,7772227|-1,7772228|-1,7772229|-1,7772230|-1,7772231|-1,7772232|-1,7772233|-1,7772234|-1,7772235|-1,7772236|-1,7772237|-1,7772238|-1,7772239|-1,7772240|-1,7772241|-1" d="M631.993908 64.021106v511.97544c0 17.672498 14.326287 31.998785 31.998785 31.998785s31.998785-14.326287 31.998785-31.998785V64.021106h127.994116c53.016471 0 95.995331 42.97886 95.995331 95.995331v543.974225c0 53.016471-42.97886 95.995331-95.995331 95.995331h-623.971188c-26.508747 0-47.998177 21.48943-47.998177 47.998178s21.48943 47.998177 47.998177 47.998177h703.966103c17.672498 0 31.998785 14.326287 31.998785 31.998785s-14.326287 31.998785-31.998785 31.998785H200.014406c-56.421011 0-111.994724-39.997969-111.994723-95.995332V160.016437c0-53.016471 42.97886-95.995331 95.995331-95.995331h447.978894z" /></svg>