<svg class="icon" style="width: 1em;height: 1em;vertical-align: middle;fill: currentColor;overflow: hidden;" viewBox="0 0 1024 1024" version="1.1" xmlns="http://www.w3.org/2000/svg"><path d="M818.133333 443.306667H192a21.333333 21.333333 0 0 1 0-42.666667h626.133333a21.333333 21.333333 0 0 1 0 42.666667z" /><path d="M818.133333 443.306667a21.333333 21.333333 0 0 1-15.146666-6.186667l-208.64-208.64a21.333333 21.333333 0 0 1 0-30.293333 21.333333 21.333333 0 0 1 30.08 0l208.853333 208.853333a21.333333 21.333333 0 0 1-15.146667 36.266667zM832 617.386667H205.866667a21.333333 21.333333 0 0 1 0-42.666667H832a21.333333 21.333333 0 0 1 0 42.666667z"  /><path d="M414.506667 826.026667a21.333333 21.333333 0 0 1-14.933334-6.4l-208.853333-208.64a21.333333 21.333333 0 0 1 0-30.08 21.333333 21.333333 0 0 1 30.293333 0L429.653333 789.333333a21.333333 21.333333 0 0 1 0 30.08 21.333333 21.333333 0 0 1-15.146666 6.613334z" /></svg>