<?xml version="1.0" standalone="no"?><!DOCTYPE svg PUBLIC "-//W3C//DTD SVG 1.1//EN" "http://www.w3.org/Graphics/SVG/1.1/DTD/svg11.dtd"><svg class="icon" width="200px" height="200.00px" viewBox="0 0 1024 1024" version="1.1" xmlns="http://www.w3.org/2000/svg"><path fill="#7766789|-1,7766790|-1,7766791|-1,7766792|-1,7766793|-1,7766794|-1,7766795|-1,7766796|-1,7766797|-1,7766798|-1,7766799|-1,7766800|-1,7766801|-1,7766802|-1,7766803|-1,7766804|-1,7766805|-1,7766806|-1,7766807|-1,7766808|-1" d="M256.011768 432.004061c0 8.836249 7.163143 15.999392 15.999392 15.999393H710.260459c8.836249 0 15.999392-7.163143 15.999393-15.999393 0-3.284813-1.011027-6.489808-2.895957-9.18008l-99.065249-141.398404a16.000416 16.000416 0 0 1-0.008187-18.349926l99.234095-141.886521c5.064342-7.240915 3.300162-17.216103-3.941775-22.280446a16.001439 16.001439 0 0 0-9.169847-2.888793H272.01116c-8.836249 0-15.999392 7.163143-15.999392 15.999392v319.984778z m0 79.995939v447.978894c0 17.672498-14.326287 31.998785-31.998785 31.998785s-31.998785-14.326287-31.998785-31.998785V64.021106c0-17.672498 14.326287-31.998785 31.998785-31.998785h578.541509c17.672498 0 31.998785 14.326287 31.998785 31.998785a32.004925 32.004925 0 0 1-5.776564 18.339693l-126.368082 180.682106a15.998369 15.998369 0 0 0 0.008186 18.349927l126.283148 180.2472c10.139941 14.473643 6.627954 34.42709-7.845688 44.567032a31.996738 31.996738 0 0 1-18.361183 5.791913H256.011768z" /></svg>