<?xml version="1.0" standalone="no"?><!DOCTYPE svg PUBLIC "-//W3C//DTD SVG 1.1//EN" "http://www.w3.org/Graphics/SVG/1.1/DTD/svg11.dtd"><svg class="icon" width="200px" height="200.00px" viewBox="0 0 1024 1024" version="1.1" xmlns="http://www.w3.org/2000/svg"><path fill="#7766809|-1,7766810|-1,7766811|-1,7766812|-1,7766813|-1,7766814|-1,7766815|-1,7766816|-1,7766817|-1,7766818|-1,7766819|-1,7766820|-1,7772174|-1,7772175|-1,7772176|-1,7772177|-1,7772178|-1,7772179|-1,7772180|-1,7772181|-1" d="M450.54637 592.21288l294.450218-294.938336c12.579503-12.353352 32.975019-12.353352 45.554522 0a31.230282 31.230282 0 0 1 0 44.73383L456.553177 726.724433c-12.579503 12.353352-32.975019 12.353352-45.554522 0L233.447866 520.946766a31.230282 31.230282 0 0 1 0-44.73383c12.579503-12.353352 32.975019-12.353352 45.554522 0l136.758734 117.342521c10.161431 8.718569 25.325805 8.133238 34.785248-1.342577zM160.016437 128.018675c-17.672498 0-31.998785 14.326287-31.998785 31.998785v703.966103c0 17.672498 14.326287 31.998785 31.998785 31.998785h703.966103c17.672498 0 31.998785-14.326287 31.998785-31.998785V160.016437c0-17.672498-14.326287-31.998785-31.998785-31.998785H160.016437z m0-63.997569h703.966103c53.016471 0 95.995331 42.97886 95.995331 95.995331v703.966103c0 53.016471-42.97886 95.995331-95.995331 95.995331H160.016437c-53.016471 0-95.995331-42.97886-95.995331-95.995331V160.016437c0-53.016471 42.97886-95.995331 95.995331-95.995331z" /></svg>