<?xml version="1.0" standalone="no"?><!DOCTYPE svg PUBLIC "-//W3C//DTD SVG 1.1//EN" "http://www.w3.org/Graphics/SVG/1.1/DTD/svg11.dtd"><svg class="icon" width="200px" height="200.00px" viewBox="0 0 1024 1024" version="1.1" xmlns="http://www.w3.org/2000/svg"><path fill="#7772222|-1,7772223|-1,7772224|-1,7772225|-1,7772226|-1,7772227|-1,7772228|-1,7772229|-1,7772230|-1,7772231|-1,7772232|-1,7772233|-1,7772234|-1,7772235|-1,7772236|-1,7772237|-1,7772238|-1,7772239|-1,7772240|-1,7772241|-1" d="M461.826274 600.038102c-9.375531 9.05626-24.059975 9.620102-34.102703 1.310855L273.389554 473.655693c-13.977339-13.235442-36.638455-13.235442-50.615795 0-13.977339 13.235442-13.977339 34.694173 0 47.929616l197.279109 220.476437c13.977339 13.235442 36.638455 13.235442 50.615795 0l371.109156-412.193876c13.977339-13.235442 13.977339-34.694173 0-47.929616-13.977339-13.235442-36.638455-13.235442-50.615795 0L461.826274 600.038102zM160.016437 64.021106h703.966103c53.016471 0 95.995331 42.97886 95.995331 95.995331v703.966103c0 53.016471-42.97886 95.995331-95.995331 95.995331H160.016437c-53.016471 0-95.995331-42.97886-95.995331-95.995331V160.016437c0-53.016471 42.97886-95.995331 95.995331-95.995331z" /></svg>