<?xml version="1.0" standalone="no"?><!DOCTYPE svg PUBLIC "-//W3C//DTD SVG 1.1//EN" "http://www.w3.org/Graphics/SVG/1.1/DTD/svg11.dtd"><svg class="icon" width="200px" height="200.00px" viewBox="0 0 1024 1024" version="1.1" xmlns="http://www.w3.org/2000/svg"><path fill="#7766789|-1,7766790|-1,7766791|-1,7766792|-1,7766793|-1,7766794|-1,7766795|-1,7766796|-1,7766797|-1,7766798|-1,7766799|-1,7766800|-1,7766801|-1,7766802|-1,7766803|-1,7766804|-1,7766805|-1,7766806|-1,7766807|-1,7766808|-1" d="M64.021106 853.294107c0-11.769045 9.455349-21.310352 21.263279-21.310352H938.713568c11.743462 0 21.263279 9.44307 21.26328 21.310352v21.376866c0 11.769045-9.455349 21.310352-21.26328 21.310352H85.285408c-11.743462 0-21.263279-9.44307-21.263279-21.310352v-21.376866z m0-351.98254c0-11.769045 9.455349-21.310352 21.263279-21.310352H938.713568c11.743462 0 21.263279 9.44307 21.26328 21.310352v21.376866c0 11.769045-9.455349 21.310352-21.26328 21.310352H85.285408c-11.743462 0-21.263279-9.44307-21.263279-21.310352v-21.376866z m0-351.983563c0-11.769045 9.455349-21.310352 21.263279-21.310352H938.713568c11.743462 0 21.263279 9.44307 21.26328 21.310352v21.376866c0 11.769045-9.455349 21.310352-21.26328 21.310352H85.285408c-11.743462 0-21.263279-9.44307-21.263279-21.310352v-21.376866z" /></svg>