<?xml version="1.0" standalone="no"?><!DOCTYPE svg PUBLIC "-//W3C//DTD SVG 1.1//EN" "http://www.w3.org/Graphics/SVG/1.1/DTD/svg11.dtd"><svg class="icon" width="200px" height="200.00px" viewBox="0 0 1024 1024" version="1.1" xmlns="http://www.w3.org/2000/svg"><path fill="#7772222|-1,7772223|-1,7772224|-1,7772225|-1,7772226|-1,7772227|-1,7772228|-1,7772229|-1,7772230|-1,7772231|-1,7772232|-1,7772233|-1,7772234|-1,7772235|-1,7772236|-1,7772237|-1,7772238|-1,7772239|-1,7772240|-1,7772241|-1" d="M607.312786 415.657768c-17.124006 0-31.212886 13.481036-31.967062 30.588669l-12.763699 289.426809c-0.019443 0.449231-0.029676 0.899486-0.029675 1.348717 0 16.910135 13.70821 30.618345 30.618344 30.618345h1.38044c17.124006 0 31.212886-13.481036 31.967063-30.588669l12.763698-289.426809c0.019443-0.449231 0.029676-0.899486 0.029676-1.348717 0-16.910135-13.70821-30.618345-30.618345-30.618345h-1.38044z m-190.610222 0c-0.449231 0-0.89744 0.010233-1.346671 0.029676-16.894785 0.743944-29.989011 15.042601-29.246091 31.93841l12.735045 289.436018c0.753153 17.108656 14.842033 30.591739 31.968086 30.591739h1.37737c0.449231 0 0.89744-0.010233 1.345648-0.029676 16.895809-0.74292 29.989011-15.042601 29.246091-31.93841l-12.735046-289.436018c-0.753153-17.108656-14.842033-30.591739-31.968086-30.591739h-1.376346z m-8.93551-351.983563h209.861682a31.998785 31.998785 0 0 1 30.356378 21.87931l17.685801 53.057403c2.793626 8.382924-1.736551 17.443277-10.118452 20.237926a15.981996 15.981996 0 0 1-5.059225 0.820692H374.902552c-8.836249 0-15.999392-7.163143-15.999392-15.999392 0-1.719154 0.277316-3.428076 0.820691-5.059226l17.685801-53.057403a32.001855 32.001855 0 0 1 30.357402-21.87931z m391.462716 223.989447l-26.378787 580.331271c-2.330068 51.268664-44.574195 91.636047-95.89607 91.636047H348.440877c-51.321876 0-93.566002-40.367383-95.89607-91.636047l-26.378788-580.331271H118.915343c-8.836249 0-15.999392-7.163143-15.999392-15.999392 0-1.719154 0.277316-3.428076 0.820692-5.059226l17.685801-53.057403a31.998785 31.998785 0 0 1 30.356378-21.87931h721.837122a31.998785 31.998785 0 0 1 30.356379 21.87931l17.685801 53.057403c2.793626 8.382924-1.736551 17.443277-10.118452 20.237926a15.981996 15.981996 0 0 1-5.059226 0.820692H799.22977z" /></svg>