<?xml version="1.0" standalone="no"?><!DOCTYPE svg PUBLIC "-//W3C//DTD SVG 1.1//EN" "http://www.w3.org/Graphics/SVG/1.1/DTD/svg11.dtd"><svg class="icon" width="200px" height="200.00px" viewBox="0 0 1024 1024" version="1.1" xmlns="http://www.w3.org/2000/svg"><path fill="#7766809|-1,7766810|-1,7766811|-1,7766812|-1,7766813|-1,7766814|-1,7766815|-1,7766816|-1,7766817|-1,7766818|-1,7766819|-1,7766820|-1,7772174|-1,7772175|-1,7772176|-1,7772177|-1,7772178|-1,7772179|-1,7772180|-1,7772181|-1" d="M607.179756 258.187317c17.497513 0 31.726585 14.233166 31.726586 31.726585v444.171172c0 17.493419-14.229073 31.726585-31.726586 31.726586H99.555413c-17.497513 0-31.726585-14.233166-31.726585-31.726586V289.913902c0-17.493419 14.229073-31.726585 31.726585-31.726585h507.624343m348.991416 60.820204v385.984958L829.26483 574.804395V449.195605L956.171172 319.007521M607.179756 194.734146H99.555413c-52.562123 0-95.179756 42.61354-95.179756 95.179756v444.171172c0 52.566216 42.61661 95.179756 95.179756 95.179756h507.624343c52.562123 0 95.179756-42.61354 95.179756-95.179756V289.913902c-0.001023-52.566216-42.617633-95.179756-95.179756-95.179756z m380.718001 14.547321c-8.248871 0-16.498766 3.200902-22.718421 9.579169L774.819824 414.144298a31.710212 31.710212 0 0 0-9.008164 22.14537v151.421688a31.710212 31.710212 0 0 0 9.008164 22.145369L965.179336 805.140387a31.736818 31.736818 0 0 0 22.718421 9.579169c17.521049 0 31.726585-14.20349 31.726586-31.726585V241.008053c0-8.55484-3.454682-16.748453-9.581216-22.720468-6.166443-6.012947-14.159488-9.008164-22.14537-9.006118z" /></svg>