<?xml version="1.0" standalone="no"?><!DOCTYPE svg PUBLIC "-//W3C//DTD SVG 1.1//EN" "http://www.w3.org/Graphics/SVG/1.1/DTD/svg11.dtd"><svg class="icon" width="200px" height="200.00px" viewBox="0 0 1024 1024" version="1.1" xmlns="http://www.w3.org/2000/svg"><path fill="#7772222|-1,7772223|-1,7772224|-1,7772225|-1,7772226|-1,7772227|-1,7772228|-1,7772229|-1,7772230|-1,7772231|-1,7772232|-1,7772233|-1,7772234|-1,7772235|-1,7772236|-1,7772237|-1,7772238|-1,7772239|-1,7772240|-1,7772241|-1" d="M774.819824 414.143275l190.359512-195.282639c12.230556-12.546757 32.317033-12.803607 44.864814-0.573051a31.724539 31.724539 0 0 1 9.581216 22.718421v541.984918c0 17.522072-14.204513 31.726585-31.726585 31.726586a31.726585 31.726585 0 0 1-22.718421-9.580193L774.819824 609.855702a31.726585 31.726585 0 0 1-9.008164-22.14537V436.289668a31.727609 31.727609 0 0 1 9.008164-22.146393zM99.555413 194.734146h507.624343c52.566216 0 95.179756 42.61354 95.179756 95.179756v444.171172c0 52.566216-42.61354 95.179756-95.179756 95.179756H99.555413c-52.566216 0-95.179756-42.61354-95.179756-95.179756V289.913902c0-52.566216 42.61354-95.179756 95.179756-95.179756z" /></svg>