<?xml version="1.0" standalone="no"?><!DOCTYPE svg PUBLIC "-//W3C//DTD SVG 1.1//EN" "http://www.w3.org/Graphics/SVG/1.1/DTD/svg11.dtd"><svg class="icon" width="200px" height="200.00px" viewBox="0 0 1024 1024" version="1.1" xmlns="http://www.w3.org/2000/svg"><path fill="#7766789|-1,7766790|-1,7766791|-1,7766792|-1,7766793|-1,7766794|-1,7766795|-1,7766796|-1,7766797|-1,7766798|-1,7766799|-1,7766800|-1,7766801|-1,7766802|-1,7766803|-1,7766804|-1,7766805|-1,7766806|-1,7766807|-1,7766808|-1" d="M640.45972 383.54028c17.736966 0 32.115442 14.378475 32.115442 32.115441v192.689581c0 17.736966-14.378475 32.115442-32.115442 32.115442s-32.115442-14.378475-32.115441-32.115442V415.654698c0.001023-17.735943 14.379499-32.114418 32.115441-32.114418z m128.459721 64.22986c17.736966 0 32.115442 14.378475 32.115441 32.115442v64.22986c0 17.736966-14.378475 32.115442-32.115441 32.115441s-32.115442-14.378475-32.115442-32.115441v-64.22986c0.001023-17.736966 14.379499-32.115442 32.115442-32.115442z m-513.839905 0c17.736966 0 32.115442 14.378475 32.115442 32.115442v64.22986c0 17.736966-14.378475 32.115442-32.115442 32.115441s-32.115442-14.378475-32.115442-32.115441v-64.22986c0.001023-17.736966 14.379499-32.115442 32.115442-32.115442z m128.460744-64.22986c17.736966 0 32.115442 14.378475 32.115441 32.115441v192.689581c0 17.736966-14.378475 32.115442-32.115441 32.115442s-32.115442-14.378475-32.115442-32.115442V415.654698c0-17.735943 14.378475-32.114418 32.115442-32.114418z m128.45972-96.345302c17.736966 0 32.115442 14.378475 32.115442 32.115442v385.380184c0 17.736966-14.378475 32.115442-32.115442 32.115442s-32.115442-14.378475-32.115442-32.115442V319.309396c0-17.735943 14.378475-32.114418 32.115442-32.114418z m0 610.185206c212.839503 0 385.380184-172.540681 385.380184-385.380184S724.839503 126.619816 512 126.619816 126.619816 299.160497 126.619816 512s172.540681 385.380184 385.380184 385.380184z m0 64.22986c-248.312412 0-449.610044-201.297632-449.610044-449.610044s201.297632-449.610044 449.610044-449.610044 449.610044 201.297632 449.610044 449.610044-201.297632 449.610044-449.610044 449.610044z" /></svg>