<?xml version="1.0" standalone="no"?><!DOCTYPE svg PUBLIC "-//W3C//DTD SVG 1.1//EN" "http://www.w3.org/Graphics/SVG/1.1/DTD/svg11.dtd"><svg class="icon" width="200px" height="200.00px" viewBox="0 0 1024 1024" version="1.1" xmlns="http://www.w3.org/2000/svg"><path fill="#7766809|-1,7766810|-1,7766811|-1,7766812|-1,7766813|-1,7766814|-1,7766815|-1,7766816|-1,7766817|-1,7766818|-1,7766819|-1,7766820|-1,7772174|-1,7772175|-1,7772176|-1,7772177|-1,7772178|-1,7772179|-1,7772180|-1,7772181|-1" d="M575.996546 512c-35.344996 0-63.996546-28.652574-63.996546-63.996546s28.652574-63.996546 63.996546-63.996547c35.344996 0 63.996546 28.652574 63.996547 63.996547s-28.65155 63.996546-63.996547 63.996546z m-20.175505 268.895193C407.166373 739.677443 289.712311 621.813035 246.930949 470.258317c-7.549953-31.902594 0.641613-55.479569 19.97903-73.405847 2.205225-2.044566 8.238638-7.150864 7.343245-6.371104 5.210675-4.538363 10.078543-8.491395 18.423605-15.077394 2.600221-2.050706 2.600221-2.050706 5.134951-4.053316 19.160385-15.159258 27.41642-23.335475 31.112601-31.02255 4.465708-9.287527-8.137331-45.497217-37.347606-82.96762-34.562167-44.335764-64.004733-65.345264-89.534176-65.345264-23.75196 0-36.957727 13.716396-61.117986 72.953545-12.670577 31.066553-15.045671 107.311051-8.587586 150.127206 5.485945 36.374442 25.293059 107.856473 42.929742 149.760862 72.115458 171.346483 228.678236 294.294676 414.019455 323.590909 90.163509 14.07967 181.086311 7.721869 206.209502-13.641695 25.185612-21.416775 37.484729-38.672788 37.484729-45.60671 0-21.046339-26.907836-63.288418-64.754816-93.459579-36.870746-29.393447-72.370261-42.030255-81.143065-37.717019-6.478552 3.185552-13.401218 9.604752-23.189142 21.688974-2.769067 3.418866-19.668968 25.429159-25.726941 32.834826-24.171516 30.673603-42.252313 37.231973-82.34545 28.348652z m32.237216-68.156286l0.445138-0.553609c4.986571-6.065136 22.099321-28.355815 25.660426-32.752961 15.123442-18.671245 28.059056-30.665417 44.680618-38.838564 37.784558-18.580171 94.888114 1.746784 149.275815 45.104268 51.608402 41.142026 88.85777 99.619882 88.857771 143.501298 0 31.374568-21.608134 61.694107-60.024072 94.360088-44.155662 37.547151-149.83761 44.937468-257.598916 28.109198C372.054691 918.901337 196.977233 781.412986 116.282377 589.68122 96.553033 542.806633 75.323523 466.190675 69.056795 424.641373c-8.022721-53.18941-5.323239-139.869584 12.610203-183.840028 32.905434-80.679507 63.813375-112.782669 120.375601-112.78267 50.197262 0 94.485955 31.603789 140.006708 89.996711 42.73122 54.815443 62.723553 112.252597 44.550658 150.046364-9.370415 19.487843-22.293749 32.284287-49.081858 53.477982-2.62171 2.071172-2.62171 2.071172-5.193279 4.099365-7.579629 5.983271-11.824303 9.429767-16.043395 13.104459-0.081864 0.071631-4.912893 4.15974-5.865591 5.042853-3.076058 2.850931-3.216251 3.255137-1.554402 10.403954 36.385698 128.806621 137.045259 229.818199 262.395152 264.621866 14.366196 3.165086 7.592932 5.64865 16.801665-6.073322z m147.93119-232.737692c0-106.033965-85.956697-191.990662-191.990662-191.990662-17.672498 0-31.998785-14.326287-31.998785-31.998785s14.326287-31.998785 31.998785-31.998785c141.377938 0 255.987209 114.609271 255.987208 255.987209 0 17.672498-14.326287 31.998785-31.998784 31.998785-17.671475 0.001023-31.997762-14.325263-31.997762-31.997762z m159.991878 0c0-194.394409-157.588131-351.983563-351.98254-351.983563-17.672498 0-31.998785-14.326287-31.998785-31.998785s14.326287-31.998785 31.998785-31.998785c229.739405 0 415.980109 186.240705 415.980109 415.98011 0 17.672498-14.326287 31.998785-31.998785 31.998785s-31.998785-14.325263-31.998784-31.997762z" /></svg>