<?xml version="1.0" standalone="no"?><!DOCTYPE svg PUBLIC "-//W3C//DTD SVG 1.1//EN" "http://www.w3.org/Graphics/SVG/1.1/DTD/svg11.dtd"><svg class="icon" width="200px" height="200.00px" viewBox="0 0 1024 1024" version="1.1" xmlns="http://www.w3.org/2000/svg"><path fill="#7766809|-1,7766810|-1,7766811|-1,7766812|-1,7766813|-1,7766814|-1,7766815|-1,7766816|-1,7766817|-1,7766818|-1,7766819|-1,7766820|-1,7772174|-1,7772175|-1,7772176|-1,7772177|-1,7772178|-1,7772179|-1,7772180|-1,7772181|-1" d="M288.010553 863.98254c0-17.672498 14.034645-31.998785 31.957852-31.998785H928.020018c17.649985 0 31.958876 14.20349 31.958876 31.998785 0 17.672498-14.034645 31.998785-31.958876 31.998785H319.968405c-17.649985 0-31.957853-14.202467-31.957852-31.998785z m0-351.98254c0-17.672498 14.034645-31.998785 31.957852-31.998785H928.020018c17.649985 0 31.958876 14.202467 31.958876 31.998785 0 17.672498-14.034645 31.998785-31.958876 31.998785H319.968405c-17.649985 0-31.957853-14.20349-31.957852-31.998785z m0-351.983563c0-17.672498 14.034645-31.998785 31.957852-31.998785H928.020018c17.649985 0 31.958876 14.202467 31.958876 31.998785 0 17.672498-14.034645 31.998785-31.958876 31.998785H319.968405c-17.649985 0-31.957853-14.202467-31.957852-31.998785zM64.021106 863.98254c0-17.672498 14.198374-31.998785 31.992645-31.998785h96.007611c17.668405 0 31.992645 14.20349 31.992645 31.998785 0 17.672498-14.198374 31.998785-31.992645 31.998785h-96.007611c-17.669428 0-31.992645-14.202467-31.992645-31.998785z m0-351.98254c0-17.672498 14.198374-31.998785 31.992645-31.998785h96.007611c17.668405 0 31.992645 14.202467 31.992645 31.998785 0 17.672498-14.198374 31.998785-31.992645 31.998785h-96.007611c-17.669428 0-31.992645-14.20349-31.992645-31.998785z m0-351.983563c0-17.672498 14.198374-31.998785 31.992645-31.998785h96.007611c17.668405 0 31.992645 14.202467 31.992645 31.998785 0 17.672498-14.198374 31.998785-31.992645 31.998785h-96.007611c-17.669428 0-31.992645-14.202467-31.992645-31.998785z" /></svg>