<?xml version="1.0" standalone="no"?><!DOCTYPE svg PUBLIC "-//W3C//DTD SVG 1.1//EN" "http://www.w3.org/Graphics/SVG/1.1/DTD/svg11.dtd"><svg class="icon" width="200px" height="200.00px" viewBox="0 0 1024 1024" version="1.1" xmlns="http://www.w3.org/2000/svg"><path fill="#7766809|-1,7766810|-1,7766811|-1,7766812|-1,7766813|-1,7766814|-1,7766815|-1,7766816|-1,7766817|-1,7766818|-1,7766819|-1,7766820|-1,7772174|-1,7772175|-1,7772176|-1,7772177|-1,7772178|-1,7772179|-1,7772180|-1,7772181|-1" d="M912.945695 320.583412h-41.439808l-13.731746-54.583152c-10.717086-42.60433-48.882314-72.356958-92.810802-72.356958H486.407112c-6.807033 0-13.568017-2.227738-19.020192-6.277984l-95.614662-71.01745c-16.403598-12.166087-36.669154-18.86465-57.060577-18.86465H112.313995c-52.777017 0-95.707782 42.931788-95.707782 95.707783v624.571868c-0.615007 4.393054-1.25969 8.782014-1.25969 13.264095 0 52.772924 42.933835 95.707782 95.707782 95.707782h663.645792a95.591125 95.591125 0 0 0 90.796936-65.437362l138.244574-414.738839a95.55224 95.55224 0 0 0 4.912893-30.26735c-0.001023-52.771901-42.935881-95.707782-95.708805-95.707783zM112.313995 161.288406H314.711681c6.791683 0 13.552667 2.243087 19.020193 6.293334l95.614661 71.01745c16.387225 12.150738 36.653805 18.848277 57.060577 18.848277h278.556227c14.642488 0 27.353998 9.923 30.936593 24.12956l9.813506 39.006385H276.948613c-39.368636 0-74.250074 23.61893-88.865957 60.171428L80.411401 649.930419V193.191001c0-17.58654 14.31503-31.902594 31.902594-31.902595z m830.897004 265.093611L804.966425 841.116763a31.906687 31.906687 0 0 1-30.267351 21.812795h-663.644769c-16.490579 0-29.589922-12.672624-31.259958-28.721135 0.105401-1.055029 0.617054-1.974981 0.617054-3.056616v-6.66684c0.3776-1.768273 0.346901-3.617387 1.022283-5.303796l165.894308-414.734746a31.897478 31.897478 0 0 1 29.620621-20.055778h635.997082c17.618263 0 31.902594 14.284331 31.902594 31.902594 0 3.426029-0.552585 6.833639-1.63729 10.088776z" /></svg>