<?xml version="1.0" standalone="no"?><!DOCTYPE svg PUBLIC "-//W3C//DTD SVG 1.1//EN" "http://www.w3.org/Graphics/SVG/1.1/DTD/svg11.dtd"><svg class="icon" width="200px" height="200.00px" viewBox="0 0 1024 1024" version="1.1" xmlns="http://www.w3.org/2000/svg"><path fill="#7772222|-1,7772223|-1,7772224|-1,7772225|-1,7772226|-1,7772227|-1,7772228|-1,7772229|-1,7772230|-1,7772231|-1,7772232|-1,7772233|-1,7772234|-1,7772235|-1,7772236|-1,7772237|-1,7772238|-1,7772239|-1,7772240|-1,7772241|-1" d="M160.016437 64.021106h223.989447c53.016471 0 95.995331 42.97886 95.995331 95.995331v223.989447c0 53.016471-42.97886 95.995331-95.995331 95.995331H160.016437c-53.016471 0-95.995331-42.97886-95.995331-95.995331V160.016437c0-53.016471 42.97886-95.995331 95.995331-95.995331z m0 479.977679h223.989447c53.016471 0 95.995331 42.97886 95.995331 95.995331v223.989447c0 53.016471-42.97886 95.995331-95.995331 95.995331H160.016437c-53.016471 0-95.995331-42.97886-95.995331-95.995331V639.994116c0-53.017494 42.97886-95.995331 95.995331-95.995331zM639.994116 64.021106h223.989447c53.016471 0 95.995331 42.97886 95.995331 95.995331v223.989447c0 53.016471-42.97886 95.995331-95.995331 95.995331H639.994116c-53.016471 0-95.995331-42.97886-95.995331-95.995331V160.016437c0-53.016471 42.977837-95.995331 95.995331-95.995331z m0 479.977679h223.989447c53.016471 0 95.995331 42.97886 95.995331 95.995331v223.989447c0 53.016471-42.97886 95.995331-95.995331 95.995331H639.994116c-53.016471 0-95.995331-42.97886-95.995331-95.995331V639.994116c0-53.017494 42.977837-95.995331 95.995331-95.995331z" /></svg>