<?xml version="1.0" standalone="no"?><!DOCTYPE svg PUBLIC "-//W3C//DTD SVG 1.1//EN" "http://www.w3.org/Graphics/SVG/1.1/DTD/svg11.dtd"><svg class="icon" width="200px" height="200.00px" viewBox="0 0 1024 1024" version="1.1" xmlns="http://www.w3.org/2000/svg"><path fill="#7766789|-1,7766790|-1,7766791|-1,7766792|-1,7766793|-1,7766794|-1,7766795|-1,7766796|-1,7766797|-1,7766798|-1,7766799|-1,7766800|-1,7766801|-1,7766802|-1,7766803|-1,7766804|-1,7766805|-1,7766806|-1,7766807|-1,7766808|-1" d="M176.015829 128.018675c-26.508747 0-47.998177 21.48943-47.998177 47.998178v191.990662c0 26.508747 21.48943 47.998177 47.998177 47.998177h191.990663c26.508747 0 47.998177-21.48943 47.998177-47.998177V176.015829c0-26.508747-21.48943-47.998177-47.998177-47.998177H176.015829z m-15.999392-63.997569h223.989447c53.016471 0 95.995331 42.97886 95.995331 95.995331v223.989447c0 53.016471-42.97886 95.995331-95.995331 95.995331H160.016437c-53.016471 0-95.995331-42.97886-95.995331-95.995331V160.016437c0-53.016471 42.97886-95.995331 95.995331-95.995331z m0 543.974225c-17.672498 0-31.998785 14.326287-31.998785 31.998785v223.989447c0 17.672498 14.326287 31.998785 31.998785 31.998785h223.989447c17.672498 0 31.998785-14.326287 31.998785-31.998785V639.994116c0-17.672498-14.326287-31.998785-31.998785-31.998785H160.016437z m0-63.996546h223.989447c53.016471 0 95.995331 42.97886 95.995331 95.995331v223.989447c0 53.016471-42.97886 95.995331-95.995331 95.995331H160.016437c-53.016471 0-95.995331-42.97886-95.995331-95.995331V639.994116c0-53.017494 42.97886-95.995331 95.995331-95.995331zM639.994116 128.018675c-17.672498 0-31.998785 14.326287-31.998785 31.998785v223.989447c0 17.672498 14.326287 31.998785 31.998785 31.998785h223.989447c17.672498 0 31.998785-14.326287 31.998785-31.998785V160.016437c0-17.672498-14.326287-31.998785-31.998785-31.998785H639.994116z m0-63.997569h223.989447c53.016471 0 95.995331 42.97886 95.995331 95.995331v223.989447c0 53.016471-42.97886 95.995331-95.995331 95.995331H639.994116c-53.016471 0-95.995331-42.97886-95.995331-95.995331V160.016437c0-53.016471 42.977837-95.995331 95.995331-95.995331z m0 543.974225c-17.672498 0-31.998785 14.326287-31.998785 31.998785v223.989447c0 17.672498 14.326287 31.998785 31.998785 31.998785h223.989447c17.672498 0 31.998785-14.326287 31.998785-31.998785V639.994116c0-17.672498-14.326287-31.998785-31.998785-31.998785H639.994116z m0-63.996546h223.989447c53.016471 0 95.995331 42.97886 95.995331 95.995331v223.989447c0 53.016471-42.97886 95.995331-95.995331 95.995331H639.994116c-53.016471 0-95.995331-42.97886-95.995331-95.995331V639.994116c0-53.017494 42.977837-95.995331 95.995331-95.995331z" /></svg>