<?xml version="1.0" standalone="no"?><!DOCTYPE svg PUBLIC "-//W3C//DTD SVG 1.1//EN" "http://www.w3.org/Graphics/SVG/1.1/DTD/svg11.dtd"><svg class="icon" width="200px" height="200.00px" viewBox="0 0 1024 1024" version="1.1" xmlns="http://www.w3.org/2000/svg"><path fill="#7766809|-1,7766810|-1,7766811|-1,7766812|-1,7766813|-1,7766814|-1,7766815|-1,7766816|-1,7766817|-1,7766818|-1,7766819|-1,7766820|-1,7772174|-1,7772175|-1,7772176|-1,7772177|-1,7772178|-1,7772179|-1,7772180|-1,7772181|-1" d="M739.452315 815.985386c-35.344996 0-63.996546-28.652574-63.996546-63.996546 0-35.344996 28.652574-63.996546 63.996546-63.996547s63.996546 28.652574 63.996547 63.996547-28.652574 63.996546-63.996547 63.996546z m-79.54773-207.990055a31.998785 31.998785 0 0 0-29.05371 18.589381l-45.50131 98.585319a63.995523 63.995523 0 0 0 0 53.636594l45.50131 98.585319a31.998785 31.998785 0 0 0 29.05371 18.589381h165.144224a31.998785 31.998785 0 0 0 29.053709-18.589381l45.501311-98.585319a63.995523 63.995523 0 0 0 0-53.636594l-45.501311-98.585319a31.998785 31.998785 0 0 0-29.053709-18.589381H659.904585z m0-63.996546h165.144224c37.443797 0 71.468728 21.770839 87.160105 55.768141l45.50131 98.585319a127.991046 127.991046 0 0 1 0 107.273189l-45.50131 98.585319c-15.690354 33.997302-49.716308 55.768141-87.160105 55.768141H659.904585c-37.443797 0-71.468728-21.770839-87.160106-55.768141l-45.50131-98.585319a127.991046 127.991046 0 0 1 0-107.273189l45.50131-98.585319c15.690354-33.998325 49.716308-55.768141 87.160106-55.768141zM166.504198 128.018675c-26.508747 0-47.998177 21.48943-47.998177 47.998178v191.990662c0 26.508747 21.48943 47.998177 47.998177 47.998177h191.990662c26.508747 0 47.998177-21.48943 47.998178-47.998177V176.015829c0-26.508747-21.48943-47.998177-47.998178-47.998177H166.504198z m-15.999392-63.997569h223.989447c53.016471 0 95.995331 42.97886 95.995331 95.995331v223.989447c0 53.016471-42.97886 95.995331-95.995331 95.995331H150.504806c-53.016471 0-95.995331-42.97886-95.995331-95.995331V160.016437c0-53.016471 42.97886-95.995331 95.995331-95.995331z m0 543.974225c-17.672498 0-31.998785 14.326287-31.998785 31.998785v223.989447c0 17.672498 14.326287 31.998785 31.998785 31.998785h223.989447c17.672498 0 31.998785-14.326287 31.998785-31.998785V639.994116c0-17.672498-14.326287-31.998785-31.998785-31.998785H150.504806z m0-63.996546h223.989447c53.016471 0 95.995331 42.97886 95.995331 95.995331v223.989447c0 53.016471-42.97886 95.995331-95.995331 95.995331H150.504806c-53.016471 0-95.995331-42.97886-95.995331-95.995331V639.994116c0-53.017494 42.97886-95.995331 95.995331-95.995331zM630.481462 128.018675c-17.672498 0-31.998785 14.326287-31.998785 31.998785v223.989447c0 17.672498 14.326287 31.998785 31.998785 31.998785h223.989447c17.672498 0 31.998785-14.326287 31.998785-31.998785V160.016437c0-17.672498-14.326287-31.998785-31.998785-31.998785H630.481462z m0-63.997569h223.989447c53.016471 0 95.995331 42.97886 95.995331 95.995331v223.989447c0 53.016471-42.97886 95.995331-95.995331 95.995331H630.481462c-53.016471 0-95.995331-42.97886-95.995332-95.995331V160.016437c0-53.016471 42.97886-95.995331 95.995332-95.995331z" /></svg>